<svg xmlns="http://www.w3.org/2000/svg" xmlns:xlink="http://www.w3.org/1999/xlink" width="40" zoomAndPan="magnify" viewBox="0 0 30 30.000001" height="40" preserveAspectRatio="xMidYMid meet" version="1.0"><defs><g/><clipPath id="64b8c777b1"><path d="M 1.136719 0.652344 L 29.515625 0.652344 L 29.515625 29.03125 L 1.136719 29.03125 Z M 1.136719 0.652344 " clip-rule="nonzero"/></clipPath><clipPath id="35e14e3c36"><path d="M 15.328125 0.652344 C 7.488281 0.652344 1.136719 7.007812 1.136719 14.84375 C 1.136719 22.679688 7.488281 29.03125 15.328125 29.03125 C 23.164062 29.03125 29.515625 22.679688 29.515625 14.84375 C 29.515625 7.007812 23.164062 0.652344 15.328125 0.652344 Z M 15.328125 0.652344 " clip-rule="nonzero"/></clipPath><clipPath id="294c16163c"><path d="M 0.136719 0.652344 L 28.515625 0.652344 L 28.515625 29.03125 L 0.136719 29.03125 Z M 0.136719 0.652344 " clip-rule="nonzero"/></clipPath><clipPath id="0c36ec6e6d"><path d="M 14.328125 0.652344 C 6.488281 0.652344 0.136719 7.007812 0.136719 14.84375 C 0.136719 22.679688 6.488281 29.03125 14.328125 29.03125 C 22.164062 29.03125 28.515625 22.679688 28.515625 14.84375 C 28.515625 7.007812 22.164062 0.652344 14.328125 0.652344 Z M 14.328125 0.652344 " clip-rule="nonzero"/></clipPath><clipPath id="55bd1cb3f7"><rect x="0" width="29" y="0" height="30"/></clipPath></defs><g clip-path="url(#64b8c777b1)"><g clip-path="url(#35e14e3c36)"><g transform="matrix(1, 0, 0, 1, 1, 0.000000000000005718)"><g clip-path="url(#55bd1cb3f7)"><g clip-path="url(#294c16163c)"><g clip-path="url(#0c36ec6e6d)"><path fill="#faf2f3" d="M 0.136719 0.652344 L 28.515625 0.652344 L 28.515625 29.03125 L 0.136719 29.03125 Z M 0.136719 0.652344 " fill-opacity="1" fill-rule="nonzero"/></g></g></g></g></g></g><g fill="#cc5e7f" fill-opacity="1"><g transform="translate(8.442435, 27.399731)"><g><path d="M 7.046875 -4.40625 L 9.921875 -23.9375 L 13.375 -23.9375 L 9.671875 0 L 4.0625 0 L 0.375 -23.9375 L 4.171875 -23.9375 Z M 7.046875 -4.40625 "/></g></g></g></svg>