<svg xmlns="http://www.w3.org/2000/svg" xmlns:xlink="http://www.w3.org/1999/xlink" width="100" zoomAndPan="magnify" viewBox="0 0 75.119995 83.04" height="100" preserveAspectRatio="xMidYMid meet" version="1.0"><defs><clipPath id="f4bc8e67b0"><path d="M 0 0.0078125 L 74.132812 0.0078125 L 74.132812 74.136719 L 0 74.136719 Z M 0 0.0078125 " clip-rule="nonzero"/></clipPath><clipPath id="e654094272"><path d="M 2.425781 2.433594 L 71.703125 2.433594 L 71.703125 71.710938 L 2.425781 71.710938 Z M 2.425781 2.433594 " clip-rule="nonzero"/></clipPath><clipPath id="67a21ad757"><path d="M 37.066406 2.433594 C 17.9375 2.433594 2.425781 17.941406 2.425781 37.070312 C 2.425781 56.203125 17.9375 71.710938 37.066406 71.710938 C 56.195312 71.710938 71.703125 56.203125 71.703125 37.070312 C 71.703125 17.941406 56.195312 2.433594 37.066406 2.433594 Z M 37.066406 2.433594 " clip-rule="nonzero"/></clipPath><clipPath id="f1229c55fc"><path d="M 0.425781 0.433594 L 69.703125 0.433594 L 69.703125 69.710938 L 0.425781 69.710938 Z M 0.425781 0.433594 " clip-rule="nonzero"/></clipPath><clipPath id="bd689edd25"><path d="M 35.066406 0.433594 C 15.9375 0.433594 0.425781 15.941406 0.425781 35.070312 C 0.425781 54.203125 15.9375 69.710938 35.066406 69.710938 C 54.195312 69.710938 69.703125 54.203125 69.703125 35.070312 C 69.703125 15.941406 54.195312 0.433594 35.066406 0.433594 Z M 35.066406 0.433594 " clip-rule="nonzero"/></clipPath><clipPath id="ffdf7e0fd1"><rect x="0" width="70" y="0" height="70"/></clipPath><clipPath id="6cb9e57da4"><path d="M 2.425781 2.433594 L 71.371094 2.433594 L 71.371094 71.375 L 2.425781 71.375 Z M 2.425781 2.433594 " clip-rule="nonzero"/></clipPath><clipPath id="ea1f31ff1e"><path d="M 37.0625 2.433594 C 17.933594 2.433594 2.425781 17.941406 2.425781 37.066406 C 2.425781 56.195312 17.933594 71.699219 37.0625 71.699219 C 56.1875 71.699219 71.695312 56.195312 71.695312 37.066406 C 71.695312 17.941406 56.1875 2.433594 37.0625 2.433594 Z M 37.0625 2.433594 " clip-rule="nonzero"/></clipPath><clipPath id="8c21198dfe"><path d="M 19.34375 34.75 L 45.695312 34.75 L 45.695312 58.878906 L 19.34375 58.878906 Z M 19.34375 34.75 " clip-rule="nonzero"/></clipPath><clipPath id="06a8adc7a6"><path d="M 19.34375 40.132812 C 19.589844 37.140625 19.761719 36.171875 20.292969 35.667969 C 20.839844 35.144531 21.929688 34.976562 22.699219 34.847656 C 23.375 34.734375 23.992188 34.84375 24.660156 34.851562 C 25.351562 34.859375 26.078125 34.898438 26.769531 34.902344 C 27.4375 34.914062 28.085938 34.902344 28.742188 34.902344 C 29.402344 34.902344 30.042969 34.898438 30.714844 34.898438 C 31.425781 34.898438 32.171875 34.898438 32.894531 34.898438 C 33.617188 34.898438 34.328125 34.898438 35.042969 34.898438 C 35.761719 34.894531 36.472656 34.894531 37.195312 34.894531 C 37.914062 34.894531 38.667969 34.859375 39.378906 34.894531 C 40.0625 34.925781 40.78125 34.808594 41.367188 35.085938 C 41.996094 35.386719 42.679688 36.09375 42.996094 36.726562 C 43.292969 37.3125 43.238281 38.050781 43.296875 38.71875 C 43.351562 39.386719 43.335938 40.066406 43.347656 40.734375 C 43.351562 41.386719 43.351562 42.027344 43.34375 42.679688 C 43.332031 43.34375 43.296875 44.007812 43.289062 44.679688 C 43.277344 45.363281 43.300781 46.0625 43.28125 46.757812 C 43.261719 47.460938 43.113281 48.230469 43.160156 48.875 C 43.199219 49.421875 43.371094 50.320312 43.457031 50.386719 C 43.472656 50.394531 43.480469 50.382812 43.5 50.382812 C 43.574219 50.382812 43.820312 50.375 43.976562 50.402344 C 44.132812 50.421875 44.285156 50.464844 44.433594 50.53125 C 44.578125 50.589844 44.722656 50.667969 44.84375 50.761719 C 44.972656 50.855469 45.089844 50.96875 45.191406 51.089844 C 45.289062 51.210938 45.378906 51.34375 45.449219 51.488281 C 45.515625 51.632812 45.570312 51.785156 45.601562 51.9375 C 45.636719 52.089844 45.648438 52.253906 45.644531 52.414062 C 45.640625 52.566406 45.609375 52.730469 45.570312 52.882812 C 45.527344 53.03125 45.394531 53.300781 45.386719 53.316406 C 45.386719 53.316406 45.386719 53.316406 45.386719 53.320312 C 45.382812 53.328125 45.398438 53.464844 45.398438 53.46875 C 45.398438 53.476562 45.363281 53.691406 45.359375 53.738281 C 45.355469 53.75 45.355469 53.75 45.355469 53.769531 C 45.347656 53.859375 45.480469 54.222656 45.4375 54.519531 C 45.367188 55.011719 45.007812 55.917969 44.621094 56.421875 C 44.277344 56.875 43.714844 57.132812 43.308594 57.472656 C 42.945312 57.78125 42.738281 58.144531 42.308594 58.367188 C 41.761719 58.648438 40.890625 58.792969 40.1875 58.847656 C 39.515625 58.894531 38.832031 58.921875 38.191406 58.695312 C 37.484375 58.445312 36.726562 57.847656 36.160156 57.316406 C 35.640625 56.820312 34.832031 55.742188 34.886719 55.644531 C 34.902344 55.621094 35.015625 55.683594 35.023438 55.664062 C 35.050781 55.625 34.738281 55.402344 34.707031 55.269531 C 34.679688 55.148438 34.820312 55.007812 34.796875 54.902344 C 34.773438 54.804688 34.625 54.734375 34.578125 54.652344 C 34.546875 54.582031 34.59375 54.492188 34.53125 54.445312 C 34.335938 54.300781 33.316406 54.523438 32.664062 54.546875 C 31.957031 54.566406 31.183594 54.546875 30.433594 54.570312 C 29.667969 54.601562 28.890625 54.671875 28.109375 54.707031 C 27.324219 54.738281 26.496094 54.804688 25.734375 54.785156 C 25.03125 54.765625 24.375 54.78125 23.71875 54.597656 C 23.015625 54.402344 22.191406 54.085938 21.652344 53.613281 C 21.136719 53.160156 20.796875 52.472656 20.523438 51.855469 C 20.261719 51.25 20.152344 50.609375 20.035156 49.957031 C 19.917969 49.277344 19.886719 48.582031 19.828125 47.851562 C 19.769531 47.054688 19.703125 45.507812 19.6875 45.363281 C 19.6875 45.355469 19.6875 45.355469 19.683594 45.34375 C 19.683594 45.324219 19.679688 45.289062 19.683594 45.246094 C 19.683594 45.175781 19.699219 45.058594 19.703125 44.96875 C 19.710938 44.875 19.722656 44.691406 19.722656 44.6875 C 19.722656 44.6875 19.734375 44.664062 19.738281 44.648438 C 19.738281 44.628906 19.730469 44.617188 19.722656 44.578125 C 19.695312 44.351562 19.554688 42.988281 19.492188 42.226562 C 19.433594 41.503906 19.34375 40.132812 19.34375 40.132812 " clip-rule="nonzero"/></clipPath><clipPath id="286e7c5444"><path d="M 0.34375 0.75 L 26.695312 0.75 L 26.695312 24.878906 L 0.34375 24.878906 Z M 0.34375 0.75 " clip-rule="nonzero"/></clipPath><clipPath id="9272906c02"><path d="M 0.34375 6.132812 C 0.589844 3.140625 0.761719 2.171875 1.292969 1.667969 C 1.839844 1.144531 2.929688 0.976562 3.699219 0.847656 C 4.375 0.734375 4.992188 0.84375 5.660156 0.851562 C 6.351562 0.859375 7.078125 0.898438 7.769531 0.902344 C 8.4375 0.914062 9.085938 0.902344 9.742188 0.902344 C 10.402344 0.902344 11.042969 0.898438 11.714844 0.898438 C 12.425781 0.898438 13.171875 0.898438 13.894531 0.898438 C 14.617188 0.898438 15.328125 0.898438 16.042969 0.898438 C 16.761719 0.894531 17.472656 0.894531 18.195312 0.894531 C 18.914062 0.894531 19.667969 0.859375 20.378906 0.894531 C 21.0625 0.925781 21.78125 0.808594 22.367188 1.085938 C 22.996094 1.386719 23.679688 2.09375 23.996094 2.726562 C 24.292969 3.3125 24.238281 4.050781 24.296875 4.71875 C 24.351562 5.386719 24.335938 6.066406 24.347656 6.734375 C 24.351562 7.386719 24.351562 8.027344 24.34375 8.679688 C 24.332031 9.34375 24.296875 10.007812 24.289062 10.679688 C 24.277344 11.363281 24.300781 12.0625 24.28125 12.757812 C 24.261719 13.460938 24.113281 14.230469 24.160156 14.875 C 24.199219 15.421875 24.371094 16.320312 24.457031 16.386719 C 24.472656 16.394531 24.480469 16.382812 24.5 16.382812 C 24.574219 16.382812 24.820312 16.375 24.976562 16.402344 C 25.132812 16.421875 25.285156 16.464844 25.433594 16.53125 C 25.578125 16.589844 25.722656 16.667969 25.84375 16.761719 C 25.972656 16.855469 26.089844 16.96875 26.191406 17.089844 C 26.289062 17.210938 26.378906 17.34375 26.449219 17.488281 C 26.515625 17.632812 26.570312 17.785156 26.601562 17.9375 C 26.636719 18.089844 26.648438 18.253906 26.644531 18.414062 C 26.640625 18.566406 26.609375 18.730469 26.570312 18.882812 C 26.527344 19.03125 26.394531 19.300781 26.386719 19.316406 C 26.386719 19.316406 26.386719 19.316406 26.386719 19.320312 C 26.382812 19.328125 26.398438 19.464844 26.398438 19.46875 C 26.398438 19.476562 26.363281 19.691406 26.359375 19.738281 C 26.355469 19.75 26.355469 19.75 26.355469 19.769531 C 26.347656 19.859375 26.480469 20.222656 26.4375 20.519531 C 26.367188 21.011719 26.007812 21.917969 25.621094 22.421875 C 25.277344 22.875 24.714844 23.132812 24.308594 23.472656 C 23.945312 23.78125 23.738281 24.144531 23.308594 24.367188 C 22.761719 24.648438 21.890625 24.792969 21.1875 24.847656 C 20.515625 24.894531 19.832031 24.921875 19.191406 24.695312 C 18.484375 24.445312 17.726562 23.847656 17.160156 23.316406 C 16.640625 22.820312 15.832031 21.742188 15.886719 21.644531 C 15.902344 21.621094 16.015625 21.683594 16.023438 21.664062 C 16.050781 21.625 15.738281 21.402344 15.707031 21.269531 C 15.679688 21.148438 15.820312 21.007812 15.796875 20.902344 C 15.773438 20.804688 15.625 20.734375 15.578125 20.652344 C 15.546875 20.582031 15.59375 20.492188 15.53125 20.445312 C 15.335938 20.300781 14.316406 20.523438 13.664062 20.546875 C 12.957031 20.566406 12.183594 20.546875 11.433594 20.570312 C 10.667969 20.601562 9.890625 20.671875 9.109375 20.707031 C 8.324219 20.738281 7.496094 20.804688 6.734375 20.785156 C 6.03125 20.765625 5.375 20.78125 4.71875 20.597656 C 4.015625 20.402344 3.191406 20.085938 2.652344 19.613281 C 2.136719 19.160156 1.796875 18.472656 1.523438 17.855469 C 1.261719 17.25 1.152344 16.609375 1.035156 15.957031 C 0.917969 15.277344 0.886719 14.582031 0.828125 13.851562 C 0.769531 13.054688 0.703125 11.507812 0.6875 11.363281 C 0.6875 11.355469 0.6875 11.355469 0.683594 11.34375 C 0.683594 11.324219 0.679688 11.289062 0.683594 11.246094 C 0.683594 11.175781 0.699219 11.058594 0.703125 10.96875 C 0.710938 10.875 0.722656 10.691406 0.722656 10.6875 C 0.722656 10.6875 0.734375 10.664062 0.738281 10.648438 C 0.738281 10.628906 0.730469 10.617188 0.722656 10.578125 C 0.695312 10.351562 0.554688 8.988281 0.492188 8.226562 C 0.433594 7.503906 0.34375 6.132812 0.34375 6.132812 " clip-rule="nonzero"/></clipPath><clipPath id="8febbad50e"><rect x="0" width="27" y="0" height="25"/></clipPath><clipPath id="a64872e1be"><path d="M 13.609375 12.214844 L 41 12.214844 L 41 44.648438 L 13.609375 44.648438 Z M 13.609375 12.214844 " clip-rule="nonzero"/></clipPath><clipPath id="27f77ce1ce"><path d="M 22.945312 34.011719 C 23.121094 33.183594 24.214844 33.5 24.300781 33.304688 C 24.382812 33.117188 23.582031 32.199219 23.402344 32.21875 C 23.308594 32.222656 23.234375 32.550781 23.214844 32.546875 C 23.199219 32.539062 23.238281 32.328125 23.273438 32.222656 C 23.300781 32.121094 23.351562 32.015625 23.40625 31.925781 C 23.460938 31.832031 23.53125 31.746094 23.601562 31.671875 C 23.683594 31.589844 23.773438 31.523438 23.859375 31.46875 C 23.953125 31.410156 24.054688 31.363281 24.15625 31.335938 C 24.261719 31.300781 24.371094 31.28125 24.476562 31.273438 C 24.585938 31.265625 24.695312 31.269531 24.804688 31.289062 C 24.910156 31.308594 25.015625 31.34375 25.117188 31.390625 C 25.214844 31.433594 25.308594 31.488281 25.398438 31.558594 C 25.480469 31.621094 25.5625 31.699219 25.625 31.785156 C 25.695312 31.867188 25.753906 31.96875 25.796875 32.066406 C 25.84375 32.164062 25.871094 32.230469 25.890625 32.378906 C 25.945312 32.699219 26.164062 33.566406 25.902344 33.984375 C 25.585938 34.476562 24.339844 35.09375 23.832031 34.960938 C 23.421875 34.851562 23.160156 34.246094 22.957031 33.726562 C 22.695312 33.050781 22.832031 31.878906 22.628906 31.160156 C 22.476562 30.609375 22.425781 30.273438 21.996094 29.742188 C 21.101562 28.632812 17.496094 26.566406 16.449219 25.664062 C 15.996094 25.28125 15.839844 25.09375 15.539062 24.761719 C 15.214844 24.402344 14.839844 24.003906 14.574219 23.582031 C 14.3125 23.15625 14.101562 22.671875 13.945312 22.222656 C 13.804688 21.8125 13.695312 21.445312 13.660156 21.003906 C 13.621094 20.480469 13.730469 19.828125 13.796875 19.289062 C 13.867188 18.792969 13.945312 18.335938 14.070312 17.882812 C 14.1875 17.433594 14.34375 16.976562 14.53125 16.578125 C 14.707031 16.191406 14.886719 15.832031 15.164062 15.507812 C 15.453125 15.167969 15.753906 14.902344 16.265625 14.601562 C 17.121094 14.097656 18.898438 13.457031 20.039062 13.097656 C 20.945312 12.804688 21.847656 12.632812 22.535156 12.484375 C 23.011719 12.386719 23.3125 12.277344 23.746094 12.261719 C 24.246094 12.238281 24.847656 12.347656 25.351562 12.425781 C 25.8125 12.488281 26.144531 12.550781 26.648438 12.679688 C 27.394531 12.859375 28.492188 13.191406 29.371094 13.484375 C 30.214844 13.769531 31.195312 14.097656 31.828125 14.414062 C 32.257812 14.625 32.503906 14.808594 32.859375 15.066406 C 33.28125 15.367188 33.769531 15.75 34.164062 16.140625 C 34.558594 16.53125 34.886719 17.035156 35.242188 17.40625 C 35.554688 17.738281 35.878906 17.941406 36.175781 18.28125 C 36.515625 18.675781 36.777344 19.117188 37.136719 19.671875 C 37.628906 20.453125 38.445312 21.746094 38.820312 22.539062 C 39.074219 23.0625 39.179688 23.445312 39.335938 23.890625 C 39.484375 24.320312 39.605469 24.726562 39.726562 25.167969 C 39.851562 25.644531 39.960938 26.09375 40.070312 26.660156 C 40.214844 27.386719 40.382812 28.320312 40.464844 29.167969 C 40.554688 30.042969 40.664062 31.078125 40.59375 31.828125 C 40.539062 32.402344 40.4375 32.875 40.234375 33.3125 C 40.046875 33.710938 39.773438 34.078125 39.460938 34.363281 C 39.15625 34.652344 38.675781 34.953125 38.390625 35.03125 C 38.226562 35.082031 38.097656 35.046875 37.964844 35.03125 C 37.847656 35.015625 37.734375 34.980469 37.625 34.941406 C 37.515625 34.898438 37.40625 34.839844 37.3125 34.769531 C 37.214844 34.699219 37.125 34.621094 37.046875 34.53125 C 36.972656 34.4375 36.902344 34.339844 36.851562 34.234375 C 36.800781 34.125 36.753906 34.011719 36.730469 33.898438 C 36.703125 33.785156 36.691406 33.660156 36.691406 33.542969 C 36.695312 33.429688 36.710938 33.304688 36.738281 33.191406 C 36.769531 33.078125 36.8125 32.964844 36.871094 32.863281 C 36.925781 32.757812 37 32.660156 37.082031 32.570312 C 37.160156 32.484375 37.25 32.40625 37.347656 32.34375 C 37.445312 32.273438 37.554688 32.21875 37.667969 32.179688 C 37.777344 32.140625 37.863281 32.121094 38.015625 32.101562 C 38.300781 32.066406 39.242188 31.96875 39.285156 32.09375 C 39.328125 32.222656 38.238281 32.605469 38.257812 32.890625 C 38.28125 33.316406 40.292969 33.75 40.703125 34.3125 C 40.980469 34.691406 40.949219 35.074219 40.980469 35.570312 C 41.019531 36.261719 40.8125 37.378906 40.714844 38.09375 C 40.632812 38.632812 40.53125 39.039062 40.472656 39.503906 C 40.417969 39.953125 40.386719 40.328125 40.363281 40.832031 C 40.335938 41.503906 40.402344 42.695312 40.363281 43.179688 C 40.34375 43.398438 40.335938 43.5 40.28125 43.648438 C 40.234375 43.796875 40.160156 43.941406 40.066406 44.066406 C 39.96875 44.195312 39.847656 44.308594 39.71875 44.390625 C 39.589844 44.480469 39.4375 44.550781 39.289062 44.59375 C 39.136719 44.632812 38.972656 44.652344 38.816406 44.644531 C 38.660156 44.632812 38.5 44.597656 38.355469 44.539062 C 38.207031 44.484375 38.070312 44.394531 37.949219 44.296875 C 37.832031 44.195312 37.722656 44.070312 37.640625 43.9375 C 37.558594 43.804688 37.5 43.644531 37.464844 43.496094 C 37.429688 43.34375 37.421875 43.175781 37.441406 43.023438 C 37.457031 42.871094 37.5 42.707031 37.566406 42.5625 C 37.632812 42.425781 37.726562 42.285156 37.832031 42.171875 C 37.941406 42.058594 38.074219 41.960938 38.210938 41.886719 C 38.351562 41.8125 38.503906 41.757812 38.660156 41.734375 C 38.816406 41.707031 38.976562 41.707031 39.136719 41.734375 C 39.289062 41.757812 39.449219 41.8125 39.582031 41.886719 C 39.71875 41.960938 39.851562 42.058594 39.960938 42.171875 C 40.070312 42.285156 40.160156 42.425781 40.230469 42.566406 C 40.292969 42.707031 40.335938 42.871094 40.351562 43.023438 C 40.371094 43.175781 40.363281 43.34375 40.328125 43.496094 C 40.292969 43.648438 40.234375 43.804688 40.15625 43.9375 C 40.070312 44.070312 39.960938 44.199219 39.84375 44.296875 C 39.726562 44.394531 39.585938 44.484375 39.4375 44.539062 C 39.292969 44.597656 39.132812 44.632812 38.972656 44.644531 C 38.820312 44.652344 38.65625 44.632812 38.503906 44.59375 C 38.355469 44.550781 38.203125 44.480469 38.074219 44.390625 C 37.945312 44.308594 37.828125 44.1875 37.726562 44.066406 C 37.632812 43.941406 37.558594 43.792969 37.511719 43.648438 C 37.457031 43.5 37.453125 43.402344 37.429688 43.179688 C 37.386719 42.617188 37.378906 41.183594 37.445312 40.207031 C 37.511719 39.257812 37.734375 38.300781 37.832031 37.398438 C 37.925781 36.554688 38.003906 35.625 38.035156 34.941406 C 38.054688 34.457031 37.96875 34.105469 38.039062 33.691406 C 38.109375 33.261719 38.132812 32.605469 38.464844 32.421875 C 38.914062 32.167969 40.597656 32.53125 40.851562 32.960938 C 41.054688 33.320312 40.71875 34.207031 40.34375 34.550781 C 39.925781 34.941406 38.722656 34.992188 38.324219 35.035156 C 38.15625 35.054688 38.082031 35.046875 37.96875 35.03125 C 37.851562 35.015625 37.734375 34.980469 37.625 34.941406 C 37.515625 34.898438 37.40625 34.839844 37.3125 34.769531 C 37.214844 34.699219 37.125 34.621094 37.050781 34.53125 C 36.972656 34.4375 36.902344 34.339844 36.851562 34.234375 C 36.800781 34.125 36.753906 34.011719 36.730469 33.898438 C 36.703125 33.785156 36.691406 33.660156 36.691406 33.542969 C 36.695312 33.429688 36.710938 33.304688 36.738281 33.191406 C 36.769531 33.078125 36.8125 32.964844 36.871094 32.863281 C 36.925781 32.757812 37 32.660156 37.082031 32.570312 C 37.160156 32.484375 37.25 32.40625 37.347656 32.34375 C 37.445312 32.273438 37.554688 32.21875 37.667969 32.179688 C 37.777344 32.140625 38.003906 32.148438 38.015625 32.101562 C 38.023438 32.042969 37.738281 32.007812 37.644531 31.839844 C 37.425781 31.4375 37.589844 30.136719 37.511719 29.261719 C 37.425781 28.347656 37.332031 27.222656 37.136719 26.464844 C 36.996094 25.925781 36.765625 25.570312 36.605469 25.128906 C 36.457031 24.695312 36.378906 24.242188 36.214844 23.835938 C 36.050781 23.445312 35.839844 23.101562 35.632812 22.730469 C 35.410156 22.339844 35.21875 22.007812 34.90625 21.5625 C 34.445312 20.898438 33.597656 19.789062 33.078125 19.175781 C 32.730469 18.773438 32.488281 18.496094 32.167969 18.199219 C 31.855469 17.910156 31.570312 17.664062 31.191406 17.421875 C 30.734375 17.128906 30.097656 16.828125 29.578125 16.621094 C 29.128906 16.433594 28.777344 16.351562 28.265625 16.191406 C 27.558594 15.980469 26.429688 15.707031 25.707031 15.480469 C 25.171875 15.3125 24.902344 15.011719 24.308594 14.984375 C 23.332031 14.945312 21.332031 15.683594 20.339844 16.019531 C 19.722656 16.230469 19.359375 16.457031 18.875 16.644531 C 18.410156 16.828125 17.804688 16.835938 17.484375 17.140625 C 17.171875 17.441406 17.089844 18.011719 16.953125 18.445312 C 16.8125 18.855469 16.699219 19.25 16.644531 19.679688 C 16.585938 20.125 16.546875 20.640625 16.636719 21.070312 C 16.71875 21.480469 16.90625 21.859375 17.132812 22.207031 C 17.367188 22.5625 17.707031 22.878906 18.015625 23.183594 C 18.320312 23.480469 18.546875 23.683594 18.972656 24.023438 C 19.730469 24.621094 21.46875 25.773438 22.21875 26.378906 C 22.640625 26.71875 22.855469 26.9375 23.167969 27.222656 C 23.488281 27.515625 23.84375 27.761719 24.117188 28.113281 C 24.398438 28.476562 24.617188 28.960938 24.824219 29.382812 C 25.011719 29.769531 25.179688 30.128906 25.304688 30.535156 C 25.4375 30.964844 25.605469 31.460938 25.570312 31.886719 C 25.535156 32.292969 25.4375 32.722656 25.144531 33.039062 C 24.761719 33.449219 23.484375 34.101562 23.203125 33.914062 C 22.972656 33.765625 23.1875 32.839844 23.214844 32.546875 C 23.226562 32.402344 23.238281 32.328125 23.273438 32.222656 C 23.300781 32.121094 23.351562 32.015625 23.40625 31.925781 C 23.460938 31.832031 23.53125 31.746094 23.601562 31.671875 C 23.683594 31.589844 23.765625 31.523438 23.859375 31.46875 C 23.953125 31.410156 24.054688 31.363281 24.15625 31.335938 C 24.261719 31.300781 24.371094 31.28125 24.476562 31.273438 C 24.585938 31.265625 24.695312 31.269531 24.804688 31.289062 C 24.910156 31.308594 25.015625 31.34375 25.117188 31.390625 C 25.214844 31.433594 25.308594 31.488281 25.398438 31.558594 C 25.480469 31.621094 25.5625 31.699219 25.625 31.785156 C 25.695312 31.867188 25.753906 31.96875 25.796875 32.066406 C 25.84375 32.160156 25.871094 32.261719 25.890625 32.378906 C 25.917969 32.496094 25.929688 32.605469 25.910156 32.765625 C 25.871094 33.078125 25.757812 33.714844 25.511719 34.0625 C 25.265625 34.398438 24.839844 34.683594 24.449219 34.820312 C 24.0625 34.945312 23.59375 34.960938 23.179688 34.863281 C 22.722656 34.757812 22.101562 34.496094 21.839844 34.152344 C 21.601562 33.839844 21.503906 33.339844 21.578125 32.960938 C 21.667969 32.535156 22.121094 32.089844 22.445312 31.746094 C 22.753906 31.417969 23.070312 30.984375 23.464844 30.917969 C 23.910156 30.851562 24.679688 31.132812 25.007812 31.511719 C 25.359375 31.921875 25.371094 32.863281 25.417969 33.375 C 25.445312 33.734375 25.441406 34.046875 25.371094 34.308594 C 25.320312 34.515625 25.199219 34.703125 25.101562 34.832031 C 25.027344 34.921875 24.957031 34.972656 24.878906 35.03125 C 24.792969 35.085938 24.71875 35.136719 24.613281 35.164062 C 24.457031 35.214844 24.1875 35.25 24.027344 35.238281 C 23.914062 35.230469 23.84375 35.214844 23.742188 35.164062 C 23.59375 35.101562 23.382812 34.976562 23.253906 34.832031 C 23.128906 34.691406 23.03125 34.460938 22.980469 34.308594 C 22.945312 34.199219 22.945312 34.011719 22.945312 34.011719 " clip-rule="nonzero"/></clipPath><clipPath id="960e47c94e"><path d="M 0.609375 0.214844 L 28 0.214844 L 28 32.648438 L 0.609375 32.648438 Z M 0.609375 0.214844 " clip-rule="nonzero"/></clipPath><clipPath id="3d7dcab08f"><path d="M 9.945312 22.011719 C 10.121094 21.183594 11.214844 21.5 11.300781 21.304688 C 11.382812 21.117188 10.582031 20.199219 10.402344 20.21875 C 10.308594 20.222656 10.234375 20.550781 10.214844 20.546875 C 10.199219 20.539062 10.238281 20.328125 10.273438 20.222656 C 10.300781 20.121094 10.351562 20.015625 10.40625 19.925781 C 10.460938 19.832031 10.53125 19.746094 10.601562 19.671875 C 10.683594 19.589844 10.773438 19.523438 10.859375 19.46875 C 10.953125 19.410156 11.054688 19.363281 11.15625 19.335938 C 11.261719 19.300781 11.371094 19.28125 11.476562 19.273438 C 11.585938 19.265625 11.695312 19.269531 11.804688 19.289062 C 11.910156 19.308594 12.015625 19.34375 12.117188 19.390625 C 12.214844 19.433594 12.308594 19.488281 12.398438 19.558594 C 12.480469 19.621094 12.5625 19.699219 12.625 19.785156 C 12.695312 19.867188 12.753906 19.96875 12.796875 20.066406 C 12.84375 20.164062 12.871094 20.230469 12.890625 20.378906 C 12.945312 20.699219 13.164062 21.566406 12.902344 21.984375 C 12.585938 22.476562 11.339844 23.09375 10.832031 22.960938 C 10.421875 22.851562 10.160156 22.246094 9.957031 21.726562 C 9.695312 21.050781 9.832031 19.878906 9.628906 19.160156 C 9.476562 18.609375 9.425781 18.273438 8.996094 17.742188 C 8.101562 16.632812 4.496094 14.566406 3.449219 13.664062 C 2.996094 13.28125 2.839844 13.09375 2.539062 12.761719 C 2.214844 12.402344 1.839844 12.003906 1.574219 11.582031 C 1.3125 11.15625 1.101562 10.671875 0.945312 10.222656 C 0.804688 9.8125 0.695312 9.445312 0.660156 9.003906 C 0.621094 8.480469 0.730469 7.828125 0.796875 7.289062 C 0.867188 6.792969 0.945312 6.335938 1.070312 5.882812 C 1.1875 5.433594 1.34375 4.976562 1.53125 4.578125 C 1.707031 4.191406 1.886719 3.832031 2.164062 3.507812 C 2.453125 3.167969 2.753906 2.902344 3.265625 2.601562 C 4.121094 2.097656 5.898438 1.457031 7.039062 1.097656 C 7.945312 0.804688 8.847656 0.632812 9.535156 0.484375 C 10.011719 0.386719 10.3125 0.277344 10.746094 0.261719 C 11.246094 0.238281 11.847656 0.347656 12.351562 0.425781 C 12.8125 0.488281 13.144531 0.550781 13.648438 0.679688 C 14.394531 0.859375 15.492188 1.191406 16.371094 1.484375 C 17.214844 1.769531 18.195312 2.097656 18.828125 2.414062 C 19.257812 2.625 19.503906 2.808594 19.859375 3.066406 C 20.28125 3.367188 20.769531 3.75 21.164062 4.140625 C 21.558594 4.53125 21.886719 5.035156 22.242188 5.40625 C 22.554688 5.738281 22.878906 5.941406 23.175781 6.28125 C 23.515625 6.675781 23.777344 7.117188 24.136719 7.671875 C 24.628906 8.453125 25.445312 9.746094 25.820312 10.539062 C 26.074219 11.0625 26.179688 11.445312 26.335938 11.890625 C 26.484375 12.320312 26.605469 12.726562 26.726562 13.167969 C 26.851562 13.644531 26.960938 14.09375 27.070312 14.660156 C 27.214844 15.386719 27.382812 16.320312 27.464844 17.167969 C 27.554688 18.042969 27.664062 19.078125 27.59375 19.828125 C 27.539062 20.402344 27.4375 20.875 27.234375 21.3125 C 27.046875 21.710938 26.773438 22.078125 26.460938 22.363281 C 26.15625 22.652344 25.675781 22.953125 25.390625 23.03125 C 25.226562 23.082031 25.097656 23.046875 24.964844 23.03125 C 24.847656 23.015625 24.734375 22.980469 24.625 22.941406 C 24.515625 22.898438 24.40625 22.839844 24.3125 22.769531 C 24.214844 22.699219 24.125 22.621094 24.046875 22.53125 C 23.972656 22.4375 23.902344 22.339844 23.851562 22.234375 C 23.800781 22.125 23.753906 22.011719 23.730469 21.898438 C 23.703125 21.785156 23.691406 21.660156 23.691406 21.542969 C 23.695312 21.429688 23.710938 21.304688 23.738281 21.191406 C 23.769531 21.078125 23.8125 20.964844 23.871094 20.863281 C 23.925781 20.757812 24 20.660156 24.082031 20.570312 C 24.160156 20.484375 24.25 20.40625 24.347656 20.34375 C 24.445312 20.273438 24.554688 20.21875 24.667969 20.179688 C 24.777344 20.140625 24.863281 20.121094 25.015625 20.101562 C 25.300781 20.066406 26.242188 19.96875 26.285156 20.09375 C 26.328125 20.222656 25.238281 20.605469 25.257812 20.890625 C 25.28125 21.316406 27.292969 21.75 27.703125 22.3125 C 27.980469 22.691406 27.949219 23.074219 27.980469 23.570312 C 28.019531 24.261719 27.8125 25.378906 27.714844 26.09375 C 27.632812 26.632812 27.53125 27.039062 27.472656 27.503906 C 27.417969 27.953125 27.386719 28.328125 27.363281 28.832031 C 27.335938 29.503906 27.402344 30.695312 27.363281 31.179688 C 27.34375 31.398438 27.335938 31.5 27.28125 31.648438 C 27.234375 31.796875 27.160156 31.941406 27.066406 32.066406 C 26.96875 32.195312 26.847656 32.308594 26.71875 32.390625 C 26.589844 32.480469 26.4375 32.550781 26.289062 32.59375 C 26.136719 32.632812 25.972656 32.652344 25.816406 32.644531 C 25.660156 32.632812 25.5 32.597656 25.355469 32.539062 C 25.207031 32.484375 25.070312 32.394531 24.949219 32.296875 C 24.832031 32.195312 24.722656 32.070312 24.640625 31.9375 C 24.558594 31.804688 24.5 31.644531 24.464844 31.496094 C 24.429688 31.34375 24.421875 31.175781 24.441406 31.023438 C 24.457031 30.871094 24.5 30.707031 24.566406 30.5625 C 24.632812 30.425781 24.726562 30.285156 24.832031 30.171875 C 24.941406 30.058594 25.074219 29.960938 25.210938 29.886719 C 25.351562 29.8125 25.503906 29.757812 25.660156 29.734375 C 25.816406 29.707031 25.976562 29.707031 26.136719 29.734375 C 26.289062 29.757812 26.449219 29.8125 26.582031 29.886719 C 26.71875 29.960938 26.851562 30.058594 26.960938 30.171875 C 27.070312 30.285156 27.160156 30.425781 27.230469 30.566406 C 27.292969 30.707031 27.335938 30.871094 27.351562 31.023438 C 27.371094 31.175781 27.363281 31.34375 27.328125 31.496094 C 27.292969 31.648438 27.234375 31.804688 27.15625 31.9375 C 27.070312 32.070312 26.960938 32.199219 26.84375 32.296875 C 26.726562 32.394531 26.585938 32.484375 26.4375 32.539062 C 26.292969 32.597656 26.132812 32.632812 25.972656 32.644531 C 25.820312 32.652344 25.65625 32.632812 25.503906 32.59375 C 25.355469 32.550781 25.203125 32.480469 25.074219 32.390625 C 24.945312 32.308594 24.828125 32.1875 24.726562 32.066406 C 24.632812 31.941406 24.558594 31.792969 24.511719 31.648438 C 24.457031 31.5 24.453125 31.402344 24.429688 31.179688 C 24.386719 30.617188 24.378906 29.183594 24.445312 28.207031 C 24.511719 27.257812 24.734375 26.300781 24.832031 25.398438 C 24.925781 24.554688 25.003906 23.625 25.035156 22.941406 C 25.054688 22.457031 24.96875 22.105469 25.039062 21.691406 C 25.109375 21.261719 25.132812 20.605469 25.464844 20.421875 C 25.914062 20.167969 27.597656 20.53125 27.851562 20.960938 C 28.054688 21.320312 27.71875 22.207031 27.34375 22.550781 C 26.925781 22.941406 25.722656 22.992188 25.324219 23.035156 C 25.15625 23.054688 25.082031 23.046875 24.96875 23.03125 C 24.851562 23.015625 24.734375 22.980469 24.625 22.941406 C 24.515625 22.898438 24.40625 22.839844 24.3125 22.769531 C 24.214844 22.699219 24.125 22.621094 24.050781 22.53125 C 23.972656 22.4375 23.902344 22.339844 23.851562 22.234375 C 23.800781 22.125 23.753906 22.011719 23.730469 21.898438 C 23.703125 21.785156 23.691406 21.660156 23.691406 21.542969 C 23.695312 21.429688 23.710938 21.304688 23.738281 21.191406 C 23.769531 21.078125 23.8125 20.964844 23.871094 20.863281 C 23.925781 20.757812 24 20.660156 24.082031 20.570312 C 24.160156 20.484375 24.25 20.40625 24.347656 20.34375 C 24.445312 20.273438 24.554688 20.21875 24.667969 20.179688 C 24.777344 20.140625 25.003906 20.148438 25.015625 20.101562 C 25.023438 20.042969 24.738281 20.007812 24.644531 19.839844 C 24.425781 19.4375 24.589844 18.136719 24.511719 17.261719 C 24.425781 16.347656 24.332031 15.222656 24.136719 14.464844 C 23.996094 13.925781 23.765625 13.570312 23.605469 13.128906 C 23.457031 12.695312 23.378906 12.242188 23.214844 11.835938 C 23.050781 11.445312 22.839844 11.101562 22.632812 10.730469 C 22.410156 10.339844 22.21875 10.007812 21.90625 9.5625 C 21.445312 8.898438 20.597656 7.789062 20.078125 7.175781 C 19.730469 6.773438 19.488281 6.496094 19.167969 6.199219 C 18.855469 5.910156 18.570312 5.664062 18.191406 5.421875 C 17.734375 5.128906 17.097656 4.828125 16.578125 4.621094 C 16.128906 4.433594 15.777344 4.351562 15.265625 4.191406 C 14.558594 3.980469 13.429688 3.707031 12.707031 3.480469 C 12.171875 3.3125 11.902344 3.011719 11.308594 2.984375 C 10.332031 2.945312 8.332031 3.683594 7.339844 4.019531 C 6.722656 4.230469 6.359375 4.457031 5.875 4.644531 C 5.410156 4.828125 4.804688 4.835938 4.484375 5.140625 C 4.171875 5.441406 4.089844 6.011719 3.953125 6.445312 C 3.8125 6.855469 3.699219 7.25 3.644531 7.679688 C 3.585938 8.125 3.546875 8.640625 3.636719 9.070312 C 3.71875 9.480469 3.90625 9.859375 4.132812 10.207031 C 4.367188 10.5625 4.707031 10.878906 5.015625 11.183594 C 5.320312 11.480469 5.546875 11.683594 5.972656 12.023438 C 6.730469 12.621094 8.46875 13.773438 9.21875 14.378906 C 9.640625 14.71875 9.855469 14.9375 10.167969 15.222656 C 10.488281 15.515625 10.84375 15.761719 11.117188 16.113281 C 11.398438 16.476562 11.617188 16.960938 11.824219 17.382812 C 12.011719 17.769531 12.179688 18.128906 12.304688 18.535156 C 12.4375 18.964844 12.605469 19.460938 12.570312 19.886719 C 12.535156 20.292969 12.4375 20.722656 12.144531 21.039062 C 11.761719 21.449219 10.484375 22.101562 10.203125 21.914062 C 9.972656 21.765625 10.1875 20.839844 10.214844 20.546875 C 10.226562 20.402344 10.238281 20.328125 10.273438 20.222656 C 10.300781 20.121094 10.351562 20.015625 10.40625 19.925781 C 10.460938 19.832031 10.53125 19.746094 10.601562 19.671875 C 10.683594 19.589844 10.765625 19.523438 10.859375 19.46875 C 10.953125 19.410156 11.054688 19.363281 11.15625 19.335938 C 11.261719 19.300781 11.371094 19.28125 11.476562 19.273438 C 11.585938 19.265625 11.695312 19.269531 11.804688 19.289062 C 11.910156 19.308594 12.015625 19.34375 12.117188 19.390625 C 12.214844 19.433594 12.308594 19.488281 12.398438 19.558594 C 12.480469 19.621094 12.5625 19.699219 12.625 19.785156 C 12.695312 19.867188 12.753906 19.96875 12.796875 20.066406 C 12.84375 20.160156 12.871094 20.261719 12.890625 20.378906 C 12.917969 20.496094 12.929688 20.605469 12.910156 20.765625 C 12.871094 21.078125 12.757812 21.714844 12.511719 22.0625 C 12.265625 22.398438 11.839844 22.683594 11.449219 22.820312 C 11.0625 22.945312 10.59375 22.960938 10.179688 22.863281 C 9.722656 22.757812 9.101562 22.496094 8.839844 22.152344 C 8.601562 21.839844 8.503906 21.339844 8.578125 20.960938 C 8.667969 20.535156 9.121094 20.089844 9.445312 19.746094 C 9.753906 19.417969 10.070312 18.984375 10.464844 18.917969 C 10.910156 18.851562 11.679688 19.132812 12.007812 19.511719 C 12.359375 19.921875 12.371094 20.863281 12.417969 21.375 C 12.445312 21.734375 12.441406 22.046875 12.371094 22.308594 C 12.320312 22.515625 12.199219 22.703125 12.101562 22.832031 C 12.027344 22.921875 11.957031 22.972656 11.878906 23.03125 C 11.792969 23.085938 11.71875 23.136719 11.613281 23.164062 C 11.457031 23.214844 11.1875 23.25 11.027344 23.238281 C 10.914062 23.230469 10.84375 23.214844 10.742188 23.164062 C 10.59375 23.101562 10.382812 22.976562 10.253906 22.832031 C 10.128906 22.691406 10.03125 22.460938 9.980469 22.308594 C 9.945312 22.199219 9.945312 22.011719 9.945312 22.011719 " clip-rule="nonzero"/></clipPath><clipPath id="8f6ac7ac1f"><rect x="0" width="28" y="0" height="33"/></clipPath><clipPath id="2a000f4f3f"><path d="M 50.792969 50.242188 L 62.441406 50.242188 L 62.441406 58.464844 L 50.792969 58.464844 Z M 50.792969 50.242188 " clip-rule="nonzero"/></clipPath><clipPath id="3b3f74d4a9"><path d="M 50.824219 53.238281 C 50.898438 52.613281 50.953125 52.460938 51.023438 52.324219 C 51.089844 52.179688 51.175781 52.046875 51.277344 51.929688 C 51.378906 51.804688 51.496094 51.695312 51.621094 51.601562 C 51.75 51.507812 51.902344 51.425781 52.03125 51.371094 C 52.140625 51.324219 52.257812 51.328125 52.332031 51.285156 C 52.390625 51.25 52.457031 51.148438 52.457031 51.148438 C 52.460938 51.148438 52.605469 51.042969 52.679688 50.992188 C 52.753906 50.945312 52.894531 50.847656 52.894531 50.839844 C 52.898438 50.839844 53.0625 50.78125 53.148438 50.746094 C 53.230469 50.71875 53.394531 50.652344 53.398438 50.652344 C 53.40625 50.652344 53.578125 50.628906 53.667969 50.617188 C 53.753906 50.609375 53.929688 50.589844 53.933594 50.589844 C 53.9375 50.589844 55.246094 50.4375 55.914062 50.402344 C 56.585938 50.367188 57.277344 50.394531 57.949219 50.382812 C 58.617188 50.367188 59.269531 50.171875 59.929688 50.308594 C 60.65625 50.457031 61.695312 50.78125 62.101562 51.34375 C 62.492188 51.886719 62.476562 52.867188 62.382812 53.574219 C 62.296875 54.25 61.898438 54.882812 61.597656 55.496094 C 61.300781 56.097656 61.054688 56.78125 60.582031 57.226562 C 60.105469 57.675781 59.109375 58.027344 58.75 58.160156 C 58.613281 58.214844 58.53125 58.214844 58.449219 58.242188 C 58.386719 58.265625 58.339844 58.292969 58.292969 58.304688 C 58.253906 58.3125 58.222656 58.304688 58.183594 58.3125 C 58.140625 58.316406 58.097656 58.34375 58.050781 58.347656 C 57.980469 58.351562 57.882812 58.332031 57.796875 58.332031 C 57.71875 58.339844 57.621094 58.359375 57.550781 58.351562 C 57.507812 58.347656 57.472656 58.324219 57.433594 58.316406 C 57.394531 58.3125 57.351562 58.324219 57.308594 58.3125 C 57.253906 58.296875 57.199219 58.242188 57.128906 58.242188 C 57.015625 58.242188 56.898438 58.40625 56.699219 58.425781 C 56.296875 58.476562 55.429688 58.316406 54.789062 58.070312 C 54.027344 57.78125 53.054688 57.234375 52.488281 56.652344 C 52 56.148438 51.738281 55.347656 51.480469 54.882812 C 51.3125 54.585938 51.179688 54.359375 51.078125 54.140625 C 51.003906 53.980469 50.9375 53.855469 50.898438 53.707031 C 50.855469 53.554688 50.824219 53.238281 50.824219 53.238281 " clip-rule="nonzero"/></clipPath><clipPath id="4367670328"><path d="M 0.792969 0.242188 L 12.441406 0.242188 L 12.441406 8.464844 L 0.792969 8.464844 Z M 0.792969 0.242188 " clip-rule="nonzero"/></clipPath><clipPath id="c2f53a6368"><path d="M 0.824219 3.238281 C 0.898438 2.613281 0.953125 2.460938 1.023438 2.324219 C 1.089844 2.179688 1.175781 2.046875 1.277344 1.929688 C 1.378906 1.804688 1.496094 1.695312 1.621094 1.601562 C 1.75 1.507812 1.902344 1.425781 2.03125 1.371094 C 2.140625 1.324219 2.257812 1.328125 2.332031 1.285156 C 2.390625 1.25 2.457031 1.148438 2.457031 1.148438 C 2.460938 1.148438 2.605469 1.042969 2.679688 0.992188 C 2.753906 0.945312 2.894531 0.847656 2.894531 0.839844 C 2.898438 0.839844 3.0625 0.78125 3.148438 0.746094 C 3.230469 0.71875 3.394531 0.652344 3.398438 0.652344 C 3.40625 0.652344 3.578125 0.628906 3.667969 0.617188 C 3.753906 0.609375 3.929688 0.589844 3.933594 0.589844 C 3.9375 0.589844 5.246094 0.4375 5.914062 0.402344 C 6.585938 0.367188 7.277344 0.394531 7.949219 0.382812 C 8.617188 0.367188 9.269531 0.171875 9.929688 0.308594 C 10.65625 0.457031 11.695312 0.78125 12.101562 1.34375 C 12.492188 1.886719 12.476562 2.867188 12.382812 3.574219 C 12.296875 4.25 11.898438 4.882812 11.597656 5.496094 C 11.300781 6.097656 11.054688 6.78125 10.582031 7.226562 C 10.105469 7.675781 9.109375 8.027344 8.75 8.160156 C 8.613281 8.214844 8.53125 8.214844 8.449219 8.242188 C 8.386719 8.265625 8.339844 8.292969 8.292969 8.304688 C 8.253906 8.3125 8.222656 8.304688 8.183594 8.3125 C 8.140625 8.316406 8.097656 8.34375 8.050781 8.347656 C 7.980469 8.351562 7.882812 8.332031 7.796875 8.332031 C 7.71875 8.339844 7.621094 8.359375 7.550781 8.351562 C 7.507812 8.347656 7.472656 8.324219 7.433594 8.316406 C 7.394531 8.3125 7.351562 8.324219 7.308594 8.3125 C 7.253906 8.296875 7.199219 8.242188 7.128906 8.242188 C 7.015625 8.242188 6.898438 8.40625 6.699219 8.425781 C 6.296875 8.476562 5.429688 8.316406 4.789062 8.070312 C 4.027344 7.78125 3.054688 7.234375 2.488281 6.652344 C 2 6.148438 1.738281 5.347656 1.480469 4.882812 C 1.3125 4.585938 1.179688 4.359375 1.078125 4.140625 C 1.003906 3.980469 0.9375 3.855469 0.898438 3.707031 C 0.855469 3.554688 0.824219 3.238281 0.824219 3.238281 " clip-rule="nonzero"/></clipPath><clipPath id="f848758479"><rect x="0" width="13" y="0" height="9"/></clipPath><clipPath id="9c724e0366"><path d="M 44.816406 50.488281 L 52.164062 50.488281 L 52.164062 53.1875 L 44.816406 53.1875 Z M 44.816406 50.488281 " clip-rule="nonzero"/></clipPath><clipPath id="b8c54b4d39"><path d="M 46.058594 50.496094 C 51.058594 50.542969 51.125 50.550781 51.257812 50.59375 C 51.394531 50.636719 51.527344 50.707031 51.640625 50.792969 C 51.753906 50.878906 51.851562 50.988281 51.929688 51.101562 C 52.011719 51.222656 52.074219 51.355469 52.113281 51.492188 C 52.148438 51.625 52.167969 51.773438 52.160156 51.917969 C 52.152344 52.054688 52.121094 52.203125 52.066406 52.332031 C 52.015625 52.464844 51.9375 52.59375 51.847656 52.699219 C 51.753906 52.808594 51.640625 52.90625 51.519531 52.976562 C 51.398438 53.050781 51.257812 53.105469 51.121094 53.140625 C 50.988281 53.167969 50.835938 53.171875 50.695312 53.160156 C 50.558594 53.144531 50.414062 53.105469 50.285156 53.046875 C 50.15625 52.984375 50.035156 52.902344 49.929688 52.804688 C 49.828125 52.707031 49.738281 52.589844 49.671875 52.464844 C 49.605469 52.339844 49.558594 52.199219 49.535156 52.0625 C 49.515625 51.917969 49.515625 51.769531 49.535156 51.632812 C 49.558594 51.492188 49.605469 51.351562 49.671875 51.226562 C 49.738281 51.101562 49.828125 50.984375 49.929688 50.886719 C 50.035156 50.792969 50.15625 50.707031 50.285156 50.648438 C 50.414062 50.589844 50.558594 50.550781 50.695312 50.53125 C 50.835938 50.515625 50.988281 50.523438 51.125 50.554688 C 51.257812 50.582031 51.402344 50.644531 51.519531 50.710938 C 51.640625 50.785156 51.753906 50.886719 51.847656 50.988281 C 51.9375 51.097656 52.015625 51.226562 52.066406 51.355469 C 52.121094 51.488281 52.152344 51.636719 52.160156 51.773438 C 52.167969 51.914062 52.148438 52.066406 52.113281 52.199219 C 52.074219 52.332031 52.011719 52.472656 51.929688 52.585938 C 51.851562 52.703125 51.75 52.8125 51.640625 52.898438 C 51.527344 52.980469 51.394531 53.054688 51.257812 53.097656 C 51.125 53.144531 51.058594 53.152344 50.839844 53.167969 C 50.113281 53.214844 46.878906 53.089844 46.058594 52.972656 C 45.773438 52.929688 45.636719 52.898438 45.488281 52.832031 C 45.382812 52.78125 45.324219 52.742188 45.238281 52.660156 C 45.125 52.546875 44.972656 52.351562 44.902344 52.175781 C 44.835938 51.992188 44.808594 51.773438 44.835938 51.585938 C 44.855469 51.394531 44.957031 51.167969 45.042969 51.027344 C 45.101562 50.933594 45.164062 50.875 45.238281 50.804688 C 45.3125 50.742188 45.382812 50.683594 45.488281 50.636719 C 45.636719 50.574219 46.058594 50.496094 46.058594 50.496094 " clip-rule="nonzero"/></clipPath><clipPath id="376669d90d"><path d="M 0.816406 0.488281 L 8.164062 0.488281 L 8.164062 3.1875 L 0.816406 3.1875 Z M 0.816406 0.488281 " clip-rule="nonzero"/></clipPath><clipPath id="29d23e862d"><path d="M 2.058594 0.496094 C 7.058594 0.542969 7.125 0.550781 7.257812 0.59375 C 7.394531 0.636719 7.527344 0.707031 7.640625 0.792969 C 7.753906 0.878906 7.851562 0.988281 7.929688 1.101562 C 8.011719 1.222656 8.074219 1.355469 8.113281 1.492188 C 8.148438 1.625 8.167969 1.773438 8.160156 1.917969 C 8.152344 2.054688 8.121094 2.203125 8.066406 2.332031 C 8.015625 2.464844 7.9375 2.59375 7.847656 2.699219 C 7.753906 2.808594 7.640625 2.90625 7.519531 2.976562 C 7.398438 3.050781 7.257812 3.105469 7.121094 3.140625 C 6.988281 3.167969 6.835938 3.171875 6.695312 3.160156 C 6.558594 3.144531 6.414062 3.105469 6.285156 3.046875 C 6.15625 2.984375 6.035156 2.902344 5.929688 2.804688 C 5.828125 2.707031 5.738281 2.589844 5.671875 2.464844 C 5.605469 2.339844 5.558594 2.199219 5.535156 2.0625 C 5.515625 1.917969 5.515625 1.769531 5.535156 1.632812 C 5.558594 1.492188 5.605469 1.351562 5.671875 1.226562 C 5.738281 1.101562 5.828125 0.984375 5.929688 0.886719 C 6.035156 0.792969 6.15625 0.707031 6.285156 0.648438 C 6.414062 0.589844 6.558594 0.550781 6.695312 0.53125 C 6.835938 0.515625 6.988281 0.523438 7.125 0.554688 C 7.257812 0.582031 7.402344 0.644531 7.519531 0.710938 C 7.640625 0.785156 7.753906 0.886719 7.847656 0.988281 C 7.9375 1.097656 8.015625 1.226562 8.066406 1.355469 C 8.121094 1.488281 8.152344 1.636719 8.160156 1.773438 C 8.167969 1.914062 8.148438 2.066406 8.113281 2.199219 C 8.074219 2.332031 8.011719 2.472656 7.929688 2.585938 C 7.851562 2.703125 7.75 2.8125 7.640625 2.898438 C 7.527344 2.980469 7.394531 3.054688 7.257812 3.097656 C 7.125 3.144531 7.058594 3.152344 6.839844 3.167969 C 6.113281 3.214844 2.878906 3.089844 2.058594 2.972656 C 1.773438 2.929688 1.636719 2.898438 1.488281 2.832031 C 1.382812 2.78125 1.324219 2.742188 1.238281 2.660156 C 1.125 2.546875 0.972656 2.351562 0.902344 2.175781 C 0.835938 1.992188 0.808594 1.773438 0.835938 1.585938 C 0.855469 1.394531 0.957031 1.167969 1.042969 1.027344 C 1.101562 0.933594 1.164062 0.875 1.238281 0.804688 C 1.3125 0.742188 1.382812 0.683594 1.488281 0.636719 C 1.636719 0.574219 2.058594 0.496094 2.058594 0.496094 " clip-rule="nonzero"/></clipPath><clipPath id="bae21551ed"><rect x="0" width="9" y="0" height="4"/></clipPath><clipPath id="0f33243c0c"><path d="M 12.105469 11.367188 L 64 11.367188 L 64 59.554688 L 12.105469 59.554688 Z M 12.105469 11.367188 " clip-rule="nonzero"/></clipPath></defs><g clip-path="url(#f4bc8e67b0)"><path fill="#ffffff" d="M 0 0.0078125 L 74.132812 0.0078125 L 74.132812 74.136719 L 0 74.136719 Z M 0 0.0078125 " fill-opacity="1" fill-rule="nonzero"/><path fill="#ffffff" d="M 0 0.0078125 L 74.132812 0.0078125 L 74.132812 74.136719 L 0 74.136719 Z M 0 0.0078125 " fill-opacity="1" fill-rule="nonzero"/></g><g clip-path="url(#e654094272)"><g clip-path="url(#67a21ad757)"><g transform="matrix(1, 0, 0, 1, 2, 2)"><g clip-path="url(#ffdf7e0fd1)"><g clip-path="url(#f1229c55fc)"><g clip-path="url(#bd689edd25)"><path fill="#ff65f9" d="M 0.425781 0.433594 L 69.703125 0.433594 L 69.703125 69.710938 L 0.425781 69.710938 Z M 0.425781 0.433594 " fill-opacity="1" fill-rule="nonzero"/></g></g></g></g></g></g><g clip-path="url(#6cb9e57da4)"><g clip-path="url(#ea1f31ff1e)"><path stroke-linecap="butt" transform="matrix(0.741316, 0, 0, 0.741316, 2.427548, 2.433865)" fill="none" stroke-linejoin="miter" d="M 46.72092 -0.000366511 C 20.916926 -0.000366511 -0.00238311 20.918943 -0.00238311 46.717667 C -0.00238311 72.521662 20.916926 93.435701 46.72092 93.435701 C 72.519645 93.435701 93.438954 72.521662 93.438954 46.717667 C 93.438954 20.918943 72.519645 -0.000366511 46.72092 -0.000366511 Z M 46.72092 -0.000366511 " stroke="#000000" stroke-width="2" stroke-opacity="1" stroke-miterlimit="4"/></g></g><g clip-path="url(#8c21198dfe)"><g clip-path="url(#06a8adc7a6)"><g transform="matrix(1, 0, 0, 1, 19, 34)"><g clip-path="url(#8febbad50e)"><g clip-path="url(#286e7c5444)"><g clip-path="url(#9272906c02)"><path fill="#ffdd84" d="M 0.144531 0.652344 L 26.84375 0.652344 L 26.84375 25.027344 L 0.144531 25.027344 Z M 0.144531 0.652344 " fill-opacity="1" fill-rule="nonzero"/></g></g></g></g></g></g><g clip-path="url(#a64872e1be)"><g clip-path="url(#27f77ce1ce)"><g transform="matrix(1, 0, 0, 1, 13, 12)"><g clip-path="url(#8f6ac7ac1f)"><g clip-path="url(#960e47c94e)"><g clip-path="url(#3d7dcab08f)"><path fill="#ffdd84" d="M 0.460938 0.0664062 L 28.160156 0.0664062 L 28.160156 32.847656 L 0.460938 32.847656 Z M 0.460938 0.0664062 " fill-opacity="1" fill-rule="nonzero"/></g></g></g></g></g></g><g clip-path="url(#2a000f4f3f)"><g clip-path="url(#3b3f74d4a9)"><g transform="matrix(1, 0, 0, 1, 50, 50)"><g clip-path="url(#f848758479)"><g clip-path="url(#4367670328)"><g clip-path="url(#c2f53a6368)"><path fill="#ffdd84" d="M 0.625 0.109375 L 12.574219 0.109375 L 12.574219 8.628906 L 0.625 8.628906 Z M 0.625 0.109375 " fill-opacity="1" fill-rule="nonzero"/></g></g></g></g></g></g><g clip-path="url(#9c724e0366)"><g clip-path="url(#b8c54b4d39)"><g transform="matrix(1, 0, 0, 1, 44, 50)"><g clip-path="url(#bae21551ed)"><g clip-path="url(#376669d90d)"><g clip-path="url(#29d23e862d)"><path fill="#ffdd84" d="M 0.636719 0.296875 L 8.359375 0.296875 L 8.359375 3.367188 L 0.636719 3.367188 Z M 0.636719 0.296875 " fill-opacity="1" fill-rule="nonzero"/></g></g></g></g></g></g><g clip-path="url(#0f33243c0c)"><path fill="#000000" d="M 61.230469 50.832031 L 52.785156 50.832031 C 52.496094 50.855469 52.132812 51.105469 51.949219 51.351562 C 50.839844 52.851562 52.511719 56.054688 54.09375 57.007812 C 55.652344 57.945312 57.613281 57.945312 59.167969 57.007812 C 60.917969 55.953125 62.558594 52.21875 61.230469 50.832031 Z M 52.738281 49.300781 L 61.515625 49.300781 C 61.675781 49.300781 61.839844 49.351562 61.972656 49.457031 C 64.703125 51.546875 62.515625 56.777344 59.949219 58.320312 C 57.902344 59.550781 55.359375 59.550781 53.316406 58.320312 C 51.808594 57.410156 50.472656 55.332031 50.148438 53.457031 C 48.945312 52.835938 47.492188 52.84375 46.292969 53.484375 C 45.921875 55.265625 44.699219 57.378906 43.140625 58.320312 C 41.09375 59.550781 38.550781 59.550781 36.503906 58.320312 C 35.335938 57.617188 34.28125 56.207031 33.722656 54.792969 L 24.953125 54.792969 C 21.78125 54.792969 19.1875 52.191406 19.1875 49.011719 L 19.1875 39.742188 L 19.179688 39.6875 C 18.796875 37.820312 18.644531 34.945312 20.398438 34.042969 C 20.566406 33.957031 20.746094 33.894531 20.933594 33.855469 L 20.933594 32.566406 C 20.933594 31.882812 21.335938 31.285156 21.933594 31.015625 C 21.519531 29.636719 20.035156 28.648438 18.777344 27.789062 C 17.164062 26.695312 15.378906 25.476562 14.011719 23.144531 C 12.136719 19.949219 12.597656 16.765625 15.3125 14.46875 C 18.441406 11.824219 23.378906 11.367188 27.351562 12.257812 C 30.292969 12.917969 33.253906 14.367188 35.703125 16.808594 C 39.296875 20.386719 41.371094 25.863281 41.234375 31.238281 C 41.621094 31.550781 41.871094 32.03125 41.871094 32.566406 L 41.871094 33.855469 C 43.007812 34.09375 43.617188 35.117188 43.804688 36.414062 C 43.941406 37.355469 43.871094 38.515625 43.617188 39.726562 L 43.617188 49.011719 C 43.617188 49.105469 43.613281 49.199219 43.605469 49.300781 Z M 50.144531 51.796875 C 50.210938 51.457031 50.320312 51.132812 50.480469 50.832031 L 46.175781 50.832031 C 46.292969 51.128906 46.363281 51.449219 46.398438 51.777344 C 47.613281 51.355469 48.933594 51.363281 50.144531 51.796875 Z M 44.417969 50.832031 L 35.976562 50.832031 C 35.6875 50.855469 35.324219 51.105469 35.140625 51.351562 C 34.023438 52.863281 35.722656 56.066406 37.285156 57.007812 C 38.84375 57.945312 40.804688 57.945312 42.359375 57.007812 C 44.109375 55.953125 45.75 52.21875 44.417969 50.832031 Z M 35.925781 49.300781 L 39.476562 49.300781 C 39.523438 49.019531 39.5 47.3125 39.5 46.914062 C 39.027344 47.171875 38.523438 47.316406 37.996094 47.316406 L 34.675781 47.316406 C 34.675781 47.773438 34.671875 48.121094 34.300781 48.492188 C 34.070312 48.726562 33.753906 48.867188 33.40625 48.867188 L 29.40625 48.867188 C 28.703125 48.867188 28.132812 48.296875 28.132812 47.59375 L 28.132812 47.316406 L 24.816406 47.316406 C 24.289062 47.316406 23.785156 47.171875 23.3125 46.910156 L 23.3125 49 C 23.3125 49.96875 24.105469 50.765625 25.074219 50.765625 L 33.710938 50.765625 C 34.164062 49.960938 34.859375 49.492188 35.761719 49.320312 C 35.8125 49.304688 35.867188 49.300781 35.925781 49.300781 Z M 41.011719 49.300781 L 42.082031 49.300781 C 42.089844 49.207031 42.09375 49.109375 42.09375 49.011719 L 42.09375 43.9375 C 41.773438 44.523438 41.417969 45.074219 41.027344 45.5625 C 41 45.636719 41.066406 48.753906 41.011719 49.300781 Z M 33.3125 53.261719 C 33.269531 52.9375 33.253906 52.617188 33.273438 52.296875 L 25.070312 52.296875 C 23.261719 52.296875 21.785156 50.816406 21.785156 49 L 21.785156 45.5625 L 21.746094 45.515625 C 21.371094 45.03125 21.027344 44.496094 20.71875 43.929688 L 20.71875 49.011719 C 20.71875 51.347656 22.625 53.261719 24.953125 53.261719 Z M 28.136719 45.160156 C 28.175781 44.492188 28.738281 43.96875 29.402344 43.96875 L 33.40625 43.96875 C 33.875 43.96875 34.277344 44.226562 34.503906 44.613281 C 34.722656 44.992188 34.675781 45.351562 34.675781 45.785156 L 37.996094 45.785156 C 38.71875 45.785156 39.355469 45.21875 39.8125 44.648438 C 40.9375 43.238281 41.753906 41.265625 42.132812 39.421875 C 42.347656 38.382812 42.410156 37.40625 42.300781 36.632812 C 42.195312 35.910156 41.96875 35.339844 41.394531 35.339844 L 21.414062 35.339844 C 20.839844 35.339844 20.617188 35.890625 20.511719 36.609375 C 20.398438 37.375 20.460938 38.351562 20.671875 39.386719 C 21.039062 41.207031 21.839844 43.160156 22.945312 44.578125 C 23.40625 45.179688 24.054688 45.785156 24.8125 45.785156 L 28.132812 45.785156 Z M 29.660156 46.550781 L 29.660156 47.335938 L 33.148438 47.335938 L 33.148438 45.5 L 29.660156 45.5 Z M 27.078125 33.804688 L 35.730469 33.804688 L 35.730469 32.566406 C 35.730469 31.941406 36.066406 31.386719 36.585938 31.089844 C 36.675781 26.824219 35.085938 22.382812 32.3125 19.519531 C 30.492188 17.640625 28.308594 16.539062 26.160156 16.058594 C 23.78125 15.527344 20.496094 15.664062 18.613281 17.257812 C 17.300781 18.363281 17.285156 19.84375 18.1875 21.378906 C 19.949219 24.382812 23.183594 24.964844 25.378906 27.933594 C 25.828125 28.539062 26.160156 29.164062 26.378906 29.800781 C 26.566406 30.355469 26.675781 30.917969 26.699219 31.5 C 26.9375 31.789062 27.082031 32.160156 27.082031 32.566406 L 27.082031 33.804688 Z M 38.113281 30.867188 L 39.71875 30.867188 C 39.753906 26.007812 37.855469 21.101562 34.632812 17.890625 C 32.402344 15.667969 29.703125 14.34375 27.027344 13.746094 C 23.527344 12.964844 19.046875 13.308594 16.292969 15.636719 C 14.144531 17.453125 13.847656 19.847656 15.328125 22.371094 C 17.421875 25.941406 20.820312 26.640625 22.65625 29.121094 C 23.054688 29.660156 23.335938 30.238281 23.472656 30.867188 L 25.09375 30.867188 C 24.628906 28.636719 22.679688 27.242188 20.953125 26.0625 C 19.464844 25.046875 17.980469 24.03125 16.875 22.148438 C 15.578125 19.941406 15.753906 17.679688 17.628906 16.089844 C 19.90625 14.167969 23.621094 13.929688 26.488281 14.566406 C 28.910156 15.109375 31.359375 16.347656 33.402344 18.453125 C 36.390625 21.539062 38.144531 26.269531 38.113281 30.867188 Z M 40.183594 32.398438 L 37.417969 32.398438 C 37.332031 32.398438 37.257812 32.476562 37.257812 32.566406 L 37.257812 33.804688 L 40.347656 33.804688 L 40.347656 32.566406 C 40.347656 32.476562 40.273438 32.398438 40.183594 32.398438 Z M 25.386719 32.398438 L 22.628906 32.398438 C 22.539062 32.398438 22.464844 32.476562 22.464844 32.566406 L 22.464844 33.804688 L 25.554688 33.804688 L 25.554688 32.566406 C 25.554688 32.476562 25.476562 32.398438 25.386719 32.398438 Z M 25.386719 32.398438 " fill-opacity="1" fill-rule="nonzero"/></g></svg>