<svg xmlns="http://www.w3.org/2000/svg" xmlns:xlink="http://www.w3.org/1999/xlink" width="1500" zoomAndPan="magnify" viewBox="0 0 1125 1124.99995" height="1500" preserveAspectRatio="xMidYMid meet" version="1.0"><defs><clipPath id="07656af724"><path d="M 36.839844 36.839844 L 1088.160156 36.839844 L 1088.160156 1088.160156 L 36.839844 1088.160156 Z M 36.839844 36.839844 " clip-rule="nonzero"/></clipPath><clipPath id="cf8cd0e5ac"><path d="M 562.5 36.839844 C 272.1875 36.839844 36.839844 272.1875 36.839844 562.5 C 36.839844 852.8125 272.1875 1088.160156 562.5 1088.160156 C 852.8125 1088.160156 1088.160156 852.8125 1088.160156 562.5 C 1088.160156 272.1875 852.8125 36.839844 562.5 36.839844 Z M 562.5 36.839844 " clip-rule="nonzero"/></clipPath><clipPath id="f5392aa07c"><path d="M 0.839844 0.839844 L 1052.160156 0.839844 L 1052.160156 1052.160156 L 0.839844 1052.160156 Z M 0.839844 0.839844 " clip-rule="nonzero"/></clipPath><clipPath id="993890006e"><path d="M 526.5 0.839844 C 236.1875 0.839844 0.839844 236.1875 0.839844 526.5 C 0.839844 816.8125 236.1875 1052.160156 526.5 1052.160156 C 816.8125 1052.160156 1052.160156 816.8125 1052.160156 526.5 C 1052.160156 236.1875 816.8125 0.839844 526.5 0.839844 Z M 526.5 0.839844 " clip-rule="nonzero"/></clipPath><clipPath id="d570b57dc4"><rect x="0" width="1053" y="0" height="1053"/></clipPath><clipPath id="70ced08126"><path d="M 36.839844 36.839844 L 1088.152344 36.839844 L 1088.152344 1088.152344 L 36.839844 1088.152344 Z M 36.839844 36.839844 " clip-rule="nonzero"/></clipPath><clipPath id="9bcc45a919"><path d="M 562.496094 36.839844 C 272.183594 36.839844 36.839844 272.183594 36.839844 562.496094 C 36.839844 852.808594 272.183594 1088.152344 562.496094 1088.152344 C 852.808594 1088.152344 1088.152344 852.808594 1088.152344 562.496094 C 1088.152344 272.183594 852.808594 36.839844 562.496094 36.839844 Z M 562.496094 36.839844 " clip-rule="nonzero"/></clipPath><clipPath id="a9df1bf7ea"><path d="M 293.546875 527.246094 L 693 527.246094 L 693 893.457031 L 293.546875 893.457031 Z M 293.546875 527.246094 " clip-rule="nonzero"/></clipPath><clipPath id="34301e07eb"><path d="M 293.550781 608.925781 C 297.300781 563.550781 299.925781 548.851562 307.949219 541.199219 C 316.273438 533.25 332.773438 530.699219 344.476562 528.75 C 354.75 527.023438 364.125 528.675781 374.25 528.824219 C 384.75 528.898438 395.773438 529.5 406.273438 529.574219 C 416.398438 529.726562 426.226562 529.574219 436.199219 529.574219 C 446.175781 529.574219 455.925781 529.5 466.125 529.5 C 476.925781 529.5 488.25 529.5 499.199219 529.5 C 510.148438 529.5 520.949219 529.5 531.824219 529.5 C 542.699219 529.425781 553.5 529.425781 564.449219 529.425781 C 575.398438 529.425781 586.800781 528.898438 597.601562 529.425781 C 607.949219 529.949219 618.898438 528.148438 627.75 532.351562 C 637.351562 536.925781 647.699219 547.648438 652.5 557.25 C 657 566.175781 656.175781 577.351562 657.074219 587.476562 C 657.898438 597.601562 657.675781 607.949219 657.824219 618.074219 C 657.898438 627.976562 657.898438 637.726562 657.75 647.625 C 657.601562 657.675781 657.074219 667.726562 656.925781 677.925781 C 656.773438 688.351562 657.148438 698.925781 656.851562 709.5 C 656.550781 720.148438 654.300781 731.851562 654.976562 741.601562 C 655.574219 749.925781 658.199219 763.574219 659.476562 764.550781 C 659.699219 764.699219 659.851562 764.476562 660.148438 764.476562 C 661.273438 764.476562 665.023438 764.398438 667.351562 764.773438 C 669.75 765.074219 672.074219 765.75 674.324219 766.726562 C 676.5 767.625 678.675781 768.824219 680.550781 770.25 C 682.5 771.675781 684.300781 773.398438 685.800781 775.199219 C 687.300781 777.074219 688.648438 779.101562 689.699219 781.273438 C 690.75 783.449219 691.574219 785.773438 692.023438 788.101562 C 692.550781 790.425781 692.773438 792.898438 692.699219 795.300781 C 692.625 797.625 692.175781 800.101562 691.574219 802.425781 C 690.898438 804.675781 688.875 808.800781 688.800781 809.023438 C 688.800781 809.023438 688.800781 809.023438 688.800781 809.101562 C 688.726562 809.175781 688.949219 811.273438 688.949219 811.351562 C 688.949219 811.425781 688.425781 814.726562 688.351562 815.398438 C 688.273438 815.625 688.273438 815.625 688.273438 815.925781 C 688.199219 817.273438 690.226562 822.75 689.550781 827.25 C 688.5 834.75 683.023438 848.476562 677.175781 856.125 C 671.925781 863.023438 663.375 866.925781 657.226562 872.101562 C 651.75 876.75 648.601562 882.300781 642.074219 885.675781 C 633.75 889.949219 620.550781 892.125 609.898438 892.949219 C 599.699219 893.699219 589.273438 894.074219 579.601562 890.625 C 568.875 886.875 557.324219 877.800781 548.773438 869.699219 C 540.898438 862.199219 528.601562 845.851562 529.425781 844.351562 C 529.648438 843.976562 531.375 844.949219 531.523438 844.648438 C 531.898438 844.050781 527.175781 840.675781 526.726562 838.648438 C 526.273438 836.851562 528.449219 834.675781 528.074219 833.101562 C 527.699219 831.601562 525.449219 830.550781 524.773438 829.273438 C 524.25 828.226562 525 826.875 524.023438 826.125 C 521.101562 823.949219 505.574219 827.324219 495.675781 827.699219 C 484.949219 828 473.25 827.699219 461.851562 828.074219 C 450.226562 828.523438 438.449219 829.574219 426.601562 830.101562 C 414.675781 830.625 402.074219 831.601562 390.523438 831.300781 C 379.875 831 369.898438 831.226562 359.925781 828.449219 C 349.273438 825.523438 336.75 820.726562 328.574219 813.523438 C 320.773438 806.625 315.601562 796.199219 311.476562 786.824219 C 307.5 777.675781 305.851562 767.925781 304.050781 758.023438 C 302.25 747.75 301.800781 737.175781 300.898438 726.074219 C 300 714 299.023438 690.523438 298.800781 688.351562 C 298.800781 688.199219 298.800781 688.199219 298.726562 688.050781 C 298.726562 687.75 298.648438 687.226562 298.726562 686.550781 C 298.726562 685.5 298.949219 683.699219 299.023438 682.351562 C 299.101562 680.925781 299.324219 678.148438 299.324219 678.074219 C 299.324219 678.074219 299.476562 677.699219 299.550781 677.476562 C 299.550781 677.175781 299.398438 677.023438 299.324219 676.425781 C 298.875 672.976562 296.773438 652.273438 295.800781 640.726562 C 294.898438 629.773438 293.550781 608.925781 293.550781 608.925781 " clip-rule="nonzero"/></clipPath><clipPath id="8cba159a3a"><path d="M 0.546875 0.246094 L 399.878906 0.246094 L 399.878906 366.457031 L 0.546875 366.457031 Z M 0.546875 0.246094 " clip-rule="nonzero"/></clipPath><clipPath id="71c4df8782"><path d="M 0.550781 81.925781 C 4.300781 36.550781 6.925781 21.851562 14.949219 14.199219 C 23.273438 6.25 39.773438 3.699219 51.476562 1.75 C 61.75 0.0234375 71.125 1.675781 81.25 1.824219 C 91.75 1.898438 102.773438 2.5 113.273438 2.574219 C 123.398438 2.726562 133.226562 2.574219 143.199219 2.574219 C 153.175781 2.574219 162.925781 2.5 173.125 2.5 C 183.925781 2.5 195.25 2.5 206.199219 2.5 C 217.148438 2.5 227.949219 2.5 238.824219 2.5 C 249.699219 2.425781 260.5 2.425781 271.449219 2.425781 C 282.398438 2.425781 293.800781 1.898438 304.601562 2.425781 C 314.949219 2.949219 325.898438 1.148438 334.75 5.351562 C 344.351562 9.925781 354.699219 20.648438 359.5 30.25 C 364 39.175781 363.175781 50.351562 364.074219 60.476562 C 364.898438 70.601562 364.675781 80.949219 364.824219 91.074219 C 364.898438 100.976562 364.898438 110.726562 364.75 120.625 C 364.601562 130.675781 364.074219 140.726562 363.925781 150.925781 C 363.773438 161.351562 364.148438 171.925781 363.851562 182.5 C 363.550781 193.148438 361.300781 204.851562 361.976562 214.601562 C 362.574219 222.925781 365.199219 236.574219 366.476562 237.550781 C 366.699219 237.699219 366.851562 237.476562 367.148438 237.476562 C 368.273438 237.476562 372.023438 237.398438 374.351562 237.773438 C 376.75 238.074219 379.074219 238.75 381.324219 239.726562 C 383.5 240.625 385.675781 241.824219 387.550781 243.25 C 389.5 244.675781 391.300781 246.398438 392.800781 248.199219 C 394.300781 250.074219 395.648438 252.101562 396.699219 254.273438 C 397.75 256.449219 398.574219 258.773438 399.023438 261.101562 C 399.550781 263.425781 399.773438 265.898438 399.699219 268.300781 C 399.625 270.625 399.175781 273.101562 398.574219 275.425781 C 397.898438 277.675781 395.875 281.800781 395.800781 282.023438 C 395.800781 282.023438 395.800781 282.023438 395.800781 282.101562 C 395.726562 282.175781 395.949219 284.273438 395.949219 284.351562 C 395.949219 284.425781 395.425781 287.726562 395.351562 288.398438 C 395.273438 288.625 395.273438 288.625 395.273438 288.925781 C 395.199219 290.273438 397.226562 295.75 396.550781 300.25 C 395.5 307.75 390.023438 321.476562 384.175781 329.125 C 378.925781 336.023438 370.375 339.925781 364.226562 345.101562 C 358.75 349.75 355.601562 355.300781 349.074219 358.675781 C 340.75 362.949219 327.550781 365.125 316.898438 365.949219 C 306.699219 366.699219 296.273438 367.074219 286.601562 363.625 C 275.875 359.875 264.324219 350.800781 255.773438 342.699219 C 247.898438 335.199219 235.601562 318.851562 236.425781 317.351562 C 236.648438 316.976562 238.375 317.949219 238.523438 317.648438 C 238.898438 317.050781 234.175781 313.675781 233.726562 311.648438 C 233.273438 309.851562 235.449219 307.675781 235.074219 306.101562 C 234.699219 304.601562 232.449219 303.550781 231.773438 302.273438 C 231.25 301.226562 232 299.875 231.023438 299.125 C 228.101562 296.949219 212.574219 300.324219 202.675781 300.699219 C 191.949219 301 180.25 300.699219 168.851562 301.074219 C 157.226562 301.523438 145.449219 302.574219 133.601562 303.101562 C 121.675781 303.625 109.074219 304.601562 97.523438 304.300781 C 86.875 304 76.898438 304.226562 66.925781 301.449219 C 56.273438 298.523438 43.75 293.726562 35.574219 286.523438 C 27.773438 279.625 22.601562 269.199219 18.476562 259.824219 C 14.5 250.675781 12.851562 240.925781 11.050781 231.023438 C 9.25 220.75 8.800781 210.175781 7.898438 199.074219 C 7 187 6.023438 163.523438 5.800781 161.351562 C 5.800781 161.199219 5.800781 161.199219 5.726562 161.050781 C 5.726562 160.75 5.648438 160.226562 5.726562 159.550781 C 5.726562 158.5 5.949219 156.699219 6.023438 155.351562 C 6.101562 153.925781 6.324219 151.148438 6.324219 151.074219 C 6.324219 151.074219 6.476562 150.699219 6.550781 150.476562 C 6.550781 150.175781 6.398438 150.023438 6.324219 149.425781 C 5.875 145.976562 3.773438 125.273438 2.800781 113.726562 C 1.898438 102.773438 0.550781 81.925781 0.550781 81.925781 " clip-rule="nonzero"/></clipPath><clipPath id="307d092b31"><rect x="0" width="400" y="0" height="367"/></clipPath><clipPath id="f9a07afcf9"><path d="M 207 185.246094 L 622 185.246094 L 622 677.476562 L 207 677.476562 Z M 207 185.246094 " clip-rule="nonzero"/></clipPath><clipPath id="ce1047ad8d"><path d="M 348.226562 516.074219 C 350.851562 503.476562 367.5 508.273438 368.773438 505.351562 C 370.050781 502.5 357.898438 488.550781 355.125 488.851562 C 353.699219 488.925781 352.574219 493.875 352.273438 493.800781 C 352.050781 493.726562 352.648438 490.5 353.175781 488.925781 C 353.625 487.351562 354.375 485.773438 355.199219 484.425781 C 356.023438 483 357.074219 481.648438 358.199219 480.523438 C 359.398438 479.324219 360.75 478.273438 362.101562 477.449219 C 363.523438 476.550781 365.023438 475.875 366.601562 475.425781 C 368.175781 474.898438 369.824219 474.601562 371.476562 474.523438 C 373.125 474.375 374.773438 474.449219 376.425781 474.75 C 378 475.050781 379.648438 475.574219 381.148438 476.25 C 382.648438 476.925781 384.074219 477.75 385.425781 478.800781 C 386.699219 479.773438 387.898438 480.976562 388.875 482.25 C 389.925781 483.523438 390.824219 485.023438 391.5 486.523438 C 392.175781 488.023438 392.625 489 392.925781 491.25 C 393.75 496.125 397.050781 509.324219 393.074219 515.625 C 388.273438 523.125 369.375 532.5 361.648438 530.476562 C 355.425781 528.824219 351.449219 519.601562 348.375 511.726562 C 344.398438 501.449219 346.5 483.675781 343.425781 472.800781 C 341.101562 464.398438 340.351562 459.300781 333.824219 451.273438 C 320.25 434.398438 265.5 403.050781 249.601562 389.398438 C 242.773438 383.550781 240.375 380.699219 235.800781 375.675781 C 230.925781 370.199219 225.226562 364.199219 221.175781 357.75 C 217.199219 351.300781 213.976562 343.949219 211.648438 337.125 C 209.476562 330.898438 207.824219 325.351562 207.300781 318.675781 C 206.699219 310.726562 208.351562 300.824219 209.398438 292.648438 C 210.449219 285.074219 211.648438 278.175781 213.523438 271.273438 C 215.324219 264.449219 217.648438 257.550781 220.5 251.476562 C 223.199219 245.625 225.898438 240.148438 230.101562 235.273438 C 234.523438 230.101562 239.101562 226.050781 246.824219 221.476562 C 259.800781 213.824219 286.800781 204.148438 304.125 198.675781 C 317.851562 194.25 331.574219 191.625 342 189.375 C 349.199219 187.875 353.773438 186.226562 360.375 186 C 367.949219 185.625 377.101562 187.273438 384.75 188.476562 C 391.726562 189.449219 396.75 190.351562 404.398438 192.300781 C 415.726562 195.074219 432.375 200.101562 445.726562 204.523438 C 458.550781 208.875 473.398438 213.824219 483 218.625 C 489.523438 221.851562 493.273438 224.625 498.675781 228.523438 C 505.050781 233.101562 512.476562 238.949219 518.476562 244.875 C 524.476562 250.800781 529.425781 258.449219 534.824219 264.074219 C 539.550781 269.101562 544.5 272.175781 549 277.351562 C 554.175781 283.351562 558.148438 290.023438 563.550781 298.425781 C 571.050781 310.273438 583.425781 329.925781 589.125 341.925781 C 592.949219 349.875 594.601562 355.726562 596.925781 362.476562 C 599.175781 369 601.050781 375.148438 602.851562 381.824219 C 604.800781 389.101562 606.449219 395.925781 608.101562 404.476562 C 610.273438 415.5 612.824219 429.675781 614.101562 442.574219 C 615.449219 455.851562 617.101562 471.523438 616.050781 482.925781 C 615.226562 491.625 613.648438 498.824219 610.574219 505.425781 C 607.726562 511.5 603.601562 517.050781 598.875 521.398438 C 594.226562 525.75 586.949219 530.324219 582.601562 531.523438 C 580.125 532.273438 578.175781 531.75 576.148438 531.523438 C 574.351562 531.300781 572.625 530.773438 570.976562 530.175781 C 569.324219 529.5 567.675781 528.601562 566.25 527.550781 C 564.75 526.5 563.398438 525.300781 562.199219 523.949219 C 561.074219 522.523438 560.023438 521.023438 559.273438 519.449219 C 558.449219 517.800781 557.773438 516.074219 557.398438 514.351562 C 557.023438 512.625 556.800781 510.75 556.800781 508.949219 C 556.875 507.226562 557.101562 505.351562 557.550781 503.625 C 558 501.898438 558.675781 500.175781 559.574219 498.601562 C 560.398438 497.023438 561.523438 495.523438 562.726562 494.175781 C 563.925781 492.898438 565.273438 491.699219 566.773438 490.726562 C 568.273438 489.675781 569.925781 488.851562 571.648438 488.25 C 573.300781 487.648438 574.574219 487.351562 576.898438 487.050781 C 581.25 486.523438 595.5 485.023438 596.175781 486.976562 C 596.851562 488.925781 580.273438 494.699219 580.574219 499.050781 C 580.949219 505.5 611.476562 512.101562 617.699219 520.648438 C 621.898438 526.351562 621.449219 532.199219 621.898438 539.699219 C 622.5 550.199219 619.351562 567.148438 617.851562 578.023438 C 616.648438 586.199219 615.074219 592.351562 614.175781 599.398438 C 613.351562 606.226562 612.898438 611.925781 612.523438 619.574219 C 612.148438 629.773438 613.125 647.851562 612.523438 655.199219 C 612.226562 658.5 612.148438 660.074219 611.324219 662.324219 C 610.574219 664.574219 609.449219 666.75 608.023438 668.625 C 606.523438 670.574219 604.726562 672.300781 602.773438 673.574219 C 600.824219 674.925781 598.5 675.976562 596.25 676.648438 C 593.925781 677.25 591.449219 677.550781 589.050781 677.398438 C 586.726562 677.25 584.25 676.726562 582.074219 675.824219 C 579.824219 675 577.726562 673.648438 575.925781 672.148438 C 574.125 670.574219 572.476562 668.699219 571.199219 666.675781 C 570 664.648438 569.101562 662.25 568.574219 660 C 568.050781 657.675781 567.898438 655.125 568.199219 652.800781 C 568.425781 650.476562 569.101562 648 570.074219 645.824219 C 571.125 643.726562 572.550781 641.625 574.125 639.898438 C 575.773438 638.175781 577.800781 636.675781 579.898438 635.550781 C 582 634.425781 584.324219 633.601562 586.726562 633.226562 C 589.050781 632.851562 591.523438 632.851562 593.925781 633.226562 C 596.25 633.601562 598.648438 634.425781 600.675781 635.550781 C 602.773438 636.675781 604.800781 638.175781 606.449219 639.898438 C 608.101562 641.625 609.449219 643.726562 610.5 645.898438 C 611.476562 648 612.148438 650.476562 612.375 652.800781 C 612.675781 655.125 612.523438 657.675781 612 660 C 611.476562 662.324219 610.574219 664.648438 609.375 666.675781 C 608.101562 668.699219 606.449219 670.648438 604.648438 672.148438 C 602.851562 673.648438 600.75 675 598.5 675.824219 C 596.324219 676.726562 593.851562 677.25 591.449219 677.398438 C 589.125 677.550781 586.648438 677.25 584.324219 676.648438 C 582.074219 675.976562 579.75 674.925781 577.800781 673.574219 C 575.851562 672.300781 574.050781 670.5 572.550781 668.625 C 571.125 666.75 570 664.5 569.25 662.324219 C 568.425781 660.074219 568.351562 658.574219 568.050781 655.199219 C 567.375 646.648438 567.226562 624.898438 568.273438 610.050781 C 569.25 595.648438 572.625 581.175781 574.125 567.449219 C 575.550781 554.625 576.75 540.523438 577.199219 530.175781 C 577.5 522.824219 576.226562 517.5 577.273438 511.199219 C 578.324219 504.675781 578.699219 494.699219 583.726562 491.925781 C 590.550781 488.101562 616.125 493.574219 619.949219 500.101562 C 623.023438 505.574219 617.925781 519 612.226562 524.25 C 605.925781 530.175781 587.625 530.925781 581.625 531.601562 C 579.074219 531.898438 577.949219 531.75 576.226562 531.523438 C 574.425781 531.300781 572.625 530.773438 570.976562 530.175781 C 569.324219 529.5 567.675781 528.601562 566.25 527.550781 C 564.75 526.5 563.398438 525.300781 562.273438 523.949219 C 561.074219 522.523438 560.023438 521.023438 559.273438 519.449219 C 558.449219 517.800781 557.773438 516.074219 557.398438 514.351562 C 557.023438 512.625 556.800781 510.75 556.800781 508.949219 C 556.875 507.226562 557.101562 505.351562 557.550781 503.625 C 558 501.898438 558.675781 500.175781 559.574219 498.601562 C 560.398438 497.023438 561.523438 495.523438 562.726562 494.175781 C 563.925781 492.898438 565.273438 491.699219 566.773438 490.726562 C 568.273438 489.675781 569.925781 488.851562 571.648438 488.25 C 573.300781 487.648438 576.75 487.800781 576.898438 487.050781 C 577.050781 486.148438 572.699219 485.625 571.273438 483.074219 C 567.976562 477 570.449219 457.273438 569.25 444 C 567.976562 430.125 566.550781 413.023438 563.550781 401.550781 C 561.449219 393.375 557.925781 387.976562 555.523438 381.226562 C 553.273438 374.699219 552.074219 367.800781 549.601562 361.648438 C 547.125 355.726562 543.898438 350.476562 540.75 344.851562 C 537.375 338.925781 534.449219 333.898438 529.726562 327.148438 C 522.75 317.023438 509.851562 300.226562 501.976562 290.925781 C 496.726562 284.773438 493.050781 280.574219 488.175781 276.074219 C 483.449219 271.726562 479.101562 267.976562 473.324219 264.300781 C 466.425781 259.875 456.75 255.300781 448.875 252.148438 C 442.050781 249.300781 436.726562 248.023438 428.925781 245.625 C 418.199219 242.398438 401.101562 238.273438 390.148438 234.824219 C 381.976562 232.273438 377.925781 227.699219 368.925781 227.324219 C 354.074219 226.726562 323.699219 237.898438 308.699219 243 C 299.324219 246.226562 293.773438 249.675781 286.425781 252.523438 C 279.375 255.300781 270.226562 255.375 265.351562 260.023438 C 260.625 264.601562 259.351562 273.226562 257.25 279.824219 C 255.148438 286.050781 253.425781 292.050781 252.601562 298.574219 C 251.699219 305.324219 251.101562 313.125 252.449219 319.648438 C 253.726562 325.875 256.574219 331.648438 260.023438 336.898438 C 263.550781 342.300781 268.726562 347.101562 273.375 351.75 C 278.023438 356.25 281.476562 359.324219 287.925781 364.5 C 299.398438 373.574219 325.800781 391.050781 337.199219 400.199219 C 343.574219 405.375 346.875 408.675781 351.601562 413.023438 C 356.476562 417.449219 361.875 421.199219 366 426.523438 C 370.273438 432.074219 373.574219 439.425781 376.726562 445.800781 C 379.574219 451.648438 382.125 457.125 384 463.273438 C 386.023438 469.800781 388.574219 477.375 388.050781 483.824219 C 387.523438 489.976562 386.023438 496.5 381.601562 501.300781 C 375.75 507.523438 356.398438 517.425781 352.125 514.574219 C 348.601562 512.324219 351.898438 498.300781 352.273438 493.800781 C 352.5 491.625 352.648438 490.5 353.175781 488.925781 C 353.625 487.351562 354.375 485.773438 355.199219 484.425781 C 356.023438 483 357.074219 481.648438 358.199219 480.523438 C 359.398438 479.324219 360.675781 478.273438 362.101562 477.449219 C 363.523438 476.550781 365.023438 475.875 366.601562 475.425781 C 368.175781 474.898438 369.824219 474.601562 371.476562 474.523438 C 373.125 474.375 374.773438 474.449219 376.425781 474.75 C 378 475.050781 379.648438 475.574219 381.148438 476.25 C 382.648438 476.925781 384.074219 477.75 385.425781 478.800781 C 386.699219 479.773438 387.898438 480.976562 388.875 482.25 C 389.925781 483.523438 390.824219 485.023438 391.5 486.523438 C 392.175781 487.949219 392.625 489.523438 392.925781 491.25 C 393.300781 493.050781 393.523438 494.699219 393.226562 497.175781 C 392.625 501.898438 390.898438 511.574219 387.148438 516.824219 C 383.398438 521.925781 376.949219 526.273438 371.023438 528.300781 C 365.175781 530.25 358.050781 530.476562 351.75 528.976562 C 344.851562 527.398438 335.398438 523.425781 331.425781 518.175781 C 327.824219 513.449219 326.324219 505.875 327.449219 500.101562 C 328.800781 493.648438 335.699219 486.898438 340.648438 481.648438 C 345.300781 476.699219 350.101562 470.101562 356.101562 469.125 C 362.851562 468.074219 374.550781 472.351562 379.5 478.125 C 384.824219 484.351562 385.050781 498.601562 385.726562 506.398438 C 386.175781 511.875 386.101562 516.601562 385.050781 520.574219 C 384.226562 523.726562 382.425781 526.574219 380.925781 528.523438 C 379.800781 529.875 378.75 530.625 377.550781 531.523438 C 376.273438 532.351562 375.148438 533.101562 373.5 533.550781 C 371.175781 534.300781 367.050781 534.824219 364.648438 534.675781 C 362.925781 534.523438 361.875 534.300781 360.300781 533.550781 C 358.050781 532.574219 354.824219 530.699219 352.875 528.523438 C 351 526.351562 349.5 522.898438 348.75 520.574219 C 348.226562 518.925781 348.226562 516.074219 348.226562 516.074219 " clip-rule="nonzero"/></clipPath><clipPath id="c7391b801e"><path d="M 0 0.519531 L 415 0.519531 L 415 492.476562 L 0 492.476562 Z M 0 0.519531 " clip-rule="nonzero"/></clipPath><clipPath id="eab06f0a0a"><path d="M 141.226562 331.074219 C 143.851562 318.476562 160.5 323.273438 161.773438 320.351562 C 163.050781 317.5 150.898438 303.550781 148.125 303.851562 C 146.699219 303.925781 145.574219 308.875 145.273438 308.800781 C 145.050781 308.726562 145.648438 305.5 146.175781 303.925781 C 146.625 302.351562 147.375 300.773438 148.199219 299.425781 C 149.023438 298 150.074219 296.648438 151.199219 295.523438 C 152.398438 294.324219 153.75 293.273438 155.101562 292.449219 C 156.523438 291.550781 158.023438 290.875 159.601562 290.425781 C 161.175781 289.898438 162.824219 289.601562 164.476562 289.523438 C 166.125 289.375 167.773438 289.449219 169.425781 289.75 C 171 290.050781 172.648438 290.574219 174.148438 291.25 C 175.648438 291.925781 177.074219 292.75 178.425781 293.800781 C 179.699219 294.773438 180.898438 295.976562 181.875 297.25 C 182.925781 298.523438 183.824219 300.023438 184.5 301.523438 C 185.175781 303.023438 185.625 304 185.925781 306.25 C 186.75 311.125 190.050781 324.324219 186.074219 330.625 C 181.273438 338.125 162.375 347.5 154.648438 345.476562 C 148.425781 343.824219 144.449219 334.601562 141.375 326.726562 C 137.398438 316.449219 139.5 298.675781 136.425781 287.800781 C 134.101562 279.398438 133.351562 274.300781 126.824219 266.273438 C 113.25 249.398438 58.5 218.050781 42.601562 204.398438 C 35.773438 198.550781 33.375 195.699219 28.800781 190.675781 C 23.925781 185.199219 18.226562 179.199219 14.175781 172.75 C 10.199219 166.300781 6.976562 158.949219 4.648438 152.125 C 2.476562 145.898438 0.824219 140.351562 0.300781 133.675781 C -0.300781 125.726562 1.351562 115.824219 2.398438 107.648438 C 3.449219 100.074219 4.648438 93.175781 6.523438 86.273438 C 8.324219 79.449219 10.648438 72.550781 13.5 66.476562 C 16.199219 60.625 18.898438 55.148438 23.101562 50.273438 C 27.523438 45.101562 32.101562 41.050781 39.824219 36.476562 C 52.800781 28.824219 79.800781 19.148438 97.125 13.675781 C 110.851562 9.25 124.574219 6.625 135 4.375 C 142.199219 2.875 146.773438 1.226562 153.375 1 C 160.949219 0.625 170.101562 2.273438 177.75 3.476562 C 184.726562 4.449219 189.75 5.351562 197.398438 7.300781 C 208.726562 10.074219 225.375 15.101562 238.726562 19.523438 C 251.550781 23.875 266.398438 28.824219 276 33.625 C 282.523438 36.851562 286.273438 39.625 291.675781 43.523438 C 298.050781 48.101562 305.476562 53.949219 311.476562 59.875 C 317.476562 65.800781 322.425781 73.449219 327.824219 79.074219 C 332.550781 84.101562 337.5 87.175781 342 92.351562 C 347.175781 98.351562 351.148438 105.023438 356.550781 113.425781 C 364.050781 125.273438 376.425781 144.925781 382.125 156.925781 C 385.949219 164.875 387.601562 170.726562 389.925781 177.476562 C 392.175781 184 394.050781 190.148438 395.851562 196.824219 C 397.800781 204.101562 399.449219 210.925781 401.101562 219.476562 C 403.273438 230.5 405.824219 244.675781 407.101562 257.574219 C 408.449219 270.851562 410.101562 286.523438 409.050781 297.925781 C 408.226562 306.625 406.648438 313.824219 403.574219 320.425781 C 400.726562 326.5 396.601562 332.050781 391.875 336.398438 C 387.226562 340.75 379.949219 345.324219 375.601562 346.523438 C 373.125 347.273438 371.175781 346.75 369.148438 346.523438 C 367.351562 346.300781 365.625 345.773438 363.976562 345.175781 C 362.324219 344.5 360.675781 343.601562 359.25 342.550781 C 357.75 341.5 356.398438 340.300781 355.199219 338.949219 C 354.074219 337.523438 353.023438 336.023438 352.273438 334.449219 C 351.449219 332.800781 350.773438 331.074219 350.398438 329.351562 C 350.023438 327.625 349.800781 325.75 349.800781 323.949219 C 349.875 322.226562 350.101562 320.351562 350.550781 318.625 C 351 316.898438 351.675781 315.175781 352.574219 313.601562 C 353.398438 312.023438 354.523438 310.523438 355.726562 309.175781 C 356.925781 307.898438 358.273438 306.699219 359.773438 305.726562 C 361.273438 304.675781 362.925781 303.851562 364.648438 303.25 C 366.300781 302.648438 367.574219 302.351562 369.898438 302.050781 C 374.25 301.523438 388.5 300.023438 389.175781 301.976562 C 389.851562 303.925781 373.273438 309.699219 373.574219 314.050781 C 373.949219 320.5 404.476562 327.101562 410.699219 335.648438 C 414.898438 341.351562 414.449219 347.199219 414.898438 354.699219 C 415.5 365.199219 412.351562 382.148438 410.851562 393.023438 C 409.648438 401.199219 408.074219 407.351562 407.175781 414.398438 C 406.351562 421.226562 405.898438 426.925781 405.523438 434.574219 C 405.148438 444.773438 406.125 462.851562 405.523438 470.199219 C 405.226562 473.5 405.148438 475.074219 404.324219 477.324219 C 403.574219 479.574219 402.449219 481.75 401.023438 483.625 C 399.523438 485.574219 397.726562 487.300781 395.773438 488.574219 C 393.824219 489.925781 391.5 490.976562 389.25 491.648438 C 386.925781 492.25 384.449219 492.550781 382.050781 492.398438 C 379.726562 492.25 377.25 491.726562 375.074219 490.824219 C 372.824219 490 370.726562 488.648438 368.925781 487.148438 C 367.125 485.574219 365.476562 483.699219 364.199219 481.675781 C 363 479.648438 362.101562 477.25 361.574219 475 C 361.050781 472.675781 360.898438 470.125 361.199219 467.800781 C 361.425781 465.476562 362.101562 463 363.074219 460.824219 C 364.125 458.726562 365.550781 456.625 367.125 454.898438 C 368.773438 453.175781 370.800781 451.675781 372.898438 450.550781 C 375 449.425781 377.324219 448.601562 379.726562 448.226562 C 382.050781 447.851562 384.523438 447.851562 386.925781 448.226562 C 389.25 448.601562 391.648438 449.425781 393.675781 450.550781 C 395.773438 451.675781 397.800781 453.175781 399.449219 454.898438 C 401.101562 456.625 402.449219 458.726562 403.5 460.898438 C 404.476562 463 405.148438 465.476562 405.375 467.800781 C 405.675781 470.125 405.523438 472.675781 405 475 C 404.476562 477.324219 403.574219 479.648438 402.375 481.675781 C 401.101562 483.699219 399.449219 485.648438 397.648438 487.148438 C 395.851562 488.648438 393.75 490 391.5 490.824219 C 389.324219 491.726562 386.851562 492.25 384.449219 492.398438 C 382.125 492.550781 379.648438 492.25 377.324219 491.648438 C 375.074219 490.976562 372.75 489.925781 370.800781 488.574219 C 368.851562 487.300781 367.050781 485.5 365.550781 483.625 C 364.125 481.75 363 479.5 362.25 477.324219 C 361.425781 475.074219 361.351562 473.574219 361.050781 470.199219 C 360.375 461.648438 360.226562 439.898438 361.273438 425.050781 C 362.25 410.648438 365.625 396.175781 367.125 382.449219 C 368.550781 369.625 369.75 355.523438 370.199219 345.175781 C 370.5 337.824219 369.226562 332.5 370.273438 326.199219 C 371.324219 319.675781 371.699219 309.699219 376.726562 306.925781 C 383.550781 303.101562 409.125 308.574219 412.949219 315.101562 C 416.023438 320.574219 410.925781 334 405.226562 339.25 C 398.925781 345.175781 380.625 345.925781 374.625 346.601562 C 372.074219 346.898438 370.949219 346.75 369.226562 346.523438 C 367.425781 346.300781 365.625 345.773438 363.976562 345.175781 C 362.324219 344.5 360.675781 343.601562 359.25 342.550781 C 357.75 341.5 356.398438 340.300781 355.273438 338.949219 C 354.074219 337.523438 353.023438 336.023438 352.273438 334.449219 C 351.449219 332.800781 350.773438 331.074219 350.398438 329.351562 C 350.023438 327.625 349.800781 325.75 349.800781 323.949219 C 349.875 322.226562 350.101562 320.351562 350.550781 318.625 C 351 316.898438 351.675781 315.175781 352.574219 313.601562 C 353.398438 312.023438 354.523438 310.523438 355.726562 309.175781 C 356.925781 307.898438 358.273438 306.699219 359.773438 305.726562 C 361.273438 304.675781 362.925781 303.851562 364.648438 303.25 C 366.300781 302.648438 369.75 302.800781 369.898438 302.050781 C 370.050781 301.148438 365.699219 300.625 364.273438 298.074219 C 360.976562 292 363.449219 272.273438 362.25 259 C 360.976562 245.125 359.550781 228.023438 356.550781 216.550781 C 354.449219 208.375 350.925781 202.976562 348.523438 196.226562 C 346.273438 189.699219 345.074219 182.800781 342.601562 176.648438 C 340.125 170.726562 336.898438 165.476562 333.75 159.851562 C 330.375 153.925781 327.449219 148.898438 322.726562 142.148438 C 315.75 132.023438 302.851562 115.226562 294.976562 105.925781 C 289.726562 99.773438 286.050781 95.574219 281.175781 91.074219 C 276.449219 86.726562 272.101562 82.976562 266.324219 79.300781 C 259.425781 74.875 249.75 70.300781 241.875 67.148438 C 235.050781 64.300781 229.726562 63.023438 221.925781 60.625 C 211.199219 57.398438 194.101562 53.273438 183.148438 49.824219 C 174.976562 47.273438 170.925781 42.699219 161.925781 42.324219 C 147.074219 41.726562 116.699219 52.898438 101.699219 58 C 92.324219 61.226562 86.773438 64.675781 79.425781 67.523438 C 72.375 70.300781 63.226562 70.375 58.351562 75.023438 C 53.625 79.601562 52.351562 88.226562 50.25 94.824219 C 48.148438 101.050781 46.425781 107.050781 45.601562 113.574219 C 44.699219 120.324219 44.101562 128.125 45.449219 134.648438 C 46.726562 140.875 49.574219 146.648438 53.023438 151.898438 C 56.550781 157.300781 61.726562 162.101562 66.375 166.75 C 71.023438 171.25 74.476562 174.324219 80.925781 179.5 C 92.398438 188.574219 118.800781 206.050781 130.199219 215.199219 C 136.574219 220.375 139.875 223.675781 144.601562 228.023438 C 149.476562 232.449219 154.875 236.199219 159 241.523438 C 163.273438 247.074219 166.574219 254.425781 169.726562 260.800781 C 172.574219 266.648438 175.125 272.125 177 278.273438 C 179.023438 284.800781 181.574219 292.375 181.050781 298.824219 C 180.523438 304.976562 179.023438 311.5 174.601562 316.300781 C 168.75 322.523438 149.398438 332.425781 145.125 329.574219 C 141.601562 327.324219 144.898438 313.300781 145.273438 308.800781 C 145.5 306.625 145.648438 305.5 146.175781 303.925781 C 146.625 302.351562 147.375 300.773438 148.199219 299.425781 C 149.023438 298 150.074219 296.648438 151.199219 295.523438 C 152.398438 294.324219 153.675781 293.273438 155.101562 292.449219 C 156.523438 291.550781 158.023438 290.875 159.601562 290.425781 C 161.175781 289.898438 162.824219 289.601562 164.476562 289.523438 C 166.125 289.375 167.773438 289.449219 169.425781 289.75 C 171 290.050781 172.648438 290.574219 174.148438 291.25 C 175.648438 291.925781 177.074219 292.75 178.425781 293.800781 C 179.699219 294.773438 180.898438 295.976562 181.875 297.25 C 182.925781 298.523438 183.824219 300.023438 184.5 301.523438 C 185.175781 302.949219 185.625 304.523438 185.925781 306.25 C 186.300781 308.050781 186.523438 309.699219 186.226562 312.175781 C 185.625 316.898438 183.898438 326.574219 180.148438 331.824219 C 176.398438 336.925781 169.949219 341.273438 164.023438 343.300781 C 158.175781 345.25 151.050781 345.476562 144.75 343.976562 C 137.851562 342.398438 128.398438 338.425781 124.425781 333.175781 C 120.824219 328.449219 119.324219 320.875 120.449219 315.101562 C 121.800781 308.648438 128.699219 301.898438 133.648438 296.648438 C 138.300781 291.699219 143.101562 285.101562 149.101562 284.125 C 155.851562 283.074219 167.550781 287.351562 172.5 293.125 C 177.824219 299.351562 178.050781 313.601562 178.726562 321.398438 C 179.175781 326.875 179.101562 331.601562 178.050781 335.574219 C 177.226562 338.726562 175.425781 341.574219 173.925781 343.523438 C 172.800781 344.875 171.75 345.625 170.550781 346.523438 C 169.273438 347.351562 168.148438 348.101562 166.5 348.550781 C 164.175781 349.300781 160.050781 349.824219 157.648438 349.675781 C 155.925781 349.523438 154.875 349.300781 153.300781 348.550781 C 151.050781 347.574219 147.824219 345.699219 145.875 343.523438 C 144 341.351562 142.5 337.898438 141.75 335.574219 C 141.226562 333.925781 141.226562 331.074219 141.226562 331.074219 " clip-rule="nonzero"/></clipPath><clipPath id="c7933cba61"><rect x="0" width="415" y="0" height="493"/></clipPath><clipPath id="d0c18acf8f"><path d="M 771 762.371094 L 947.601562 762.371094 L 947.601562 887 L 771 887 Z M 771 762.371094 " clip-rule="nonzero"/></clipPath><clipPath id="bc2a0caf1f"><path d="M 771.300781 807.824219 C 772.425781 798.375 773.25 796.050781 774.300781 793.949219 C 775.351562 791.773438 776.625 789.75 778.199219 787.949219 C 779.699219 786.074219 781.5 784.425781 783.375 783 C 785.324219 781.574219 787.648438 780.300781 789.601562 779.476562 C 791.25 778.800781 793.050781 778.875 794.175781 778.199219 C 795.074219 777.675781 796.050781 776.101562 796.050781 776.101562 C 796.125 776.101562 798.300781 774.523438 799.425781 773.773438 C 800.550781 773.023438 802.726562 771.523438 802.726562 771.449219 C 802.800781 771.449219 805.273438 770.550781 806.550781 770.023438 C 807.824219 769.574219 810.300781 768.601562 810.375 768.601562 C 810.449219 768.601562 813.074219 768.226562 814.425781 768.074219 C 815.773438 767.925781 818.398438 767.625 818.476562 767.625 C 818.550781 767.625 838.425781 765.300781 848.550781 764.773438 C 858.75 764.25 869.25 764.699219 879.449219 764.476562 C 889.574219 764.25 899.476562 761.324219 909.449219 763.351562 C 920.476562 765.601562 936.300781 770.550781 942.449219 779.101562 C 948.375 787.351562 948.148438 802.199219 946.726562 812.925781 C 945.375 823.199219 939.375 832.800781 934.800781 842.101562 C 930.300781 851.25 926.550781 861.601562 919.351562 868.351562 C 912.148438 875.175781 897 880.5 891.601562 882.523438 C 889.5 883.351562 888.226562 883.351562 887.023438 883.800781 C 886.050781 884.101562 885.375 884.550781 884.625 884.699219 C 884.023438 884.851562 883.574219 884.699219 882.976562 884.851562 C 882.300781 884.925781 881.699219 885.300781 880.949219 885.375 C 879.898438 885.449219 878.398438 885.148438 877.125 885.148438 C 875.925781 885.226562 874.425781 885.523438 873.375 885.449219 C 872.699219 885.375 872.175781 885 871.574219 884.925781 C 870.976562 884.851562 870.375 885 869.699219 884.851562 C 868.875 884.625 868.050781 883.800781 867 883.800781 C 865.273438 883.800781 863.476562 886.273438 860.476562 886.574219 C 854.324219 887.324219 841.199219 884.925781 831.449219 881.175781 C 819.898438 876.75 805.125 868.5 796.574219 859.648438 C 789.148438 852 785.175781 839.851562 781.273438 832.800781 C 778.726562 828.300781 776.699219 824.851562 775.125 821.550781 C 774 819.074219 773.023438 817.199219 772.425781 814.949219 C 771.75 812.625 771.300781 807.824219 771.300781 807.824219 " clip-rule="nonzero"/></clipPath><clipPath id="166e4a52db"><path d="M 0.121094 0.371094 L 176.601562 0.371094 L 176.601562 125 L 0.121094 125 Z M 0.121094 0.371094 " clip-rule="nonzero"/></clipPath><clipPath id="28f30283a4"><path d="M 0.300781 45.824219 C 1.425781 36.375 2.25 34.050781 3.300781 31.949219 C 4.351562 29.773438 5.625 27.75 7.199219 25.949219 C 8.699219 24.074219 10.5 22.425781 12.375 21 C 14.324219 19.574219 16.648438 18.300781 18.601562 17.476562 C 20.25 16.800781 22.050781 16.875 23.175781 16.199219 C 24.074219 15.675781 25.050781 14.101562 25.050781 14.101562 C 25.125 14.101562 27.300781 12.523438 28.425781 11.773438 C 29.550781 11.023438 31.726562 9.523438 31.726562 9.449219 C 31.800781 9.449219 34.273438 8.550781 35.550781 8.023438 C 36.824219 7.574219 39.300781 6.601562 39.375 6.601562 C 39.449219 6.601562 42.074219 6.226562 43.425781 6.074219 C 44.773438 5.925781 47.398438 5.625 47.476562 5.625 C 47.550781 5.625 67.425781 3.300781 77.550781 2.773438 C 87.75 2.25 98.25 2.699219 108.449219 2.476562 C 118.574219 2.25 128.476562 -0.675781 138.449219 1.351562 C 149.476562 3.601562 165.300781 8.550781 171.449219 17.101562 C 177.375 25.351562 177.148438 40.199219 175.726562 50.925781 C 174.375 61.199219 168.375 70.800781 163.800781 80.101562 C 159.300781 89.25 155.550781 99.601562 148.351562 106.351562 C 141.148438 113.175781 126 118.5 120.601562 120.523438 C 118.5 121.351562 117.226562 121.351562 116.023438 121.800781 C 115.050781 122.101562 114.375 122.550781 113.625 122.699219 C 113.023438 122.851562 112.574219 122.699219 111.976562 122.851562 C 111.300781 122.925781 110.699219 123.300781 109.949219 123.375 C 108.898438 123.449219 107.398438 123.148438 106.125 123.148438 C 104.925781 123.226562 103.425781 123.523438 102.375 123.449219 C 101.699219 123.375 101.175781 123 100.574219 122.925781 C 99.976562 122.851562 99.375 123 98.699219 122.851562 C 97.875 122.625 97.050781 121.800781 96 121.800781 C 94.273438 121.800781 92.476562 124.273438 89.476562 124.574219 C 83.324219 125.324219 70.199219 122.925781 60.449219 119.175781 C 48.898438 114.75 34.125 106.5 25.574219 97.648438 C 18.148438 90 14.175781 77.851562 10.273438 70.800781 C 7.726562 66.300781 5.699219 62.851562 4.125 59.550781 C 3 57.074219 2.023438 55.199219 1.425781 52.949219 C 0.75 50.625 0.300781 45.824219 0.300781 45.824219 " clip-rule="nonzero"/></clipPath><clipPath id="fd578c2537"><rect x="0" width="177" y="0" height="125"/></clipPath><clipPath id="f504cbeef4"><path d="M 680.128906 766.109375 L 791.652344 766.109375 L 791.652344 807 L 680.128906 807 Z M 680.128906 766.109375 " clip-rule="nonzero"/></clipPath><clipPath id="0de8ea60ad"><path d="M 699 766.199219 C 774.824219 766.949219 775.875 767.023438 777.898438 767.699219 C 779.925781 768.375 781.949219 769.425781 783.675781 770.699219 C 785.398438 772.050781 786.898438 773.699219 788.101562 775.425781 C 789.300781 777.226562 790.273438 779.25 790.875 781.351562 C 791.398438 783.375 791.699219 785.625 791.550781 787.800781 C 791.476562 789.898438 790.949219 792.148438 790.125 794.101562 C 789.375 796.125 788.175781 798.074219 786.824219 799.648438 C 785.398438 801.300781 783.675781 802.800781 781.875 803.851562 C 780 804.976562 777.898438 805.800781 775.800781 806.324219 C 773.773438 806.773438 771.449219 806.851562 769.351562 806.625 C 767.25 806.398438 765.074219 805.800781 763.125 804.898438 C 761.175781 804 759.300781 802.726562 757.726562 801.226562 C 756.148438 799.800781 754.800781 798 753.824219 796.125 C 752.773438 794.175781 752.101562 792.074219 751.726562 789.976562 C 751.425781 787.800781 751.425781 785.550781 751.726562 783.449219 C 752.101562 781.351562 752.773438 779.175781 753.824219 777.300781 C 754.800781 775.425781 756.148438 773.625 757.726562 772.125 C 759.300781 770.699219 761.175781 769.425781 763.125 768.523438 C 765.074219 767.625 767.25 767.023438 769.351562 766.726562 C 771.449219 766.5 773.773438 766.648438 775.875 767.101562 C 777.898438 767.550781 780.074219 768.449219 781.875 769.5 C 783.675781 770.625 785.398438 772.125 786.824219 773.699219 C 788.175781 775.351562 789.375 777.300781 790.125 779.25 C 790.949219 781.273438 791.476562 783.523438 791.550781 785.625 C 791.699219 787.726562 791.398438 790.050781 790.875 792.074219 C 790.273438 794.101562 789.300781 796.199219 788.101562 797.925781 C 786.898438 799.726562 785.324219 801.375 783.675781 802.648438 C 781.949219 803.925781 779.925781 805.050781 777.898438 805.726562 C 775.875 806.398438 774.824219 806.550781 771.523438 806.773438 C 760.5 807.449219 711.449219 805.574219 699 803.773438 C 694.648438 803.175781 692.550781 802.648438 690.300781 801.675781 C 688.726562 800.925781 687.824219 800.324219 686.550781 799.050781 C 684.824219 797.324219 682.5 794.398438 681.449219 791.699219 C 680.398438 788.925781 680.023438 785.625 680.398438 782.773438 C 680.699219 779.851562 682.273438 776.398438 683.550781 774.300781 C 684.449219 772.875 685.425781 771.976562 686.550781 770.925781 C 687.675781 769.949219 688.726562 769.050781 690.300781 768.375 C 692.550781 767.398438 699 766.199219 699 766.199219 " clip-rule="nonzero"/></clipPath><clipPath id="9167116484"><path d="M 0.128906 0.109375 L 111.652344 0.109375 L 111.652344 41 L 0.128906 41 Z M 0.128906 0.109375 " clip-rule="nonzero"/></clipPath><clipPath id="0c763de2f5"><path d="M 19 0.199219 C 94.824219 0.949219 95.875 1.023438 97.898438 1.699219 C 99.925781 2.375 101.949219 3.425781 103.675781 4.699219 C 105.398438 6.050781 106.898438 7.699219 108.101562 9.425781 C 109.300781 11.226562 110.273438 13.25 110.875 15.351562 C 111.398438 17.375 111.699219 19.625 111.550781 21.800781 C 111.476562 23.898438 110.949219 26.148438 110.125 28.101562 C 109.375 30.125 108.175781 32.074219 106.824219 33.648438 C 105.398438 35.300781 103.675781 36.800781 101.875 37.851562 C 100 38.976562 97.898438 39.800781 95.800781 40.324219 C 93.773438 40.773438 91.449219 40.851562 89.351562 40.625 C 87.25 40.398438 85.074219 39.800781 83.125 38.898438 C 81.175781 38 79.300781 36.726562 77.726562 35.226562 C 76.148438 33.800781 74.800781 32 73.824219 30.125 C 72.773438 28.175781 72.101562 26.074219 71.726562 23.976562 C 71.425781 21.800781 71.425781 19.550781 71.726562 17.449219 C 72.101562 15.351562 72.773438 13.175781 73.824219 11.300781 C 74.800781 9.425781 76.148438 7.625 77.726562 6.125 C 79.300781 4.699219 81.175781 3.425781 83.125 2.523438 C 85.074219 1.625 87.25 1.023438 89.351562 0.726562 C 91.449219 0.5 93.773438 0.648438 95.875 1.101562 C 97.898438 1.550781 100.074219 2.449219 101.875 3.5 C 103.675781 4.625 105.398438 6.125 106.824219 7.699219 C 108.175781 9.351562 109.375 11.300781 110.125 13.25 C 110.949219 15.273438 111.476562 17.523438 111.550781 19.625 C 111.699219 21.726562 111.398438 24.050781 110.875 26.074219 C 110.273438 28.101562 109.300781 30.199219 108.101562 31.925781 C 106.898438 33.726562 105.324219 35.375 103.675781 36.648438 C 101.949219 37.925781 99.925781 39.050781 97.898438 39.726562 C 95.875 40.398438 94.824219 40.550781 91.523438 40.773438 C 80.5 41.449219 31.449219 39.574219 19 37.773438 C 14.648438 37.175781 12.550781 36.648438 10.300781 35.675781 C 8.726562 34.925781 7.824219 34.324219 6.550781 33.050781 C 4.824219 31.324219 2.5 28.398438 1.449219 25.699219 C 0.398438 22.925781 0.0234375 19.625 0.398438 16.773438 C 0.699219 13.851562 2.273438 10.398438 3.550781 8.300781 C 4.449219 6.875 5.425781 5.976562 6.550781 4.925781 C 7.675781 3.949219 8.726562 3.050781 10.300781 2.375 C 12.550781 1.398438 19 0.199219 19 0.199219 " clip-rule="nonzero"/></clipPath><clipPath id="1b44bda805"><rect x="0" width="112" y="0" height="41"/></clipPath><clipPath id="d42f9a8f35"><path d="M 350.074219 647 L 407.550781 647 L 407.550781 705.699219 L 350.074219 705.699219 Z M 350.074219 647 " clip-rule="nonzero"/></clipPath><clipPath id="1c5c9c3e0e"><path d="M 407.476562 667.574219 C 407.476562 686.023438 405.375 690.75 402.601562 694.273438 C 399.75 697.875 395.699219 701.101562 391.574219 702.976562 C 387.449219 704.773438 382.273438 705.75 377.773438 705.449219 C 373.273438 705.226562 368.324219 703.648438 364.425781 701.324219 C 360.523438 698.925781 356.851562 695.25 354.523438 691.425781 C 352.199219 687.523438 350.625 682.574219 350.324219 678 C 350.101562 673.5 351 668.398438 352.875 664.273438 C 354.75 660.148438 357.976562 656.023438 361.5 653.25 C 365.101562 650.476562 369.824219 648.300781 374.25 647.476562 C 378.75 646.648438 383.925781 647.023438 388.273438 648.375 C 392.550781 649.726562 400.199219 655.574219 400.199219 655.574219 " clip-rule="nonzero"/></clipPath><clipPath id="4520dcedc0"><path d="M 0.0742188 0 L 57.519531 0 L 57.519531 58.699219 L 0.0742188 58.699219 Z M 0.0742188 0 " clip-rule="nonzero"/></clipPath><clipPath id="32cf3b8d98"><path d="M 57.476562 20.574219 C 57.476562 39.023438 55.375 43.75 52.601562 47.273438 C 49.75 50.875 45.699219 54.101562 41.574219 55.976562 C 37.449219 57.773438 32.273438 58.75 27.773438 58.449219 C 23.273438 58.226562 18.324219 56.648438 14.425781 54.324219 C 10.523438 51.925781 6.851562 48.25 4.523438 44.425781 C 2.199219 40.523438 0.625 35.574219 0.324219 31 C 0.101562 26.5 1 21.398438 2.875 17.273438 C 4.75 13.148438 7.976562 9.023438 11.5 6.25 C 15.101562 3.476562 19.824219 1.300781 24.25 0.476562 C 28.75 -0.351562 33.925781 0.0234375 38.273438 1.375 C 42.550781 2.726562 50.199219 8.574219 50.199219 8.574219 " clip-rule="nonzero"/></clipPath><clipPath id="7e97039e5b"><rect x="0" width="58" y="0" height="59"/></clipPath></defs><rect x="-112.5" width="1350" fill="#ffffff" y="-112.499995" height="1349.99994" fill-opacity="1"/><rect x="-112.5" width="1350" fill="#ffffff" y="-112.499995" height="1349.99994" fill-opacity="1"/><g clip-path="url(#07656af724)"><g clip-path="url(#cf8cd0e5ac)"><g transform="matrix(1, 0, 0, 1, 36, 36)"><g clip-path="url(#d570b57dc4)"><g clip-path="url(#f5392aa07c)"><g clip-path="url(#993890006e)"><path fill="#ff65f9" d="M 0.839844 0.839844 L 1052.160156 0.839844 L 1052.160156 1052.160156 L 0.839844 1052.160156 Z M 0.839844 0.839844 " fill-opacity="1" fill-rule="nonzero"/></g></g></g></g></g></g><g clip-path="url(#70ced08126)"><g clip-path="url(#9bcc45a919)"><path stroke-linecap="butt" transform="matrix(0.75, 0, 0, 0.75, 36.839809, 36.839764)" fill="none" stroke-linejoin="miter" d="M 700.875106 0.000105763 C 313.791739 0.000105763 0.0000457631 313.791799 0.0000457631 700.875166 C 0.0000457631 1087.958533 313.791739 1401.750226 700.875106 1401.750226 C 1087.958473 1401.750226 1401.750166 1087.958533 1401.750166 700.875166 C 1401.750166 313.791799 1087.958473 0.000105763 700.875106 0.000105763 Z M 700.875106 0.000105763 " stroke="#2a2a37" stroke-width="44" stroke-opacity="1" stroke-miterlimit="4"/></g></g><g clip-path="url(#a9df1bf7ea)"><g clip-path="url(#34301e07eb)"><g transform="matrix(1, 0, 0, 1, 293, 527)"><g clip-path="url(#307d092b31)"><g clip-path="url(#8cba159a3a)"><g clip-path="url(#71c4df8782)"><rect x="-540.5" width="1620" fill="#f5d990" height="1619.999928" y="-774.499989" fill-opacity="1"/></g></g></g></g></g></g><g clip-path="url(#f9a07afcf9)"><g clip-path="url(#ce1047ad8d)"><g transform="matrix(1, 0, 0, 1, 207, 185)"><g clip-path="url(#c7933cba61)"><g clip-path="url(#c7391b801e)"><g clip-path="url(#eab06f0a0a)"><rect x="-454.5" width="1620" fill="#f5d990" height="1619.999928" y="-432.499989" fill-opacity="1"/></g></g></g></g></g></g><g clip-path="url(#d0c18acf8f)"><g clip-path="url(#bc2a0caf1f)"><g transform="matrix(1, 0, 0, 1, 771, 762)"><g clip-path="url(#fd578c2537)"><g clip-path="url(#166e4a52db)"><g clip-path="url(#28f30283a4)"><rect x="-1018.5" width="1620" fill="#f5d990" height="1619.999928" y="-1009.499989" fill-opacity="1"/></g></g></g></g></g></g><g clip-path="url(#f504cbeef4)"><g clip-path="url(#0de8ea60ad)"><g transform="matrix(1, 0, 0, 1, 680, 766)"><g clip-path="url(#1b44bda805)"><g clip-path="url(#9167116484)"><g clip-path="url(#0c763de2f5)"><rect x="-927.5" width="1620" fill="#f5d990" height="1619.999928" y="-1013.499989" fill-opacity="1"/></g></g></g></g></g></g><path fill="#000000" d="M 932.382812 776.875 L 803.601562 776.875 C 799.210938 777.257812 793.660156 781.015625 790.882812 784.792969 C 773.960938 807.5625 799.460938 856.320312 823.582031 870.792969 C 847.335938 885.03125 877.210938 885.03125 900.949219 870.792969 C 927.613281 854.773438 952.648438 797.964844 932.382812 776.875 Z M 802.886719 753.585938 L 936.707031 753.585938 C 939.152344 753.585938 941.660156 754.382812 943.722656 755.996094 C 985.332031 787.734375 951.96875 867.28125 912.851562 890.753906 C 881.617188 909.46875 842.882812 909.46875 811.679688 890.753906 C 788.6875 876.929688 768.324219 845.339844 763.421875 816.8125 C 745.035156 807.332031 722.890625 807.480469 704.605469 817.195312 C 698.953125 844.308594 680.285156 876.464844 656.546875 890.753906 C 625.308594 909.46875 586.574219 909.46875 555.324219 890.753906 C 537.550781 880.058594 521.445312 858.648438 512.914062 837.140625 L 379.175781 837.140625 C 330.835938 837.140625 291.285156 797.582031 291.285156 749.195312 L 291.285156 608.265625 L 291.136719 607.417969 C 285.300781 579.039062 282.992188 535.324219 309.753906 521.601562 C 312.300781 520.285156 315.027344 519.339844 317.902344 518.722656 L 317.902344 499.109375 C 317.902344 488.730469 324.035156 479.632812 333.164062 475.539062 C 326.84375 454.5625 304.1875 439.558594 285.003906 426.5 C 260.449219 409.816406 233.21875 391.285156 212.390625 355.820312 C 183.78125 307.25 190.8125 258.824219 232.1875 223.925781 C 279.917969 183.703125 355.171875 176.765625 415.78125 190.308594 C 460.601562 200.304688 505.785156 222.378906 543.105469 259.472656 C 597.914062 313.933594 629.53125 397.15625 627.453125 478.917969 C 633.386719 483.675781 637.164062 490.992188 637.164062 499.09375 L 637.164062 518.707031 C 654.5 522.332031 663.828125 537.902344 666.652344 557.613281 C 668.730469 571.953125 667.648438 589.585938 663.828125 608.015625 L 663.777344 749.195312 C 663.777344 750.609375 663.726562 752.070312 663.628906 753.585938 Z M 763.355469 791.546875 C 764.351562 786.40625 766.046875 781.449219 768.492188 776.875 L 702.84375 776.875 C 704.589844 781.398438 705.667969 786.253906 706.234375 791.261719 C 724.753906 784.839844 744.882812 784.941406 763.355469 791.546875 Z M 676.027344 776.875 L 547.292969 776.875 C 542.90625 777.257812 537.351562 781.015625 534.527344 784.792969 C 517.519531 807.746094 543.4375 856.503906 567.277344 870.792969 C 591.03125 885.03125 620.902344 885.03125 644.644531 870.792969 C 671.324219 854.773438 696.34375 797.964844 676.027344 776.875 Z M 546.546875 753.585938 L 600.6875 753.585938 C 601.355469 749.34375 601.023438 723.359375 601.023438 717.320312 C 593.808594 721.230469 586.128906 723.410156 578.082031 723.410156 L 527.476562 723.410156 C 527.476562 730.347656 527.429688 735.671875 521.726562 741.324219 C 518.234375 744.867188 513.382812 747.03125 508.113281 747.03125 L 447.085938 747.03125 C 436.394531 747.03125 427.71875 738.316406 427.71875 727.652344 L 427.71875 723.410156 L 377.117188 723.410156 C 369.054688 723.410156 361.371094 721.246094 354.175781 717.273438 L 354.175781 749.011719 C 354.175781 763.765625 366.292969 775.890625 381.039062 775.890625 L 512.75 775.890625 C 519.679688 763.632812 530.238281 756.511719 544.035156 753.867188 C 544.800781 753.683594 545.648438 753.585938 546.546875 753.585938 Z M 624.0625 753.585938 L 640.421875 753.585938 C 640.519531 752.171875 640.570312 750.707031 640.570312 749.195312 L 640.570312 672.058594 C 635.664062 680.976562 630.246094 689.308594 624.3125 696.761719 C 623.914062 697.894531 624.910156 745.285156 624.0625 753.585938 Z M 506.683594 813.851562 C 506.015625 808.894531 505.785156 804.003906 506.066406 799.179688 L 381.003906 799.179688 C 353.394531 799.179688 330.867188 776.640625 330.867188 749.011719 L 330.867188 696.761719 L 330.304688 696.046875 C 324.601562 688.695312 319.332031 680.527344 314.609375 671.910156 L 314.609375 749.195312 C 314.609375 784.707031 343.683594 813.835938 379.210938 813.835938 L 506.683594 813.835938 Z M 427.75 690.640625 C 428.367188 680.460938 436.894531 672.492188 447.070312 672.492188 L 508.09375 672.492188 C 515.257812 672.492188 521.378906 676.449219 524.867188 682.304688 C 528.160156 688.0625 527.460938 693.535156 527.460938 700.136719 L 578.0625 700.136719 C 589.136719 700.136719 598.792969 691.503906 605.777344 682.839844 C 622.933594 661.429688 635.367188 631.386719 641.167969 603.390625 C 644.425781 587.589844 645.40625 572.703125 643.710938 560.957031 C 642.117188 549.980469 638.675781 541.296875 629.898438 541.296875 L 325.25 541.296875 C 316.488281 541.296875 313.097656 549.644531 311.484375 560.574219 C 309.738281 572.269531 310.6875 587.074219 313.894531 602.828125 C 319.546875 630.507812 331.75 660.214844 348.574219 681.808594 C 355.636719 690.90625 365.527344 700.15625 377.082031 700.15625 L 427.683594 700.15625 Z M 450.976562 711.765625 L 450.976562 723.742188 L 504.171875 723.742188 L 504.171875 695.78125 L 450.976562 695.78125 Z M 411.625 517.957031 L 543.519531 517.957031 L 543.519531 499.09375 C 543.519531 489.613281 548.65625 481.179688 556.570312 476.652344 C 557.933594 411.8125 533.710938 344.242188 491.40625 300.726562 C 463.644531 272.148438 430.378906 255.414062 397.578125 248.113281 C 361.339844 239.996094 311.253906 242.074219 282.507812 266.3125 C 262.527344 283.144531 262.292969 305.632812 276.007812 328.972656 C 302.921875 374.667969 352.214844 383.535156 385.710938 428.648438 C 392.542969 437.894531 397.578125 447.359375 400.9375 457.074219 C 403.8125 465.476562 405.460938 474.042969 405.839844 482.875 C 409.464844 487.300781 411.644531 492.921875 411.644531 499.09375 L 411.644531 517.957031 Z M 579.859375 473.261719 L 604.363281 473.261719 C 604.878906 399.371094 575.953125 324.78125 526.796875 275.925781 C 492.765625 242.15625 451.640625 222.03125 410.828125 212.929688 C 357.433594 201.054688 289.160156 206.277344 247.167969 241.691406 C 214.367188 269.320312 209.847656 305.683594 232.421875 344.058594 C 264.371094 398.390625 316.207031 409.035156 344.152344 446.710938 C 350.234375 454.914062 354.523438 463.730469 356.636719 473.261719 L 381.320312 473.261719 C 374.257812 439.359375 344.515625 418.132812 318.21875 400.21875 C 295.507812 384.796875 272.882812 369.328125 256.011719 340.71875 C 236.261719 307.148438 238.90625 272.714844 267.546875 248.578125 C 302.257812 219.351562 358.894531 215.707031 402.582031 225.421875 C 439.519531 233.675781 476.890625 252.488281 508.042969 284.507812 C 553.609375 331.433594 580.324219 403.378906 579.859375 473.261719 Z M 611.429688 496.550781 L 569.304688 496.550781 C 567.992188 496.550781 566.808594 497.730469 566.808594 499.09375 L 566.808594 517.957031 L 613.9375 517.957031 L 613.9375 499.09375 C 613.921875 497.730469 612.792969 496.550781 611.429688 496.550781 Z M 385.808594 496.550781 L 343.734375 496.550781 C 342.371094 496.550781 341.242188 497.730469 341.242188 499.09375 L 341.242188 517.957031 L 388.371094 517.957031 L 388.371094 499.09375 C 388.351562 497.730469 387.171875 496.550781 385.808594 496.550781 Z M 385.808594 496.550781 " fill-opacity="1" fill-rule="nonzero"/><g clip-path="url(#d42f9a8f35)"><g clip-path="url(#1c5c9c3e0e)"><g transform="matrix(1, 0, 0, 1, 350, 647)"><g clip-path="url(#7e97039e5b)"><g clip-path="url(#4520dcedc0)"><g clip-path="url(#32cf3b8d98)"><rect x="-597.5" width="1620" fill="#f5d990" height="1619.999928" y="-894.499989" fill-opacity="1"/></g></g></g></g></g></g></svg>