<svg xmlns="http://www.w3.org/2000/svg" xmlns:xlink="http://www.w3.org/1999/xlink" width="100" zoomAndPan="magnify" viewBox="0 0 75.119995 83.04" height="100" preserveAspectRatio="xMidYMid meet" version="1.0"><defs><clipPath id="8c90fb9774"><path d="M 0 0.0078125 L 74.132812 0.0078125 L 74.132812 74.136719 L 0 74.136719 Z M 0 0.0078125 " clip-rule="nonzero"/></clipPath><clipPath id="bc61e073b3"><path d="M 2.425781 2.433594 L 71.703125 2.433594 L 71.703125 71.710938 L 2.425781 71.710938 Z M 2.425781 2.433594 " clip-rule="nonzero"/></clipPath><clipPath id="425ac1a37c"><path d="M 37.066406 2.433594 C 17.9375 2.433594 2.425781 17.941406 2.425781 37.070312 C 2.425781 56.203125 17.9375 71.710938 37.066406 71.710938 C 56.195312 71.710938 71.703125 56.203125 71.703125 37.070312 C 71.703125 17.941406 56.195312 2.433594 37.066406 2.433594 Z M 37.066406 2.433594 " clip-rule="nonzero"/></clipPath><clipPath id="98e4ca8bda"><path d="M 0.425781 0.433594 L 69.703125 0.433594 L 69.703125 69.710938 L 0.425781 69.710938 Z M 0.425781 0.433594 " clip-rule="nonzero"/></clipPath><clipPath id="a6521e7d55"><path d="M 35.066406 0.433594 C 15.9375 0.433594 0.425781 15.941406 0.425781 35.070312 C 0.425781 54.203125 15.9375 69.710938 35.066406 69.710938 C 54.195312 69.710938 69.703125 54.203125 69.703125 35.070312 C 69.703125 15.941406 54.195312 0.433594 35.066406 0.433594 Z M 35.066406 0.433594 " clip-rule="nonzero"/></clipPath><clipPath id="03a6de4d84"><rect x="0" width="70" y="0" height="70"/></clipPath><clipPath id="a3eee3f6d2"><path d="M 2.425781 2.433594 L 71.371094 2.433594 L 71.371094 71.375 L 2.425781 71.375 Z M 2.425781 2.433594 " clip-rule="nonzero"/></clipPath><clipPath id="ffe0de1fe1"><path d="M 37.0625 2.433594 C 17.933594 2.433594 2.425781 17.941406 2.425781 37.066406 C 2.425781 56.195312 17.933594 71.699219 37.0625 71.699219 C 56.1875 71.699219 71.695312 56.195312 71.695312 37.066406 C 71.695312 17.941406 56.1875 2.433594 37.0625 2.433594 Z M 37.0625 2.433594 " clip-rule="nonzero"/></clipPath><clipPath id="5890f34d55"><path d="M 10.269531 14.5625 L 63.644531 14.5625 L 63.644531 62.007812 L 10.269531 62.007812 Z M 10.269531 14.5625 " clip-rule="nonzero"/></clipPath></defs><g clip-path="url(#8c90fb9774)"><path fill="#ffffff" d="M 0 0.0078125 L 74.132812 0.0078125 L 74.132812 74.136719 L 0 74.136719 Z M 0 0.0078125 " fill-opacity="1" fill-rule="nonzero"/><path fill="#ffffff" d="M 0 0.0078125 L 74.132812 0.0078125 L 74.132812 74.136719 L 0 74.136719 Z M 0 0.0078125 " fill-opacity="1" fill-rule="nonzero"/></g><g clip-path="url(#bc61e073b3)"><g clip-path="url(#425ac1a37c)"><g transform="matrix(1, 0, 0, 1, 2, 2)"><g clip-path="url(#03a6de4d84)"><g clip-path="url(#98e4ca8bda)"><g clip-path="url(#a6521e7d55)"><path fill="#ffdd84" d="M 0.425781 0.433594 L 69.703125 0.433594 L 69.703125 69.710938 L 0.425781 69.710938 Z M 0.425781 0.433594 " fill-opacity="1" fill-rule="nonzero"/></g></g></g></g></g></g><g clip-path="url(#a3eee3f6d2)"><g clip-path="url(#ffe0de1fe1)"><path stroke-linecap="butt" transform="matrix(0.741316, 0, 0, 0.741316, 2.427548, 2.433866)" fill="none" stroke-linejoin="miter" d="M 46.72092 -0.000367119 C 20.916926 -0.000367119 -0.00238311 20.918942 -0.00238311 46.717667 C -0.00238311 72.521661 20.916926 93.435701 46.72092 93.435701 C 72.519645 93.435701 93.438954 72.521661 93.438954 46.717667 C 93.438954 20.918942 72.519645 -0.000367119 46.72092 -0.000367119 Z M 46.72092 -0.000367119 " stroke="#ff65f9" stroke-width="2" stroke-opacity="1" stroke-miterlimit="4"/></g></g><g clip-path="url(#5890f34d55)"><path fill="#000000" d="M 55.3125 57.1875 C 55.4375 57.867188 55.507812 58.378906 55.136719 58.84375 C 54.917969 59.121094 54.464844 59.40625 53.910156 59.578125 C 42.765625 63.046875 31.078125 62.980469 19.949219 59.476562 C 18.996094 59.175781 18.644531 58.464844 18.824219 57.488281 C 19.589844 53.308594 20.589844 49.285156 21.117188 45.066406 C 21.417969 42.679688 20.992188 40.402344 20.921875 38.023438 C 20.300781 38.503906 19.726562 38.675781 19.039062 38.375 C 16.136719 37.121094 13.484375 35.546875 10.953125 33.644531 C 10.433594 33.257812 10.074219 32.539062 10.378906 31.859375 C 11.863281 28.582031 13.4375 25.449219 15.148438 22.285156 C 16.171875 20.394531 17.601562 18.757812 19.632812 18.097656 L 24.914062 16.378906 C 26.09375 15.992188 27.015625 15.019531 28.265625 14.761719 C 28.933594 14.621094 29.375 15.011719 29.945312 15.34375 C 34.40625 17.90625 40.105469 17.863281 44.472656 15.152344 C 45.117188 14.75 45.625 14.527344 46.285156 14.863281 L 49.253906 16.390625 L 54.355469 18.035156 C 56.363281 18.683594 57.878906 20.152344 58.890625 22.023438 C 60.65625 25.28125 62.242188 28.527344 63.785156 31.90625 C 64.050781 32.496094 63.683594 33.261719 63.222656 33.605469 C 60.6875 35.503906 58.050781 37.136719 55.148438 38.359375 C 54.417969 38.664062 53.828125 38.488281 53.238281 37.96875 C 53.207031 40.320312 52.785156 42.539062 53.050781 44.890625 C 53.527344 49.042969 54.546875 52.980469 55.3125 57.183594 Z M 55.3125 57.1875 " fill-opacity="1" fill-rule="nonzero"/></g><path fill="#ff65f9" d="M 48.058594 17.367188 C 47.8125 18.742188 45.46875 26.523438 43.480469 25.679688 C 41.699219 24.921875 40.070312 24.019531 38.296875 22.765625 C 41.050781 20.859375 43.476562 18.765625 45.550781 16.070312 C 46.53125 16.382812 47.15625 16.855469 48.0625 17.367188 Z M 48.058594 17.367188 " fill-opacity="1" fill-rule="nonzero"/><path fill="#ff65f9" d="M 35.882812 22.714844 C 34.535156 23.570312 30.316406 26.769531 29.335938 25.230469 C 27.8125 22.847656 26.769531 20.308594 26.132812 17.46875 C 26.839844 16.808594 27.644531 16.363281 28.648438 16.089844 C 30.652344 18.757812 33.023438 20.863281 35.882812 22.707031 Z M 35.882812 22.714844 " fill-opacity="1" fill-rule="nonzero"/><path fill="#ff65f9" d="M 41.863281 17.953125 C 40.554688 19.609375 38.863281 20.683594 37.085938 21.808594 C 35.246094 20.699219 33.636719 19.515625 32.113281 17.875 C 35.300781 18.773438 38.398438 18.765625 41.863281 17.953125 Z M 41.863281 17.953125 " fill-opacity="1" fill-rule="nonzero"/><path fill="#ff65f9" d="M 35.277344 25.472656 C 36.253906 25.945312 34.082031 32.390625 32.246094 31.46875 C 30.40625 30.546875 34.515625 26.269531 35.277344 25.472656 Z M 35.277344 25.472656 " fill-opacity="1" fill-rule="nonzero"/><path fill="#ff65f9" d="M 38.816406 25.570312 C 39.523438 26.304688 43.792969 30.550781 41.902344 31.480469 C 40.375 32.230469 39.019531 27.933594 38.664062 26.976562 C 38.484375 26.492188 38.378906 26.078125 38.816406 25.570312 Z M 38.816406 25.570312 " fill-opacity="1" fill-rule="nonzero"/><path fill="#f4d584" d="M 37.167969 25.40625 C 36.589844 25.511719 36.496094 24.910156 36.484375 24.566406 C 36.472656 24.222656 36.570312 23.730469 37.046875 23.71875 C 37.410156 23.71875 37.664062 24.105469 37.667969 24.390625 C 37.671875 24.675781 37.65625 25.316406 37.167969 25.402344 Z M 37.167969 25.40625 " fill-opacity="1" fill-rule="nonzero"/><path fill="#ff65f9" d="M 58.082031 23.429688 L 62.289062 31.933594 C 62.40625 32.175781 62.316406 32.605469 62.101562 32.761719 C 59.707031 34.480469 57.269531 35.976562 54.550781 37.144531 C 52.113281 35.019531 54.246094 32.03125 52.644531 32.046875 C 52.367188 32.046875 51.957031 32.324219 51.976562 32.742188 C 52.070312 35.589844 51.792969 38.332031 51.675781 41.195312 C 51.402344 43.535156 51.625 45.707031 52.066406 47.988281 L 54.003906 58.078125 C 43.25 61.699219 30.953125 61.484375 20.144531 58.09375 C 20.917969 53.855469 21.9375 49.804688 22.464844 45.535156 C 22.78125 42.984375 22.445312 40.503906 22.339844 37.953125 C 21.9375 36.460938 22.777344 32.128906 21.554688 32.035156 C 21.234375 32.007812 20.871094 32.292969 20.859375 32.742188 L 20.773438 35.472656 L 19.605469 37.074219 C 16.753906 35.882812 14.101562 34.324219 11.6875 32.417969 C 13.234375 29.046875 14.777344 25.949219 16.480469 22.796875 C 17.457031 20.988281 18.957031 19.765625 20.890625 19.085938 L 24.765625 17.917969 C 25.136719 19.664062 27.832031 27.894531 30.363281 27.113281 L 32.578125 26.425781 C 31.355469 28.101562 29.042969 30.859375 31.371094 32.476562 C 32.289062 33.113281 33.410156 32.988281 34.449219 32.234375 C 34.539062 33.417969 33.3125 35.679688 34.597656 35.8125 C 34.984375 35.851562 35.257812 35.605469 35.359375 35.117188 C 35.921875 32.453125 36.308594 29.894531 37.105469 27.199219 L 38.835938 35.292969 C 38.921875 35.707031 39.253906 35.90625 39.601562 35.839844 C 40.820312 35.617188 39.644531 33.535156 39.738281 32.214844 C 40.707031 32.957031 41.71875 33.160156 42.6875 32.539062 C 45.09375 30.996094 42.859375 28.085938 41.679688 26.5 L 43.71875 27.160156 C 46.261719 27.984375 48.996094 19.9375 49.355469 17.9375 L 53.148438 19.054688 C 55.4375 19.726562 57.011719 21.253906 58.082031 23.429688 Z M 58.082031 23.429688 " fill-opacity="1" fill-rule="nonzero"/><path fill="#000000" d="M 38.9375 50.941406 C 38.9375 51.191406 38.890625 51.429688 38.792969 51.664062 C 38.699219 51.894531 38.5625 52.097656 38.386719 52.273438 C 38.207031 52.449219 38.003906 52.585938 37.773438 52.683594 C 37.542969 52.777344 37.300781 52.828125 37.050781 52.828125 C 36.800781 52.828125 36.5625 52.777344 36.332031 52.683594 C 36.097656 52.585938 35.894531 52.449219 35.71875 52.273438 C 35.542969 52.097656 35.40625 51.894531 35.308594 51.664062 C 35.214844 51.429688 35.164062 51.191406 35.164062 50.941406 C 35.164062 50.691406 35.214844 50.449219 35.308594 50.21875 C 35.40625 49.988281 35.542969 49.785156 35.71875 49.605469 C 35.894531 49.429688 36.097656 49.292969 36.332031 49.199219 C 36.5625 49.101562 36.800781 49.054688 37.050781 49.054688 C 37.300781 49.054688 37.542969 49.101562 37.773438 49.199219 C 38.003906 49.292969 38.207031 49.429688 38.386719 49.605469 C 38.5625 49.785156 38.699219 49.988281 38.792969 50.21875 C 38.890625 50.449219 38.9375 50.691406 38.9375 50.941406 Z M 38.9375 50.941406 " fill-opacity="1" fill-rule="nonzero"/><path fill="#ff65f9" d="M 37.640625 50.914062 C 37.640625 51.074219 37.585938 51.210938 37.46875 51.328125 C 37.355469 51.441406 37.21875 51.496094 37.058594 51.496094 C 36.894531 51.496094 36.757812 51.441406 36.644531 51.328125 C 36.53125 51.210938 36.472656 51.074219 36.472656 50.914062 C 36.472656 50.753906 36.53125 50.613281 36.644531 50.5 C 36.757812 50.386719 36.894531 50.328125 37.058594 50.328125 C 37.21875 50.328125 37.355469 50.386719 37.46875 50.5 C 37.585938 50.613281 37.640625 50.753906 37.640625 50.914062 Z M 37.640625 50.914062 " fill-opacity="1" fill-rule="nonzero"/><path fill="#000000" d="M 38.949219 41.390625 C 38.949219 41.640625 38.902344 41.882812 38.804688 42.113281 C 38.710938 42.34375 38.574219 42.550781 38.394531 42.726562 C 38.21875 42.902344 38.015625 43.039062 37.785156 43.132812 C 37.554688 43.230469 37.3125 43.277344 37.0625 43.277344 C 36.8125 43.277344 36.570312 43.230469 36.339844 43.132812 C 36.109375 43.039062 35.90625 42.902344 35.730469 42.726562 C 35.550781 42.550781 35.414062 42.34375 35.320312 42.113281 C 35.222656 41.882812 35.175781 41.640625 35.175781 41.390625 C 35.175781 41.140625 35.222656 40.902344 35.320312 40.671875 C 35.414062 40.4375 35.550781 40.234375 35.730469 40.058594 C 35.90625 39.882812 36.109375 39.746094 36.339844 39.648438 C 36.570312 39.554688 36.8125 39.507812 37.0625 39.507812 C 37.3125 39.507812 37.554688 39.554688 37.785156 39.648438 C 38.015625 39.746094 38.21875 39.882812 38.394531 40.058594 C 38.574219 40.234375 38.710938 40.4375 38.804688 40.671875 C 38.902344 40.902344 38.949219 41.140625 38.949219 41.390625 Z M 38.949219 41.390625 " fill-opacity="1" fill-rule="nonzero"/><path fill="#ff65f9" d="M 37.613281 41.390625 C 37.613281 41.546875 37.558594 41.675781 37.453125 41.785156 C 37.34375 41.894531 37.210938 41.949219 37.058594 41.949219 C 36.902344 41.949219 36.773438 41.894531 36.664062 41.785156 C 36.554688 41.675781 36.5 41.546875 36.5 41.390625 C 36.5 41.238281 36.554688 41.105469 36.664062 40.996094 C 36.773438 40.890625 36.902344 40.835938 37.058594 40.835938 C 37.210938 40.835938 37.34375 40.890625 37.453125 40.996094 C 37.558594 41.105469 37.613281 41.238281 37.613281 41.390625 Z M 37.613281 41.390625 " fill-opacity="1" fill-rule="nonzero"/></svg>