<svg xmlns="http://www.w3.org/2000/svg" xmlns:xlink="http://www.w3.org/1999/xlink" width="1500" zoomAndPan="magnify" viewBox="0 0 810 809.99995" height="1500" preserveAspectRatio="xMidYMid meet" version="1.0"><defs><clipPath id="de8dc0dd0a"><path d="M 36.839844 36.839844 L 810 36.839844 L 810 810 L 36.839844 810 Z M 36.839844 36.839844 " clip-rule="nonzero"/></clipPath><clipPath id="3b009b2890"><path d="M 562.5 36.839844 C 272.1875 36.839844 36.839844 272.1875 36.839844 562.5 C 36.839844 852.8125 272.1875 1088.160156 562.5 1088.160156 C 852.8125 1088.160156 1088.160156 852.8125 1088.160156 562.5 C 1088.160156 272.1875 852.8125 36.839844 562.5 36.839844 Z M 562.5 36.839844 " clip-rule="nonzero"/></clipPath><clipPath id="6230c06217"><path d="M 0.839844 0.839844 L 774 0.839844 L 774 774 L 0.839844 774 Z M 0.839844 0.839844 " clip-rule="nonzero"/></clipPath><clipPath id="8e461df2e7"><path d="M 526.5 0.839844 C 236.1875 0.839844 0.839844 236.1875 0.839844 526.5 C 0.839844 816.8125 236.1875 1052.160156 526.5 1052.160156 C 816.8125 1052.160156 1052.160156 816.8125 1052.160156 526.5 C 1052.160156 236.1875 816.8125 0.839844 526.5 0.839844 Z M 526.5 0.839844 " clip-rule="nonzero"/></clipPath><clipPath id="b4227b6d0d"><rect x="0" width="774" y="0" height="774"/></clipPath><clipPath id="6ab27b3ec3"><path d="M 36.839844 36.839844 L 810 36.839844 L 810 810 L 36.839844 810 Z M 36.839844 36.839844 " clip-rule="nonzero"/></clipPath><clipPath id="d15c06b2b7"><path d="M 562.496094 36.839844 C 272.183594 36.839844 36.839844 272.183594 36.839844 562.496094 C 36.839844 852.808594 272.183594 1088.152344 562.496094 1088.152344 C 852.808594 1088.152344 1088.152344 852.808594 1088.152344 562.496094 C 1088.152344 272.183594 852.808594 36.839844 562.496094 36.839844 Z M 562.496094 36.839844 " clip-rule="nonzero"/></clipPath><clipPath id="19a6599938"><path d="M 155.871094 222 L 810 222 L 810 810 L 155.871094 810 Z M 155.871094 222 " clip-rule="nonzero"/></clipPath></defs><rect x="-81" width="972" fill="#ffffff" y="-80.999995" height="971.99994" fill-opacity="1"/><rect x="-81" width="972" fill="#ffffff" y="-80.999995" height="971.99994" fill-opacity="1"/><g clip-path="url(#de8dc0dd0a)"><g clip-path="url(#3b009b2890)"><g transform="matrix(1, 0, 0, 1, 36, 36)"><g clip-path="url(#b4227b6d0d)"><g clip-path="url(#6230c06217)"><g clip-path="url(#8e461df2e7)"><path fill="#f4d584" d="M 0.839844 0.839844 L 1052.160156 0.839844 L 1052.160156 1052.160156 L 0.839844 1052.160156 Z M 0.839844 0.839844 " fill-opacity="1" fill-rule="nonzero"/></g></g></g></g></g></g><g clip-path="url(#6ab27b3ec3)"><g clip-path="url(#d15c06b2b7)"><path stroke-linecap="butt" transform="matrix(0.75, 0, 0, 0.75, 36.839809, 36.839742)" fill="none" stroke-linejoin="miter" d="M 700.875119 0.000136052 C 313.791746 0.000136052 0.0000466121 313.791835 0.0000466121 700.875209 C 0.0000466121 1087.958582 313.791746 1401.750281 700.875119 1401.750281 C 1087.958492 1401.750281 1401.750192 1087.958582 1401.750192 700.875209 C 1401.750192 313.791835 1087.958492 0.000136052 700.875119 0.000136052 Z M 700.875119 0.000136052 " stroke="#ff65f9" stroke-width="44" stroke-opacity="1" stroke-miterlimit="4"/></g></g><g clip-path="url(#19a6599938)"><path fill="#000000" d="M 839.496094 867.863281 C 841.363281 878.191406 842.421875 885.917969 836.8125 892.992188 C 833.476562 897.222656 826.644531 901.53125 818.1875 904.136719 C 649.03125 956.753906 471.65625 955.777344 302.746094 902.589844 C 288.269531 898.035156 282.980469 887.21875 285.664062 872.417969 C 297.296875 808.984375 312.503906 747.910156 320.472656 683.90625 C 325.027344 647.632812 318.601562 613.070312 317.546875 576.960938 C 308.113281 584.28125 299.410156 586.882812 288.917969 582.328125 C 244.921875 563.300781 204.664062 539.390625 166.199219 510.519531 C 158.308594 504.664062 152.859375 493.765625 157.496094 483.4375 C 180.023438 433.664062 203.933594 386.171875 229.875 338.109375 C 245.410156 309.398438 267.125 284.597656 297.945312 274.59375 L 378.132812 248.488281 C 396.023438 242.632812 410.011719 227.832031 428.960938 223.925781 C 439.128906 221.8125 445.796875 227.75 454.5 232.792969 C 522.160156 271.664062 608.691406 271.015625 674.972656 229.863281 C 684.730469 223.765625 692.457031 220.347656 702.460938 225.472656 L 747.515625 248.648438 L 824.9375 273.617188 C 855.433594 283.457031 878.449219 305.742188 893.820312 334.125 C 920.578125 383.570312 944.648438 432.851562 968.070312 484.167969 C 972.136719 493.113281 966.523438 504.746094 959.53125 509.949219 C 921.0625 538.738281 881.050781 563.542969 836.972656 582.085938 C 825.914062 586.722656 816.96875 584.039062 808.019531 576.148438 C 807.535156 611.851562 801.109375 645.519531 805.175781 681.222656 C 812.414062 744.25 827.863281 804.023438 839.496094 867.78125 Z M 839.496094 867.863281 " fill-opacity="1" fill-rule="nonzero"/></g><path fill="#ff65f9" d="M 729.378906 263.449219 C 725.636719 284.351562 690.097656 402.4375 659.925781 389.667969 C 632.84375 378.121094 608.121094 364.457031 581.203125 345.425781 C 623.003906 316.476562 659.847656 284.675781 691.320312 243.769531 C 706.203125 248.570312 715.714844 255.726562 729.460938 263.449219 Z M 729.378906 263.449219 " fill-opacity="1" fill-rule="nonzero"/><path fill="#ff65f9" d="M 544.605469 344.613281 C 524.113281 357.625 460.109375 406.179688 445.226562 382.835938 C 422.128906 346.648438 406.273438 308.097656 396.59375 264.996094 C 407.328125 254.992188 419.527344 248.242188 434.816406 244.09375 C 465.234375 284.597656 501.179688 316.558594 544.605469 344.53125 Z M 544.605469 344.613281 " fill-opacity="1" fill-rule="nonzero"/><path fill="#ff65f9" d="M 635.367188 272.398438 C 615.523438 297.527344 589.824219 313.792969 562.824219 330.871094 C 534.929688 314.035156 510.53125 296.0625 487.355469 271.175781 C 535.742188 284.839844 582.75 284.675781 635.367188 272.398438 Z M 635.367188 272.398438 " fill-opacity="1" fill-rule="nonzero"/><path fill="#ff65f9" d="M 535.417969 386.496094 C 550.21875 393.652344 517.28125 491.488281 489.386719 477.5 C 461.492188 463.511719 523.871094 398.613281 535.417969 386.496094 Z M 535.417969 386.496094 " fill-opacity="1" fill-rule="nonzero"/><path fill="#ff65f9" d="M 589.09375 387.960938 C 599.828125 399.101562 664.644531 463.59375 635.9375 477.664062 C 612.757812 489.046875 592.183594 423.824219 586.816406 409.347656 C 584.050781 401.949219 582.503906 395.6875 589.09375 387.960938 Z M 589.09375 387.960938 " fill-opacity="1" fill-rule="nonzero"/><path fill="#f4d584" d="M 564.125 385.519531 C 555.34375 387.066406 553.878906 377.957031 553.714844 372.753906 C 553.554688 367.546875 555.015625 360.066406 562.253906 359.902344 C 567.785156 359.902344 571.609375 365.757812 571.6875 370.070312 C 571.769531 374.378906 571.527344 384.136719 564.125 385.441406 Z M 564.125 385.519531 " fill-opacity="1" fill-rule="nonzero"/><path fill="#ff65f9" d="M 881.539062 355.511719 L 945.378906 484.574219 C 947.167969 488.234375 945.789062 494.742188 942.535156 497.101562 C 906.183594 523.207031 869.179688 545.894531 827.945312 563.625 C 790.941406 531.417969 823.3125 486.039062 798.996094 486.285156 C 794.765625 486.285156 788.585938 490.511719 788.828125 496.855469 C 790.292969 540.039062 786.0625 581.679688 784.273438 625.105469 C 780.125 660.644531 783.542969 693.582031 790.210938 728.226562 L 819.652344 881.363281 C 656.429688 936.339844 469.789062 933.085938 305.753906 881.609375 C 317.464844 817.28125 332.917969 755.796875 340.96875 690.980469 C 345.765625 652.269531 340.640625 614.617188 339.015625 575.90625 C 332.917969 553.296875 345.683594 487.503906 327.140625 486.121094 C 322.261719 485.714844 316.734375 490.023438 316.570312 496.855469 L 315.269531 538.25 L 297.539062 562.566406 C 254.273438 544.511719 214.019531 520.847656 177.339844 491.894531 C 200.84375 440.742188 224.265625 393.734375 250.125 345.914062 C 264.929688 318.425781 287.699219 299.886719 317.058594 289.554688 L 375.855469 271.828125 C 381.46875 298.339844 422.375 423.257812 460.84375 411.382812 L 494.429688 400.972656 C 475.886719 426.429688 440.753906 468.230469 476.132812 492.789062 C 490.039062 502.46875 507.035156 500.597656 522.8125 489.128906 C 524.195312 507.101562 505.570312 541.421875 525.089844 543.457031 C 530.945312 544.023438 535.09375 540.285156 536.636719 532.882812 C 545.175781 492.464844 551.03125 453.589844 563.148438 412.683594 L 589.417969 535.566406 C 590.71875 541.828125 595.761719 544.839844 601.046875 543.863281 C 619.507812 540.445312 601.699219 508.890625 603.082031 488.804688 C 617.800781 500.109375 633.171875 503.199219 647.890625 493.765625 C 684.40625 470.34375 650.492188 426.183594 632.601562 402.113281 L 663.503906 412.113281 C 702.136719 424.640625 743.613281 302.488281 749.058594 272.152344 L 806.640625 289.070312 C 841.363281 299.316406 865.273438 322.492188 881.539062 355.511719 Z M 881.539062 355.511719 " fill-opacity="1" fill-rule="nonzero"/><path fill="#000000" d="M 590.964844 773.039062 C 590.964844 773.976562 590.917969 774.910156 590.824219 775.84375 C 590.734375 776.777344 590.597656 777.703125 590.414062 778.625 C 590.230469 779.542969 590.003906 780.449219 589.730469 781.347656 C 589.457031 782.246094 589.144531 783.128906 588.785156 783.992188 C 588.425781 784.859375 588.023438 785.707031 587.582031 786.53125 C 587.140625 787.359375 586.660156 788.164062 586.136719 788.941406 C 585.617188 789.722656 585.058594 790.472656 584.464844 791.199219 C 583.871094 791.921875 583.242188 792.617188 582.578125 793.28125 C 581.914062 793.945312 581.222656 794.574219 580.496094 795.167969 C 579.773438 795.761719 579.019531 796.320312 578.242188 796.839844 C 577.460938 797.363281 576.65625 797.84375 575.832031 798.285156 C 575.003906 798.726562 574.15625 799.128906 573.292969 799.484375 C 572.425781 799.84375 571.542969 800.160156 570.644531 800.433594 C 569.75 800.703125 568.839844 800.933594 567.921875 801.113281 C 567 801.296875 566.074219 801.433594 565.140625 801.527344 C 564.210938 801.617188 563.273438 801.664062 562.335938 801.664062 C 561.398438 801.664062 560.464844 801.617188 559.53125 801.527344 C 558.597656 801.433594 557.671875 801.296875 556.75 801.113281 C 555.832031 800.933594 554.921875 800.703125 554.027344 800.433594 C 553.128906 800.160156 552.246094 799.84375 551.382812 799.484375 C 550.515625 799.128906 549.667969 798.726562 548.839844 798.285156 C 548.015625 797.84375 547.210938 797.363281 546.433594 796.839844 C 545.652344 796.320312 544.902344 795.761719 544.175781 795.167969 C 543.449219 794.574219 542.757812 793.945312 542.09375 793.28125 C 541.429688 792.617188 540.800781 791.921875 540.207031 791.199219 C 539.613281 790.472656 539.054688 789.722656 538.535156 788.941406 C 538.011719 788.164062 537.53125 787.359375 537.089844 786.53125 C 536.648438 785.707031 536.246094 784.859375 535.886719 783.992188 C 535.53125 783.128906 535.214844 782.246094 534.941406 781.347656 C 534.671875 780.449219 534.441406 779.542969 534.257812 778.625 C 534.078125 777.703125 533.9375 776.777344 533.847656 775.84375 C 533.753906 774.910156 533.710938 773.976562 533.710938 773.039062 C 533.710938 772.101562 533.753906 771.164062 533.847656 770.234375 C 533.9375 769.300781 534.078125 768.375 534.257812 767.453125 C 534.441406 766.535156 534.671875 765.625 534.941406 764.726562 C 535.214844 763.832031 535.53125 762.949219 535.886719 762.082031 C 536.246094 761.21875 536.648438 760.371094 537.089844 759.542969 C 537.53125 758.71875 538.011719 757.914062 538.535156 757.132812 C 539.054688 756.355469 539.613281 755.601562 540.207031 754.878906 C 540.800781 754.152344 541.429688 753.460938 542.09375 752.796875 C 542.757812 752.132812 543.449219 751.503906 544.175781 750.910156 C 544.902344 750.316406 545.652344 749.757812 546.433594 749.234375 C 547.210938 748.714844 548.015625 748.234375 548.839844 747.792969 C 549.667969 747.351562 550.515625 746.949219 551.382812 746.589844 C 552.246094 746.230469 553.128906 745.917969 554.027344 745.644531 C 554.921875 745.371094 555.832031 745.144531 556.75 744.960938 C 557.671875 744.777344 558.597656 744.640625 559.53125 744.550781 C 560.464844 744.457031 561.398438 744.410156 562.335938 744.410156 C 563.273438 744.410156 564.210938 744.457031 565.140625 744.550781 C 566.074219 744.640625 567 744.777344 567.921875 744.960938 C 568.839844 745.144531 569.75 745.371094 570.644531 745.644531 C 571.542969 745.917969 572.425781 746.230469 573.292969 746.589844 C 574.15625 746.949219 575.003906 747.351562 575.832031 747.792969 C 576.65625 748.234375 577.460938 748.714844 578.242188 749.234375 C 579.019531 749.757812 579.773438 750.316406 580.496094 750.910156 C 581.222656 751.503906 581.914062 752.132812 582.578125 752.796875 C 583.242188 753.460938 583.871094 754.152344 584.464844 754.878906 C 585.058594 755.601562 585.617188 756.355469 586.136719 757.132812 C 586.660156 757.914062 587.140625 758.71875 587.582031 759.542969 C 588.023438 760.371094 588.425781 761.21875 588.785156 762.082031 C 589.144531 762.949219 589.457031 763.832031 589.730469 764.726562 C 590.003906 765.625 590.230469 766.535156 590.414062 767.453125 C 590.597656 768.375 590.734375 769.300781 590.824219 770.234375 C 590.917969 771.164062 590.964844 772.101562 590.964844 773.039062 Z M 590.964844 773.039062 " fill-opacity="1" fill-rule="nonzero"/><path fill="#ff65f9" d="M 571.28125 772.632812 C 571.28125 773.214844 571.226562 773.789062 571.113281 774.359375 C 571 774.933594 570.828125 775.484375 570.605469 776.023438 C 570.382812 776.5625 570.113281 777.074219 569.789062 777.554688 C 569.464844 778.039062 569.097656 778.488281 568.6875 778.898438 C 568.273438 779.3125 567.828125 779.679688 567.34375 780.003906 C 566.859375 780.324219 566.347656 780.597656 565.808594 780.820312 C 565.273438 781.042969 564.71875 781.210938 564.148438 781.324219 C 563.574219 781.441406 563 781.496094 562.417969 781.496094 C 561.835938 781.496094 561.257812 781.441406 560.6875 781.324219 C 560.117188 781.210938 559.5625 781.042969 559.023438 780.820312 C 558.488281 780.597656 557.976562 780.324219 557.492188 780.003906 C 557.007812 779.679688 556.5625 779.3125 556.148438 778.898438 C 555.738281 778.488281 555.371094 778.039062 555.046875 777.554688 C 554.722656 777.074219 554.449219 776.5625 554.226562 776.023438 C 554.003906 775.484375 553.835938 774.933594 553.722656 774.359375 C 553.609375 773.789062 553.554688 773.214844 553.554688 772.632812 C 553.554688 772.050781 553.609375 771.472656 553.722656 770.902344 C 553.835938 770.332031 554.003906 769.777344 554.226562 769.238281 C 554.449219 768.703125 554.722656 768.191406 555.046875 767.707031 C 555.371094 767.222656 555.738281 766.773438 556.148438 766.363281 C 556.5625 765.953125 557.007812 765.585938 557.492188 765.261719 C 557.976562 764.9375 558.488281 764.664062 559.023438 764.441406 C 559.5625 764.21875 560.117188 764.050781 560.6875 763.9375 C 561.257812 763.824219 561.835938 763.765625 562.417969 763.765625 C 563 763.765625 563.574219 763.824219 564.148438 763.9375 C 564.71875 764.050781 565.273438 764.21875 565.808594 764.441406 C 566.347656 764.664062 566.859375 764.9375 567.34375 765.261719 C 567.828125 765.585938 568.273438 765.953125 568.6875 766.363281 C 569.097656 766.773438 569.464844 767.222656 569.789062 767.707031 C 570.113281 768.191406 570.382812 768.703125 570.605469 769.238281 C 570.828125 769.777344 571 770.332031 571.113281 770.902344 C 571.226562 771.472656 571.28125 772.050781 571.28125 772.632812 Z M 571.28125 772.632812 " fill-opacity="1" fill-rule="nonzero"/><path fill="#000000" d="M 591.125 628.117188 C 591.125 629.054688 591.078125 629.988281 590.988281 630.921875 C 590.894531 631.855469 590.757812 632.78125 590.574219 633.699219 C 590.394531 634.621094 590.164062 635.527344 589.894531 636.425781 C 589.621094 637.324219 589.304688 638.203125 588.945312 639.070312 C 588.585938 639.9375 588.1875 640.785156 587.746094 641.609375 C 587.304688 642.4375 586.820312 643.242188 586.300781 644.019531 C 585.78125 644.800781 585.222656 645.550781 584.628906 646.277344 C 584.03125 647 583.402344 647.695312 582.742188 648.359375 C 582.078125 649.019531 581.382812 649.648438 580.660156 650.246094 C 579.933594 650.839844 579.183594 651.398438 578.402344 651.917969 C 577.625 652.4375 576.820312 652.921875 575.992188 653.363281 C 575.167969 653.804688 574.320312 654.203125 573.453125 654.5625 C 572.585938 654.921875 571.707031 655.238281 570.808594 655.511719 C 569.910156 655.78125 569.003906 656.007812 568.082031 656.191406 C 567.164062 656.375 566.238281 656.511719 565.304688 656.605469 C 564.371094 656.695312 563.4375 656.742188 562.5 656.742188 C 561.5625 656.742188 560.625 656.695312 559.691406 656.605469 C 558.761719 656.511719 557.832031 656.375 556.914062 656.191406 C 555.996094 656.007812 555.085938 655.78125 554.1875 655.511719 C 553.292969 655.238281 552.410156 654.921875 551.542969 654.5625 C 550.679688 654.203125 549.832031 653.804688 549.003906 653.363281 C 548.175781 652.921875 547.375 652.4375 546.59375 651.917969 C 545.816406 651.398438 545.0625 650.839844 544.339844 650.246094 C 543.613281 649.648438 542.917969 649.019531 542.257812 648.359375 C 541.59375 647.695312 540.964844 647 540.371094 646.277344 C 539.777344 645.550781 539.21875 644.800781 538.695312 644.019531 C 538.175781 643.242188 537.695312 642.4375 537.253906 641.609375 C 536.808594 640.785156 536.410156 639.9375 536.050781 639.070312 C 535.691406 638.203125 535.378906 637.324219 535.105469 636.425781 C 534.832031 635.527344 534.605469 634.621094 534.421875 633.699219 C 534.238281 632.78125 534.101562 631.855469 534.011719 630.921875 C 533.917969 629.988281 533.871094 629.054688 533.871094 628.117188 C 533.871094 627.179688 533.917969 626.242188 534.011719 625.308594 C 534.101562 624.375 534.238281 623.449219 534.421875 622.53125 C 534.605469 621.613281 534.832031 620.703125 535.105469 619.804688 C 535.378906 618.910156 535.691406 618.027344 536.050781 617.160156 C 536.410156 616.292969 536.808594 615.449219 537.253906 614.621094 C 537.695312 613.792969 538.175781 612.992188 538.695312 612.210938 C 539.21875 611.433594 539.777344 610.679688 540.371094 609.957031 C 540.964844 609.230469 541.59375 608.535156 542.257812 607.875 C 542.917969 607.210938 543.613281 606.582031 544.339844 605.988281 C 545.0625 605.390625 545.816406 604.835938 546.59375 604.3125 C 547.375 603.792969 548.175781 603.3125 549.003906 602.871094 C 549.832031 602.425781 550.679688 602.027344 551.542969 601.667969 C 552.410156 601.308594 553.292969 600.992188 554.1875 600.722656 C 555.085938 600.449219 555.996094 600.222656 556.914062 600.039062 C 557.832031 599.855469 558.761719 599.71875 559.691406 599.628906 C 560.625 599.535156 561.5625 599.488281 562.5 599.488281 C 563.4375 599.488281 564.371094 599.535156 565.304688 599.628906 C 566.238281 599.71875 567.164062 599.855469 568.082031 600.039062 C 569.003906 600.222656 569.910156 600.449219 570.808594 600.722656 C 571.707031 600.992188 572.585938 601.308594 573.453125 601.667969 C 574.320312 602.027344 575.167969 602.425781 575.992188 602.871094 C 576.820312 603.3125 577.625 603.792969 578.402344 604.3125 C 579.183594 604.835938 579.933594 605.390625 580.660156 605.988281 C 581.382812 606.582031 582.078125 607.210938 582.742188 607.875 C 583.402344 608.535156 584.03125 609.230469 584.628906 609.957031 C 585.222656 610.679688 585.78125 611.433594 586.300781 612.210938 C 586.820312 612.992188 587.304688 613.792969 587.746094 614.621094 C 588.1875 615.449219 588.585938 616.292969 588.945312 617.160156 C 589.304688 618.027344 589.621094 618.910156 589.894531 619.804688 C 590.164062 620.703125 590.394531 621.613281 590.574219 622.53125 C 590.757812 623.449219 590.894531 624.375 590.988281 625.308594 C 591.078125 626.242188 591.125 627.179688 591.125 628.117188 Z M 591.125 628.117188 " fill-opacity="1" fill-rule="nonzero"/><path fill="#ff65f9" d="M 570.875 628.117188 C 570.875 628.671875 570.820312 629.222656 570.714844 629.765625 C 570.605469 630.3125 570.445312 630.839844 570.230469 631.351562 C 570.019531 631.867188 569.757812 632.351562 569.449219 632.816406 C 569.140625 633.277344 568.789062 633.703125 568.398438 634.097656 C 568.003906 634.488281 567.578125 634.839844 567.117188 635.148438 C 566.65625 635.457031 566.167969 635.71875 565.652344 635.929688 C 565.140625 636.140625 564.613281 636.304688 564.066406 636.410156 C 563.523438 636.519531 562.972656 636.574219 562.417969 636.574219 C 561.863281 636.574219 561.3125 636.519531 560.765625 636.410156 C 560.222656 636.304688 559.695312 636.140625 559.179688 635.929688 C 558.667969 635.71875 558.179688 635.457031 557.71875 635.148438 C 557.257812 634.839844 556.828125 634.488281 556.4375 634.097656 C 556.042969 633.703125 555.695312 633.277344 555.386719 632.816406 C 555.078125 632.351562 554.816406 631.867188 554.605469 631.351562 C 554.390625 630.839844 554.230469 630.3125 554.121094 629.765625 C 554.015625 629.222656 553.960938 628.671875 553.960938 628.117188 C 553.960938 627.558594 554.015625 627.011719 554.121094 626.464844 C 554.230469 625.921875 554.390625 625.390625 554.601562 624.878906 C 554.816406 624.367188 555.078125 623.878906 555.386719 623.417969 C 555.695312 622.957031 556.042969 622.527344 556.4375 622.136719 C 556.828125 621.742188 557.257812 621.390625 557.71875 621.082031 C 558.179688 620.773438 558.667969 620.515625 559.179688 620.300781 C 559.695312 620.089844 560.222656 619.929688 560.765625 619.820312 C 561.3125 619.710938 561.863281 619.65625 562.417969 619.65625 C 562.972656 619.65625 563.523438 619.710938 564.066406 619.820312 C 564.613281 619.929688 565.140625 620.089844 565.652344 620.300781 C 566.167969 620.515625 566.65625 620.773438 567.117188 621.082031 C 567.578125 621.390625 568.003906 621.742188 568.398438 622.136719 C 568.789062 622.527344 569.140625 622.957031 569.449219 623.417969 C 569.757812 623.878906 570.019531 624.367188 570.230469 624.878906 C 570.445312 625.390625 570.605469 625.921875 570.714844 626.464844 C 570.820312 627.011719 570.875 627.558594 570.875 628.117188 Z M 570.875 628.117188 " fill-opacity="1" fill-rule="nonzero"/></svg>