<svg xmlns="http://www.w3.org/2000/svg" xmlns:xlink="http://www.w3.org/1999/xlink" width="100" zoomAndPan="magnify" viewBox="0 0 75.119995 83.04" height="100" preserveAspectRatio="xMidYMid meet" version="1.0"><defs><clipPath id="8dfc11400e"><path d="M 0 0.0078125 L 74.132812 0.0078125 L 74.132812 74.136719 L 0 74.136719 Z M 0 0.0078125 " clip-rule="nonzero"/></clipPath><clipPath id="5d870cbc5d"><path d="M 2.425781 2.433594 L 71.703125 2.433594 L 71.703125 71.710938 L 2.425781 71.710938 Z M 2.425781 2.433594 " clip-rule="nonzero"/></clipPath><clipPath id="2a303b8951"><path d="M 37.066406 2.433594 C 17.9375 2.433594 2.425781 17.941406 2.425781 37.070312 C 2.425781 56.203125 17.9375 71.710938 37.066406 71.710938 C 56.195312 71.710938 71.703125 56.203125 71.703125 37.070312 C 71.703125 17.941406 56.195312 2.433594 37.066406 2.433594 Z M 37.066406 2.433594 " clip-rule="nonzero"/></clipPath><clipPath id="de25606f14"><path d="M 0.425781 0.433594 L 69.703125 0.433594 L 69.703125 69.710938 L 0.425781 69.710938 Z M 0.425781 0.433594 " clip-rule="nonzero"/></clipPath><clipPath id="9174fff06f"><path d="M 35.066406 0.433594 C 15.9375 0.433594 0.425781 15.941406 0.425781 35.070312 C 0.425781 54.203125 15.9375 69.710938 35.066406 69.710938 C 54.195312 69.710938 69.703125 54.203125 69.703125 35.070312 C 69.703125 15.941406 54.195312 0.433594 35.066406 0.433594 Z M 35.066406 0.433594 " clip-rule="nonzero"/></clipPath><clipPath id="0900c1ad59"><rect x="0" width="70" y="0" height="70"/></clipPath><clipPath id="a16be047a0"><path d="M 2.425781 2.433594 L 71.371094 2.433594 L 71.371094 71.375 L 2.425781 71.375 Z M 2.425781 2.433594 " clip-rule="nonzero"/></clipPath><clipPath id="fb98099d33"><path d="M 37.0625 2.433594 C 17.933594 2.433594 2.425781 17.941406 2.425781 37.066406 C 2.425781 56.195312 17.933594 71.699219 37.0625 71.699219 C 56.1875 71.699219 71.695312 56.195312 71.695312 37.066406 C 71.695312 17.941406 56.1875 2.433594 37.0625 2.433594 Z M 37.0625 2.433594 " clip-rule="nonzero"/></clipPath><clipPath id="deeb01b82e"><path d="M 15 13 L 60 13 L 60 61 L 15 61 Z M 15 13 " clip-rule="nonzero"/></clipPath><clipPath id="cb758bee03"><path d="M 16.046875 13.414062 L 60.515625 14.433594 L 59.460938 60.382812 L 14.992188 59.363281 Z M 16.046875 13.414062 " clip-rule="nonzero"/></clipPath><clipPath id="25f3b90985"><path d="M 16.046875 13.414062 L 60.515625 14.433594 L 59.460938 60.382812 L 14.992188 59.363281 Z M 16.046875 13.414062 " clip-rule="nonzero"/></clipPath><clipPath id="04415f8677"><path d="M 16 17 L 59 17 L 59 60 L 16 60 Z M 16 17 " clip-rule="nonzero"/></clipPath><clipPath id="670901ed49"><path d="M 16.046875 13.414062 L 60.515625 14.433594 L 59.460938 60.382812 L 14.992188 59.363281 Z M 16.046875 13.414062 " clip-rule="nonzero"/></clipPath><clipPath id="96455029fb"><path d="M 16.046875 13.414062 L 60.515625 14.433594 L 59.460938 60.382812 L 14.992188 59.363281 Z M 16.046875 13.414062 " clip-rule="nonzero"/></clipPath><clipPath id="96885899d0"><path d="M 26 14 L 49 14 L 49 19 L 26 19 Z M 26 14 " clip-rule="nonzero"/></clipPath><clipPath id="85b3cfeec1"><path d="M 16.046875 13.414062 L 60.515625 14.433594 L 59.460938 60.382812 L 14.992188 59.363281 Z M 16.046875 13.414062 " clip-rule="nonzero"/></clipPath><clipPath id="0ad84fe992"><path d="M 16.046875 13.414062 L 60.515625 14.433594 L 59.460938 60.382812 L 14.992188 59.363281 Z M 16.046875 13.414062 " clip-rule="nonzero"/></clipPath><clipPath id="30d5e91c55"><path d="M 19 31 L 25 31 L 25 56 L 19 56 Z M 19 31 " clip-rule="nonzero"/></clipPath><clipPath id="3d5e9b75e1"><path d="M 16.046875 13.414062 L 60.515625 14.433594 L 59.460938 60.382812 L 14.992188 59.363281 Z M 16.046875 13.414062 " clip-rule="nonzero"/></clipPath><clipPath id="a91d12496e"><path d="M 16.046875 13.414062 L 60.515625 14.433594 L 59.460938 60.382812 L 14.992188 59.363281 Z M 16.046875 13.414062 " clip-rule="nonzero"/></clipPath><clipPath id="eeffa80547"><path d="M 25 19 L 28 19 L 28 28 L 25 28 Z M 25 19 " clip-rule="nonzero"/></clipPath><clipPath id="6ad5ea8434"><path d="M 16.046875 13.414062 L 60.515625 14.433594 L 59.460938 60.382812 L 14.992188 59.363281 Z M 16.046875 13.414062 " clip-rule="nonzero"/></clipPath><clipPath id="6c0aeae161"><path d="M 16.046875 13.414062 L 60.515625 14.433594 L 59.460938 60.382812 L 14.992188 59.363281 Z M 16.046875 13.414062 " clip-rule="nonzero"/></clipPath></defs><g clip-path="url(#8dfc11400e)"><path fill="#ffffff" d="M 0 0.0078125 L 74.132812 0.0078125 L 74.132812 74.136719 L 0 74.136719 Z M 0 0.0078125 " fill-opacity="1" fill-rule="nonzero"/><path fill="#ffffff" d="M 0 0.0078125 L 74.132812 0.0078125 L 74.132812 74.136719 L 0 74.136719 Z M 0 0.0078125 " fill-opacity="1" fill-rule="nonzero"/></g><g clip-path="url(#5d870cbc5d)"><g clip-path="url(#2a303b8951)"><g transform="matrix(1, 0, 0, 1, 2, 2)"><g clip-path="url(#0900c1ad59)"><g clip-path="url(#de25606f14)"><g clip-path="url(#9174fff06f)"><path fill="#ff65f9" d="M 0.425781 0.433594 L 69.703125 0.433594 L 69.703125 69.710938 L 0.425781 69.710938 Z M 0.425781 0.433594 " fill-opacity="1" fill-rule="nonzero"/></g></g></g></g></g></g><g clip-path="url(#a16be047a0)"><g clip-path="url(#fb98099d33)"><path stroke-linecap="butt" transform="matrix(0.741316, 0, 0, 0.741316, 2.427548, 2.433865)" fill="none" stroke-linejoin="miter" d="M 46.72092 -0.000366511 C 20.916926 -0.000366511 -0.00238311 20.918943 -0.00238311 46.717667 C -0.00238311 72.521662 20.916926 93.435701 46.72092 93.435701 C 72.519645 93.435701 93.438954 72.521662 93.438954 46.717667 C 93.438954 20.918943 72.519645 -0.000366511 46.72092 -0.000366511 Z M 46.72092 -0.000366511 " stroke="#000000" stroke-width="2" stroke-opacity="1" stroke-miterlimit="4"/></g></g><g clip-path="url(#deeb01b82e)"><g clip-path="url(#cb758bee03)"><g clip-path="url(#25f3b90985)"><path fill="#000000" d="M 50.050781 59.007812 C 37.648438 62.105469 37.378906 58.519531 30.894531 59.515625 C 27.835938 59.984375 24.945312 59.667969 22.117188 58.421875 C 20.320312 57.632812 18.46875 57.003906 16.644531 56.425781 C 15.320312 56.003906 14.957031 54.933594 15.175781 53.675781 C 17.347656 41.21875 20.179688 28.953125 25.421875 17.390625 L 25.71875 14.871094 C 25.800781 14.191406 26.355469 13.652344 27.097656 13.757812 C 34.0625 14.75 40.960938 14.886719 47.960938 14.15625 C 48.730469 14.078125 49.339844 14.617188 49.410156 15.339844 L 49.660156 17.964844 C 51.886719 22.515625 53.5625 27.164062 54.90625 32.101562 C 56.964844 39.679688 58.488281 47.230469 59.65625 54.96875 C 59.804688 55.953125 58.507812 56.515625 57.769531 56.625 L 54.226562 57.136719 C 52.929688 58.0625 51.574219 58.632812 50.050781 59.011719 Z M 48.585938 17.613281 L 48.40625 15.148438 C 41.117188 15.789062 34.050781 15.726562 26.773438 14.695312 C 26.597656 15.640625 26.507812 16.367188 26.453125 17.210938 C 33.84375 18.296875 41.066406 18.457031 48.585938 17.613281 Z M 48.773438 18.394531 L 44.34375 18.886719 C 44.589844 20.746094 45.464844 22.203125 44.917969 24.070312 L 43.671875 18.875 L 40.296875 18.992188 C 40.820312 24.941406 41.242188 30.59375 41.382812 36.535156 L 41.730469 51 C 41.75 51.824219 41.660156 52.675781 41.375 53.4375 L 40.703125 37.839844 L 39.769531 18.980469 L 31.65625 18.644531 C 31.449219 19.535156 31.226562 20.464844 31.121094 21.421875 L 29.011719 41.125 C 28.511719 45.769531 28.519531 50.1875 27.761719 54.917969 C 27.4375 51.25 27.765625 47.722656 28.113281 44.050781 L 29.542969 28.886719 C 29.875 25.371094 30.484375 22.011719 31.128906 18.5625 L 26.269531 17.902344 C 21.164062 29.007812 18.007812 42.488281 16.03125 54.488281 C 15.9375 55.050781 16.933594 55.578125 17.351562 55.695312 C 19.144531 56.203125 20.890625 56.773438 22.574219 57.539062 C 28.15625 60.078125 30.972656 57.742188 35.746094 58.582031 C 37.269531 58.847656 38.742188 59.261719 40.296875 59.304688 C 44.21875 59.414062 47.96875 58.683594 51.65625 57.464844 C 52.226562 57.277344 52.769531 56.890625 53.238281 56.484375 C 52.1875 43.574219 50.410156 31.625 46.671875 19.03125 C 47.664062 20.242188 47.9375 21.730469 48.386719 23.214844 C 51.558594 33.675781 53.136719 45.171875 54.039062 56.117188 L 57.792969 55.671875 C 58.300781 55.613281 58.773438 55.078125 58.667969 54.507812 L 56.292969 41.996094 C 54.949219 34.90625 52.109375 24.859375 48.773438 18.394531 Z M 48.773438 18.394531 " fill-opacity="1" fill-rule="nonzero"/></g></g></g><g clip-path="url(#04415f8677)"><g clip-path="url(#670901ed49)"><g clip-path="url(#96455029fb)"><path fill="#ffdd84" d="M 48.773438 18.394531 C 52.113281 24.859375 54.949219 34.90625 56.292969 41.996094 L 58.667969 54.507812 C 58.773438 55.078125 58.300781 55.613281 57.792969 55.675781 L 54.039062 56.117188 C 53.136719 45.171875 51.5625 33.675781 48.390625 23.214844 C 47.941406 21.730469 47.664062 20.242188 46.671875 19.03125 C 50.414062 31.625 52.1875 43.574219 53.242188 56.484375 C 52.773438 56.890625 52.230469 57.277344 51.65625 57.464844 C 47.96875 58.683594 44.21875 59.414062 40.300781 59.304688 C 38.742188 59.261719 37.269531 58.851562 35.75 58.582031 C 30.972656 57.742188 28.15625 60.082031 22.574219 57.542969 C 20.890625 56.777344 19.144531 56.203125 17.351562 55.699219 C 16.933594 55.578125 15.9375 55.054688 16.03125 54.492188 C 18.007812 42.488281 21.164062 29.007812 26.269531 17.902344 L 31.128906 18.566406 C 30.484375 22.011719 29.875 25.371094 29.542969 28.886719 L 28.113281 44.050781 C 27.765625 47.722656 27.4375 51.25 27.761719 54.917969 C 28.519531 50.191406 28.511719 45.769531 29.011719 41.125 L 31.121094 21.421875 C 31.226562 20.464844 31.449219 19.535156 31.65625 18.648438 L 39.769531 18.980469 L 40.703125 37.839844 L 41.375 53.4375 C 41.660156 52.675781 41.75 51.824219 41.730469 51 L 41.382812 36.539062 C 41.242188 30.59375 40.820312 24.941406 40.296875 18.992188 L 43.671875 18.875 L 44.917969 24.074219 C 45.464844 22.207031 44.589844 20.746094 44.34375 18.890625 Z M 25.144531 27.945312 C 26.207031 25.027344 26.980469 22.316406 27.707031 19.339844 C 26.269531 21.980469 25.339844 24.886719 25.144531 27.945312 Z M 20.667969 52.316406 L 24.214844 31.894531 C 24.261719 31.628906 24.234375 31.503906 24.007812 31.246094 C 22.664062 36.402344 21.640625 41.585938 20.78125 46.949219 C 20.339844 49.71875 19.890625 52.3125 19.917969 55.058594 C 20.398438 54.160156 20.488281 53.355469 20.667969 52.316406 Z M 20.667969 52.316406 " fill-opacity="1" fill-rule="nonzero"/></g></g></g><g clip-path="url(#96885899d0)"><g clip-path="url(#85b3cfeec1)"><g clip-path="url(#0ad84fe992)"><path fill="#ffdd84" d="M 48.585938 17.613281 C 41.0625 18.457031 33.839844 18.292969 26.453125 17.210938 C 26.503906 16.367188 26.597656 15.640625 26.773438 14.695312 C 34.046875 15.726562 41.117188 15.789062 48.40625 15.148438 Z M 48.585938 17.613281 " fill-opacity="1" fill-rule="nonzero"/></g></g></g><g clip-path="url(#30d5e91c55)"><g clip-path="url(#3d5e9b75e1)"><g clip-path="url(#a91d12496e)"><path fill="#000000" d="M 20.667969 52.316406 C 20.488281 53.355469 20.398438 54.160156 19.917969 55.058594 C 19.890625 52.3125 20.339844 49.71875 20.78125 46.949219 C 21.640625 41.585938 22.664062 36.402344 24.007812 31.246094 C 24.234375 31.503906 24.261719 31.628906 24.214844 31.894531 Z M 20.667969 52.316406 " fill-opacity="1" fill-rule="nonzero"/></g></g></g><g clip-path="url(#eeffa80547)"><g clip-path="url(#6ad5ea8434)"><g clip-path="url(#6c0aeae161)"><path fill="#000000" d="M 25.144531 27.945312 C 25.339844 24.882812 26.269531 21.980469 27.707031 19.339844 C 26.980469 22.316406 26.207031 25.027344 25.144531 27.945312 Z M 25.144531 27.945312 " fill-opacity="1" fill-rule="nonzero"/></g></g></g></svg>