<svg xmlns="http://www.w3.org/2000/svg" xmlns:xlink="http://www.w3.org/1999/xlink" width="1500" zoomAndPan="magnify" viewBox="0 0 810 809.99995" height="1500" preserveAspectRatio="xMidYMid meet" version="1.0"><defs><clipPath id="d9b6ba4186"><path d="M 36.839844 36.839844 L 810 36.839844 L 810 810 L 36.839844 810 Z M 36.839844 36.839844 " clip-rule="nonzero"/></clipPath><clipPath id="5b9bf3be3e"><path d="M 562.5 36.839844 C 272.1875 36.839844 36.839844 272.1875 36.839844 562.5 C 36.839844 852.8125 272.1875 1088.160156 562.5 1088.160156 C 852.8125 1088.160156 1088.160156 852.8125 1088.160156 562.5 C 1088.160156 272.1875 852.8125 36.839844 562.5 36.839844 Z M 562.5 36.839844 " clip-rule="nonzero"/></clipPath><clipPath id="d28b84dae7"><path d="M 0.839844 0.839844 L 774 0.839844 L 774 774 L 0.839844 774 Z M 0.839844 0.839844 " clip-rule="nonzero"/></clipPath><clipPath id="404f285067"><path d="M 526.5 0.839844 C 236.1875 0.839844 0.839844 236.1875 0.839844 526.5 C 0.839844 816.8125 236.1875 1052.160156 526.5 1052.160156 C 816.8125 1052.160156 1052.160156 816.8125 1052.160156 526.5 C 1052.160156 236.1875 816.8125 0.839844 526.5 0.839844 Z M 526.5 0.839844 " clip-rule="nonzero"/></clipPath><clipPath id="91affb6f1a"><rect x="0" width="774" y="0" height="774"/></clipPath><clipPath id="7e34b01e36"><path d="M 36.839844 36.839844 L 810 36.839844 L 810 810 L 36.839844 810 Z M 36.839844 36.839844 " clip-rule="nonzero"/></clipPath><clipPath id="e0f065ae56"><path d="M 562.496094 36.839844 C 272.183594 36.839844 36.839844 272.183594 36.839844 562.496094 C 36.839844 852.808594 272.183594 1088.152344 562.496094 1088.152344 C 852.808594 1088.152344 1088.152344 852.808594 1088.152344 562.496094 C 1088.152344 272.183594 852.808594 36.839844 562.496094 36.839844 Z M 562.496094 36.839844 " clip-rule="nonzero"/></clipPath><clipPath id="f3916e35e8"><path d="M 229 208 L 810 208 L 810 810 L 229 810 Z M 229 208 " clip-rule="nonzero"/></clipPath><clipPath id="a365c9ad41"><path d="M 243.535156 203.457031 L 919.855469 218.96875 L 903.742188 921.535156 L 227.417969 906.019531 Z M 243.535156 203.457031 " clip-rule="nonzero"/></clipPath><clipPath id="911383215a"><path d="M 243.535156 203.457031 L 919.855469 218.96875 L 903.742188 921.535156 L 227.417969 906.019531 Z M 243.535156 203.457031 " clip-rule="nonzero"/></clipPath><clipPath id="1e74435797"><path d="M 243 271 L 810 271 L 810 810 L 243 810 Z M 243 271 " clip-rule="nonzero"/></clipPath><clipPath id="52b088cc24"><path d="M 243.535156 203.457031 L 919.855469 218.96875 L 903.742188 921.535156 L 227.417969 906.019531 Z M 243.535156 203.457031 " clip-rule="nonzero"/></clipPath><clipPath id="be492a8524"><path d="M 243.535156 203.457031 L 919.855469 218.96875 L 903.742188 921.535156 L 227.417969 906.019531 Z M 243.535156 203.457031 " clip-rule="nonzero"/></clipPath><clipPath id="5350babf49"><path d="M 401 222 L 738 222 L 738 276 L 401 276 Z M 401 222 " clip-rule="nonzero"/></clipPath><clipPath id="e7625accca"><path d="M 243.535156 203.457031 L 919.855469 218.96875 L 903.742188 921.535156 L 227.417969 906.019531 Z M 243.535156 203.457031 " clip-rule="nonzero"/></clipPath><clipPath id="db20248324"><path d="M 243.535156 203.457031 L 919.855469 218.96875 L 903.742188 921.535156 L 227.417969 906.019531 Z M 243.535156 203.457031 " clip-rule="nonzero"/></clipPath><clipPath id="7f598c5846"><path d="M 302 474 L 368 474 L 368 810 L 302 810 Z M 302 474 " clip-rule="nonzero"/></clipPath><clipPath id="aee5af51c8"><path d="M 243.535156 203.457031 L 919.855469 218.96875 L 903.742188 921.535156 L 227.417969 906.019531 Z M 243.535156 203.457031 " clip-rule="nonzero"/></clipPath><clipPath id="b752c49529"><path d="M 243.535156 203.457031 L 919.855469 218.96875 L 903.742188 921.535156 L 227.417969 906.019531 Z M 243.535156 203.457031 " clip-rule="nonzero"/></clipPath><clipPath id="e44a89359a"><path d="M 381 293 L 421 293 L 421 425 L 381 425 Z M 381 293 " clip-rule="nonzero"/></clipPath><clipPath id="6eb84c9842"><path d="M 243.535156 203.457031 L 919.855469 218.96875 L 903.742188 921.535156 L 227.417969 906.019531 Z M 243.535156 203.457031 " clip-rule="nonzero"/></clipPath><clipPath id="5e66d76f5b"><path d="M 243.535156 203.457031 L 919.855469 218.96875 L 903.742188 921.535156 L 227.417969 906.019531 Z M 243.535156 203.457031 " clip-rule="nonzero"/></clipPath></defs><rect x="-81" width="972" fill="#ffffff" y="-80.999995" height="971.99994" fill-opacity="1"/><rect x="-81" width="972" fill="#ffffff" y="-80.999995" height="971.99994" fill-opacity="1"/><g clip-path="url(#d9b6ba4186)"><g clip-path="url(#5b9bf3be3e)"><g transform="matrix(1, 0, 0, 1, 36, 36)"><g clip-path="url(#91affb6f1a)"><g clip-path="url(#d28b84dae7)"><g clip-path="url(#404f285067)"><path fill="#ff65f9" d="M 0.839844 0.839844 L 1052.160156 0.839844 L 1052.160156 1052.160156 L 0.839844 1052.160156 Z M 0.839844 0.839844 " fill-opacity="1" fill-rule="nonzero"/></g></g></g></g></g></g><g clip-path="url(#7e34b01e36)"><g clip-path="url(#e0f065ae56)"><path stroke-linecap="butt" transform="matrix(0.75, 0, 0, 0.75, 36.839809, 36.839764)" fill="none" stroke-linejoin="miter" d="M 700.875119 0.000106612 C 313.791746 0.000106612 0.0000466121 313.791806 0.0000466121 700.875179 C 0.0000466121 1087.958552 313.791746 1401.750252 700.875119 1401.750252 C 1087.958492 1401.750252 1401.750192 1087.958552 1401.750192 700.875179 C 1401.750192 313.791806 1087.958492 0.000106612 700.875119 0.000106612 Z M 700.875119 0.000106612 " stroke="#000000" stroke-width="44" stroke-opacity="1" stroke-miterlimit="4"/></g></g><g clip-path="url(#f3916e35e8)"><g clip-path="url(#a365c9ad41)"><g clip-path="url(#911383215a)"><path fill="#000000" d="M 759.582031 895.550781 C 571.328125 942.566406 567.222656 888.152344 468.816406 903.230469 C 422.371094 910.347656 378.503906 905.570312 335.601562 886.652344 C 308.324219 874.636719 280.207031 865.128906 252.539062 856.324219 C 232.417969 849.929688 226.902344 833.683594 230.226562 814.582031 C 263.1875 625.523438 306.195312 439.335938 385.769531 263.839844 L 390.273438 225.597656 C 391.480469 215.292969 399.910156 207.085938 411.21875 208.695312 C 516.886719 223.726562 621.632812 225.796875 727.886719 214.753906 C 739.535156 213.542969 748.820312 221.722656 749.859375 232.683594 L 753.675781 272.539062 C 787.476562 341.621094 812.917969 412.164062 833.28125 487.117188 C 864.535156 602.144531 887.65625 716.757812 905.417969 834.234375 C 907.671875 849.171875 887.964844 857.714844 876.753906 859.34375 L 822.96875 867.132812 C 803.277344 881.160156 782.695312 889.828125 759.59375 895.59375 Z M 737.375 267.1875 L 734.648438 229.78125 C 624.003906 239.519531 516.707031 238.550781 406.265625 222.917969 C 403.597656 237.277344 402.214844 248.316406 401.398438 261.078125 C 513.578125 277.566406 623.203125 280.035156 737.390625 267.1875 Z M 740.238281 279.078125 L 672.964844 286.558594 C 676.699219 314.761719 689.972656 336.902344 681.675781 365.25 L 662.796875 286.339844 L 611.542969 288.15625 C 619.511719 378.433594 625.886719 464.238281 628.050781 554.445312 L 633.316406 773.976562 C 633.609375 786.503906 632.226562 799.414062 627.914062 810.964844 L 617.703125 574.242188 L 603.550781 287.957031 L 480.390625 282.882812 C 477.25 296.375 473.835938 310.488281 472.285156 325.03125 L 440.222656 624.070312 C 432.65625 694.597656 432.773438 761.671875 421.246094 833.441406 C 416.34375 777.761719 421.328125 724.222656 426.582031 668.515625 L 448.316406 438.316406 C 453.355469 384.953125 462.605469 333.949219 472.367188 281.640625 L 398.632812 271.578125 C 321.148438 440.15625 273.222656 644.757812 243.203125 826.964844 C 241.800781 835.492188 256.882812 843.484375 263.253906 845.285156 C 290.453125 852.972656 316.980469 861.648438 342.511719 873.261719 C 427.269531 911.808594 469.984375 876.328125 542.496094 889.078125 C 565.570312 893.132812 587.917969 899.375 611.566406 900.035156 C 671.070312 901.691406 727.964844 890.589844 783.941406 872.128906 C 792.640625 869.265625 800.886719 863.375 808.003906 857.214844 C 792.027344 661.246094 765.070312 479.867188 708.300781 288.71875 C 723.359375 307.097656 727.542969 329.710938 734.367188 352.210938 C 782.503906 510.996094 806.429688 685.527344 820.128906 851.660156 L 877.113281 844.929688 C 884.824219 844.019531 892.019531 835.871094 890.375 827.242188 L 854.339844 637.296875 C 833.929688 529.6875 790.871094 377.199219 740.222656 279.0625 Z M 740.238281 279.078125 " fill-opacity="1" fill-rule="nonzero"/></g></g></g><g clip-path="url(#1e74435797)"><g clip-path="url(#52b088cc24)"><g clip-path="url(#be492a8524)"><path fill="#f4d584" d="M 740.238281 279.078125 C 790.882812 377.214844 833.929688 529.699219 854.355469 637.3125 L 890.390625 827.257812 C 892.019531 835.882812 884.839844 844.03125 877.128906 844.945312 L 820.144531 851.675781 C 806.445312 685.542969 782.519531 511.007812 734.378906 352.226562 C 727.554688 329.726562 723.375 307.101562 708.3125 288.734375 C 765.082031 479.867188 792.042969 661.257812 808.019531 857.230469 C 800.898438 863.375 792.652344 869.265625 783.957031 872.144531 C 727.980469 890.605469 671.082031 901.703125 611.578125 900.050781 C 587.929688 899.390625 565.585938 893.160156 542.507812 889.09375 C 469.996094 876.34375 427.285156 911.824219 342.523438 873.277344 C 316.996094 861.664062 290.46875 852.988281 263.269531 845.296875 C 256.894531 843.5 241.800781 835.507812 243.214844 826.980469 C 273.222656 644.757812 321.148438 440.15625 398.632812 271.589844 L 472.367188 281.652344 C 462.59375 333.949219 453.355469 384.96875 448.316406 438.332031 L 426.582031 668.53125 C 421.328125 724.222656 416.34375 777.777344 421.246094 833.457031 C 432.773438 761.699219 432.671875 694.613281 440.222656 624.085938 L 472.285156 325.046875 C 473.835938 310.515625 477.25 296.390625 480.390625 282.898438 L 603.550781 287.972656 L 617.703125 574.257812 L 627.914062 810.980469 C 632.226562 799.429688 633.609375 786.519531 633.316406 773.992188 L 628.050781 554.457031 C 625.882812 464.269531 619.511719 378.449219 611.542969 288.167969 L 662.796875 286.355469 L 681.675781 365.265625 C 689.988281 336.917969 676.710938 314.777344 672.964844 286.574219 L 740.238281 279.09375 Z M 381.527344 424.058594 C 397.644531 379.742188 409.382812 338.589844 420.445312 293.40625 C 398.632812 333.527344 384.492188 377.585938 381.527344 424.058594 Z M 313.585938 793.960938 L 367.414062 484.003906 C 368.117188 479.929688 367.753906 478.035156 364.273438 474.125 C 343.878906 552.4375 328.347656 631.09375 315.339844 712.507812 C 308.613281 754.558594 301.777344 793.90625 302.199219 835.585938 C 309.503906 821.96875 310.84375 809.757812 313.585938 793.960938 Z M 313.585938 793.960938 " fill-opacity="1" fill-rule="nonzero"/></g></g></g><g clip-path="url(#5350babf49)"><g clip-path="url(#e7625accca)"><g clip-path="url(#db20248324)"><path fill="#f4d584" d="M 737.375 267.1875 C 623.191406 280.035156 513.546875 277.550781 401.382812 261.078125 C 402.199219 248.3125 403.582031 237.277344 406.25 222.914062 C 516.691406 238.550781 624.003906 239.519531 734.636719 229.78125 L 737.359375 267.1875 Z M 737.375 267.1875 " fill-opacity="1" fill-rule="nonzero"/></g></g></g><g clip-path="url(#7f598c5846)"><g clip-path="url(#aee5af51c8)"><g clip-path="url(#b752c49529)"><path fill="#000000" d="M 313.585938 793.960938 C 310.84375 809.757812 309.503906 821.96875 302.199219 835.585938 C 301.777344 793.90625 308.613281 754.558594 315.339844 712.507812 C 328.347656 631.078125 343.878906 552.421875 364.273438 474.125 C 367.753906 478.035156 368.128906 479.929688 367.414062 484.003906 Z M 313.585938 793.960938 " fill-opacity="1" fill-rule="nonzero"/></g></g></g><g clip-path="url(#e44a89359a)"><g clip-path="url(#6eb84c9842)"><g clip-path="url(#5e66d76f5b)"><path fill="#000000" d="M 381.527344 424.058594 C 384.492188 377.570312 398.632812 333.527344 420.445312 293.40625 C 409.382812 338.589844 397.644531 379.757812 381.527344 424.058594 Z M 381.527344 424.058594 " fill-opacity="1" fill-rule="nonzero"/></g></g></g></svg>