<svg xmlns="http://www.w3.org/2000/svg" xmlns:xlink="http://www.w3.org/1999/xlink" width="1500" zoomAndPan="magnify" viewBox="0 0 810 809.99995" height="1500" preserveAspectRatio="xMidYMid meet" version="1.0"><defs><clipPath id="69d3cf9029"><path d="M 36.839844 36.839844 L 810 36.839844 L 810 810 L 36.839844 810 Z M 36.839844 36.839844 " clip-rule="nonzero"/></clipPath><clipPath id="6e1fc6fed6"><path d="M 562.5 36.839844 C 272.1875 36.839844 36.839844 272.1875 36.839844 562.5 C 36.839844 852.8125 272.1875 1088.160156 562.5 1088.160156 C 852.8125 1088.160156 1088.160156 852.8125 1088.160156 562.5 C 1088.160156 272.1875 852.8125 36.839844 562.5 36.839844 Z M 562.5 36.839844 " clip-rule="nonzero"/></clipPath><clipPath id="8ba7b04e17"><path d="M 0.839844 0.839844 L 774 0.839844 L 774 774 L 0.839844 774 Z M 0.839844 0.839844 " clip-rule="nonzero"/></clipPath><clipPath id="9f950a55ca"><path d="M 526.5 0.839844 C 236.1875 0.839844 0.839844 236.1875 0.839844 526.5 C 0.839844 816.8125 236.1875 1052.160156 526.5 1052.160156 C 816.8125 1052.160156 1052.160156 816.8125 1052.160156 526.5 C 1052.160156 236.1875 816.8125 0.839844 526.5 0.839844 Z M 526.5 0.839844 " clip-rule="nonzero"/></clipPath><clipPath id="ba4e646264"><rect x="0" width="774" y="0" height="774"/></clipPath><clipPath id="b38dc0d699"><path d="M 36.839844 36.839844 L 810 36.839844 L 810 810 L 36.839844 810 Z M 36.839844 36.839844 " clip-rule="nonzero"/></clipPath><clipPath id="884653e180"><path d="M 562.496094 36.839844 C 272.183594 36.839844 36.839844 272.183594 36.839844 562.496094 C 36.839844 852.808594 272.183594 1088.152344 562.496094 1088.152344 C 852.808594 1088.152344 1088.152344 852.808594 1088.152344 562.496094 C 1088.152344 272.183594 852.808594 36.839844 562.496094 36.839844 Z M 562.496094 36.839844 " clip-rule="nonzero"/></clipPath><clipPath id="74b80735b4"><path d="M 436 302.546875 L 809 302.546875 L 809 810 L 436 810 Z M 436 302.546875 " clip-rule="nonzero"/></clipPath><clipPath id="7a50ffa00e"><path d="M 436.574219 460.5 C 444.300781 421.949219 450 415.273438 450.75 408.675781 C 451.273438 403.050781 448.125 397.800781 447.824219 392.773438 C 447.601562 388.273438 448.875 384.601562 448.726562 379.949219 C 448.648438 374.25 446.324219 367.949219 446.476562 360.976562 C 446.625 352.273438 447.976562 340.5 451.351562 331.800781 C 454.5 323.699219 458.925781 314.476562 465.449219 310.199219 C 471.824219 306.074219 483.300781 308.023438 489.898438 306.375 C 494.476562 305.324219 496.5 302.625 501.375 302.550781 C 510 302.476562 531.898438 310.648438 537.148438 313.800781 C 538.875 314.851562 539.175781 316.425781 540.074219 316.800781 C 540.75 317.023438 540.976562 316.648438 541.949219 316.648438 C 545.550781 316.800781 559.351562 318.148438 567.523438 320.324219 C 575.625 322.5 587.699219 327.824219 590.773438 329.550781 C 591.675781 330.074219 591.824219 330.523438 592.351562 330.75 C 592.800781 330.898438 593.101562 330.523438 593.773438 330.75 C 597.074219 331.949219 613.425781 343.800781 618.824219 350.101562 C 622.5 354.449219 625.5 362.476562 625.800781 362.925781 C 625.800781 363 625.875 363 625.875 363 C 626.101562 363.601562 633.226562 375.375 633.523438 377.175781 C 633.601562 377.550781 633.300781 377.625 633.449219 377.925781 C 634.199219 379.5 643.648438 384.898438 648.675781 388.273438 C 653.625 391.574219 661.125 397.050781 663.523438 398.023438 C 664.125 398.324219 664.425781 398.175781 664.875 398.324219 C 665.25 398.476562 665.550781 398.851562 666 399 C 666.375 399.148438 666.75 399.148438 667.199219 399.449219 C 667.800781 399.75 668.476562 400.5 669.226562 400.949219 C 669.898438 401.476562 671.398438 402.300781 671.398438 402.300781 C 671.398438 402.300781 675.824219 406.050781 678.375 407.851562 C 681.226562 409.875 683.773438 411.148438 687.601562 413.925781 C 694.648438 419.101562 710.398438 428.625 716.550781 437.476562 C 721.5 444.675781 722.25 454.425781 724.5 460.949219 C 726.074219 465.523438 726.976562 471 728.550781 472.648438 C 729.226562 473.324219 729.898438 473.25 730.574219 473.550781 C 731.398438 473.851562 733.050781 474.523438 733.050781 474.601562 C 733.050781 474.601562 734.476562 475.648438 735.148438 476.175781 C 735.898438 476.699219 737.25 477.75 737.25 477.75 C 737.324219 477.824219 738.375 479.101562 738.976562 479.851562 C 739.5 480.523438 740.625 481.875 740.625 481.875 C 740.625 481.875 741.375 483.449219 741.75 484.273438 C 742.125 485.101562 742.875 486.601562 742.875 486.675781 C 742.949219 486.898438 755.175781 516.675781 757.949219 527.25 C 759.675781 533.625 758.925781 538.050781 760.648438 543.226562 C 762.375 548.550781 765.601562 553.199219 768.449219 558.675781 C 771.675781 564.75 775.425781 570.449219 779.101562 578.023438 C 783.976562 587.925781 791.851562 605.023438 794.25 613.5 C 795.449219 617.851562 795 621.976562 795.824219 623.925781 C 796.199219 624.75 796.574219 624.75 797.023438 625.648438 C 798.148438 627.601562 800.398438 634.125 801.449219 636.148438 C 801.898438 636.976562 802.425781 637.273438 802.648438 637.800781 C 802.726562 638.175781 802.574219 638.398438 802.648438 638.925781 C 803.023438 640.5 805.574219 644.023438 806.550781 648.074219 C 808.199219 655.199219 809.851562 669.601562 808.125 678.898438 C 806.550781 687.375 799.199219 697.050781 797.699219 701.925781 C 797.101562 704.101562 797.550781 705.675781 796.875 706.726562 C 796.425781 707.476562 795.523438 707.476562 794.925781 708.226562 C 794.023438 709.273438 794.175781 711.523438 792.601562 713.324219 C 789.300781 717 772.949219 725.25 772.050781 725.550781 C 771.976562 725.550781 771.976562 725.550781 771.898438 725.550781 C 771.449219 725.699219 767.925781 727.875 766.875 728.550781 C 766.351562 728.925781 765.976562 729.300781 765.75 729.375 C 765.675781 729.375 765.675781 729.300781 765.523438 729.375 C 765.226562 729.449219 764.324219 729.976562 763.574219 730.5 C 762.375 731.476562 760.574219 734.101562 759 734.925781 C 757.800781 735.523438 756.601562 735.074219 755.25 735.523438 C 753.601562 736.125 752.101562 737.101562 749.851562 738.75 C 745.574219 741.898438 738.226562 749.476562 732.074219 754.726562 C 725.773438 760.125 719.773438 765.449219 712.5 770.550781 C 704.476562 776.101562 695.625 781.050781 685.800781 786.523438 C 674.101562 792.976562 657.976562 801.601562 646.949219 806.476562 C 639.226562 810 634.351562 812.023438 626.625 814.273438 C 616.800781 817.050781 603.226562 820.648438 592.648438 820.875 C 583.5 821.101562 573.449219 821.476562 566.925781 817.050781 C 560.324219 812.625 554.398438 798.601562 553.425781 794.25 C 553.125 792.75 554.175781 792.375 553.800781 790.949219 C 552.675781 787.273438 541.875 778.949219 540.300781 773.773438 C 539.324219 770.25 541.800781 765.375 541.273438 763.875 C 541.050781 763.351562 540.300781 762.976562 540.226562 762.976562 C 540.226562 762.898438 539.324219 761.476562 538.800781 760.726562 C 538.351562 759.976562 538.050781 759.601562 537.375 758.476562 C 535.5 755.25 530.550781 745.648438 526.949219 738.898438 C 523.199219 731.851562 518.699219 724.875 515.324219 717.148438 C 511.726562 709.050781 507.601562 695.773438 506.101562 691.351562 C 505.574219 689.773438 505.648438 688.648438 505.125 688.199219 C 504.824219 687.898438 504.074219 687.976562 504 687.976562 C 504 687.976562 502.425781 687.300781 501.601562 687 C 500.851562 686.699219 499.273438 686.023438 499.273438 686.023438 C 499.199219 685.949219 497.851562 684.976562 497.175781 684.449219 C 496.5 683.925781 495.148438 682.949219 495.074219 682.949219 C 495.074219 682.875 494.023438 681.601562 493.425781 680.925781 C 492.898438 680.25 491.773438 678.976562 491.773438 678.898438 C 491.773438 678.898438 491.023438 677.398438 490.648438 676.574219 C 490.273438 675.824219 489.523438 674.324219 489.523438 674.25 C 489.523438 674.25 489.148438 672.601562 489 671.699219 C 488.851562 670.875 488.773438 670.351562 488.476562 669.226562 C 487.875 666.75 486.074219 662.324219 485.324219 657.75 C 484.199219 651.226562 483.523438 639.300781 483.601562 633.375 C 483.601562 630 484.875 628.425781 484.199219 625.351562 C 483.148438 620.476562 477.898438 614.773438 474.375 607.800781 C 469.425781 597.976562 462.148438 582 457.949219 571.425781 C 454.800781 563.398438 453.148438 557.398438 450.75 549.976562 C 448.050781 542.101562 444.824219 533.625 442.648438 525.300781 C 440.476562 517.050781 438.523438 509.699219 437.476562 500.324219 C 436.125 488.625 436.574219 460.5 436.574219 460.5 M 639.898438 761.25 C 642.300781 760.125 641.851562 759.824219 641.550781 759.824219 C 641.101562 759.898438 639.898438 761.25 639.898438 761.25 " clip-rule="nonzero"/></clipPath><clipPath id="c35eb13e4b"><path d="M 0.078125 0.546875 L 373 0.546875 L 373 508 L 0.078125 508 Z M 0.078125 0.546875 " clip-rule="nonzero"/></clipPath><clipPath id="aed4768bd9"><path d="M 0.574219 158.5 C 8.300781 119.949219 14 113.273438 14.75 106.675781 C 15.273438 101.050781 12.125 95.800781 11.824219 90.773438 C 11.601562 86.273438 12.875 82.601562 12.726562 77.949219 C 12.648438 72.25 10.324219 65.949219 10.476562 58.976562 C 10.625 50.273438 11.976562 38.5 15.351562 29.800781 C 18.5 21.699219 22.925781 12.476562 29.449219 8.199219 C 35.824219 4.074219 47.300781 6.023438 53.898438 4.375 C 58.476562 3.324219 60.5 0.625 65.375 0.550781 C 74 0.476562 95.898438 8.648438 101.148438 11.800781 C 102.875 12.851562 103.175781 14.425781 104.074219 14.800781 C 104.75 15.023438 104.976562 14.648438 105.949219 14.648438 C 109.550781 14.800781 123.351562 16.148438 131.523438 18.324219 C 139.625 20.5 151.699219 25.824219 154.773438 27.550781 C 155.675781 28.074219 155.824219 28.523438 156.351562 28.75 C 156.800781 28.898438 157.101562 28.523438 157.773438 28.75 C 161.074219 29.949219 177.425781 41.800781 182.824219 48.101562 C 186.5 52.449219 189.5 60.476562 189.800781 60.925781 C 189.800781 61 189.875 61 189.875 61 C 190.101562 61.601562 197.226562 73.375 197.523438 75.175781 C 197.601562 75.550781 197.300781 75.625 197.449219 75.925781 C 198.199219 77.5 207.648438 82.898438 212.675781 86.273438 C 217.625 89.574219 225.125 95.050781 227.523438 96.023438 C 228.125 96.324219 228.425781 96.175781 228.875 96.324219 C 229.25 96.476562 229.550781 96.851562 230 97 C 230.375 97.148438 230.75 97.148438 231.199219 97.449219 C 231.800781 97.75 232.476562 98.5 233.226562 98.949219 C 233.898438 99.476562 235.398438 100.300781 235.398438 100.300781 C 235.398438 100.300781 239.824219 104.050781 242.375 105.851562 C 245.226562 107.875 247.773438 109.148438 251.601562 111.925781 C 258.648438 117.101562 274.398438 126.625 280.550781 135.476562 C 285.5 142.675781 286.25 152.425781 288.5 158.949219 C 290.074219 163.523438 290.976562 169 292.550781 170.648438 C 293.226562 171.324219 293.898438 171.25 294.574219 171.550781 C 295.398438 171.851562 297.050781 172.523438 297.050781 172.601562 C 297.050781 172.601562 298.476562 173.648438 299.148438 174.175781 C 299.898438 174.699219 301.25 175.75 301.25 175.75 C 301.324219 175.824219 302.375 177.101562 302.976562 177.851562 C 303.5 178.523438 304.625 179.875 304.625 179.875 C 304.625 179.875 305.375 181.449219 305.75 182.273438 C 306.125 183.101562 306.875 184.601562 306.875 184.675781 C 306.949219 184.898438 319.175781 214.675781 321.949219 225.25 C 323.675781 231.625 322.925781 236.050781 324.648438 241.226562 C 326.375 246.550781 329.601562 251.199219 332.449219 256.675781 C 335.675781 262.75 339.425781 268.449219 343.101562 276.023438 C 347.976562 285.925781 355.851562 303.023438 358.25 311.5 C 359.449219 315.851562 359 319.976562 359.824219 321.925781 C 360.199219 322.75 360.574219 322.75 361.023438 323.648438 C 362.148438 325.601562 364.398438 332.125 365.449219 334.148438 C 365.898438 334.976562 366.425781 335.273438 366.648438 335.800781 C 366.726562 336.175781 366.574219 336.398438 366.648438 336.925781 C 367.023438 338.5 369.574219 342.023438 370.550781 346.074219 C 372.199219 353.199219 373.851562 367.601562 372.125 376.898438 C 370.550781 385.375 363.199219 395.050781 361.699219 399.925781 C 361.101562 402.101562 361.550781 403.675781 360.875 404.726562 C 360.425781 405.476562 359.523438 405.476562 358.925781 406.226562 C 358.023438 407.273438 358.175781 409.523438 356.601562 411.324219 C 353.300781 415 336.949219 423.25 336.050781 423.550781 C 335.976562 423.550781 335.976562 423.550781 335.898438 423.550781 C 335.449219 423.699219 331.925781 425.875 330.875 426.550781 C 330.351562 426.925781 329.976562 427.300781 329.75 427.375 C 329.675781 427.375 329.675781 427.300781 329.523438 427.375 C 329.226562 427.449219 328.324219 427.976562 327.574219 428.5 C 326.375 429.476562 324.574219 432.101562 323 432.925781 C 321.800781 433.523438 320.601562 433.074219 319.25 433.523438 C 317.601562 434.125 316.101562 435.101562 313.851562 436.75 C 309.574219 439.898438 302.226562 447.476562 296.074219 452.726562 C 289.773438 458.125 283.773438 463.449219 276.5 468.550781 C 268.476562 474.101562 259.625 479.050781 249.800781 484.523438 C 238.101562 490.976562 221.976562 499.601562 210.949219 504.476562 C 203.226562 508 198.351562 510.023438 190.625 512.273438 C 180.800781 515.050781 167.226562 518.648438 156.648438 518.875 C 147.5 519.101562 137.449219 519.476562 130.925781 515.050781 C 124.324219 510.625 118.398438 496.601562 117.425781 492.25 C 117.125 490.75 118.175781 490.375 117.800781 488.949219 C 116.675781 485.273438 105.875 476.949219 104.300781 471.773438 C 103.324219 468.25 105.800781 463.375 105.273438 461.875 C 105.050781 461.351562 104.300781 460.976562 104.226562 460.976562 C 104.226562 460.898438 103.324219 459.476562 102.800781 458.726562 C 102.351562 457.976562 102.050781 457.601562 101.375 456.476562 C 99.5 453.25 94.550781 443.648438 90.949219 436.898438 C 87.199219 429.851562 82.699219 422.875 79.324219 415.148438 C 75.726562 407.050781 71.601562 393.773438 70.101562 389.351562 C 69.574219 387.773438 69.648438 386.648438 69.125 386.199219 C 68.824219 385.898438 68.074219 385.976562 68 385.976562 C 68 385.976562 66.425781 385.300781 65.601562 385 C 64.851562 384.699219 63.273438 384.023438 63.273438 384.023438 C 63.199219 383.949219 61.851562 382.976562 61.175781 382.449219 C 60.5 381.925781 59.148438 380.949219 59.074219 380.949219 C 59.074219 380.875 58.023438 379.601562 57.425781 378.925781 C 56.898438 378.25 55.773438 376.976562 55.773438 376.898438 C 55.773438 376.898438 55.023438 375.398438 54.648438 374.574219 C 54.273438 373.824219 53.523438 372.324219 53.523438 372.25 C 53.523438 372.25 53.148438 370.601562 53 369.699219 C 52.851562 368.875 52.773438 368.351562 52.476562 367.226562 C 51.875 364.75 50.074219 360.324219 49.324219 355.75 C 48.199219 349.226562 47.523438 337.300781 47.601562 331.375 C 47.601562 328 48.875 326.425781 48.199219 323.351562 C 47.148438 318.476562 41.898438 312.773438 38.375 305.800781 C 33.425781 295.976562 26.148438 280 21.949219 269.425781 C 18.800781 261.398438 17.148438 255.398438 14.75 247.976562 C 12.050781 240.101562 8.824219 231.625 6.648438 223.300781 C 4.476562 215.050781 2.523438 207.699219 1.476562 198.324219 C 0.125 186.625 0.574219 158.5 0.574219 158.5 M 203.898438 459.25 C 206.300781 458.125 205.851562 457.824219 205.550781 457.824219 C 205.101562 457.898438 203.898438 459.25 203.898438 459.25 " clip-rule="nonzero"/></clipPath><clipPath id="f045de843f"><rect x="0" width="373" y="0" height="508"/></clipPath><clipPath id="021556c12a"><path d="M 305 172.460938 L 810 172.460938 L 810 810 L 305 810 Z M 305 172.460938 " clip-rule="nonzero"/></clipPath></defs><rect x="-81" width="972" fill="#ffffff" y="-80.999995" height="971.99994" fill-opacity="1"/><rect x="-81" width="972" fill="#ffffff" y="-80.999995" height="971.99994" fill-opacity="1"/><g clip-path="url(#69d3cf9029)"><g clip-path="url(#6e1fc6fed6)"><g transform="matrix(1, 0, 0, 1, 36, 36)"><g clip-path="url(#ba4e646264)"><g clip-path="url(#8ba7b04e17)"><g clip-path="url(#9f950a55ca)"><path fill="#ff65f9" d="M 0.839844 0.839844 L 1052.160156 0.839844 L 1052.160156 1052.160156 L 0.839844 1052.160156 Z M 0.839844 0.839844 " fill-opacity="1" fill-rule="nonzero"/></g></g></g></g></g></g><g clip-path="url(#b38dc0d699)"><g clip-path="url(#884653e180)"><path stroke-linecap="butt" transform="matrix(0.75, 0, 0, 0.75, 36.839809, 36.839742)" fill="none" stroke-linejoin="miter" d="M 700.875119 0.000136052 C 313.791746 0.000136052 0.0000466121 313.791835 0.0000466121 700.875209 C 0.0000466121 1087.958582 313.791746 1401.750281 700.875119 1401.750281 C 1087.958492 1401.750281 1401.750192 1087.958582 1401.750192 700.875209 C 1401.750192 313.791835 1087.958492 0.000136052 700.875119 0.000136052 Z M 700.875119 0.000136052 " stroke="#f4d584" stroke-width="44" stroke-opacity="1" stroke-miterlimit="4"/></g></g><g clip-path="url(#74b80735b4)"><g clip-path="url(#7a50ffa00e)"><g transform="matrix(1, 0, 0, 1, 436, 302)"><g clip-path="url(#f045de843f)"><g clip-path="url(#c35eb13e4b)"><g clip-path="url(#aed4768bd9)"><rect x="-614.2" width="1166.4" fill="#f4d584" height="1166.399928" y="-480.199989" fill-opacity="1"/></g></g></g></g></g></g><path fill="#000000" d="M 467.554688 881.386719 L 360.414062 891.46875 C 348.664062 892.476562 338.609375 884.046875 337.523438 872.515625 L 297.605469 448.015625 C 297.03125 441.988281 299.097656 436.019531 303.261719 431.621094 L 376.699219 354.070312 C 382.0625 348.414062 381.808594 339.492188 376.15625 334.144531 C 370.5 328.777344 361.589844 329.03125 356.230469 334.6875 L 282.792969 412.226562 C 273.027344 422.539062 268.203125 436.546875 269.539062 450.671875 L 309.464844 875.15625 C 311.859375 900.609375 333.335938 919.753906 358.398438 919.746094 C 359.9375 919.746094 361.496094 919.679688 363.054688 919.527344 L 470.195312 909.453125 C 477.9375 908.726562 483.644531 901.855469 482.90625 894.101562 C 482.171875 886.355469 475.296875 880.558594 467.554688 881.386719 " fill-opacity="1" fill-rule="nonzero"/><path fill="#000000" d="M 750.574219 655.347656 C 748.644531 654.542969 746.613281 654.144531 744.589844 654.144531 C 742.566406 654.144531 740.535156 654.542969 738.621094 655.339844 C 734.761719 656.929688 731.757812 659.9375 730.160156 663.785156 C 728.558594 667.636719 728.550781 671.886719 730.148438 675.746094 C 731.742188 679.597656 734.738281 682.601562 738.597656 684.203125 C 742.441406 685.800781 746.699219 685.8125 750.550781 684.210938 C 754.410156 682.621094 757.414062 679.613281 759.003906 675.765625 C 760.605469 671.914062 760.613281 667.664062 759.011719 663.8125 C 757.421875 659.953125 754.425781 656.949219 750.574219 655.347656 " fill-opacity="1" fill-rule="nonzero"/><path fill="#000000" d="M 558.097656 575.519531 C 556.15625 574.726562 554.125 574.328125 552.105469 574.328125 C 550.082031 574.328125 548.050781 574.71875 546.136719 575.511719 C 538.179688 578.804688 534.378906 587.964844 537.664062 595.921875 C 539.246094 599.769531 542.25 602.777344 546.109375 604.375 C 549.96875 605.976562 554.203125 605.976562 558.0625 604.394531 C 566.019531 601.089844 569.820312 591.941406 566.535156 583.984375 C 564.933594 580.125 561.949219 577.128906 558.097656 575.519531 " fill-opacity="1" fill-rule="nonzero"/><g clip-path="url(#021556c12a)"><path fill="#000000" d="M 802.410156 693.785156 C 795.992188 709.230469 783.949219 721.25 768.492188 727.640625 C 760.78125 730.824219 752.683594 732.425781 744.582031 732.425781 C 736.449219 732.425781 728.3125 730.816406 720.578125 727.597656 C 705.128906 721.191406 693.109375 709.148438 686.71875 693.699219 C 680.328125 678.234375 680.335938 661.222656 686.753906 645.773438 C 693.167969 630.320312 705.214844 618.300781 720.671875 611.910156 C 736.125 605.535156 753.128906 605.535156 768.585938 611.941406 C 784.035156 618.359375 796.0625 630.402344 802.445312 645.859375 C 808.835938 661.316406 808.824219 678.335938 802.410156 693.785156 Z M 594.230469 783.710938 C 591.234375 783.710938 588.179688 783.125 585.234375 781.90625 C 573.257812 776.9375 567.578125 763.183594 572.542969 751.199219 L 680.769531 490.496094 C 685.738281 478.511719 699.484375 472.824219 711.488281 477.800781 C 723.464844 482.777344 729.144531 496.523438 724.164062 508.519531 L 615.941406 769.21875 C 612.191406 778.257812 603.449219 783.710938 594.230469 783.710938 Z M 552.105469 652.597656 C 543.96875 652.597656 535.835938 650.988281 528.097656 647.78125 C 512.644531 641.363281 500.625 629.328125 494.234375 613.871094 C 481.054688 581.972656 496.28125 545.285156 528.183594 532.089844 C 543.628906 525.699219 560.652344 525.707031 576.101562 532.125 C 591.554688 538.539062 603.574219 550.578125 609.964844 566.042969 C 623.144531 597.941406 607.917969 634.628906 576.015625 647.816406 C 568.304688 651.003906 560.203125 652.597656 552.105469 652.597656 Z M 506.039062 327.601562 C 510.273438 333.585938 514.277344 339.519531 517.746094 345.257812 C 520.386719 349.644531 525.042969 352.0625 529.816406 352.0625 C 532.304688 352.0625 534.820312 351.402344 537.105469 350.023438 C 543.765625 346.003906 545.898438 337.328125 541.863281 330.664062 C 538.941406 325.832031 535.597656 320.78125 532.070312 315.640625 C 539.332031 314.878906 546.695312 315.734375 553.617188 318.613281 C 564.5625 323.15625 573.078125 331.679688 577.605469 342.632812 C 582.125 353.578125 582.117188 365.625 577.582031 376.566406 C 573.035156 387.503906 564.503906 396.019531 553.558594 400.546875 C 548.039062 402.824219 542.320312 403.90625 536.679688 403.90625 C 519.261719 403.90625 502.707031 393.582031 495.648438 376.5 C 488.46875 359.148438 493.25 339.882812 506.039062 327.601562 Z M 420.058594 297.679688 C 373.210938 271.652344 339.488281 241.394531 334.628906 220.300781 C 333.394531 214.890625 334.199219 210.648438 337.261719 206.5625 C 339.472656 203.597656 343.164062 200.265625 352.023438 200.695312 C 374.402344 201.8125 408.53125 224.515625 441.347656 254.714844 Z M 943.6875 745.40625 L 766.664062 317.105469 C 760.902344 303.171875 749.414062 292.40625 735.152344 287.582031 L 512.964844 212.242188 C 491.847656 205.0625 468.875 212.394531 455.398438 229.261719 C 420.304688 197.902344 382.640625 173.992188 353.429688 172.535156 C 336.964844 171.699219 323.703125 177.648438 314.707031 189.652344 C 306.664062 200.367188 304.058594 213.164062 307.164062 226.640625 C 316.617188 267.691406 376.292969 305.621094 407.535156 322.972656 L 345.203125 448.75 C 338.507812 462.25 337.964844 477.988281 343.722656 491.902344 L 520.742188 920.203125 C 526.074219 933.105469 536.121094 943.160156 549.003906 948.507812 C 555.464844 951.191406 562.253906 952.53125 569.039062 952.53125 C 575.796875 952.53125 582.558594 951.199219 589 948.535156 L 915.359375 813.65625 C 928.257812 808.324219 938.304688 798.292969 943.652344 785.394531 C 949.011719 772.511719 949.011719 758.308594 943.6875 745.40625 " fill-opacity="1" fill-rule="nonzero"/></g></svg>