<svg xmlns="http://www.w3.org/2000/svg" xmlns:xlink="http://www.w3.org/1999/xlink" width="100" zoomAndPan="magnify" viewBox="0 0 75.119995 83.04" height="100" preserveAspectRatio="xMidYMid meet" version="1.0"><defs><clipPath id="1f70b814eb"><path d="M 0 0.0078125 L 74.132812 0.0078125 L 74.132812 74.136719 L 0 74.136719 Z M 0 0.0078125 " clip-rule="nonzero"/></clipPath><clipPath id="33cd11501f"><path d="M 2.425781 2.433594 L 71.703125 2.433594 L 71.703125 71.710938 L 2.425781 71.710938 Z M 2.425781 2.433594 " clip-rule="nonzero"/></clipPath><clipPath id="12310226f6"><path d="M 37.066406 2.433594 C 17.9375 2.433594 2.425781 17.941406 2.425781 37.070312 C 2.425781 56.203125 17.9375 71.710938 37.066406 71.710938 C 56.195312 71.710938 71.703125 56.203125 71.703125 37.070312 C 71.703125 17.941406 56.195312 2.433594 37.066406 2.433594 Z M 37.066406 2.433594 " clip-rule="nonzero"/></clipPath><clipPath id="fcc0986e4a"><path d="M 0.425781 0.433594 L 69.703125 0.433594 L 69.703125 69.710938 L 0.425781 69.710938 Z M 0.425781 0.433594 " clip-rule="nonzero"/></clipPath><clipPath id="ef92cb0dba"><path d="M 35.066406 0.433594 C 15.9375 0.433594 0.425781 15.941406 0.425781 35.070312 C 0.425781 54.203125 15.9375 69.710938 35.066406 69.710938 C 54.195312 69.710938 69.703125 54.203125 69.703125 35.070312 C 69.703125 15.941406 54.195312 0.433594 35.066406 0.433594 Z M 35.066406 0.433594 " clip-rule="nonzero"/></clipPath><clipPath id="513daf9126"><rect x="0" width="70" y="0" height="70"/></clipPath><clipPath id="8b7a79354f"><path d="M 2.425781 2.433594 L 71.371094 2.433594 L 71.371094 71.375 L 2.425781 71.375 Z M 2.425781 2.433594 " clip-rule="nonzero"/></clipPath><clipPath id="7e74176c1f"><path d="M 37.0625 2.433594 C 17.933594 2.433594 2.425781 17.941406 2.425781 37.066406 C 2.425781 56.195312 17.933594 71.699219 37.0625 71.699219 C 56.1875 71.699219 71.695312 56.195312 71.695312 37.066406 C 71.695312 17.941406 56.1875 2.433594 37.0625 2.433594 Z M 37.0625 2.433594 " clip-rule="nonzero"/></clipPath><clipPath id="3944f6f5df"><path d="M 28.71875 19.941406 L 53.347656 19.941406 L 53.347656 54.148438 L 28.71875 54.148438 Z M 28.71875 19.941406 " clip-rule="nonzero"/></clipPath><clipPath id="c49721d9d3"><path d="M 28.769531 30.351562 C 29.277344 27.8125 29.652344 27.371094 29.703125 26.9375 C 29.738281 26.566406 29.527344 26.21875 29.507812 25.886719 C 29.496094 25.589844 29.578125 25.347656 29.570312 25.042969 C 29.5625 24.667969 29.410156 24.253906 29.421875 23.792969 C 29.429688 23.21875 29.519531 22.445312 29.742188 21.871094 C 29.949219 21.335938 30.242188 20.730469 30.671875 20.445312 C 31.089844 20.175781 31.847656 20.304688 32.28125 20.195312 C 32.582031 20.125 32.714844 19.949219 33.039062 19.941406 C 33.605469 19.9375 35.050781 20.476562 35.394531 20.683594 C 35.507812 20.753906 35.527344 20.855469 35.589844 20.882812 C 35.632812 20.898438 35.648438 20.871094 35.710938 20.871094 C 35.949219 20.882812 36.859375 20.972656 37.398438 21.113281 C 37.929688 21.257812 38.726562 21.609375 38.929688 21.722656 C 38.988281 21.757812 39 21.785156 39.03125 21.800781 C 39.0625 21.8125 39.082031 21.785156 39.125 21.800781 C 39.34375 21.878906 40.421875 22.660156 40.777344 23.074219 C 41.019531 23.363281 41.21875 23.890625 41.238281 23.921875 C 41.238281 23.925781 41.242188 23.925781 41.242188 23.925781 C 41.257812 23.964844 41.726562 24.742188 41.746094 24.859375 C 41.75 24.886719 41.730469 24.890625 41.742188 24.910156 C 41.789062 25.011719 42.414062 25.371094 42.746094 25.589844 C 43.070312 25.808594 43.566406 26.167969 43.722656 26.234375 C 43.761719 26.253906 43.78125 26.242188 43.8125 26.253906 C 43.835938 26.265625 43.855469 26.289062 43.886719 26.296875 C 43.910156 26.308594 43.933594 26.308594 43.964844 26.328125 C 44.003906 26.347656 44.050781 26.398438 44.097656 26.425781 C 44.144531 26.460938 44.242188 26.515625 44.242188 26.515625 C 44.242188 26.515625 44.535156 26.761719 44.703125 26.882812 C 44.890625 27.015625 45.058594 27.097656 45.308594 27.28125 C 45.773438 27.621094 46.8125 28.25 47.21875 28.832031 C 47.542969 29.308594 47.59375 29.949219 47.742188 30.378906 C 47.84375 30.683594 47.902344 31.042969 48.007812 31.152344 C 48.050781 31.195312 48.097656 31.191406 48.140625 31.210938 C 48.195312 31.230469 48.304688 31.273438 48.304688 31.28125 C 48.304688 31.28125 48.398438 31.347656 48.441406 31.382812 C 48.492188 31.417969 48.582031 31.488281 48.582031 31.488281 C 48.585938 31.492188 48.65625 31.578125 48.695312 31.625 C 48.730469 31.671875 48.804688 31.757812 48.804688 31.757812 C 48.804688 31.757812 48.851562 31.863281 48.878906 31.917969 C 48.902344 31.972656 48.953125 32.070312 48.953125 32.074219 C 48.957031 32.089844 49.761719 34.050781 49.945312 34.75 C 50.058594 35.167969 50.007812 35.460938 50.121094 35.800781 C 50.238281 36.152344 50.449219 36.460938 50.636719 36.820312 C 50.847656 37.21875 51.097656 37.597656 51.339844 38.09375 C 51.660156 38.746094 52.179688 39.875 52.335938 40.433594 C 52.414062 40.71875 52.386719 40.992188 52.441406 41.121094 C 52.464844 41.175781 52.488281 41.175781 52.519531 41.234375 C 52.59375 41.363281 52.742188 41.792969 52.8125 41.925781 C 52.839844 41.980469 52.875 42 52.890625 42.035156 C 52.894531 42.058594 52.886719 42.074219 52.890625 42.109375 C 52.914062 42.210938 53.082031 42.445312 53.148438 42.710938 C 53.257812 43.179688 53.363281 44.128906 53.25 44.742188 C 53.148438 45.300781 52.664062 45.9375 52.5625 46.257812 C 52.523438 46.402344 52.554688 46.507812 52.511719 46.574219 C 52.480469 46.625 52.421875 46.625 52.382812 46.675781 C 52.320312 46.742188 52.332031 46.890625 52.226562 47.011719 C 52.011719 47.253906 50.933594 47.796875 50.875 47.816406 C 50.867188 47.816406 50.867188 47.816406 50.863281 47.816406 C 50.835938 47.824219 50.601562 47.96875 50.53125 48.015625 C 50.5 48.039062 50.472656 48.0625 50.457031 48.066406 C 50.453125 48.066406 50.453125 48.0625 50.445312 48.066406 C 50.425781 48.074219 50.363281 48.109375 50.316406 48.140625 C 50.238281 48.207031 50.117188 48.378906 50.015625 48.433594 C 49.933594 48.472656 49.855469 48.445312 49.765625 48.472656 C 49.660156 48.511719 49.558594 48.578125 49.410156 48.6875 C 49.128906 48.894531 48.644531 49.394531 48.238281 49.738281 C 47.824219 50.09375 47.429688 50.445312 46.949219 50.78125 C 46.421875 51.148438 45.839844 51.472656 45.191406 51.835938 C 44.417969 52.257812 43.355469 52.828125 42.628906 53.148438 C 42.121094 53.382812 41.800781 53.515625 41.292969 53.664062 C 40.644531 53.84375 39.75 54.082031 39.050781 54.097656 C 38.449219 54.113281 37.789062 54.136719 37.355469 53.84375 C 36.921875 53.554688 36.53125 52.628906 36.46875 52.34375 C 36.449219 52.246094 36.515625 52.21875 36.492188 52.125 C 36.417969 51.882812 35.707031 51.335938 35.601562 50.992188 C 35.539062 50.761719 35.703125 50.441406 35.667969 50.339844 C 35.652344 50.308594 35.601562 50.28125 35.597656 50.28125 C 35.597656 50.277344 35.539062 50.183594 35.503906 50.132812 C 35.472656 50.085938 35.453125 50.058594 35.410156 49.984375 C 35.285156 49.773438 34.960938 49.140625 34.722656 48.695312 C 34.476562 48.230469 34.179688 47.773438 33.957031 47.261719 C 33.71875 46.730469 33.449219 45.855469 33.347656 45.5625 C 33.316406 45.457031 33.320312 45.382812 33.285156 45.355469 C 33.265625 45.335938 33.214844 45.339844 33.210938 45.339844 C 33.210938 45.339844 33.105469 45.296875 33.054688 45.277344 C 33.003906 45.257812 32.898438 45.210938 32.898438 45.210938 C 32.894531 45.207031 32.804688 45.140625 32.761719 45.109375 C 32.714844 45.074219 32.628906 45.007812 32.621094 45.007812 C 32.621094 45.003906 32.554688 44.921875 32.515625 44.875 C 32.480469 44.832031 32.40625 44.746094 32.40625 44.742188 C 32.40625 44.742188 32.355469 44.644531 32.332031 44.589844 C 32.304688 44.539062 32.257812 44.441406 32.257812 44.4375 C 32.257812 44.4375 32.230469 44.328125 32.222656 44.269531 C 32.210938 44.214844 32.207031 44.179688 32.1875 44.105469 C 32.148438 43.941406 32.03125 43.648438 31.980469 43.347656 C 31.90625 42.917969 31.863281 42.132812 31.867188 41.742188 C 31.867188 41.519531 31.949219 41.417969 31.90625 41.214844 C 31.835938 40.890625 31.492188 40.515625 31.257812 40.058594 C 30.933594 39.410156 30.453125 38.355469 30.175781 37.660156 C 29.96875 37.132812 29.859375 36.734375 29.703125 36.246094 C 29.523438 35.726562 29.3125 35.167969 29.167969 34.621094 C 29.023438 34.078125 28.898438 33.59375 28.828125 32.976562 C 28.738281 32.203125 28.769531 30.351562 28.769531 30.351562 M 42.167969 50.167969 C 42.324219 50.09375 42.292969 50.074219 42.273438 50.074219 C 42.246094 50.078125 42.167969 50.167969 42.167969 50.167969 " clip-rule="nonzero"/></clipPath><clipPath id="815b1c3c03"><path d="M 0.71875 0.941406 L 25.347656 0.941406 L 25.347656 35.148438 L 0.71875 35.148438 Z M 0.71875 0.941406 " clip-rule="nonzero"/></clipPath><clipPath id="442d0419c0"><path d="M 0.769531 11.351562 C 1.277344 8.8125 1.652344 8.371094 1.703125 7.9375 C 1.738281 7.566406 1.527344 7.21875 1.507812 6.886719 C 1.496094 6.589844 1.578125 6.347656 1.570312 6.042969 C 1.5625 5.667969 1.410156 5.253906 1.421875 4.792969 C 1.429688 4.21875 1.519531 3.445312 1.742188 2.871094 C 1.949219 2.335938 2.242188 1.730469 2.671875 1.445312 C 3.089844 1.175781 3.847656 1.304688 4.28125 1.195312 C 4.582031 1.125 4.714844 0.949219 5.039062 0.941406 C 5.605469 0.9375 7.050781 1.476562 7.394531 1.683594 C 7.507812 1.753906 7.527344 1.855469 7.589844 1.882812 C 7.632812 1.898438 7.648438 1.871094 7.710938 1.871094 C 7.949219 1.882812 8.859375 1.972656 9.398438 2.113281 C 9.929688 2.257812 10.726562 2.609375 10.929688 2.722656 C 10.988281 2.757812 11 2.785156 11.03125 2.800781 C 11.0625 2.8125 11.082031 2.785156 11.125 2.800781 C 11.34375 2.878906 12.421875 3.660156 12.777344 4.074219 C 13.019531 4.363281 13.21875 4.890625 13.238281 4.921875 C 13.238281 4.925781 13.242188 4.925781 13.242188 4.925781 C 13.257812 4.964844 13.726562 5.742188 13.746094 5.859375 C 13.75 5.886719 13.730469 5.890625 13.742188 5.910156 C 13.789062 6.011719 14.414062 6.371094 14.746094 6.589844 C 15.070312 6.808594 15.566406 7.167969 15.722656 7.234375 C 15.761719 7.253906 15.78125 7.242188 15.8125 7.253906 C 15.835938 7.265625 15.855469 7.289062 15.886719 7.296875 C 15.910156 7.308594 15.933594 7.308594 15.964844 7.328125 C 16.003906 7.347656 16.050781 7.398438 16.097656 7.425781 C 16.144531 7.460938 16.242188 7.515625 16.242188 7.515625 C 16.242188 7.515625 16.535156 7.761719 16.703125 7.882812 C 16.890625 8.015625 17.058594 8.097656 17.308594 8.28125 C 17.773438 8.621094 18.8125 9.25 19.21875 9.832031 C 19.542969 10.308594 19.59375 10.949219 19.742188 11.378906 C 19.84375 11.683594 19.902344 12.042969 20.007812 12.152344 C 20.050781 12.195312 20.097656 12.191406 20.140625 12.210938 C 20.195312 12.230469 20.304688 12.273438 20.304688 12.28125 C 20.304688 12.28125 20.398438 12.347656 20.441406 12.382812 C 20.492188 12.417969 20.582031 12.488281 20.582031 12.488281 C 20.585938 12.492188 20.65625 12.578125 20.695312 12.625 C 20.730469 12.671875 20.804688 12.757812 20.804688 12.757812 C 20.804688 12.757812 20.851562 12.863281 20.878906 12.917969 C 20.902344 12.972656 20.953125 13.070312 20.953125 13.074219 C 20.957031 13.089844 21.761719 15.050781 21.945312 15.75 C 22.058594 16.167969 22.007812 16.460938 22.121094 16.800781 C 22.238281 17.152344 22.449219 17.460938 22.636719 17.820312 C 22.847656 18.21875 23.097656 18.597656 23.339844 19.09375 C 23.660156 19.746094 24.179688 20.875 24.335938 21.433594 C 24.414062 21.71875 24.386719 21.992188 24.441406 22.121094 C 24.464844 22.175781 24.488281 22.175781 24.519531 22.234375 C 24.59375 22.363281 24.742188 22.792969 24.8125 22.925781 C 24.839844 22.980469 24.875 23 24.890625 23.035156 C 24.894531 23.058594 24.886719 23.074219 24.890625 23.109375 C 24.914062 23.210938 25.082031 23.445312 25.148438 23.710938 C 25.257812 24.179688 25.363281 25.128906 25.25 25.742188 C 25.148438 26.300781 24.664062 26.9375 24.5625 27.257812 C 24.523438 27.402344 24.554688 27.507812 24.511719 27.574219 C 24.480469 27.625 24.421875 27.625 24.382812 27.675781 C 24.320312 27.742188 24.332031 27.890625 24.226562 28.011719 C 24.011719 28.253906 22.933594 28.796875 22.875 28.816406 C 22.867188 28.816406 22.867188 28.816406 22.863281 28.816406 C 22.835938 28.824219 22.601562 28.96875 22.53125 29.015625 C 22.5 29.039062 22.472656 29.0625 22.457031 29.066406 C 22.453125 29.066406 22.453125 29.0625 22.445312 29.066406 C 22.425781 29.074219 22.363281 29.109375 22.316406 29.140625 C 22.238281 29.207031 22.117188 29.378906 22.015625 29.433594 C 21.933594 29.472656 21.855469 29.445312 21.765625 29.472656 C 21.660156 29.511719 21.558594 29.578125 21.410156 29.6875 C 21.128906 29.894531 20.644531 30.394531 20.238281 30.738281 C 19.824219 31.09375 19.429688 31.445312 18.949219 31.78125 C 18.421875 32.148438 17.839844 32.472656 17.191406 32.835938 C 16.417969 33.257812 15.355469 33.828125 14.628906 34.148438 C 14.121094 34.382812 13.800781 34.515625 13.292969 34.664062 C 12.644531 34.84375 11.75 35.082031 11.050781 35.097656 C 10.449219 35.113281 9.789062 35.136719 9.355469 34.84375 C 8.921875 34.554688 8.53125 33.628906 8.46875 33.34375 C 8.449219 33.246094 8.515625 33.21875 8.492188 33.125 C 8.417969 32.882812 7.707031 32.335938 7.601562 31.992188 C 7.539062 31.761719 7.703125 31.441406 7.667969 31.339844 C 7.652344 31.308594 7.601562 31.28125 7.597656 31.28125 C 7.597656 31.277344 7.539062 31.183594 7.503906 31.132812 C 7.472656 31.085938 7.453125 31.058594 7.410156 30.984375 C 7.285156 30.773438 6.960938 30.140625 6.722656 29.695312 C 6.476562 29.230469 6.179688 28.773438 5.957031 28.261719 C 5.71875 27.730469 5.449219 26.855469 5.347656 26.5625 C 5.316406 26.457031 5.320312 26.382812 5.285156 26.355469 C 5.265625 26.335938 5.214844 26.339844 5.210938 26.339844 C 5.210938 26.339844 5.105469 26.296875 5.054688 26.277344 C 5.003906 26.257812 4.898438 26.210938 4.898438 26.210938 C 4.894531 26.207031 4.804688 26.140625 4.761719 26.109375 C 4.714844 26.074219 4.628906 26.007812 4.621094 26.007812 C 4.621094 26.003906 4.554688 25.921875 4.515625 25.875 C 4.480469 25.832031 4.40625 25.746094 4.40625 25.742188 C 4.40625 25.742188 4.355469 25.644531 4.332031 25.589844 C 4.304688 25.539062 4.257812 25.441406 4.257812 25.4375 C 4.257812 25.4375 4.230469 25.328125 4.222656 25.269531 C 4.210938 25.214844 4.207031 25.179688 4.1875 25.105469 C 4.148438 24.941406 4.03125 24.648438 3.980469 24.347656 C 3.90625 23.917969 3.863281 23.132812 3.867188 22.742188 C 3.867188 22.519531 3.949219 22.417969 3.90625 22.214844 C 3.835938 21.890625 3.492188 21.515625 3.257812 21.058594 C 2.933594 20.410156 2.453125 19.355469 2.175781 18.660156 C 1.96875 18.132812 1.859375 17.734375 1.703125 17.246094 C 1.523438 16.726562 1.3125 16.167969 1.167969 15.621094 C 1.023438 15.078125 0.898438 14.59375 0.828125 13.976562 C 0.738281 13.203125 0.769531 11.351562 0.769531 11.351562 M 14.167969 31.167969 C 14.324219 31.09375 14.292969 31.074219 14.273438 31.074219 C 14.246094 31.078125 14.167969 31.167969 14.167969 31.167969 " clip-rule="nonzero"/></clipPath><clipPath id="a6f803e43b"><rect x="0" width="26" y="0" height="36"/></clipPath><clipPath id="b766cc0003"><path d="M 16.570312 21 L 31 21 L 31 61 L 16.570312 61 Z M 16.570312 21 " clip-rule="nonzero"/></clipPath><clipPath id="d8fa90e38f"><path d="M 19 11.371094 L 61.046875 11.371094 L 61.046875 62.519531 L 19 62.519531 Z M 19 11.371094 " clip-rule="nonzero"/></clipPath></defs><g clip-path="url(#1f70b814eb)"><path fill="#ffffff" d="M 0 0.0078125 L 74.132812 0.0078125 L 74.132812 74.136719 L 0 74.136719 Z M 0 0.0078125 " fill-opacity="1" fill-rule="nonzero"/><path fill="#ffffff" d="M 0 0.0078125 L 74.132812 0.0078125 L 74.132812 74.136719 L 0 74.136719 Z M 0 0.0078125 " fill-opacity="1" fill-rule="nonzero"/></g><g clip-path="url(#33cd11501f)"><g clip-path="url(#12310226f6)"><g transform="matrix(1, 0, 0, 1, 2, 2)"><g clip-path="url(#513daf9126)"><g clip-path="url(#fcc0986e4a)"><g clip-path="url(#ef92cb0dba)"><path fill="#ff65f9" d="M 0.425781 0.433594 L 69.703125 0.433594 L 69.703125 69.710938 L 0.425781 69.710938 Z M 0.425781 0.433594 " fill-opacity="1" fill-rule="nonzero"/></g></g></g></g></g></g><g clip-path="url(#8b7a79354f)"><g clip-path="url(#7e74176c1f)"><path stroke-linecap="butt" transform="matrix(0.741316, 0, 0, 0.741316, 2.427548, 2.433866)" fill="none" stroke-linejoin="miter" d="M 46.72092 -0.000367119 C 20.916926 -0.000367119 -0.00238311 20.918942 -0.00238311 46.717667 C -0.00238311 72.521661 20.916926 93.435701 46.72092 93.435701 C 72.519645 93.435701 93.438954 72.521661 93.438954 46.717667 C 93.438954 20.918942 72.519645 -0.000367119 46.72092 -0.000367119 Z M 46.72092 -0.000367119 " stroke="#ffdd84" stroke-width="2" stroke-opacity="1" stroke-miterlimit="4"/></g></g><g clip-path="url(#3944f6f5df)"><g clip-path="url(#c49721d9d3)"><g transform="matrix(1, 0, 0, 1, 28, 19)"><g clip-path="url(#a6f803e43b)"><g clip-path="url(#815b1c3c03)"><g clip-path="url(#442d0419c0)"><path fill="#ffdd84" d="M 0.570312 0.746094 L 25.445312 0.746094 L 25.445312 35.296875 L 0.570312 35.296875 Z M 0.570312 0.746094 " fill-opacity="1" fill-rule="nonzero"/></g></g></g></g></g></g><g clip-path="url(#b766cc0003)"><path fill="#000000" d="M 29.734375 58.078125 L 22.675781 58.742188 C 21.902344 58.808594 21.238281 58.253906 21.167969 57.492188 L 18.539062 29.523438 C 18.5 29.128906 18.636719 28.734375 18.910156 28.445312 L 23.75 23.335938 C 24.101562 22.964844 24.085938 22.375 23.714844 22.023438 C 23.339844 21.667969 22.753906 21.6875 22.402344 22.058594 L 17.5625 27.167969 C 16.917969 27.847656 16.601562 28.769531 16.691406 29.699219 L 19.320312 57.667969 C 19.476562 59.34375 20.894531 60.605469 22.542969 60.605469 C 22.644531 60.605469 22.75 60.601562 22.851562 60.589844 L 29.910156 59.925781 C 30.417969 59.878906 30.796875 59.425781 30.746094 58.914062 C 30.699219 58.40625 30.246094 58.023438 29.734375 58.078125 " fill-opacity="1" fill-rule="nonzero"/></g><path fill="#000000" d="M 48.382812 43.183594 C 48.253906 43.132812 48.121094 43.105469 47.988281 43.105469 C 47.855469 43.105469 47.722656 43.132812 47.59375 43.183594 C 47.339844 43.289062 47.140625 43.488281 47.035156 43.742188 C 46.929688 43.996094 46.929688 44.273438 47.035156 44.527344 C 47.140625 44.78125 47.339844 44.980469 47.59375 45.085938 C 47.847656 45.191406 48.125 45.191406 48.378906 45.085938 C 48.632812 44.980469 48.832031 44.785156 48.9375 44.53125 C 49.042969 44.277344 49.042969 43.996094 48.9375 43.742188 C 48.832031 43.488281 48.636719 43.289062 48.382812 43.183594 " fill-opacity="1" fill-rule="nonzero"/><path fill="#000000" d="M 35.699219 37.925781 C 35.574219 37.875 35.4375 37.847656 35.304688 37.847656 C 35.171875 37.847656 35.039062 37.871094 34.914062 37.925781 C 34.390625 38.140625 34.136719 38.746094 34.355469 39.269531 C 34.457031 39.523438 34.65625 39.722656 34.910156 39.828125 C 35.164062 39.933594 35.445312 39.933594 35.699219 39.828125 C 36.222656 39.609375 36.472656 39.007812 36.257812 38.484375 C 36.152344 38.230469 35.953125 38.03125 35.699219 37.925781 " fill-opacity="1" fill-rule="nonzero"/><g clip-path="url(#d8fa90e38f)"><path fill="#000000" d="M 51.796875 45.71875 C 51.375 46.734375 50.582031 47.527344 49.5625 47.949219 C 49.054688 48.15625 48.519531 48.261719 47.988281 48.261719 C 47.453125 48.261719 46.914062 48.15625 46.40625 47.945312 C 45.386719 47.523438 44.597656 46.730469 44.175781 45.710938 C 43.753906 44.691406 43.753906 43.570312 44.175781 42.554688 C 44.601562 41.535156 45.394531 40.746094 46.410156 40.324219 C 47.429688 39.902344 48.550781 39.902344 49.570312 40.324219 C 50.585938 40.75 51.378906 41.542969 51.800781 42.558594 C 52.21875 43.578125 52.21875 44.699219 51.796875 45.71875 Z M 38.082031 51.640625 C 37.882812 51.640625 37.683594 51.601562 37.488281 51.523438 C 36.699219 51.195312 36.324219 50.289062 36.652344 49.5 L 43.78125 32.324219 C 44.109375 31.535156 45.015625 31.160156 45.808594 31.488281 C 46.597656 31.816406 46.96875 32.722656 46.640625 33.511719 L 39.511719 50.6875 C 39.265625 51.28125 38.6875 51.640625 38.082031 51.640625 Z M 35.304688 43.003906 C 34.769531 43.003906 34.234375 42.898438 33.722656 42.6875 C 32.707031 42.265625 31.914062 41.472656 31.492188 40.453125 C 30.625 38.351562 31.628906 35.933594 33.730469 35.0625 C 34.746094 34.644531 35.871094 34.644531 36.886719 35.066406 C 37.90625 35.488281 38.695312 36.28125 39.117188 37.300781 C 39.988281 39.402344 38.984375 41.820312 36.882812 42.6875 C 36.375 42.898438 35.839844 43.003906 35.304688 43.003906 Z M 32.269531 21.59375 C 32.550781 21.984375 32.8125 22.378906 33.042969 22.753906 C 33.214844 23.042969 33.523438 23.203125 33.835938 23.203125 C 34 23.203125 34.167969 23.160156 34.316406 23.070312 C 34.757812 22.804688 34.898438 22.234375 34.632812 21.792969 C 34.4375 21.476562 34.21875 21.140625 33.984375 20.804688 C 34.464844 20.753906 34.949219 20.808594 35.40625 21 C 36.125 21.300781 36.6875 21.859375 36.984375 22.582031 C 37.285156 23.304688 37.285156 24.097656 36.984375 24.816406 C 36.683594 25.539062 36.121094 26.097656 35.402344 26.398438 C 35.039062 26.546875 34.660156 26.621094 34.289062 26.621094 C 33.140625 26.621094 32.050781 25.9375 31.585938 24.8125 C 31.113281 23.671875 31.429688 22.402344 32.269531 21.59375 Z M 26.605469 19.621094 C 23.519531 17.90625 21.296875 15.910156 20.976562 14.523438 C 20.898438 14.167969 20.949219 13.886719 21.152344 13.617188 C 21.296875 13.421875 21.539062 13.203125 22.125 13.230469 C 23.597656 13.304688 25.847656 14.800781 28.007812 16.789062 Z M 61.105469 49.117188 L 49.441406 20.898438 C 49.0625 19.984375 48.304688 19.273438 47.367188 18.957031 L 32.726562 13.992188 C 31.335938 13.519531 29.824219 14 28.933594 15.113281 C 26.621094 13.046875 24.140625 11.472656 22.214844 11.375 C 21.132812 11.320312 20.257812 11.710938 19.664062 12.503906 C 19.136719 13.210938 18.964844 14.050781 19.167969 14.941406 C 19.792969 17.644531 23.722656 20.144531 25.78125 21.285156 L 21.675781 29.574219 C 21.234375 30.464844 21.199219 31.5 21.578125 32.417969 L 33.238281 60.636719 C 33.589844 61.484375 34.253906 62.148438 35.101562 62.5 C 35.527344 62.675781 35.976562 62.765625 36.421875 62.765625 C 36.867188 62.765625 37.3125 62.675781 37.738281 62.5 L 59.238281 53.613281 C 60.089844 53.261719 60.75 52.601562 61.101562 51.753906 C 61.457031 50.902344 61.457031 49.96875 61.105469 49.117188 " fill-opacity="1" fill-rule="nonzero"/></g></svg>