<svg xmlns="http://www.w3.org/2000/svg" xmlns:xlink="http://www.w3.org/1999/xlink" width="100" zoomAndPan="magnify" viewBox="0 0 75 74.999997" height="100" preserveAspectRatio="xMidYMid meet" version="1.0"><defs><clipPath id="a39b06e1fc"><path d="M 2.457031 2.457031 L 72.542969 2.457031 L 72.542969 72.542969 L 2.457031 72.542969 Z M 2.457031 2.457031 " clip-rule="nonzero"/></clipPath><clipPath id="20ed9ffd92"><path d="M 37.5 2.457031 C 18.144531 2.457031 2.457031 18.144531 2.457031 37.5 C 2.457031 56.855469 18.144531 72.542969 37.5 72.542969 C 56.855469 72.542969 72.542969 56.855469 72.542969 37.5 C 72.542969 18.144531 56.855469 2.457031 37.5 2.457031 Z M 37.5 2.457031 " clip-rule="nonzero"/></clipPath><clipPath id="b6277252c4"><path d="M 0.457031 0.457031 L 70.542969 0.457031 L 70.542969 70.542969 L 0.457031 70.542969 Z M 0.457031 0.457031 " clip-rule="nonzero"/></clipPath><clipPath id="68650a9297"><path d="M 35.5 0.457031 C 16.144531 0.457031 0.457031 16.144531 0.457031 35.5 C 0.457031 54.855469 16.144531 70.542969 35.5 70.542969 C 54.855469 70.542969 70.542969 54.855469 70.542969 35.5 C 70.542969 16.144531 54.855469 0.457031 35.5 0.457031 Z M 35.5 0.457031 " clip-rule="nonzero"/></clipPath><clipPath id="ced577ee89"><rect x="0" width="71" y="0" height="71"/></clipPath><clipPath id="f9ecac3426"><path d="M 2.457031 2.457031 L 72.207031 2.457031 L 72.207031 72.207031 L 2.457031 72.207031 Z M 2.457031 2.457031 " clip-rule="nonzero"/></clipPath><clipPath id="3e2ceaf021"><path d="M 37.496094 2.457031 C 18.144531 2.457031 2.457031 18.144531 2.457031 37.496094 C 2.457031 56.847656 18.144531 72.535156 37.496094 72.535156 C 56.847656 72.535156 72.535156 56.847656 72.535156 37.496094 C 72.535156 18.144531 56.847656 2.457031 37.496094 2.457031 Z M 37.496094 2.457031 " clip-rule="nonzero"/></clipPath><clipPath id="5006a09610"><path d="M 16.96875 10 L 58 10 L 58 64.738281 L 16.96875 64.738281 Z M 16.96875 10 " clip-rule="nonzero"/></clipPath><clipPath id="825a743074"><path d="M 17 60 L 31 60 L 31 64.738281 L 17 64.738281 Z M 17 60 " clip-rule="nonzero"/></clipPath><clipPath id="155170cd5b"><path d="M 44 60 L 58 60 L 58 64.738281 L 44 64.738281 Z M 44 60 " clip-rule="nonzero"/></clipPath></defs><rect x="-7.5" width="90" fill="#ffffff" y="-7.5" height="89.999996" fill-opacity="1"/><rect x="-7.5" width="90" fill="#ffffff" y="-7.5" height="89.999996" fill-opacity="1"/><g clip-path="url(#a39b06e1fc)"><g clip-path="url(#20ed9ffd92)"><g transform="matrix(1, 0, 0, 1, 2, 2)"><g clip-path="url(#ced577ee89)"><g clip-path="url(#b6277252c4)"><g clip-path="url(#68650a9297)"><path fill="#ff65f9" d="M 0.457031 0.457031 L 70.542969 0.457031 L 70.542969 70.542969 L 0.457031 70.542969 Z M 0.457031 0.457031 " fill-opacity="1" fill-rule="nonzero"/></g></g></g></g></g></g><g clip-path="url(#f9ecac3426)"><g clip-path="url(#3e2ceaf021)"><path stroke-linecap="butt" transform="matrix(0.75, 0, 0, 0.75, 2.455987, 2.455985)" fill="none" stroke-linejoin="miter" d="M 46.720146 0.00139543 C 20.91806 0.00139543 0.00139209 20.918064 0.00139209 46.720149 C 0.00139209 72.522235 20.91806 93.438903 46.720146 93.438903 C 72.522231 93.438903 93.4389 72.522235 93.4389 46.720149 C 93.4389 20.918064 72.522231 0.00139543 46.720146 0.00139543 Z M 46.720146 0.00139543 " stroke="#000000" stroke-width="2" stroke-opacity="1" stroke-miterlimit="4"/></g></g><g clip-path="url(#5006a09610)"><path fill="#000000" d="M 34.140625 10.058594 C 38.085938 10 42.03125 10.03125 45.972656 10.152344 C 47.058594 10.1875 48.144531 10.242188 49.226562 10.316406 C 49.816406 10.355469 50.433594 10.363281 51.015625 10.464844 C 51.113281 10.539062 51.183594 10.613281 51.257812 10.710938 L 51.222656 13.21875 C 51.214844 13.667969 51.179688 14.140625 51.222656 14.589844 C 51.285156 15.191406 51.515625 15.8125 51.667969 16.402344 C 51.90625 17.324219 52.113281 18.253906 52.289062 19.191406 C 52.949219 22.660156 53.519531 26.144531 54.003906 29.640625 C 55.414062 39.542969 56.542969 49.476562 57.390625 59.441406 C 57.457031 59.503906 57.523438 59.570312 57.59375 59.636719 C 57.683594 60.167969 57.730469 60.710938 57.796875 61.246094 C 57.84375 61.628906 57.90625 62.007812 57.957031 62.390625 C 57.980469 62.570312 58.023438 62.878906 57.902344 63.023438 C 57.832031 63.105469 57.734375 63.148438 57.632812 63.167969 C 57.210938 63.257812 56.769531 63.300781 56.34375 63.367188 C 55.089844 63.558594 53.832031 63.714844 52.574219 63.890625 L 47.789062 64.578125 C 46.828125 64.714844 45.863281 64.871094 44.90625 64.980469 C 44.878906 64.96875 44.855469 64.953125 44.832031 64.9375 C 44.765625 64.890625 44.679688 64.832031 44.648438 64.753906 C 44.503906 64.421875 44.363281 63.363281 44.269531 62.910156 C 44.183594 62.492188 44.050781 62.0625 43.992188 61.640625 C 43.972656 61.503906 44.082031 61.398438 44.046875 61.261719 C 43.382812 58.351562 42.53125 55.480469 41.722656 52.609375 C 41.425781 51.554688 41.070312 50.507812 40.824219 49.4375 C 40.152344 46.378906 39.574219 43.300781 39.09375 40.207031 C 38.753906 38.105469 38.441406 36.003906 38.054688 33.90625 C 37.910156 33.074219 37.738281 31.851562 37.472656 31.078125 C 37.355469 31.84375 37.199219 32.609375 37.066406 33.375 L 36.175781 38.636719 C 35.59375 42.113281 35.046875 45.589844 34.265625 49.027344 C 33.902344 50.632812 33.398438 52.210938 32.941406 53.792969 C 32.507812 55.332031 32.089844 56.871094 31.679688 58.417969 L 31.160156 60.355469 C 31.085938 60.632812 30.96875 60.949219 30.9375 61.234375 C 30.925781 61.339844 30.964844 61.441406 30.984375 61.542969 C 31.03125 61.792969 30.542969 64.097656 30.445312 64.464844 C 30.410156 64.589844 30.367188 64.730469 30.289062 64.835938 C 30.246094 64.894531 30.222656 64.910156 30.148438 64.917969 C 29.625 64.992188 28.628906 64.789062 28.078125 64.714844 C 26.671875 64.53125 25.265625 64.339844 23.859375 64.132812 L 19.511719 63.550781 C 18.867188 63.460938 18.214844 63.390625 17.578125 63.277344 C 17.425781 63.25 17.261719 63.203125 17.140625 63.105469 C 17.050781 63.03125 17 62.949219 16.992188 62.832031 C 16.972656 62.339844 17.113281 61.734375 17.179688 61.238281 C 17.238281 60.769531 17.246094 60.226562 17.375 59.773438 C 17.414062 59.640625 17.460938 59.566406 17.554688 59.464844 C 17.5625 59.457031 17.570312 59.449219 17.578125 59.441406 C 17.640625 58.976562 17.667969 58.5 17.710938 58.03125 C 17.820312 56.933594 17.921875 55.839844 18.015625 54.742188 C 18.207031 52.660156 18.441406 50.582031 18.65625 48.503906 C 19.371094 41.9375 20.167969 35.386719 21.050781 28.84375 L 21.78125 23.828125 C 21.976562 22.59375 22.167969 21.351562 22.425781 20.125 C 22.707031 18.824219 23.011719 17.527344 23.335938 16.234375 C 23.484375 15.644531 23.707031 15.042969 23.804688 14.445312 C 23.902344 13.839844 23.785156 10.878906 24.050781 10.613281 C 24.425781 10.238281 33.027344 10.070312 34.140625 10.058594 Z M 34.140625 10.058594 " fill-opacity="1" fill-rule="nonzero"/></g><path fill="#ffdd84" d="M 31.453125 16.367188 C 31.496094 16.367188 31.554688 16.363281 31.59375 16.375 C 31.746094 16.417969 31.6875 16.890625 31.765625 17.035156 C 31.84375 17.1875 31.96875 17.234375 32.128906 17.273438 C 32.457031 17.359375 33.261719 17.582031 33.5625 17.386719 C 33.769531 17.25 33.804688 16.9375 33.847656 16.714844 C 34.6875 16.78125 35.523438 16.828125 36.363281 16.855469 C 36.367188 19.863281 36.28125 22.890625 36.472656 25.890625 C 36.519531 26.628906 36.585938 27.375 36.703125 28.105469 C 36.773438 28.542969 37.039062 29.261719 37.007812 29.648438 C 36.976562 30.109375 36.742188 30.792969 36.636719 31.265625 C 36.417969 32.25 36.222656 33.238281 36.054688 34.230469 C 35.238281 38.964844 34.582031 43.726562 33.535156 48.417969 C 33.285156 49.546875 32.96875 50.644531 32.660156 51.757812 L 31.308594 56.574219 C 31.035156 57.546875 30.773438 58.515625 30.523438 59.492188 C 30.390625 60.011719 30.285156 60.6875 30.070312 61.164062 C 28.507812 60.949219 26.949219 60.730469 25.390625 60.5 L 18.398438 59.542969 C 18.417969 58.914062 18.515625 58.277344 18.574219 57.648438 C 18.691406 56.328125 18.824219 55.007812 18.96875 53.691406 C 19.347656 49.691406 19.785156 45.699219 20.289062 41.714844 C 20.753906 37.660156 21.273438 33.609375 21.839844 29.566406 C 22.066406 27.75 22.324219 25.933594 22.613281 24.125 C 22.742188 23.296875 22.835938 22.453125 23.011719 21.632812 C 24.140625 21.71875 26.050781 21.746094 27.144531 21.527344 C 27.34375 21.488281 27.542969 21.433594 27.738281 21.363281 C 27.933594 21.296875 28.121094 21.214844 28.304688 21.121094 C 30.082031 20.222656 30.871094 18.15625 31.453125 16.367188 Z M 31.453125 16.367188 " fill-opacity="1" fill-rule="nonzero"/><path fill="#000000" d="M 33.015625 30.503906 C 33.074219 30.5 33.128906 30.511719 33.191406 30.523438 C 33.222656 30.550781 33.25 30.558594 33.261719 30.601562 C 33.328125 30.851562 33.019531 32.835938 32.96875 33.222656 C 32.496094 36.796875 31.902344 40.347656 30.933594 43.828125 C 30.117188 46.761719 29.054688 49.621094 28.238281 52.558594 C 27.945312 53.621094 27.671875 54.6875 27.417969 55.761719 C 27.316406 56.191406 27.257812 56.898438 27.082031 57.277344 C 27.046875 57.28125 27.027344 57.285156 26.988281 57.28125 C 26.921875 57.277344 26.886719 57.25 26.84375 57.203125 C 26.78125 56.898438 26.972656 56.328125 27.042969 56.007812 C 27.476562 54.109375 27.980469 52.234375 28.558594 50.378906 C 29.273438 48.0625 30.058594 45.777344 30.710938 43.445312 C 31.53125 40.503906 32.070312 37.457031 32.472656 34.4375 C 32.574219 33.679688 32.679688 32.921875 32.765625 32.167969 C 32.824219 31.675781 32.855469 31.167969 32.945312 30.683594 C 32.957031 30.613281 32.980469 30.5625 33.015625 30.503906 Z M 33.015625 30.503906 " fill-opacity="1" fill-rule="nonzero"/><path fill="#ffdd84" d="M 43.550781 16.355469 C 43.605469 16.347656 43.65625 16.34375 43.710938 16.34375 C 43.871094 16.347656 43.929688 16.679688 43.96875 16.8125 C 44.335938 18.078125 44.765625 19.433594 45.714844 20.390625 C 45.808594 20.484375 45.90625 20.574219 46.007812 20.65625 C 46.109375 20.742188 46.214844 20.820312 46.324219 20.890625 C 46.433594 20.964844 46.546875 21.035156 46.660156 21.09375 C 46.777344 21.15625 46.898438 21.214844 47.019531 21.261719 C 48.378906 21.804688 50.460938 21.683594 51.917969 21.6875 C 52.09375 23.128906 52.394531 24.5625 52.609375 26 C 53.132812 29.53125 53.632812 33.070312 54.101562 36.609375 C 55.082031 44.21875 55.902344 51.847656 56.566406 59.492188 C 56.1875 59.523438 55.804688 59.609375 55.425781 59.675781 C 55 59.746094 54.574219 59.800781 54.144531 59.863281 L 48.585938 60.648438 C 48.152344 60.753906 47.5625 60.785156 47.105469 60.84375 C 46.359375 60.9375 45.621094 61.050781 44.882812 61.191406 L 44.046875 57.878906 C 43.679688 56.453125 43.277344 55.03125 42.886719 53.613281 C 42.382812 51.792969 41.800781 50.003906 41.398438 48.15625 C 40.90625 45.855469 40.46875 43.539062 40.089844 41.214844 C 39.691406 38.738281 39.351562 36.25 38.886719 33.785156 C 38.65625 32.566406 38.417969 31.339844 38.117188 30.140625 C 38.011719 29.722656 37.824219 29.347656 37.703125 28.9375 C 37.472656 28.179688 37.375 27.324219 37.359375 26.53125 C 38.199219 26.429688 38.953125 26.109375 39.539062 25.488281 C 40.0625 24.933594 40.425781 24.289062 40.59375 23.542969 C 40.804688 22.617188 40.679688 21.5625 40.632812 20.617188 C 40.574219 19.308594 40.472656 18 40.429688 16.6875 C 40.652344 16.65625 40.875 16.640625 41.097656 16.625 C 41.128906 16.820312 41.144531 17.050781 41.214844 17.234375 C 41.265625 17.355469 41.347656 17.445312 41.46875 17.496094 C 41.8125 17.640625 42.753906 17.40625 43.109375 17.253906 C 43.414062 16.929688 43.234375 16.800781 43.328125 16.4375 C 43.402344 16.371094 43.453125 16.375 43.550781 16.355469 Z M 43.550781 16.355469 " fill-opacity="1" fill-rule="nonzero"/><path fill="#000000" d="M 41.671875 30.46875 C 41.695312 30.472656 41.71875 30.476562 41.738281 30.484375 C 41.808594 30.503906 41.855469 30.519531 41.886719 30.589844 C 41.945312 30.71875 41.980469 31.207031 42.003906 31.367188 L 42.371094 33.8125 C 42.667969 35.726562 42.976562 37.660156 43.394531 39.550781 C 44.257812 43.46875 45.476562 47.277344 46.613281 51.121094 C 47.027344 52.515625 47.417969 53.917969 47.789062 55.324219 C 47.898438 55.753906 48.152344 56.582031 48.164062 57.003906 C 48.167969 57.0625 48.152344 57.109375 48.132812 57.160156 C 48.078125 57.167969 48.039062 57.171875 47.984375 57.164062 C 47.929688 57.15625 47.914062 57.148438 47.886719 57.097656 C 47.804688 56.957031 47.78125 56.6875 47.75 56.527344 C 47.507812 55.324219 47.148438 54.140625 46.820312 52.960938 C 45.785156 49.253906 44.539062 45.597656 43.597656 41.867188 C 42.863281 38.953125 42.390625 35.96875 41.941406 33 L 41.726562 31.554688 C 41.683594 31.269531 41.613281 30.957031 41.621094 30.671875 C 41.621094 30.597656 41.644531 30.539062 41.671875 30.46875 Z M 41.671875 30.46875 " fill-opacity="1" fill-rule="nonzero"/><path fill="#ffdd84" d="M 24.554688 15.058594 C 26.570312 15.460938 28.582031 15.871094 30.609375 16.226562 C 30.105469 17.664062 29.660156 19.117188 28.410156 20.089844 C 28.03125 20.351562 27.628906 20.546875 27.183594 20.667969 C 26.105469 20.957031 24.324219 20.882812 23.175781 20.835938 C 23.359375 19.804688 23.605469 18.777344 23.84375 17.757812 C 24.050781 16.859375 24.253906 15.925781 24.554688 15.058594 Z M 24.554688 15.058594 " fill-opacity="1" fill-rule="nonzero"/><path fill="#ffdd84" d="M 50.289062 15.105469 C 50.375 15.09375 50.386719 15.085938 50.453125 15.128906 C 50.527344 15.25 50.527344 15.386719 50.570312 15.519531 C 51.09375 17.246094 51.410156 19.058594 51.746094 20.832031 C 50.269531 20.90625 48.109375 20.976562 46.808594 20.234375 C 45.539062 19.402344 45.0625 17.5625 44.667969 16.183594 C 45.136719 16.074219 45.632812 16.019531 46.113281 15.933594 C 47.507812 15.675781 48.910156 15.433594 50.289062 15.105469 Z M 50.289062 15.105469 " fill-opacity="1" fill-rule="nonzero"/><g clip-path="url(#825a743074)"><path fill="#ffdd84" d="M 18.113281 60.324219 C 20.183594 60.65625 22.269531 60.910156 24.34375 61.1875 L 30.089844 61.996094 C 29.933594 62.660156 29.796875 63.332031 29.679688 64.007812 C 29.671875 64.03125 29.65625 64.054688 29.644531 64.078125 C 29.382812 64.113281 28.796875 63.976562 28.503906 63.9375 L 26.140625 63.613281 L 20.808594 62.878906 C 19.816406 62.746094 18.816406 62.632812 17.824219 62.476562 C 17.867188 61.765625 17.996094 61.027344 18.113281 60.324219 Z M 18.113281 60.324219 " fill-opacity="1" fill-rule="nonzero"/></g><g clip-path="url(#155170cd5b)"><path fill="#ffdd84" d="M 56.808594 60.335938 C 56.886719 60.421875 57.0625 62.140625 57.089844 62.386719 C 56.761719 62.457031 56.421875 62.488281 56.089844 62.539062 L 54.488281 62.785156 C 52.648438 63.050781 50.804688 63.308594 48.960938 63.550781 C 48.164062 63.65625 47.367188 63.773438 46.574219 63.898438 C 46.203125 63.957031 45.792969 64.050781 45.421875 64.0625 C 45.355469 64.0625 45.382812 64.074219 45.335938 64.027344 C 45.210938 63.351562 45.058594 62.675781 44.917969 62.003906 C 45.441406 61.886719 46.003906 61.832031 46.539062 61.761719 C 47.398438 61.648438 48.257812 61.527344 49.117188 61.402344 C 50.824219 61.152344 52.53125 60.910156 54.242188 60.679688 C 55.09375 60.566406 55.953125 60.410156 56.808594 60.335938 Z M 56.808594 60.335938 " fill-opacity="1" fill-rule="nonzero"/></g><path fill="#ffdd84" d="M 50.269531 11.414062 C 50.324219 11.40625 50.34375 11.40625 50.394531 11.417969 C 50.449219 11.601562 50.367188 13.816406 50.363281 14.230469 C 48.675781 14.585938 46.980469 14.914062 45.285156 15.21875 L 43.929688 15.445312 C 43.746094 15.476562 43.554688 15.535156 43.371094 15.550781 C 43.304688 15.554688 43.253906 15.550781 43.195312 15.519531 L 43.167969 15.414062 C 43.085938 14.496094 42.941406 13.582031 42.820312 12.671875 C 43.484375 12.550781 44.164062 12.484375 44.828125 12.378906 C 46.648438 12.089844 48.460938 11.765625 50.269531 11.414062 Z M 50.269531 11.414062 " fill-opacity="1" fill-rule="nonzero"/><path fill="#ffdd84" d="M 39.585938 16.761719 L 39.582031 16.792969 L 39.605469 16.757812 C 39.609375 16.765625 39.613281 16.773438 39.617188 16.78125 C 39.683594 16.980469 39.675781 17.84375 39.6875 18.121094 C 39.75 19.460938 39.84375 20.808594 39.851562 22.152344 C 39.855469 22.441406 39.847656 22.738281 39.8125 23.027344 C 39.757812 23.492188 39.617188 23.925781 39.375 24.328125 C 38.929688 25.074219 38.308594 25.46875 37.476562 25.675781 L 37.367188 25.683594 C 37.308594 25.621094 37.304688 25.550781 37.292969 25.46875 C 37.257812 25.230469 37.269531 24.980469 37.261719 24.742188 C 37.238281 24.160156 37.21875 23.578125 37.210938 22.996094 C 37.1875 20.953125 37.183594 18.910156 37.195312 16.867188 C 38 16.867188 38.785156 16.828125 39.585938 16.761719 Z M 39.585938 16.761719 " fill-opacity="1" fill-rule="nonzero"/><path fill="#ffdd84" d="M 24.734375 11.398438 C 25.015625 11.429688 25.300781 11.511719 25.578125 11.570312 L 27.253906 11.902344 C 28.84375 12.203125 30.4375 12.464844 32.039062 12.695312 L 31.765625 15.359375 C 31.757812 15.417969 31.746094 15.464844 31.726562 15.519531 C 31.609375 15.5625 31.257812 15.457031 31.113281 15.4375 C 29.707031 15.226562 28.3125 14.976562 26.921875 14.6875 C 26.167969 14.535156 25.417969 14.355469 24.65625 14.230469 Z M 24.734375 11.398438 " fill-opacity="1" fill-rule="nonzero"/><path fill="#ffdd84" d="M 36.382812 10.882812 C 38.835938 10.871094 41.292969 10.890625 43.746094 10.941406 C 45.027344 10.972656 46.316406 10.980469 47.59375 11.066406 C 46.882812 11.179688 46.175781 11.324219 45.464844 11.433594 C 43.234375 11.769531 40.992188 12.027344 38.742188 12.199219 C 35.976562 12.359375 33.027344 12.03125 30.289062 11.597656 C 29.378906 11.453125 28.472656 11.253906 27.558594 11.121094 C 28.890625 11.019531 30.246094 10.996094 31.582031 10.964844 C 33.179688 10.921875 34.78125 10.894531 36.382812 10.882812 Z M 36.382812 10.882812 " fill-opacity="1" fill-rule="nonzero"/><path fill="#ffdd84" d="M 40.234375 12.957031 C 40.367188 12.945312 40.5 12.9375 40.636719 12.929688 C 40.726562 13.875 40.839844 14.828125 40.976562 15.765625 C 40.003906 15.964844 38.957031 15.976562 37.96875 16.03125 L 37.210938 16.0625 C 37.261719 15.078125 37.296875 14.09375 37.308594 13.109375 C 38.285156 13.09375 39.261719 13.042969 40.234375 12.957031 Z M 40.234375 12.957031 " fill-opacity="1" fill-rule="nonzero"/><path fill="#000000" d="M 38.167969 13.984375 C 38.179688 13.980469 38.191406 13.980469 38.203125 13.976562 C 38.214844 13.972656 38.226562 13.972656 38.238281 13.972656 C 38.25 13.96875 38.265625 13.96875 38.277344 13.96875 C 38.289062 13.96875 38.300781 13.964844 38.3125 13.964844 C 38.324219 13.96875 38.335938 13.96875 38.347656 13.96875 C 38.359375 13.96875 38.371094 13.96875 38.382812 13.972656 C 38.398438 13.972656 38.410156 13.976562 38.421875 13.976562 C 38.433594 13.980469 38.445312 13.984375 38.457031 13.988281 C 38.46875 13.992188 38.480469 13.992188 38.488281 13.996094 C 38.5 14.003906 38.511719 14.007812 38.523438 14.011719 C 38.535156 14.015625 38.546875 14.019531 38.558594 14.027344 C 38.566406 14.03125 38.578125 14.039062 38.589844 14.042969 C 38.597656 14.050781 38.609375 14.058594 38.617188 14.0625 C 38.628906 14.070312 38.636719 14.078125 38.648438 14.085938 C 38.65625 14.09375 38.667969 14.101562 38.675781 14.109375 C 38.683594 14.117188 38.695312 14.125 38.703125 14.132812 C 38.710938 14.140625 38.71875 14.152344 38.726562 14.160156 C 38.734375 14.167969 38.742188 14.179688 38.75 14.1875 C 38.753906 14.199219 38.761719 14.207031 38.769531 14.21875 C 38.777344 14.230469 38.78125 14.238281 38.789062 14.25 C 38.792969 14.261719 38.800781 14.269531 38.804688 14.28125 C 38.808594 14.292969 38.8125 14.304688 38.820312 14.316406 C 38.824219 14.328125 38.828125 14.339844 38.832031 14.351562 C 38.835938 14.359375 38.835938 14.371094 38.839844 14.382812 C 38.84375 14.394531 38.847656 14.40625 38.847656 14.421875 C 38.851562 14.433594 38.851562 14.445312 38.851562 14.457031 C 38.855469 14.46875 38.855469 14.480469 38.855469 14.492188 C 38.855469 14.503906 38.855469 14.515625 38.855469 14.527344 C 38.855469 14.539062 38.855469 14.550781 38.855469 14.566406 C 38.851562 14.578125 38.851562 14.589844 38.851562 14.601562 C 38.847656 14.613281 38.847656 14.625 38.84375 14.636719 C 38.839844 14.648438 38.835938 14.660156 38.832031 14.671875 C 38.832031 14.683594 38.828125 14.695312 38.824219 14.707031 C 38.820312 14.71875 38.8125 14.726562 38.808594 14.738281 C 38.804688 14.75 38.796875 14.761719 38.792969 14.773438 C 38.789062 14.78125 38.78125 14.792969 38.773438 14.804688 C 38.769531 14.8125 38.761719 14.824219 38.753906 14.832031 C 38.75 14.84375 38.742188 14.851562 38.734375 14.863281 C 38.726562 14.871094 38.71875 14.878906 38.710938 14.890625 C 38.699219 14.898438 38.691406 14.90625 38.683594 14.914062 C 38.675781 14.921875 38.664062 14.933594 38.65625 14.9375 C 38.648438 14.945312 38.636719 14.953125 38.628906 14.960938 C 38.617188 14.96875 38.609375 14.976562 38.597656 14.980469 C 38.585938 14.988281 38.578125 14.992188 38.566406 15 C 38.554688 15.003906 38.542969 15.011719 38.535156 15.015625 C 38.523438 15.019531 38.511719 15.027344 38.5 15.03125 C 38.488281 15.035156 38.476562 15.039062 38.464844 15.042969 C 38.453125 15.042969 38.441406 15.046875 38.429688 15.050781 C 38.421875 15.050781 38.414062 15.054688 38.40625 15.054688 C 38.394531 15.058594 38.386719 15.058594 38.378906 15.058594 C 38.371094 15.0625 38.359375 15.0625 38.351562 15.0625 C 38.34375 15.0625 38.335938 15.0625 38.324219 15.066406 C 38.316406 15.066406 38.308594 15.066406 38.296875 15.066406 C 38.289062 15.066406 38.28125 15.0625 38.273438 15.0625 C 38.261719 15.0625 38.253906 15.0625 38.246094 15.0625 C 38.238281 15.058594 38.226562 15.058594 38.21875 15.058594 C 38.210938 15.054688 38.203125 15.054688 38.191406 15.050781 C 38.183594 15.050781 38.175781 15.046875 38.167969 15.046875 C 38.15625 15.042969 38.148438 15.042969 38.140625 15.039062 C 38.132812 15.035156 38.125 15.035156 38.117188 15.03125 C 38.105469 15.027344 38.097656 15.023438 38.089844 15.019531 C 38.082031 15.015625 38.074219 15.011719 38.066406 15.007812 C 38.058594 15.003906 38.050781 15 38.042969 14.996094 C 38.035156 14.992188 38.027344 14.988281 38.019531 14.984375 C 38.011719 14.980469 38.003906 14.972656 37.996094 14.96875 C 37.988281 14.964844 37.984375 14.957031 37.976562 14.953125 C 37.96875 14.949219 37.960938 14.941406 37.953125 14.9375 C 37.949219 14.929688 37.941406 14.925781 37.933594 14.917969 C 37.929688 14.914062 37.921875 14.90625 37.914062 14.902344 C 37.910156 14.894531 37.902344 14.886719 37.898438 14.882812 C 37.890625 14.875 37.886719 14.867188 37.878906 14.859375 C 37.875 14.855469 37.867188 14.847656 37.863281 14.839844 C 37.859375 14.832031 37.855469 14.824219 37.847656 14.816406 C 37.84375 14.808594 37.839844 14.800781 37.835938 14.792969 C 37.828125 14.785156 37.824219 14.78125 37.820312 14.769531 C 37.816406 14.761719 37.8125 14.753906 37.808594 14.746094 C 37.804688 14.738281 37.800781 14.730469 37.800781 14.722656 C 37.796875 14.714844 37.792969 14.707031 37.789062 14.699219 C 37.785156 14.691406 37.785156 14.679688 37.78125 14.671875 C 37.777344 14.664062 37.777344 14.65625 37.773438 14.648438 C 37.773438 14.636719 37.769531 14.628906 37.769531 14.621094 C 37.765625 14.613281 37.765625 14.601562 37.765625 14.59375 C 37.761719 14.585938 37.761719 14.578125 37.761719 14.566406 C 37.761719 14.558594 37.757812 14.550781 37.757812 14.542969 C 37.757812 14.53125 37.757812 14.523438 37.757812 14.515625 C 37.757812 14.503906 37.757812 14.496094 37.757812 14.488281 C 37.757812 14.480469 37.761719 14.46875 37.761719 14.460938 C 37.761719 14.453125 37.761719 14.445312 37.765625 14.433594 C 37.765625 14.425781 37.765625 14.417969 37.769531 14.410156 C 37.769531 14.398438 37.773438 14.390625 37.773438 14.382812 C 37.777344 14.375 37.78125 14.363281 37.78125 14.355469 C 37.785156 14.347656 37.789062 14.339844 37.789062 14.332031 C 37.792969 14.324219 37.796875 14.316406 37.800781 14.304688 C 37.804688 14.296875 37.808594 14.289062 37.8125 14.28125 C 37.8125 14.273438 37.820312 14.265625 37.824219 14.257812 C 37.828125 14.25 37.832031 14.242188 37.835938 14.234375 C 37.839844 14.226562 37.84375 14.21875 37.851562 14.210938 C 37.855469 14.203125 37.859375 14.199219 37.863281 14.191406 C 37.871094 14.183594 37.875 14.175781 37.882812 14.167969 C 37.886719 14.164062 37.894531 14.15625 37.898438 14.148438 C 37.90625 14.140625 37.910156 14.136719 37.917969 14.128906 C 37.921875 14.125 37.929688 14.117188 37.9375 14.109375 C 37.941406 14.105469 37.949219 14.097656 37.957031 14.09375 C 37.964844 14.085938 37.96875 14.082031 37.976562 14.078125 C 37.984375 14.070312 37.992188 14.066406 38 14.0625 C 38.007812 14.054688 38.015625 14.050781 38.023438 14.046875 C 38.03125 14.042969 38.039062 14.039062 38.042969 14.035156 C 38.054688 14.027344 38.0625 14.023438 38.070312 14.019531 C 38.078125 14.015625 38.085938 14.015625 38.09375 14.011719 C 38.101562 14.007812 38.109375 14.003906 38.117188 14 C 38.125 13.996094 38.132812 13.996094 38.144531 13.992188 C 38.152344 13.988281 38.160156 13.988281 38.167969 13.984375 Z M 38.167969 13.984375 " fill-opacity="1" fill-rule="nonzero"/><path fill="#000000" d="M 39.441406 14.34375 C 39.640625 14.332031 39.835938 14.328125 40.03125 14.320312 C 40.035156 14.441406 40.082031 14.707031 40.027344 14.804688 C 39.84375 14.832031 39.660156 14.847656 39.476562 14.871094 C 39.453125 14.695312 39.421875 14.519531 39.441406 14.34375 Z M 39.441406 14.34375 " fill-opacity="1" fill-rule="nonzero"/><path fill="#ffdd84" d="M 34.21875 12.9375 C 34.972656 13.003906 35.730469 13.054688 36.488281 13.089844 C 36.46875 13.453125 36.40625 15.898438 36.34375 16.003906 L 36.265625 16.011719 C 35.492188 16.003906 34.722656 15.957031 33.953125 15.875 C 34.089844 14.90625 34.167969 13.914062 34.21875 12.9375 Z M 34.21875 12.9375 " fill-opacity="1" fill-rule="nonzero"/><path fill="#ffdd84" d="M 41.871094 12.753906 C 41.910156 12.746094 41.941406 12.75 41.984375 12.753906 C 42.042969 12.839844 42.46875 16.273438 42.484375 16.558594 L 42.027344 16.652344 C 42.007812 16.65625 41.964844 16.648438 41.941406 16.648438 C 41.835938 16.5 41.472656 13.21875 41.417969 12.8125 C 41.570312 12.785156 41.71875 12.773438 41.871094 12.753906 Z M 41.871094 12.753906 " fill-opacity="1" fill-rule="nonzero"/><path fill="#ffdd84" d="M 32.859375 12.765625 C 33.042969 12.773438 33.21875 12.800781 33.398438 12.828125 C 33.386719 13.429688 33.3125 14.039062 33.246094 14.636719 C 33.175781 15.296875 33.101562 15.957031 33.023438 16.613281 L 32.503906 16.503906 C 32.582031 15.257812 32.746094 14.011719 32.859375 12.765625 Z M 32.859375 12.765625 " fill-opacity="1" fill-rule="nonzero"/></svg>