<svg xmlns="http://www.w3.org/2000/svg" xmlns:xlink="http://www.w3.org/1999/xlink" width="1500" zoomAndPan="magnify" viewBox="0 0 810 809.99995" height="1500" preserveAspectRatio="xMidYMid meet" version="1.0"><defs><clipPath id="6c22ce2838"><path d="M 36.839844 36.839844 L 810 36.839844 L 810 810 L 36.839844 810 Z M 36.839844 36.839844 " clip-rule="nonzero"/></clipPath><clipPath id="520975787a"><path d="M 562.5 36.839844 C 272.1875 36.839844 36.839844 272.1875 36.839844 562.5 C 36.839844 852.8125 272.1875 1088.160156 562.5 1088.160156 C 852.8125 1088.160156 1088.160156 852.8125 1088.160156 562.5 C 1088.160156 272.1875 852.8125 36.839844 562.5 36.839844 Z M 562.5 36.839844 " clip-rule="nonzero"/></clipPath><clipPath id="c7495ad054"><path d="M 0.839844 0.839844 L 774 0.839844 L 774 774 L 0.839844 774 Z M 0.839844 0.839844 " clip-rule="nonzero"/></clipPath><clipPath id="b97b004313"><path d="M 526.5 0.839844 C 236.1875 0.839844 0.839844 236.1875 0.839844 526.5 C 0.839844 816.8125 236.1875 1052.160156 526.5 1052.160156 C 816.8125 1052.160156 1052.160156 816.8125 1052.160156 526.5 C 1052.160156 236.1875 816.8125 0.839844 526.5 0.839844 Z M 526.5 0.839844 " clip-rule="nonzero"/></clipPath><clipPath id="7da1fa2a78"><rect x="0" width="774" y="0" height="774"/></clipPath><clipPath id="e91ecee9af"><path d="M 36.839844 36.839844 L 810 36.839844 L 810 810 L 36.839844 810 Z M 36.839844 36.839844 " clip-rule="nonzero"/></clipPath><clipPath id="e533e77266"><path d="M 562.496094 36.839844 C 272.183594 36.839844 36.839844 272.183594 36.839844 562.496094 C 36.839844 852.808594 272.183594 1088.152344 562.496094 1088.152344 C 852.808594 1088.152344 1088.152344 852.808594 1088.152344 562.496094 C 1088.152344 272.183594 852.808594 36.839844 562.496094 36.839844 Z M 562.496094 36.839844 " clip-rule="nonzero"/></clipPath><clipPath id="ed05c8d85e"><path d="M 254.535156 150 L 810 150 L 810 810 L 254.535156 810 Z M 254.535156 150 " clip-rule="nonzero"/></clipPath></defs><rect x="-81" width="972" fill="#ffffff" y="-80.999995" height="971.99994" fill-opacity="1"/><rect x="-81" width="972" fill="#ffffff" y="-80.999995" height="971.99994" fill-opacity="1"/><g clip-path="url(#6c22ce2838)"><g clip-path="url(#520975787a)"><g transform="matrix(1, 0, 0, 1, 36, 36)"><g clip-path="url(#7da1fa2a78)"><g clip-path="url(#c7495ad054)"><g clip-path="url(#b97b004313)"><path fill="#f4d584" d="M 0.839844 0.839844 L 1052.160156 0.839844 L 1052.160156 1052.160156 L 0.839844 1052.160156 Z M 0.839844 0.839844 " fill-opacity="1" fill-rule="nonzero"/></g></g></g></g></g></g><g clip-path="url(#e91ecee9af)"><g clip-path="url(#e533e77266)"><path stroke-linecap="butt" transform="matrix(0.75, 0, 0, 0.75, 36.839809, 36.839764)" fill="none" stroke-linejoin="miter" d="M 700.875119 0.000106612 C 313.791746 0.000106612 0.0000466121 313.791806 0.0000466121 700.875179 C 0.0000466121 1087.958552 313.791746 1401.750252 700.875119 1401.750252 C 1087.958492 1401.750252 1401.750192 1087.958552 1401.750192 700.875179 C 1401.750192 313.791806 1087.958492 0.000106612 700.875119 0.000106612 Z M 700.875119 0.000106612 " stroke="#ff65f9" stroke-width="44" stroke-opacity="1" stroke-miterlimit="4"/></g></g><g clip-path="url(#ed05c8d85e)"><path fill="#000000" d="M 512.203125 150.828125 C 571.386719 149.941406 630.566406 150.394531 689.730469 152.191406 C 706.015625 152.738281 722.285156 153.574219 738.542969 154.699219 C 747.394531 155.253906 756.65625 155.347656 765.398438 156.878906 C 766.84375 158.015625 767.917969 159.148438 769.027344 160.613281 L 768.46875 198.210938 C 768.367188 204.953125 767.816406 212.078125 768.503906 218.773438 C 769.4375 227.835938 772.890625 237.144531 775.140625 245.976562 C 778.707031 259.820312 781.820312 273.765625 784.476562 287.8125 C 794.375 339.871094 802.953125 392.144531 810.207031 444.636719 C 831.351562 593.183594 848.285156 742.214844 861.003906 891.71875 C 862.039062 892.691406 863.035156 893.707031 864.046875 894.699219 C 865.417969 902.667969 866.132812 910.789062 867.097656 918.816406 C 867.792969 924.570312 868.761719 930.277344 869.503906 936.019531 C 869.847656 938.679688 870.527344 943.324219 868.675781 945.496094 C 867.636719 946.710938 866.203125 947.34375 864.667969 947.667969 C 858.339844 949 851.691406 949.660156 845.292969 950.636719 C 826.480469 953.511719 807.605469 955.851562 788.765625 958.527344 L 716.933594 968.816406 C 702.566406 970.894531 688.09375 973.210938 673.683594 974.875 C 673.324219 974.652344 672.960938 974.433594 672.609375 974.195312 C 671.574219 973.496094 670.328125 972.601562 669.824219 971.421875 C 667.695312 966.46875 665.539062 950.578125 664.136719 943.789062 C 662.84375 937.503906 660.84375 931.066406 659.964844 924.730469 C 659.679688 922.683594 661.3125 921.128906 660.835938 919.042969 C 650.859375 875.40625 638.054688 832.3125 625.957031 789.230469 C 621.511719 773.398438 616.175781 757.679688 612.488281 741.652344 C 602.378906 695.753906 593.707031 649.585938 586.472656 603.144531 C 581.378906 571.597656 576.695312 540.078125 570.90625 508.636719 C 568.753906 496.144531 566.152344 477.777344 562.175781 466.167969 C 560.398438 477.691406 558.046875 489.132812 556.078125 500.625 L 542.738281 579.617188 C 533.964844 631.765625 525.792969 683.90625 514.058594 735.507812 C 508.582031 759.597656 501.035156 783.277344 494.164062 807.003906 C 487.699219 830.078125 481.402344 853.195312 475.273438 876.359375 L 467.476562 905.453125 C 466.363281 909.621094 464.5625 914.367188 464.089844 918.636719 C 463.917969 920.207031 464.503906 921.765625 464.796875 923.285156 C 465.511719 927.003906 458.21875 961.613281 456.71875 967.128906 C 456.203125 969.011719 455.542969 971.078125 454.402344 972.667969 C 453.757812 973.570312 453.386719 973.789062 452.277344 973.941406 C 444.433594 975.027344 429.5 971.957031 421.222656 970.863281 C 400.09375 968.140625 378.992188 965.238281 357.914062 962.160156 L 292.667969 953.394531 C 283.035156 952.066406 273.253906 951.015625 263.683594 949.296875 C 261.359375 948.878906 258.953125 948.203125 257.085938 946.691406 C 255.753906 945.613281 254.988281 944.347656 254.910156 942.621094 C 254.574219 935.226562 256.726562 926.140625 257.671875 918.691406 C 258.5625 911.65625 258.71875 903.523438 260.632812 896.726562 C 261.183594 894.753906 261.90625 893.613281 263.300781 892.109375 C 263.421875 891.980469 263.546875 891.847656 263.671875 891.71875 C 264.617188 884.742188 265.007812 877.597656 265.683594 870.578125 C 267.304688 854.144531 268.820312 837.699219 270.234375 821.246094 C 273.085938 790.019531 276.644531 758.804688 279.875 727.609375 C 290.574219 629.136719 302.53125 530.820312 315.75 432.660156 L 326.765625 357.429688 C 329.640625 338.871094 332.535156 320.234375 336.429688 301.863281 C 340.65625 282.324219 345.207031 262.867188 350.082031 243.480469 C 352.316406 234.632812 355.652344 225.585938 357.105469 216.59375 C 358.570312 207.546875 356.820312 163.109375 360.800781 159.125 C 366.433594 153.492188 495.460938 150.984375 512.203125 150.828125 Z M 512.203125 150.828125 " fill-opacity="1" fill-rule="nonzero"/></g><path fill="#2a2a37" d="M 471.855469 245.46875 C 472.492188 245.472656 473.375 245.398438 473.980469 245.570312 C 476.242188 246.214844 475.378906 253.285156 476.53125 255.492188 C 477.734375 257.796875 479.609375 258.449219 482 259.078125 C 486.925781 260.371094 499.015625 263.703125 503.480469 260.765625 C 506.582031 258.722656 507.152344 253.988281 507.800781 250.667969 C 520.355469 251.664062 532.925781 252.375 545.511719 252.808594 C 545.574219 297.929688 544.316406 343.3125 547.179688 388.363281 C 547.882812 399.449219 548.851562 410.609375 550.628906 421.578125 C 551.6875 428.125 555.648438 438.917969 555.21875 444.753906 C 554.714844 451.648438 551.210938 461.917969 549.609375 469.007812 C 546.324219 483.757812 543.429688 498.582031 540.921875 513.484375 C 528.671875 584.53125 518.792969 655.945312 503.089844 726.371094 C 499.316406 743.308594 494.605469 759.78125 489.984375 776.488281 L 469.664062 848.753906 C 465.589844 863.292969 461.664062 877.875 457.886719 892.496094 C 455.894531 900.277344 454.300781 910.433594 451.101562 917.5625 C 427.6875 914.386719 404.296875 911.082031 380.917969 907.652344 L 275.980469 893.285156 C 276.277344 883.859375 277.726562 874.265625 278.636719 864.855469 C 280.398438 845.035156 282.363281 825.234375 284.53125 805.449219 C 290.210938 745.464844 296.8125 685.582031 304.328125 625.796875 C 311.351562 564.9375 319.125 504.167969 327.644531 443.496094 C 331.023438 416.222656 334.882812 389.019531 339.21875 361.878906 C 341.136719 349.421875 342.578125 336.777344 345.183594 324.449219 C 362.117188 325.742188 390.820312 326.175781 407.191406 322.898438 C 410.21875 322.277344 413.195312 321.457031 416.117188 320.4375 C 419.039062 319.417969 421.878906 318.210938 424.636719 316.808594 C 451.308594 303.328125 463.132812 272.28125 471.855469 245.46875 Z M 471.855469 245.46875 " fill-opacity="1" fill-rule="nonzero"/><path fill="#000000" d="M 495.277344 457.554688 C 496.199219 457.535156 497.015625 457.683594 497.921875 457.84375 C 498.414062 458.246094 498.820312 458.40625 498.988281 459.054688 C 499.960938 462.78125 495.378906 492.582031 494.617188 498.347656 C 487.515625 552.015625 478.566406 605.265625 464.039062 657.46875 C 451.78125 701.519531 435.855469 744.410156 423.621094 788.460938 C 419.210938 804.410156 415.101562 820.433594 411.296875 836.535156 C 409.800781 843 408.925781 853.59375 406.277344 859.277344 C 405.761719 859.332031 405.421875 859.386719 404.882812 859.351562 C 403.855469 859.285156 403.320312 858.882812 402.675781 858.148438 C 401.761719 853.5625 404.613281 845.058594 405.691406 840.21875 C 412.175781 811.765625 419.757812 783.613281 428.449219 755.757812 C 439.179688 721.042969 450.941406 686.726562 460.710938 651.71875 C 473.011719 607.632812 481.125 561.90625 487.171875 516.5625 C 488.683594 505.226562 490.234375 493.875 491.5625 482.515625 C 492.421875 475.15625 492.894531 467.550781 494.230469 460.269531 C 494.421875 459.234375 494.746094 458.464844 495.277344 457.554688 Z M 495.277344 457.554688 " fill-opacity="1" fill-rule="nonzero"/><path fill="#2a2a37" d="M 653.367188 245.273438 C 654.171875 245.160156 654.9375 245.109375 655.746094 245.117188 C 658.171875 245.136719 659.054688 250.175781 659.628906 252.136719 C 665.171875 271.128906 671.570312 291.453125 685.839844 305.816406 C 687.226562 307.222656 688.6875 308.554688 690.210938 309.816406 C 691.734375 311.078125 693.320312 312.257812 694.960938 313.355469 C 696.605469 314.457031 698.300781 315.472656 700.046875 316.402344 C 701.792969 317.332031 703.578125 318.171875 705.410156 318.921875 C 725.785156 327.035156 757.03125 325.203125 778.90625 325.269531 C 781.523438 346.902344 786.066406 368.417969 789.28125 389.992188 C 797.164062 442.992188 804.632812 496.054688 811.679688 549.171875 C 826.394531 663.351562 838.714844 777.785156 848.640625 892.480469 C 842.945312 892.960938 837.203125 894.28125 831.5625 895.242188 C 825.167969 896.328125 818.734375 897.144531 812.316406 898.070312 L 728.921875 909.855469 C 722.402344 911.449219 713.554688 911.914062 706.714844 912.78125 C 695.53125 914.167969 684.402344 915.898438 673.328125 917.976562 L 660.832031 868.28125 C 655.285156 846.886719 649.289062 825.582031 643.394531 804.28125 C 635.839844 776.984375 627.121094 750.128906 621.09375 722.417969 C 613.675781 687.875 607.125 653.167969 601.441406 618.296875 C 595.464844 581.132812 590.371094 543.785156 583.398438 506.777344 C 579.957031 488.515625 576.375 470.132812 571.820312 452.113281 C 570.234375 445.839844 567.460938 440.207031 565.613281 434.070312 C 562.175781 422.667969 560.730469 409.84375 560.460938 397.964844 C 573.054688 396.410156 584.386719 391.625 593.175781 382.308594 C 601.007812 374.003906 606.480469 364.300781 609.011719 353.144531 C 612.164062 339.238281 610.285156 323.417969 609.613281 309.226562 C 608.683594 289.582031 607.207031 269.9375 606.542969 250.285156 C 609.867188 249.765625 613.226562 249.550781 616.578125 249.339844 C 617.03125 252.246094 617.273438 255.714844 618.335938 258.457031 C 619.054688 260.308594 620.304688 261.644531 622.148438 262.414062 C 627.296875 264.566406 641.4375 261.023438 646.769531 258.789062 C 651.300781 253.886719 648.648438 251.964844 650.027344 246.53125 C 651.125 245.515625 651.921875 245.554688 653.367188 245.273438 Z M 653.367188 245.273438 " fill-opacity="1" fill-rule="nonzero"/><path fill="#000000" d="M 625.1875 457.058594 C 625.53125 457.105469 625.859375 457.140625 626.195312 457.242188 C 627.257812 457.570312 627.929688 457.800781 628.410156 458.859375 C 629.28125 460.78125 629.785156 468.109375 630.144531 470.535156 L 635.683594 507.222656 C 640.148438 535.949219 644.738281 564.933594 650.996094 593.320312 C 663.949219 652.105469 682.292969 709.238281 699.339844 766.902344 C 705.527344 787.839844 711.398438 808.867188 716.949219 829.980469 C 718.621094 836.433594 722.382812 848.863281 722.605469 855.183594 C 722.636719 856.035156 722.386719 856.746094 722.105469 857.535156 C 721.3125 857.628906 720.679688 857.664062 719.878906 857.5625 C 719.078125 857.460938 718.835938 857.320312 718.410156 856.585938 C 717.175781 854.460938 716.84375 850.445312 716.351562 848.003906 C 712.726562 829.988281 707.339844 812.234375 702.410156 794.53125 C 686.914062 738.894531 668.21875 684.050781 654.089844 628.039062 C 643.066406 584.359375 635.953125 539.546875 629.21875 495.039062 L 625.972656 473.34375 C 625.34375 469.070312 624.320312 464.378906 624.414062 460.058594 C 624.4375 458.957031 624.773438 458.070312 625.1875 457.058594 Z M 625.1875 457.058594 " fill-opacity="1" fill-rule="nonzero"/><path fill="#2a2a37" d="M 368.355469 225.808594 C 398.617188 231.839844 428.765625 238 459.167969 243.351562 C 451.625 264.9375 444.953125 286.695312 426.207031 301.328125 C 420.507812 305.238281 414.457031 308.164062 407.773438 309.972656 C 391.601562 314.347656 364.886719 313.230469 347.691406 312.488281 C 350.410156 297.015625 354.089844 281.601562 357.664062 266.304688 C 360.804688 252.867188 363.835938 238.835938 368.355469 225.808594 Z M 368.355469 225.808594 " fill-opacity="1" fill-rule="nonzero"/><path fill="#2a2a37" d="M 754.496094 226.507812 C 755.746094 226.375 755.910156 226.214844 756.945312 226.890625 C 758.054688 228.671875 758.066406 230.75 758.667969 232.722656 C 766.554688 258.632812 771.277344 285.839844 776.320312 312.421875 C 754.195312 313.539062 721.777344 314.601562 702.222656 303.460938 C 683.214844 290.988281 676.0625 263.414062 670.105469 242.71875 C 677.171875 241.054688 684.625 240.261719 691.792969 238.941406 C 712.734375 235.089844 733.777344 231.449219 754.496094 226.507812 Z M 754.496094 226.507812 " fill-opacity="1" fill-rule="nonzero"/><path fill="#2a2a37" d="M 754.183594 171.148438 C 755 171.023438 755.261719 171.035156 756.035156 171.199219 C 756.886719 173.929688 755.613281 207.167969 755.578125 213.417969 C 730.25 218.71875 704.851562 223.648438 679.378906 228.203125 L 659.0625 231.640625 C 656.300781 232.113281 653.453125 232.960938 650.679688 233.191406 C 649.703125 233.273438 648.9375 233.230469 648.0625 232.746094 L 647.605469 231.128906 C 646.386719 217.402344 644.226562 203.65625 642.398438 189.992188 C 652.371094 188.175781 662.542969 187.21875 672.558594 185.625 C 699.847656 181.265625 727.054688 176.441406 754.183594 171.148438 Z M 754.183594 171.148438 " fill-opacity="1" fill-rule="nonzero"/><path fill="#2a2a37" d="M 593.898438 251.355469 L 593.835938 251.855469 L 594.164062 251.335938 C 594.222656 251.445312 594.300781 251.546875 594.339844 251.667969 C 595.320312 254.675781 595.226562 267.613281 595.417969 271.78125 C 596.328125 291.90625 597.722656 312.109375 597.878906 332.25 C 597.910156 336.613281 597.816406 341.023438 597.292969 345.363281 C 596.453125 352.347656 594.355469 358.882812 590.738281 364.929688 C 584.050781 376.113281 574.707031 382.011719 562.257812 385.128906 L 560.574219 385.226562 C 559.703125 384.28125 559.625 383.277344 559.449219 382.003906 C 558.960938 378.433594 559.136719 374.71875 558.996094 371.117188 C 558.632812 362.382812 558.386719 353.644531 558.253906 344.902344 C 557.914062 314.257812 557.832031 283.609375 558.003906 252.960938 C 570.070312 252.9375 581.882812 252.351562 593.898438 251.355469 Z M 593.898438 251.355469 " fill-opacity="1" fill-rule="nonzero"/><path fill="#2a2a37" d="M 371.046875 170.882812 C 375.238281 171.398438 379.574219 172.625 383.730469 173.476562 L 408.859375 178.449219 C 432.695312 182.960938 456.621094 186.933594 480.636719 190.367188 L 476.546875 230.351562 C 476.433594 231.203125 476.253906 231.933594 475.984375 232.75 C 474.183594 233.375 468.894531 231.8125 466.757812 231.488281 C 445.679688 228.355469 424.710938 224.613281 403.855469 220.261719 C 392.53125 217.992188 381.277344 215.300781 369.878906 213.398438 Z M 371.046875 170.882812 " fill-opacity="1" fill-rule="nonzero"/><path fill="#2a2a37" d="M 545.804688 163.167969 C 582.640625 163.015625 619.472656 163.308594 656.300781 164.046875 C 675.5 164.503906 694.859375 164.652344 714.019531 165.902344 C 703.363281 167.636719 692.773438 169.804688 682.09375 171.410156 C 648.609375 176.488281 614.984375 180.320312 581.21875 182.910156 C 539.734375 185.320312 495.453125 180.40625 454.398438 173.90625 C 440.710938 171.738281 427.121094 168.722656 413.414062 166.773438 C 433.425781 165.195312 453.722656 164.867188 473.789062 164.421875 C 497.789062 163.746094 521.792969 163.328125 545.804688 163.167969 Z M 545.804688 163.167969 " fill-opacity="1" fill-rule="nonzero"/><path fill="#2a2a37" d="M 603.582031 194.304688 C 605.585938 194.09375 607.617188 194.027344 609.628906 193.902344 C 611.007812 208.074219 612.667969 222.359375 614.71875 236.453125 C 600.175781 239.40625 584.4375 239.597656 569.621094 240.445312 L 558.238281 240.902344 C 559.027344 226.132812 559.523438 211.355469 559.730469 196.5625 C 574.375 196.347656 588.992188 195.59375 603.582031 194.304688 Z M 603.582031 194.304688 " fill-opacity="1" fill-rule="nonzero"/><path fill="#000000" d="M 572.617188 209.707031 C 572.792969 209.660156 572.96875 209.621094 573.148438 209.585938 C 573.324219 209.554688 573.503906 209.523438 573.683594 209.503906 C 573.863281 209.480469 574.042969 209.464844 574.226562 209.453125 C 574.40625 209.445312 574.589844 209.441406 574.769531 209.441406 C 574.953125 209.445312 575.132812 209.449219 575.3125 209.464844 C 575.496094 209.476562 575.675781 209.496094 575.855469 209.523438 C 576.035156 209.550781 576.210938 209.582031 576.390625 209.617188 C 576.566406 209.65625 576.742188 209.699219 576.917969 209.746094 C 577.09375 209.796875 577.265625 209.851562 577.4375 209.910156 C 577.609375 209.972656 577.777344 210.039062 577.945312 210.109375 C 578.109375 210.179688 578.273438 210.257812 578.4375 210.339844 C 578.597656 210.421875 578.757812 210.507812 578.914062 210.601562 C 579.066406 210.695312 579.21875 210.792969 579.371094 210.894531 C 579.519531 211 579.664062 211.105469 579.808594 211.21875 C 579.949219 211.332031 580.085938 211.449219 580.222656 211.570312 C 580.355469 211.691406 580.488281 211.816406 580.613281 211.949219 C 580.738281 212.078125 580.863281 212.214844 580.980469 212.351562 C 581.09375 212.488281 581.207031 212.632812 581.316406 212.777344 C 581.425781 212.921875 581.527344 213.074219 581.625 213.226562 C 581.722656 213.378906 581.816406 213.53125 581.902344 213.691406 C 581.992188 213.851562 582.074219 214.011719 582.152344 214.175781 C 582.230469 214.339844 582.300781 214.507812 582.367188 214.675781 C 582.433594 214.84375 582.492188 215.015625 582.546875 215.1875 C 582.601562 215.363281 582.652344 215.535156 582.695312 215.710938 C 582.738281 215.886719 582.777344 216.066406 582.808594 216.242188 C 582.839844 216.421875 582.863281 216.601562 582.882812 216.78125 C 582.902344 216.960938 582.917969 217.144531 582.925781 217.324219 C 582.933594 217.503906 582.9375 217.6875 582.929688 217.867188 C 582.925781 218.050781 582.917969 218.230469 582.902344 218.410156 C 582.886719 218.59375 582.863281 218.773438 582.835938 218.953125 C 582.808594 219.128906 582.773438 219.308594 582.734375 219.484375 C 582.691406 219.664062 582.648438 219.839844 582.597656 220.011719 C 582.542969 220.1875 582.488281 220.359375 582.425781 220.527344 C 582.363281 220.699219 582.296875 220.867188 582.222656 221.03125 C 582.148438 221.199219 582.066406 221.359375 581.984375 221.523438 C 581.898438 221.683594 581.808594 221.839844 581.714844 221.992188 C 581.617188 222.148438 581.519531 222.300781 581.414062 222.449219 C 581.308594 222.59375 581.199219 222.738281 581.085938 222.878906 C 580.96875 223.019531 580.851562 223.15625 580.726562 223.289062 C 580.605469 223.421875 580.476562 223.550781 580.34375 223.675781 C 580.210938 223.800781 580.074219 223.921875 579.9375 224.035156 C 579.796875 224.152344 579.652344 224.261719 579.503906 224.367188 C 579.359375 224.472656 579.207031 224.574219 579.054688 224.671875 C 578.898438 224.765625 578.742188 224.855469 578.582031 224.941406 C 578.421875 225.027344 578.257812 225.109375 578.09375 225.183594 C 577.929688 225.257812 577.761719 225.328125 577.59375 225.390625 C 577.421875 225.453125 577.25 225.511719 577.078125 225.566406 C 576.902344 225.617188 576.726562 225.664062 576.550781 225.707031 C 576.421875 225.734375 576.289062 225.761719 576.160156 225.785156 C 576.027344 225.808594 575.894531 225.832031 575.761719 225.847656 C 575.628906 225.867188 575.496094 225.878906 575.363281 225.890625 C 575.230469 225.902344 575.097656 225.90625 574.964844 225.914062 C 574.832031 225.917969 574.699219 225.917969 574.5625 225.914062 C 574.429688 225.914062 574.296875 225.910156 574.164062 225.898438 C 574.03125 225.890625 573.898438 225.878906 573.765625 225.863281 C 573.632812 225.847656 573.5 225.832031 573.367188 225.808594 C 573.234375 225.789062 573.105469 225.761719 572.972656 225.734375 C 572.84375 225.707031 572.714844 225.675781 572.585938 225.640625 C 572.453125 225.605469 572.324219 225.570312 572.199219 225.53125 C 572.074219 225.488281 571.945312 225.445312 571.820312 225.398438 C 571.695312 225.351562 571.570312 225.300781 571.449219 225.25 C 571.324219 225.199219 571.203125 225.140625 571.085938 225.082031 C 570.964844 225.023438 570.84375 224.960938 570.726562 224.898438 C 570.609375 224.835938 570.496094 224.765625 570.382812 224.699219 C 570.269531 224.625 570.15625 224.554688 570.046875 224.480469 C 569.9375 224.402344 569.828125 224.324219 569.722656 224.246094 C 569.613281 224.164062 569.507812 224.082031 569.40625 223.996094 C 569.304688 223.910156 569.203125 223.820312 569.105469 223.730469 C 569.007812 223.640625 568.914062 223.546875 568.820312 223.453125 C 568.726562 223.355469 568.632812 223.257812 568.542969 223.160156 C 568.457031 223.058594 568.371094 222.957031 568.285156 222.851562 C 568.203125 222.75 568.121094 222.644531 568.042969 222.535156 C 567.960938 222.425781 567.886719 222.316406 567.8125 222.207031 C 567.738281 222.09375 567.667969 221.980469 567.601562 221.867188 C 567.535156 221.75 567.46875 221.636719 567.40625 221.515625 C 567.34375 221.398438 567.285156 221.277344 567.226562 221.15625 C 567.171875 221.035156 567.117188 220.914062 567.066406 220.789062 C 567.019531 220.667969 566.96875 220.542969 566.925781 220.414062 C 566.882812 220.289062 566.839844 220.160156 566.800781 220.035156 C 566.761719 219.90625 566.726562 219.777344 566.695312 219.648438 C 566.664062 219.519531 566.636719 219.386719 566.609375 219.257812 C 566.585938 219.125 566.5625 218.992188 566.542969 218.859375 C 566.523438 218.730469 566.507812 218.597656 566.496094 218.464844 C 566.484375 218.332031 566.472656 218.199219 566.464844 218.0625 C 566.460938 217.929688 566.457031 217.796875 566.457031 217.664062 C 566.457031 217.527344 566.460938 217.394531 566.46875 217.261719 C 566.476562 217.128906 566.484375 216.996094 566.5 216.863281 C 566.511719 216.730469 566.527344 216.597656 566.546875 216.464844 C 566.566406 216.332031 566.589844 216.199219 566.617188 216.070312 C 566.644531 215.9375 566.671875 215.808594 566.703125 215.679688 C 566.738281 215.550781 566.773438 215.421875 566.8125 215.292969 C 566.851562 215.164062 566.890625 215.039062 566.9375 214.910156 C 566.980469 214.785156 567.03125 214.660156 567.082031 214.539062 C 567.132812 214.414062 567.1875 214.292969 567.242188 214.171875 C 567.300781 214.050781 567.359375 213.929688 567.421875 213.8125 C 567.484375 213.695312 567.550781 213.578125 567.617188 213.464844 C 567.6875 213.347656 567.757812 213.234375 567.832031 213.125 C 567.90625 213.011719 567.980469 212.902344 568.0625 212.796875 C 568.140625 212.6875 568.222656 212.582031 568.308594 212.480469 C 568.390625 212.375 568.476562 212.273438 568.566406 212.175781 C 568.65625 212.074219 568.75 211.976562 568.84375 211.882812 C 568.9375 211.789062 569.03125 211.695312 569.132812 211.605469 C 569.230469 211.515625 569.328125 211.425781 569.433594 211.34375 C 569.535156 211.257812 569.640625 211.175781 569.746094 211.09375 C 569.855469 211.011719 569.964844 210.9375 570.074219 210.859375 C 570.183594 210.785156 570.296875 210.714844 570.410156 210.644531 C 570.523438 210.574219 570.640625 210.507812 570.757812 210.445312 C 570.875 210.378906 570.996094 210.320312 571.113281 210.261719 C 571.234375 210.203125 571.355469 210.148438 571.480469 210.097656 C 571.601562 210.042969 571.726562 209.996094 571.851562 209.949219 C 571.976562 209.902344 572.105469 209.859375 572.230469 209.820312 C 572.359375 209.777344 572.488281 209.742188 572.617188 209.707031 Z M 572.617188 209.707031 " fill-opacity="1" fill-rule="nonzero"/><path fill="#000000" d="M 591.738281 215.121094 C 594.671875 214.910156 597.636719 214.867188 600.574219 214.746094 C 600.648438 216.570312 601.324219 220.578125 600.484375 222.039062 C 597.742188 222.433594 594.96875 222.679688 592.214844 222.980469 C 591.890625 220.367188 591.445312 217.753906 591.738281 215.121094 Z M 591.738281 215.121094 " fill-opacity="1" fill-rule="nonzero"/><path fill="#2a2a37" d="M 513.347656 194.003906 C 524.683594 194.984375 536.035156 195.738281 547.402344 196.265625 C 547.085938 201.746094 546.191406 238.414062 545.238281 240.027344 L 544.0625 240.140625 C 532.46875 240.015625 520.90625 239.320312 509.378906 238.054688 C 511.40625 223.519531 512.59375 208.65625 513.347656 194.003906 Z M 513.347656 194.003906 " fill-opacity="1" fill-rule="nonzero"/><path fill="#2a2a37" d="M 628.160156 191.261719 C 628.765625 191.15625 629.246094 191.210938 629.855469 191.261719 C 630.730469 192.535156 637.105469 244.070312 637.34375 248.34375 L 630.539062 249.746094 C 630.199219 249.789062 629.570312 249.695312 629.21875 249.671875 C 627.609375 247.433594 622.191406 198.226562 621.390625 192.132812 C 623.632812 191.742188 625.898438 191.515625 628.160156 191.261719 Z M 628.160156 191.261719 " fill-opacity="1" fill-rule="nonzero"/><path fill="#2a2a37" d="M 492.984375 191.421875 C 495.699219 191.554688 498.335938 191.933594 501.023438 192.351562 C 500.871094 201.402344 499.738281 210.527344 498.761719 219.523438 C 497.714844 229.410156 496.605469 239.289062 495.433594 249.164062 L 487.636719 247.523438 C 488.8125 228.804688 491.246094 210.105469 492.984375 191.421875 Z M 492.984375 191.421875 " fill-opacity="1" fill-rule="nonzero"/></svg>