<svg xmlns="http://www.w3.org/2000/svg" xmlns:xlink="http://www.w3.org/1999/xlink" width="100" zoomAndPan="magnify" viewBox="0 0 75.119995 83.04" height="100" preserveAspectRatio="xMidYMid meet" version="1.0"><defs><clipPath id="f8b5cfcd63"><path d="M 0 0.0078125 L 74.132812 0.0078125 L 74.132812 74.136719 L 0 74.136719 Z M 0 0.0078125 " clip-rule="nonzero"/></clipPath><clipPath id="f956743e20"><path d="M 2.425781 2.433594 L 71.703125 2.433594 L 71.703125 71.710938 L 2.425781 71.710938 Z M 2.425781 2.433594 " clip-rule="nonzero"/></clipPath><clipPath id="ef7392346c"><path d="M 37.066406 2.433594 C 17.9375 2.433594 2.425781 17.941406 2.425781 37.070312 C 2.425781 56.203125 17.9375 71.710938 37.066406 71.710938 C 56.195312 71.710938 71.703125 56.203125 71.703125 37.070312 C 71.703125 17.941406 56.195312 2.433594 37.066406 2.433594 Z M 37.066406 2.433594 " clip-rule="nonzero"/></clipPath><clipPath id="8f7079cca3"><path d="M 0.425781 0.433594 L 69.703125 0.433594 L 69.703125 69.710938 L 0.425781 69.710938 Z M 0.425781 0.433594 " clip-rule="nonzero"/></clipPath><clipPath id="d33e89e15a"><path d="M 35.066406 0.433594 C 15.9375 0.433594 0.425781 15.941406 0.425781 35.070312 C 0.425781 54.203125 15.9375 69.710938 35.066406 69.710938 C 54.195312 69.710938 69.703125 54.203125 69.703125 35.070312 C 69.703125 15.941406 54.195312 0.433594 35.066406 0.433594 Z M 35.066406 0.433594 " clip-rule="nonzero"/></clipPath><clipPath id="55f924e46c"><rect x="0" width="70" y="0" height="70"/></clipPath><clipPath id="ac2aafeb7f"><path d="M 2.425781 2.433594 L 71.371094 2.433594 L 71.371094 71.375 L 2.425781 71.375 Z M 2.425781 2.433594 " clip-rule="nonzero"/></clipPath><clipPath id="c5599a21a5"><path d="M 37.0625 2.433594 C 17.933594 2.433594 2.425781 17.941406 2.425781 37.066406 C 2.425781 56.195312 17.933594 71.699219 37.0625 71.699219 C 56.1875 71.699219 71.695312 56.195312 71.695312 37.066406 C 71.695312 17.941406 56.1875 2.433594 37.0625 2.433594 Z M 37.0625 2.433594 " clip-rule="nonzero"/></clipPath><clipPath id="39bbf50585"><path d="M 17.34375 17.023438 L 34.574219 17.023438 L 34.574219 34.253906 L 17.34375 34.253906 Z M 17.34375 17.023438 " clip-rule="nonzero"/></clipPath><clipPath id="ecb71097ea"><path d="M 0.34375 0.0234375 L 17.574219 0.0234375 L 17.574219 17.253906 L 0.34375 17.253906 Z M 0.34375 0.0234375 " clip-rule="nonzero"/></clipPath><clipPath id="ff83c6861a"><rect x="0" width="18" y="0" height="18"/></clipPath><clipPath id="114b18aa9a"><path d="M 39.449219 39.347656 L 56.679688 39.347656 L 56.679688 56.578125 L 39.449219 56.578125 Z M 39.449219 39.347656 " clip-rule="nonzero"/></clipPath><clipPath id="2ed5789f7a"><path d="M 0.449219 0.347656 L 17.679688 0.347656 L 17.679688 17.578125 L 0.449219 17.578125 Z M 0.449219 0.347656 " clip-rule="nonzero"/></clipPath><clipPath id="171d16d43d"><rect x="0" width="18" y="0" height="18"/></clipPath><clipPath id="43c9b68d8c"><path d="M 39.449219 17.785156 L 56.679688 17.785156 L 56.679688 35.015625 L 39.449219 35.015625 Z M 39.449219 17.785156 " clip-rule="nonzero"/></clipPath><clipPath id="72e0799786"><path d="M 0.449219 0.785156 L 17.679688 0.785156 L 17.679688 18.015625 L 0.449219 18.015625 Z M 0.449219 0.785156 " clip-rule="nonzero"/></clipPath><clipPath id="d326d340db"><rect x="0" width="18" y="0" height="19"/></clipPath><clipPath id="f55a62f72a"><path d="M 17.34375 39.347656 L 34.574219 39.347656 L 34.574219 56.578125 L 17.34375 56.578125 Z M 17.34375 39.347656 " clip-rule="nonzero"/></clipPath><clipPath id="cf0da72e73"><path d="M 0.34375 0.347656 L 17.574219 0.347656 L 17.574219 17.578125 L 0.34375 17.578125 Z M 0.34375 0.347656 " clip-rule="nonzero"/></clipPath><clipPath id="1ab1661d76"><rect x="0" width="18" y="0" height="18"/></clipPath><clipPath id="be9e8093c9"><path d="M 16.324219 16.332031 L 37 16.332031 L 37 37 L 16.324219 37 Z M 16.324219 16.332031 " clip-rule="nonzero"/></clipPath><clipPath id="a2ce00d018"><path d="M 38 16.332031 L 57.839844 16.332031 L 57.839844 37 L 38 37 Z M 38 16.332031 " clip-rule="nonzero"/></clipPath><clipPath id="7fb04c8b4f"><path d="M 16.324219 38 L 37 38 L 37 57.847656 L 16.324219 57.847656 Z M 16.324219 38 " clip-rule="nonzero"/></clipPath><clipPath id="e87c0bb8a3"><path d="M 38 38 L 57.839844 38 L 57.839844 57.847656 L 38 57.847656 Z M 38 38 " clip-rule="nonzero"/></clipPath></defs><g clip-path="url(#f8b5cfcd63)"><path fill="#ffffff" d="M 0 0.0078125 L 74.132812 0.0078125 L 74.132812 74.136719 L 0 74.136719 Z M 0 0.0078125 " fill-opacity="1" fill-rule="nonzero"/><path fill="#ffffff" d="M 0 0.0078125 L 74.132812 0.0078125 L 74.132812 74.136719 L 0 74.136719 Z M 0 0.0078125 " fill-opacity="1" fill-rule="nonzero"/></g><g clip-path="url(#f956743e20)"><g clip-path="url(#ef7392346c)"><g transform="matrix(1, 0, 0, 1, 2, 2)"><g clip-path="url(#55f924e46c)"><g clip-path="url(#8f7079cca3)"><g clip-path="url(#d33e89e15a)"><path fill="#ff65f9" d="M 0.425781 0.433594 L 69.703125 0.433594 L 69.703125 69.710938 L 0.425781 69.710938 Z M 0.425781 0.433594 " fill-opacity="1" fill-rule="nonzero"/></g></g></g></g></g></g><g clip-path="url(#ac2aafeb7f)"><g clip-path="url(#c5599a21a5)"><path stroke-linecap="butt" transform="matrix(0.741316, 0, 0, 0.741316, 2.427548, 2.433866)" fill="none" stroke-linejoin="miter" d="M 46.72092 -0.000367119 C 20.916926 -0.000367119 -0.00238311 20.918942 -0.00238311 46.717667 C -0.00238311 72.521661 20.916926 93.435701 46.72092 93.435701 C 72.519645 93.435701 93.438954 72.521661 93.438954 46.717667 C 93.438954 20.918942 72.519645 -0.000367119 46.72092 -0.000367119 Z M 46.72092 -0.000367119 " stroke="#000000" stroke-width="2" stroke-opacity="1" stroke-miterlimit="4"/></g></g><g clip-path="url(#39bbf50585)"><g transform="matrix(1, 0, 0, 1, 17, 17)"><g clip-path="url(#ff83c6861a)"><g clip-path="url(#ecb71097ea)"><path fill="#ffdd84" d="M 0.34375 0.0234375 L 17.574219 0.0234375 L 17.574219 17.253906 L 0.34375 17.253906 Z M 0.34375 0.0234375 " fill-opacity="1" fill-rule="nonzero"/></g></g></g></g><g clip-path="url(#114b18aa9a)"><g transform="matrix(1, 0, 0, 1, 39, 39)"><g clip-path="url(#171d16d43d)"><g clip-path="url(#2ed5789f7a)"><path fill="#ffdd84" d="M 0.449219 0.347656 L 17.679688 0.347656 L 17.679688 17.578125 L 0.449219 17.578125 Z M 0.449219 0.347656 " fill-opacity="1" fill-rule="nonzero"/></g></g></g></g><g clip-path="url(#43c9b68d8c)"><g transform="matrix(1, 0, 0, 1, 39, 17)"><g clip-path="url(#d326d340db)"><g clip-path="url(#72e0799786)"><path fill="#000000" d="M 0.449219 0.785156 L 17.679688 0.785156 L 17.679688 18.015625 L 0.449219 18.015625 Z M 0.449219 0.785156 " fill-opacity="1" fill-rule="nonzero"/></g></g></g></g><g clip-path="url(#f55a62f72a)"><g transform="matrix(1, 0, 0, 1, 17, 39)"><g clip-path="url(#1ab1661d76)"><g clip-path="url(#cf0da72e73)"><path fill="#000000" d="M 0.34375 0.347656 L 17.574219 0.347656 L 17.574219 17.578125 L 0.34375 17.578125 Z M 0.34375 0.347656 " fill-opacity="1" fill-rule="nonzero"/></g></g></g></g><g clip-path="url(#be9e8093c9)"><path fill="#000000" d="M 33.113281 36.085938 L 19.289062 36.085938 C 18.894531 36.085938 18.519531 36.007812 18.15625 35.859375 C 17.792969 35.707031 17.472656 35.496094 17.195312 35.214844 C 16.917969 34.9375 16.703125 34.617188 16.550781 34.253906 C 16.402344 33.890625 16.324219 33.515625 16.324219 33.121094 L 16.324219 19.296875 C 16.324219 18.902344 16.402344 18.523438 16.550781 18.160156 C 16.703125 17.796875 16.917969 17.476562 17.195312 17.199219 C 17.472656 16.921875 17.792969 16.707031 18.15625 16.558594 C 18.519531 16.40625 18.894531 16.332031 19.289062 16.332031 L 33.113281 16.332031 C 33.507812 16.332031 33.886719 16.40625 34.25 16.558594 C 34.613281 16.707031 34.933594 16.921875 35.210938 17.199219 C 35.488281 17.476562 35.703125 17.796875 35.851562 18.160156 C 36.003906 18.523438 36.078125 18.902344 36.078125 19.296875 L 36.078125 33.121094 C 36.078125 33.515625 36.003906 33.890625 35.851562 34.253906 C 35.703125 34.617188 35.488281 34.9375 35.210938 35.214844 C 34.933594 35.496094 34.613281 35.707031 34.25 35.859375 C 33.886719 36.007812 33.507812 36.085938 33.113281 36.085938 Z M 19.289062 18.308594 C 19.15625 18.308594 19.03125 18.332031 18.910156 18.382812 C 18.789062 18.433594 18.683594 18.503906 18.589844 18.597656 C 18.496094 18.691406 18.425781 18.796875 18.375 18.917969 C 18.328125 19.039062 18.300781 19.164062 18.300781 19.296875 L 18.300781 33.121094 C 18.300781 33.253906 18.328125 33.378906 18.375 33.5 C 18.425781 33.621094 18.496094 33.726562 18.589844 33.820312 C 18.683594 33.914062 18.789062 33.984375 18.910156 34.035156 C 19.03125 34.085938 19.15625 34.109375 19.289062 34.109375 L 33.113281 34.109375 C 33.246094 34.109375 33.371094 34.085938 33.492188 34.035156 C 33.613281 33.984375 33.722656 33.914062 33.8125 33.820312 C 33.90625 33.726562 33.976562 33.621094 34.027344 33.5 C 34.078125 33.378906 34.101562 33.253906 34.101562 33.121094 L 34.101562 19.296875 C 34.101562 19.164062 34.078125 19.039062 34.027344 18.917969 C 33.976562 18.796875 33.90625 18.691406 33.8125 18.597656 C 33.722656 18.503906 33.613281 18.433594 33.492188 18.382812 C 33.371094 18.332031 33.246094 18.308594 33.113281 18.308594 Z M 19.289062 18.308594 " fill-opacity="1" fill-rule="nonzero"/></g><g clip-path="url(#a2ce00d018)"><path fill="#ffdd84" d="M 54.84375 36.085938 L 41.015625 36.085938 C 40.625 36.085938 40.246094 36.007812 39.882812 35.859375 C 39.519531 35.707031 39.199219 35.496094 38.921875 35.214844 C 38.644531 34.9375 38.429688 34.617188 38.277344 34.253906 C 38.128906 33.890625 38.054688 33.515625 38.054688 33.121094 L 38.054688 19.296875 C 38.054688 18.902344 38.128906 18.523438 38.277344 18.160156 C 38.429688 17.796875 38.644531 17.476562 38.921875 17.199219 C 39.199219 16.921875 39.519531 16.707031 39.882812 16.558594 C 40.246094 16.40625 40.625 16.332031 41.015625 16.332031 L 54.84375 16.332031 C 55.234375 16.332031 55.613281 16.40625 55.976562 16.558594 C 56.339844 16.707031 56.660156 16.921875 56.9375 17.199219 C 57.214844 17.476562 57.429688 17.796875 57.578125 18.160156 C 57.730469 18.523438 57.804688 18.902344 57.804688 19.296875 L 57.804688 33.121094 C 57.804688 33.515625 57.730469 33.890625 57.578125 34.253906 C 57.429688 34.617188 57.214844 34.9375 56.9375 35.214844 C 56.660156 35.496094 56.339844 35.707031 55.976562 35.859375 C 55.613281 36.007812 55.234375 36.085938 54.84375 36.085938 Z M 41.015625 18.308594 C 40.886719 18.308594 40.757812 18.332031 40.636719 18.382812 C 40.515625 18.433594 40.410156 18.503906 40.316406 18.597656 C 40.226562 18.691406 40.152344 18.796875 40.105469 18.917969 C 40.054688 19.039062 40.027344 19.164062 40.027344 19.296875 L 40.027344 33.121094 C 40.027344 33.253906 40.054688 33.378906 40.105469 33.5 C 40.152344 33.621094 40.226562 33.726562 40.316406 33.820312 C 40.410156 33.914062 40.515625 33.984375 40.636719 34.035156 C 40.757812 34.085938 40.886719 34.109375 41.015625 34.109375 L 54.84375 34.109375 C 54.972656 34.109375 55.097656 34.085938 55.21875 34.035156 C 55.339844 33.984375 55.449219 33.914062 55.539062 33.820312 C 55.632812 33.726562 55.703125 33.621094 55.753906 33.5 C 55.804688 33.378906 55.828125 33.253906 55.828125 33.121094 L 55.828125 19.296875 C 55.828125 19.164062 55.804688 19.039062 55.753906 18.917969 C 55.703125 18.796875 55.632812 18.691406 55.539062 18.597656 C 55.449219 18.503906 55.339844 18.433594 55.21875 18.382812 C 55.097656 18.332031 54.972656 18.308594 54.84375 18.308594 Z M 41.015625 18.308594 " fill-opacity="1" fill-rule="nonzero"/></g><g clip-path="url(#7fb04c8b4f)"><path fill="#ffdd84" d="M 33.113281 57.8125 L 19.289062 57.8125 C 18.894531 57.8125 18.519531 57.734375 18.15625 57.585938 C 17.792969 57.433594 17.472656 57.222656 17.195312 56.945312 C 16.917969 56.664062 16.703125 56.34375 16.550781 55.980469 C 16.402344 55.621094 16.324219 55.242188 16.324219 54.847656 L 16.324219 41.023438 C 16.324219 40.628906 16.402344 40.25 16.550781 39.886719 C 16.703125 39.527344 16.917969 39.203125 17.195312 38.925781 C 17.472656 38.648438 17.792969 38.433594 18.15625 38.285156 C 18.519531 38.132812 18.894531 38.058594 19.289062 38.058594 L 33.113281 38.058594 C 33.507812 38.058594 33.886719 38.132812 34.25 38.285156 C 34.613281 38.433594 34.933594 38.648438 35.210938 38.925781 C 35.488281 39.203125 35.703125 39.527344 35.851562 39.886719 C 36.003906 40.25 36.078125 40.628906 36.078125 41.023438 L 36.078125 54.847656 C 36.078125 55.242188 36.003906 55.621094 35.851562 55.980469 C 35.703125 56.34375 35.488281 56.664062 35.210938 56.945312 C 34.933594 57.222656 34.613281 57.433594 34.25 57.585938 C 33.886719 57.734375 33.507812 57.8125 33.113281 57.8125 Z M 19.289062 40.035156 C 19.15625 40.035156 19.03125 40.058594 18.910156 40.109375 C 18.789062 40.160156 18.683594 40.230469 18.589844 40.324219 C 18.496094 40.417969 18.425781 40.523438 18.375 40.644531 C 18.328125 40.765625 18.300781 40.890625 18.300781 41.023438 L 18.300781 54.847656 C 18.300781 54.980469 18.328125 55.105469 18.375 55.226562 C 18.425781 55.347656 18.496094 55.453125 18.589844 55.546875 C 18.683594 55.640625 18.789062 55.710938 18.910156 55.761719 C 19.03125 55.8125 19.15625 55.835938 19.289062 55.835938 L 33.113281 55.835938 C 33.246094 55.835938 33.371094 55.8125 33.492188 55.761719 C 33.613281 55.710938 33.722656 55.640625 33.8125 55.546875 C 33.90625 55.453125 33.976562 55.347656 34.027344 55.226562 C 34.078125 55.105469 34.101562 54.980469 34.101562 54.847656 L 34.101562 41.023438 C 34.101562 40.890625 34.078125 40.765625 34.027344 40.644531 C 33.976562 40.523438 33.90625 40.417969 33.8125 40.324219 C 33.722656 40.230469 33.613281 40.160156 33.492188 40.109375 C 33.371094 40.058594 33.246094 40.035156 33.113281 40.035156 Z M 19.289062 40.035156 " fill-opacity="1" fill-rule="nonzero"/></g><g clip-path="url(#e87c0bb8a3)"><path fill="#000000" d="M 54.84375 57.8125 L 41.015625 57.8125 C 40.625 57.8125 40.246094 57.734375 39.882812 57.585938 C 39.519531 57.433594 39.199219 57.222656 38.921875 56.945312 C 38.644531 56.664062 38.429688 56.34375 38.277344 55.980469 C 38.128906 55.621094 38.054688 55.242188 38.054688 54.847656 L 38.054688 41.023438 C 38.054688 40.628906 38.128906 40.25 38.277344 39.886719 C 38.429688 39.527344 38.644531 39.203125 38.921875 38.925781 C 39.199219 38.648438 39.519531 38.433594 39.882812 38.285156 C 40.246094 38.132812 40.625 38.058594 41.015625 38.058594 L 54.84375 38.058594 C 55.234375 38.058594 55.613281 38.132812 55.976562 38.285156 C 56.339844 38.433594 56.660156 38.648438 56.9375 38.925781 C 57.214844 39.203125 57.429688 39.527344 57.578125 39.886719 C 57.730469 40.25 57.804688 40.628906 57.804688 41.023438 L 57.804688 54.847656 C 57.804688 55.242188 57.730469 55.621094 57.578125 55.980469 C 57.429688 56.34375 57.214844 56.664062 56.9375 56.945312 C 56.660156 57.222656 56.339844 57.433594 55.976562 57.585938 C 55.613281 57.734375 55.234375 57.8125 54.84375 57.8125 Z M 41.015625 40.035156 C 40.886719 40.035156 40.757812 40.058594 40.636719 40.109375 C 40.515625 40.160156 40.410156 40.230469 40.316406 40.324219 C 40.226562 40.417969 40.152344 40.523438 40.105469 40.644531 C 40.054688 40.765625 40.027344 40.890625 40.027344 41.023438 L 40.027344 54.847656 C 40.027344 54.980469 40.054688 55.105469 40.105469 55.226562 C 40.152344 55.347656 40.226562 55.453125 40.316406 55.546875 C 40.410156 55.640625 40.515625 55.710938 40.636719 55.761719 C 40.757812 55.8125 40.886719 55.835938 41.015625 55.835938 L 54.84375 55.835938 C 54.972656 55.835938 55.097656 55.8125 55.21875 55.761719 C 55.339844 55.710938 55.449219 55.640625 55.539062 55.546875 C 55.632812 55.453125 55.703125 55.347656 55.753906 55.226562 C 55.804688 55.105469 55.828125 54.980469 55.828125 54.847656 L 55.828125 41.023438 C 55.828125 40.890625 55.804688 40.765625 55.753906 40.644531 C 55.703125 40.523438 55.632812 40.417969 55.539062 40.324219 C 55.449219 40.230469 55.339844 40.160156 55.21875 40.109375 C 55.097656 40.058594 54.972656 40.035156 54.84375 40.035156 Z M 41.015625 40.035156 " fill-opacity="1" fill-rule="nonzero"/></g></svg>