<svg xmlns="http://www.w3.org/2000/svg" xmlns:xlink="http://www.w3.org/1999/xlink" width="1500" zoomAndPan="magnify" viewBox="0 0 810 809.99995" height="1500" preserveAspectRatio="xMidYMid meet" version="1.0"><defs><clipPath id="73e590c4f0"><path d="M 36.839844 36.839844 L 810 36.839844 L 810 810 L 36.839844 810 Z M 36.839844 36.839844 " clip-rule="nonzero"/></clipPath><clipPath id="39439530f4"><path d="M 562.5 36.839844 C 272.1875 36.839844 36.839844 272.1875 36.839844 562.5 C 36.839844 852.8125 272.1875 1088.160156 562.5 1088.160156 C 852.8125 1088.160156 1088.160156 852.8125 1088.160156 562.5 C 1088.160156 272.1875 852.8125 36.839844 562.5 36.839844 Z M 562.5 36.839844 " clip-rule="nonzero"/></clipPath><clipPath id="425c9c1dc9"><path d="M 0.839844 0.839844 L 774 0.839844 L 774 774 L 0.839844 774 Z M 0.839844 0.839844 " clip-rule="nonzero"/></clipPath><clipPath id="0e6ddccb71"><path d="M 526.5 0.839844 C 236.1875 0.839844 0.839844 236.1875 0.839844 526.5 C 0.839844 816.8125 236.1875 1052.160156 526.5 1052.160156 C 816.8125 1052.160156 1052.160156 816.8125 1052.160156 526.5 C 1052.160156 236.1875 816.8125 0.839844 526.5 0.839844 Z M 526.5 0.839844 " clip-rule="nonzero"/></clipPath><clipPath id="a8577a4d3b"><rect x="0" width="774" y="0" height="774"/></clipPath><clipPath id="e92bec1010"><path d="M 36.839844 36.839844 L 810 36.839844 L 810 810 L 36.839844 810 Z M 36.839844 36.839844 " clip-rule="nonzero"/></clipPath><clipPath id="185df11b50"><path d="M 562.496094 36.839844 C 272.183594 36.839844 36.839844 272.183594 36.839844 562.496094 C 36.839844 852.808594 272.183594 1088.152344 562.496094 1088.152344 C 852.808594 1088.152344 1088.152344 852.808594 1088.152344 562.496094 C 1088.152344 272.183594 852.808594 36.839844 562.496094 36.839844 Z M 562.496094 36.839844 " clip-rule="nonzero"/></clipPath><clipPath id="39a1c9fc43"><path d="M 263.199219 258.238281 L 524.679688 258.238281 L 524.679688 519.722656 L 263.199219 519.722656 Z M 263.199219 258.238281 " clip-rule="nonzero"/></clipPath><clipPath id="0269b26c79"><path d="M 0.199219 0.238281 L 261.679688 0.238281 L 261.679688 261.722656 L 0.199219 261.722656 Z M 0.199219 0.238281 " clip-rule="nonzero"/></clipPath><clipPath id="84a86e9870"><rect x="0" width="262" y="0" height="262"/></clipPath><clipPath id="1fb3d3d622"><path d="M 598.667969 597.015625 L 810 597.015625 L 810 810 L 598.667969 810 Z M 598.667969 597.015625 " clip-rule="nonzero"/></clipPath><clipPath id="4b481d6483"><path d="M 0.667969 0.015625 L 212 0.015625 L 212 213 L 0.667969 213 Z M 0.667969 0.015625 " clip-rule="nonzero"/></clipPath><clipPath id="c1f2d2cb0f"><rect x="0" width="212" y="0" height="213"/></clipPath><clipPath id="a2e7d0a8a9"><path d="M 598.667969 269.808594 L 810 269.808594 L 810 531.289062 L 598.667969 531.289062 Z M 598.667969 269.808594 " clip-rule="nonzero"/></clipPath><clipPath id="8705ae25b3"><path d="M 0.667969 0.808594 L 212 0.808594 L 212 262.289062 L 0.667969 262.289062 Z M 0.667969 0.808594 " clip-rule="nonzero"/></clipPath><clipPath id="25b00665c4"><rect x="0" width="212" y="0" height="263"/></clipPath><clipPath id="edc7f4fd17"><path d="M 263.199219 597.015625 L 524.679688 597.015625 L 524.679688 810 L 263.199219 810 Z M 263.199219 597.015625 " clip-rule="nonzero"/></clipPath><clipPath id="77baa0bdda"><path d="M 0.199219 0.015625 L 261.679688 0.015625 L 261.679688 213 L 0.199219 213 Z M 0.199219 0.015625 " clip-rule="nonzero"/></clipPath><clipPath id="a47d1f7b1d"><rect x="0" width="262" y="0" height="213"/></clipPath><clipPath id="68b80339e7"><path d="M 247.761719 247.761719 L 548 247.761719 L 548 548 L 247.761719 548 Z M 247.761719 247.761719 " clip-rule="nonzero"/></clipPath><clipPath id="90947b18ed"><path d="M 577 247.761719 L 810 247.761719 L 810 548 L 577 548 Z M 577 247.761719 " clip-rule="nonzero"/></clipPath><clipPath id="6e120ff2e3"><path d="M 247.761719 577 L 548 577 L 548 810 L 247.761719 810 Z M 247.761719 577 " clip-rule="nonzero"/></clipPath></defs><rect x="-81" width="972" fill="#ffffff" y="-80.999995" height="971.99994" fill-opacity="1"/><rect x="-81" width="972" fill="#ffffff" y="-80.999995" height="971.99994" fill-opacity="1"/><g clip-path="url(#73e590c4f0)"><g clip-path="url(#39439530f4)"><g transform="matrix(1, 0, 0, 1, 36, 36)"><g clip-path="url(#a8577a4d3b)"><g clip-path="url(#425c9c1dc9)"><g clip-path="url(#0e6ddccb71)"><path fill="#ff65f9" d="M 0.839844 0.839844 L 1052.160156 0.839844 L 1052.160156 1052.160156 L 0.839844 1052.160156 Z M 0.839844 0.839844 " fill-opacity="1" fill-rule="nonzero"/></g></g></g></g></g></g><g clip-path="url(#e92bec1010)"><g clip-path="url(#185df11b50)"><path stroke-linecap="butt" transform="matrix(0.75, 0, 0, 0.75, 36.839809, 36.839742)" fill="none" stroke-linejoin="miter" d="M 700.875119 0.000136052 C 313.791746 0.000136052 0.0000466121 313.791835 0.0000466121 700.875209 C 0.0000466121 1087.958582 313.791746 1401.750281 700.875119 1401.750281 C 1087.958492 1401.750281 1401.750192 1087.958582 1401.750192 700.875209 C 1401.750192 313.791835 1087.958492 0.000136052 700.875119 0.000136052 Z M 700.875119 0.000136052 " stroke="#2a2a37" stroke-width="44" stroke-opacity="1" stroke-miterlimit="4"/></g></g><g clip-path="url(#39a1c9fc43)"><g transform="matrix(1, 0, 0, 1, 263, 258)"><g clip-path="url(#84a86e9870)"><g clip-path="url(#0269b26c79)"><path fill="#f4d584" d="M 0.199219 0.238281 L 261.679688 0.238281 L 261.679688 261.722656 L 0.199219 261.722656 Z M 0.199219 0.238281 " fill-opacity="1" fill-rule="nonzero"/></g></g></g></g><g clip-path="url(#1fb3d3d622)"><g transform="matrix(1, 0, 0, 1, 598, 597)"><g clip-path="url(#c1f2d2cb0f)"><g clip-path="url(#4b481d6483)"><path fill="#f4d584" d="M 0.667969 0.015625 L 262.148438 0.015625 L 262.148438 261.496094 L 0.667969 261.496094 Z M 0.667969 0.015625 " fill-opacity="1" fill-rule="nonzero"/></g></g></g></g><g clip-path="url(#a2e7d0a8a9)"><g transform="matrix(1, 0, 0, 1, 598, 269)"><g clip-path="url(#25b00665c4)"><g clip-path="url(#8705ae25b3)"><path fill="#2a2a37" d="M 0.667969 0.808594 L 262.148438 0.808594 L 262.148438 262.289062 L 0.667969 262.289062 Z M 0.667969 0.808594 " fill-opacity="1" fill-rule="nonzero"/></g></g></g></g><g clip-path="url(#edc7f4fd17)"><g transform="matrix(1, 0, 0, 1, 263, 597)"><g clip-path="url(#a47d1f7b1d)"><g clip-path="url(#77baa0bdda)"><path fill="#2a2a37" d="M 0.199219 0.015625 L 261.679688 0.015625 L 261.679688 261.496094 L 0.199219 261.496094 Z M 0.199219 0.015625 " fill-opacity="1" fill-rule="nonzero"/></g></g></g></g><g clip-path="url(#68b80339e7)"><path fill="#000000" d="M 502.546875 547.507812 L 292.722656 547.507812 C 291.25 547.507812 289.78125 547.4375 288.316406 547.292969 C 286.851562 547.148438 285.394531 546.933594 283.949219 546.644531 C 282.507812 546.359375 281.078125 546 279.671875 545.574219 C 278.261719 545.144531 276.875 544.648438 275.515625 544.085938 C 274.15625 543.523438 272.828125 542.894531 271.527344 542.199219 C 270.230469 541.507812 268.96875 540.75 267.742188 539.933594 C 266.519531 539.113281 265.335938 538.238281 264.199219 537.304688 C 263.0625 536.367188 261.972656 535.382812 260.929688 534.339844 C 259.886719 533.296875 258.902344 532.210938 257.964844 531.070312 C 257.03125 529.933594 256.15625 528.75 255.335938 527.527344 C 254.519531 526.300781 253.761719 525.039062 253.070312 523.742188 C 252.375 522.441406 251.746094 521.113281 251.183594 519.753906 C 250.621094 518.394531 250.125 517.007812 249.695312 515.597656 C 249.269531 514.191406 248.910156 512.761719 248.625 511.320312 C 248.335938 509.875 248.121094 508.417969 247.976562 506.953125 C 247.832031 505.488281 247.761719 504.019531 247.761719 502.546875 L 247.761719 292.722656 C 247.761719 291.25 247.832031 289.78125 247.976562 288.316406 C 248.121094 286.851562 248.335938 285.394531 248.625 283.949219 C 248.910156 282.507812 249.269531 281.078125 249.695312 279.671875 C 250.125 278.261719 250.621094 276.875 251.183594 275.515625 C 251.746094 274.15625 252.375 272.828125 253.070312 271.527344 C 253.761719 270.230469 254.519531 268.96875 255.335938 267.742188 C 256.15625 266.519531 257.03125 265.335938 257.964844 264.199219 C 258.902344 263.0625 259.886719 261.972656 260.929688 260.929688 C 261.972656 259.886719 263.0625 258.902344 264.199219 257.964844 C 265.335938 257.03125 266.519531 256.15625 267.742188 255.335938 C 268.96875 254.519531 270.230469 253.761719 271.527344 253.070312 C 272.828125 252.375 274.15625 251.746094 275.515625 251.183594 C 276.875 250.621094 278.261719 250.125 279.671875 249.695312 C 281.078125 249.269531 282.507812 248.910156 283.949219 248.625 C 285.394531 248.335938 286.851562 248.121094 288.316406 247.976562 C 289.78125 247.832031 291.25 247.761719 292.722656 247.761719 L 502.546875 247.761719 C 504.019531 247.761719 505.488281 247.832031 506.953125 247.976562 C 508.417969 248.121094 509.875 248.335938 511.320312 248.625 C 512.761719 248.910156 514.191406 249.269531 515.597656 249.695312 C 517.007812 250.125 518.394531 250.621094 519.753906 251.183594 C 521.113281 251.746094 522.441406 252.375 523.742188 253.070312 C 525.039062 253.761719 526.300781 254.519531 527.527344 255.335938 C 528.75 256.15625 529.933594 257.03125 531.070312 257.964844 C 532.207031 258.902344 533.296875 259.886719 534.339844 260.929688 C 535.382812 261.972656 536.367188 263.058594 537.304688 264.199219 C 538.238281 265.335938 539.113281 266.519531 539.933594 267.742188 C 540.75 268.96875 541.507812 270.230469 542.199219 271.527344 C 542.894531 272.828125 543.523438 274.15625 544.085938 275.515625 C 544.648438 276.875 545.144531 278.261719 545.574219 279.671875 C 546 281.078125 546.359375 282.507812 546.644531 283.949219 C 546.933594 285.394531 547.148438 286.851562 547.292969 288.316406 C 547.4375 289.78125 547.507812 291.25 547.507812 292.722656 L 547.507812 502.546875 C 547.507812 504.019531 547.4375 505.488281 547.292969 506.953125 C 547.148438 508.417969 546.933594 509.875 546.644531 511.320312 C 546.359375 512.761719 546 514.191406 545.574219 515.597656 C 545.144531 517.007812 544.648438 518.394531 544.085938 519.753906 C 543.523438 521.113281 542.894531 522.441406 542.199219 523.742188 C 541.507812 525.039062 540.75 526.300781 539.933594 527.527344 C 539.113281 528.75 538.238281 529.933594 537.304688 531.070312 C 536.367188 532.207031 535.382812 533.296875 534.339844 534.339844 C 533.296875 535.382812 532.210938 536.367188 531.070312 537.304688 C 529.933594 538.238281 528.75 539.113281 527.527344 539.933594 C 526.300781 540.75 525.039062 541.507812 523.742188 542.199219 C 522.441406 542.894531 521.113281 543.523438 519.753906 544.085938 C 518.394531 544.648438 517.007812 545.144531 515.597656 545.574219 C 514.191406 546 512.761719 546.359375 511.320312 546.644531 C 509.875 546.933594 508.417969 547.148438 506.953125 547.292969 C 505.488281 547.4375 504.019531 547.507812 502.546875 547.507812 Z M 292.722656 277.734375 C 291.738281 277.734375 290.765625 277.832031 289.796875 278.023438 C 288.832031 278.214844 287.894531 278.5 286.988281 278.875 C 286.078125 279.253906 285.214844 279.714844 284.394531 280.261719 C 283.578125 280.808594 282.820312 281.429688 282.125 282.125 C 281.429688 282.820312 280.808594 283.578125 280.261719 284.394531 C 279.714844 285.214844 279.253906 286.078125 278.875 286.988281 C 278.5 287.894531 278.214844 288.832031 278.023438 289.796875 C 277.832031 290.765625 277.734375 291.738281 277.734375 292.722656 L 277.734375 502.546875 C 277.734375 503.53125 277.832031 504.503906 278.023438 505.472656 C 278.214844 506.4375 278.5 507.375 278.875 508.28125 C 279.253906 509.191406 279.714844 510.054688 280.261719 510.875 C 280.808594 511.691406 281.429688 512.449219 282.125 513.144531 C 282.820312 513.839844 283.578125 514.460938 284.394531 515.007812 C 285.214844 515.554688 286.078125 516.015625 286.988281 516.394531 C 287.894531 516.769531 288.832031 517.054688 289.796875 517.246094 C 290.765625 517.4375 291.738281 517.535156 292.722656 517.535156 L 502.546875 517.535156 C 503.53125 517.535156 504.503906 517.4375 505.472656 517.246094 C 506.4375 517.054688 507.375 516.769531 508.28125 516.394531 C 509.191406 516.015625 510.054688 515.554688 510.875 515.007812 C 511.691406 514.460938 512.449219 513.839844 513.144531 513.144531 C 513.839844 512.449219 514.460938 511.691406 515.007812 510.875 C 515.554688 510.054688 516.015625 509.191406 516.394531 508.28125 C 516.769531 507.375 517.054688 506.4375 517.246094 505.472656 C 517.4375 504.503906 517.535156 503.53125 517.535156 502.546875 L 517.535156 292.722656 C 517.535156 291.738281 517.4375 290.765625 517.246094 289.796875 C 517.054688 288.832031 516.769531 287.894531 516.394531 286.988281 C 516.015625 286.078125 515.554688 285.214844 515.007812 284.394531 C 514.460938 283.578125 513.839844 282.820312 513.144531 282.125 C 512.449219 281.429688 511.691406 280.808594 510.875 280.261719 C 510.054688 279.714844 509.191406 279.253906 508.28125 278.875 C 507.375 278.5 506.4375 278.214844 505.472656 278.023438 C 504.503906 277.832031 503.53125 277.734375 502.546875 277.734375 Z M 292.722656 277.734375 " fill-opacity="1" fill-rule="nonzero"/></g><g clip-path="url(#90947b18ed)"><path fill="#f4d584" d="M 832.269531 547.507812 L 622.445312 547.507812 C 620.972656 547.507812 619.503906 547.4375 618.039062 547.292969 C 616.574219 547.148438 615.117188 546.933594 613.675781 546.644531 C 612.230469 546.359375 610.804688 546 609.394531 545.574219 C 607.984375 545.144531 606.601562 544.648438 605.238281 544.085938 C 603.878906 543.523438 602.550781 542.894531 601.25 542.199219 C 599.953125 541.507812 598.691406 540.75 597.464844 539.933594 C 596.242188 539.113281 595.0625 538.238281 593.921875 537.304688 C 592.785156 536.367188 591.695312 535.382812 590.652344 534.339844 C 589.613281 533.296875 588.625 532.210938 587.691406 531.070312 C 586.753906 529.933594 585.878906 528.75 585.0625 527.527344 C 584.242188 526.300781 583.488281 525.039062 582.792969 523.742188 C 582.097656 522.441406 581.46875 521.113281 580.90625 519.753906 C 580.34375 518.394531 579.847656 517.007812 579.421875 515.597656 C 578.992188 514.191406 578.636719 512.761719 578.347656 511.320312 C 578.0625 509.875 577.84375 508.417969 577.699219 506.953125 C 577.554688 505.488281 577.484375 504.019531 577.484375 502.546875 L 577.484375 292.722656 C 577.484375 291.25 577.554688 289.78125 577.699219 288.316406 C 577.84375 286.851562 578.0625 285.394531 578.347656 283.949219 C 578.636719 282.507812 578.992188 281.078125 579.421875 279.671875 C 579.847656 278.261719 580.34375 276.875 580.90625 275.515625 C 581.46875 274.15625 582.097656 272.828125 582.792969 271.527344 C 583.488281 270.230469 584.242188 268.96875 585.0625 267.742188 C 585.878906 266.519531 586.757812 265.335938 587.691406 264.199219 C 588.625 263.0625 589.613281 261.972656 590.652344 260.929688 C 591.695312 259.886719 592.785156 258.902344 593.921875 257.964844 C 595.0625 257.03125 596.242188 256.15625 597.464844 255.335938 C 598.691406 254.519531 599.953125 253.761719 601.25 253.070312 C 602.550781 252.375 603.878906 251.746094 605.238281 251.183594 C 606.601562 250.621094 607.984375 250.125 609.394531 249.695312 C 610.804688 249.269531 612.230469 248.910156 613.675781 248.625 C 615.117188 248.335938 616.574219 248.121094 618.039062 247.976562 C 619.503906 247.832031 620.972656 247.761719 622.445312 247.761719 L 832.269531 247.761719 C 833.742188 247.761719 835.210938 247.832031 836.675781 247.976562 C 838.144531 248.121094 839.597656 248.335938 841.042969 248.625 C 842.488281 248.910156 843.914062 249.269531 845.324219 249.695312 C 846.730469 250.125 848.117188 250.621094 849.476562 251.183594 C 850.835938 251.746094 852.167969 252.375 853.464844 253.070312 C 854.765625 253.761719 856.027344 254.519531 857.25 255.335938 C 858.476562 256.15625 859.65625 257.03125 860.792969 257.964844 C 861.933594 258.902344 863.023438 259.886719 864.0625 260.929688 C 865.105469 261.972656 866.09375 263.058594 867.027344 264.199219 C 867.960938 265.335938 868.835938 266.519531 869.65625 267.742188 C 870.472656 268.96875 871.230469 270.230469 871.925781 271.527344 C 872.617188 272.828125 873.246094 274.15625 873.808594 275.515625 C 874.375 276.875 874.871094 278.261719 875.296875 279.671875 C 875.722656 281.078125 876.082031 282.507812 876.367188 283.949219 C 876.65625 285.394531 876.871094 286.851562 877.015625 288.316406 C 877.160156 289.78125 877.234375 291.25 877.234375 292.722656 L 877.234375 502.546875 C 877.234375 504.019531 877.160156 505.488281 877.015625 506.953125 C 876.871094 508.417969 876.65625 509.875 876.367188 511.320312 C 876.082031 512.761719 875.722656 514.191406 875.296875 515.597656 C 874.871094 517.007812 874.375 518.394531 873.808594 519.753906 C 873.246094 521.113281 872.617188 522.441406 871.925781 523.742188 C 871.230469 525.039062 870.472656 526.300781 869.65625 527.527344 C 868.835938 528.75 867.960938 529.933594 867.027344 531.070312 C 866.09375 532.207031 865.105469 533.296875 864.0625 534.339844 C 863.023438 535.382812 861.933594 536.367188 860.792969 537.304688 C 859.65625 538.238281 858.476562 539.113281 857.25 539.933594 C 856.027344 540.75 854.765625 541.507812 853.464844 542.199219 C 852.167969 542.894531 850.835938 543.523438 849.476562 544.085938 C 848.117188 544.648438 846.730469 545.144531 845.324219 545.574219 C 843.914062 546 842.488281 546.359375 841.042969 546.644531 C 839.597656 546.933594 838.144531 547.148438 836.679688 547.292969 C 835.210938 547.4375 833.742188 547.507812 832.269531 547.507812 Z M 622.445312 277.734375 C 621.460938 277.734375 620.488281 277.832031 619.523438 278.023438 C 618.558594 278.214844 617.621094 278.5 616.710938 278.875 C 615.800781 279.253906 614.9375 279.714844 614.121094 280.261719 C 613.300781 280.808594 612.542969 281.429688 611.847656 282.125 C 611.152344 282.820312 610.53125 283.578125 609.984375 284.394531 C 609.4375 285.214844 608.976562 286.078125 608.601562 286.988281 C 608.222656 287.894531 607.9375 288.832031 607.746094 289.796875 C 607.554688 290.765625 607.457031 291.738281 607.457031 292.722656 L 607.457031 502.546875 C 607.457031 503.53125 607.554688 504.503906 607.746094 505.472656 C 607.9375 506.4375 608.222656 507.375 608.601562 508.28125 C 608.976562 509.191406 609.4375 510.054688 609.984375 510.875 C 610.53125 511.691406 611.152344 512.449219 611.847656 513.144531 C 612.542969 513.839844 613.300781 514.460938 614.121094 515.007812 C 614.9375 515.554688 615.800781 516.015625 616.710938 516.394531 C 617.621094 516.769531 618.558594 517.054688 619.523438 517.246094 C 620.488281 517.4375 621.460938 517.535156 622.445312 517.535156 L 832.269531 517.535156 C 833.253906 517.535156 834.230469 517.4375 835.195312 517.246094 C 836.160156 517.054688 837.097656 516.769531 838.007812 516.394531 C 838.914062 516.015625 839.777344 515.554688 840.597656 515.007812 C 841.414062 514.460938 842.171875 513.839844 842.867188 513.144531 C 843.5625 512.449219 844.183594 511.691406 844.730469 510.875 C 845.277344 510.054688 845.742188 509.191406 846.117188 508.28125 C 846.492188 507.375 846.777344 506.4375 846.96875 505.472656 C 847.160156 504.503906 847.257812 503.53125 847.257812 502.546875 L 847.257812 292.722656 C 847.257812 291.738281 847.160156 290.765625 846.96875 289.796875 C 846.777344 288.832031 846.492188 287.894531 846.117188 286.988281 C 845.742188 286.078125 845.277344 285.214844 844.730469 284.394531 C 844.183594 283.578125 843.5625 282.820312 842.867188 282.125 C 842.171875 281.429688 841.414062 280.808594 840.597656 280.261719 C 839.777344 279.714844 838.914062 279.253906 838.007812 278.875 C 837.097656 278.5 836.160156 278.214844 835.195312 278.023438 C 834.230469 277.832031 833.253906 277.734375 832.269531 277.734375 Z M 622.445312 277.734375 " fill-opacity="1" fill-rule="nonzero"/></g><g clip-path="url(#6e120ff2e3)"><path fill="#f4d584" d="M 502.546875 877.234375 L 292.722656 877.234375 C 291.25 877.234375 289.78125 877.160156 288.316406 877.015625 C 286.851562 876.871094 285.394531 876.65625 283.949219 876.367188 C 282.507812 876.082031 281.078125 875.722656 279.671875 875.296875 C 278.261719 874.871094 276.875 874.375 275.515625 873.808594 C 274.15625 873.246094 272.828125 872.617188 271.527344 871.925781 C 270.230469 871.230469 268.96875 870.472656 267.742188 869.65625 C 266.519531 868.835938 265.335938 867.960938 264.199219 867.027344 C 263.0625 866.09375 261.972656 865.105469 260.929688 864.0625 C 259.886719 863.023438 258.902344 861.933594 257.964844 860.792969 C 257.03125 859.65625 256.15625 858.476562 255.335938 857.25 C 254.519531 856.027344 253.761719 854.765625 253.070312 853.464844 C 252.375 852.167969 251.746094 850.835938 251.183594 849.476562 C 250.621094 848.117188 250.125 846.730469 249.695312 845.324219 C 249.269531 843.914062 248.910156 842.488281 248.625 841.042969 C 248.335938 839.597656 248.121094 838.144531 247.976562 836.679688 C 247.832031 835.210938 247.761719 833.742188 247.761719 832.269531 L 247.761719 622.445312 C 247.761719 620.972656 247.832031 619.503906 247.976562 618.039062 C 248.121094 616.574219 248.335938 615.117188 248.625 613.675781 C 248.910156 612.230469 249.269531 610.804688 249.695312 609.394531 C 250.125 607.984375 250.621094 606.601562 251.183594 605.238281 C 251.746094 603.878906 252.375 602.550781 253.070312 601.25 C 253.761719 599.953125 254.519531 598.691406 255.335938 597.464844 C 256.15625 596.242188 257.03125 595.0625 257.964844 593.921875 C 258.902344 592.785156 259.886719 591.695312 260.929688 590.652344 C 261.972656 589.613281 263.0625 588.625 264.199219 587.691406 C 265.335938 586.757812 266.519531 585.878906 267.742188 585.0625 C 268.96875 584.242188 270.230469 583.488281 271.527344 582.792969 C 272.828125 582.097656 274.15625 581.46875 275.515625 580.90625 C 276.875 580.34375 278.261719 579.847656 279.671875 579.421875 C 281.078125 578.992188 282.507812 578.636719 283.949219 578.347656 C 285.394531 578.0625 286.851562 577.84375 288.316406 577.699219 C 289.78125 577.554688 291.25 577.484375 292.722656 577.484375 L 502.546875 577.484375 C 504.019531 577.484375 505.488281 577.554688 506.953125 577.699219 C 508.417969 577.84375 509.875 578.0625 511.320312 578.347656 C 512.761719 578.636719 514.191406 578.992188 515.597656 579.421875 C 517.007812 579.847656 518.394531 580.34375 519.753906 580.90625 C 521.113281 581.46875 522.441406 582.097656 523.742188 582.792969 C 525.039062 583.488281 526.300781 584.242188 527.527344 585.0625 C 528.75 585.878906 529.933594 586.753906 531.070312 587.691406 C 532.207031 588.625 533.296875 589.613281 534.339844 590.652344 C 535.382812 591.695312 536.367188 592.785156 537.304688 593.921875 C 538.238281 595.0625 539.113281 596.242188 539.933594 597.464844 C 540.75 598.691406 541.507812 599.953125 542.199219 601.25 C 542.894531 602.550781 543.523438 603.878906 544.085938 605.238281 C 544.648438 606.601562 545.144531 607.984375 545.574219 609.394531 C 546 610.804688 546.359375 612.230469 546.644531 613.675781 C 546.933594 615.117188 547.148438 616.574219 547.292969 618.039062 C 547.4375 619.503906 547.507812 620.972656 547.507812 622.445312 L 547.507812 832.269531 C 547.507812 833.742188 547.4375 835.210938 547.292969 836.675781 C 547.148438 838.144531 546.933594 839.597656 546.644531 841.042969 C 546.359375 842.488281 546 843.914062 545.574219 845.324219 C 545.144531 846.730469 544.648438 848.117188 544.085938 849.476562 C 543.523438 850.835938 542.894531 852.167969 542.199219 853.464844 C 541.507812 854.765625 540.75 856.027344 539.933594 857.25 C 539.113281 858.476562 538.238281 859.65625 537.304688 860.792969 C 536.367188 861.933594 535.382812 863.023438 534.339844 864.0625 C 533.296875 865.105469 532.210938 866.09375 531.070312 867.027344 C 529.933594 867.960938 528.75 868.835938 527.527344 869.65625 C 526.300781 870.472656 525.039062 871.230469 523.742188 871.925781 C 522.441406 872.617188 521.113281 873.246094 519.753906 873.808594 C 518.394531 874.375 517.007812 874.871094 515.597656 875.296875 C 514.191406 875.722656 512.761719 876.082031 511.320312 876.367188 C 509.875 876.65625 508.417969 876.871094 506.953125 877.015625 C 505.488281 877.160156 504.019531 877.234375 502.546875 877.234375 Z M 292.722656 607.457031 C 291.738281 607.457031 290.765625 607.554688 289.796875 607.746094 C 288.832031 607.9375 287.894531 608.222656 286.988281 608.601562 C 286.078125 608.976562 285.214844 609.4375 284.394531 609.984375 C 283.578125 610.53125 282.820312 611.152344 282.125 611.847656 C 281.429688 612.542969 280.808594 613.300781 280.261719 614.121094 C 279.714844 614.9375 279.253906 615.800781 278.875 616.710938 C 278.5 617.621094 278.214844 618.558594 278.023438 619.523438 C 277.832031 620.488281 277.734375 621.460938 277.734375 622.445312 L 277.734375 832.269531 C 277.734375 833.253906 277.832031 834.230469 278.023438 835.195312 C 278.214844 836.160156 278.5 837.097656 278.875 838.007812 C 279.253906 838.914062 279.714844 839.777344 280.261719 840.597656 C 280.808594 841.414062 281.429688 842.171875 282.125 842.867188 C 282.820312 843.5625 283.578125 844.183594 284.394531 844.730469 C 285.214844 845.277344 286.078125 845.742188 286.988281 846.117188 C 287.894531 846.492188 288.832031 846.777344 289.796875 846.96875 C 290.765625 847.160156 291.738281 847.257812 292.722656 847.257812 L 502.546875 847.257812 C 503.53125 847.257812 504.503906 847.160156 505.472656 846.96875 C 506.4375 846.777344 507.375 846.492188 508.28125 846.117188 C 509.191406 845.742188 510.054688 845.277344 510.875 844.730469 C 511.691406 844.183594 512.449219 843.5625 513.144531 842.867188 C 513.839844 842.171875 514.460938 841.414062 515.007812 840.597656 C 515.554688 839.777344 516.015625 838.914062 516.394531 838.007812 C 516.769531 837.097656 517.054688 836.160156 517.246094 835.195312 C 517.4375 834.230469 517.535156 833.253906 517.535156 832.269531 L 517.535156 622.445312 C 517.535156 621.460938 517.4375 620.488281 517.246094 619.523438 C 517.054688 618.558594 516.769531 617.621094 516.394531 616.710938 C 516.015625 615.800781 515.554688 614.9375 515.007812 614.121094 C 514.460938 613.300781 513.839844 612.542969 513.144531 611.847656 C 512.449219 611.152344 511.691406 610.53125 510.875 609.984375 C 510.054688 609.4375 509.191406 608.976562 508.28125 608.601562 C 507.375 608.222656 506.4375 607.9375 505.472656 607.746094 C 504.503906 607.554688 503.53125 607.457031 502.546875 607.457031 Z M 292.722656 607.457031 " fill-opacity="1" fill-rule="nonzero"/></g><path fill="#000000" d="M 832.269531 877.234375 L 622.445312 877.234375 C 620.972656 877.234375 619.503906 877.160156 618.039062 877.015625 C 616.574219 876.871094 615.117188 876.65625 613.675781 876.367188 C 612.230469 876.082031 610.804688 875.722656 609.394531 875.296875 C 607.984375 874.871094 606.601562 874.375 605.238281 873.808594 C 603.878906 873.246094 602.550781 872.617188 601.25 871.925781 C 599.953125 871.230469 598.691406 870.472656 597.464844 869.65625 C 596.242188 868.835938 595.0625 867.960938 593.921875 867.027344 C 592.785156 866.09375 591.695312 865.105469 590.652344 864.0625 C 589.613281 863.023438 588.625 861.933594 587.691406 860.792969 C 586.753906 859.65625 585.878906 858.476562 585.0625 857.25 C 584.242188 856.027344 583.488281 854.765625 582.792969 853.464844 C 582.097656 852.167969 581.46875 850.835938 580.90625 849.476562 C 580.34375 848.117188 579.847656 846.730469 579.421875 845.324219 C 578.992188 843.914062 578.636719 842.488281 578.347656 841.042969 C 578.0625 839.597656 577.84375 838.144531 577.699219 836.679688 C 577.554688 835.210938 577.484375 833.742188 577.484375 832.269531 L 577.484375 622.445312 C 577.484375 620.972656 577.554688 619.503906 577.699219 618.039062 C 577.84375 616.574219 578.0625 615.117188 578.347656 613.675781 C 578.636719 612.230469 578.992188 610.804688 579.421875 609.394531 C 579.847656 607.984375 580.34375 606.601562 580.90625 605.238281 C 581.46875 603.878906 582.097656 602.550781 582.792969 601.25 C 583.488281 599.953125 584.242188 598.691406 585.0625 597.464844 C 585.878906 596.242188 586.757812 595.0625 587.691406 593.921875 C 588.625 592.785156 589.613281 591.695312 590.652344 590.652344 C 591.695312 589.613281 592.785156 588.625 593.921875 587.691406 C 595.0625 586.757812 596.242188 585.878906 597.464844 585.0625 C 598.691406 584.242188 599.953125 583.488281 601.25 582.792969 C 602.550781 582.097656 603.878906 581.46875 605.238281 580.90625 C 606.601562 580.34375 607.984375 579.847656 609.394531 579.421875 C 610.804688 578.992188 612.230469 578.636719 613.675781 578.347656 C 615.117188 578.0625 616.574219 577.84375 618.039062 577.699219 C 619.503906 577.554688 620.972656 577.484375 622.445312 577.484375 L 832.269531 577.484375 C 833.742188 577.484375 835.210938 577.554688 836.675781 577.699219 C 838.144531 577.84375 839.597656 578.0625 841.042969 578.347656 C 842.488281 578.636719 843.914062 578.992188 845.324219 579.421875 C 846.730469 579.847656 848.117188 580.34375 849.476562 580.90625 C 850.835938 581.46875 852.167969 582.097656 853.464844 582.792969 C 854.765625 583.488281 856.027344 584.242188 857.25 585.0625 C 858.476562 585.878906 859.65625 586.753906 860.792969 587.691406 C 861.933594 588.625 863.023438 589.613281 864.0625 590.652344 C 865.105469 591.695312 866.09375 592.785156 867.027344 593.921875 C 867.960938 595.0625 868.835938 596.242188 869.65625 597.464844 C 870.472656 598.691406 871.230469 599.953125 871.925781 601.25 C 872.617188 602.550781 873.246094 603.878906 873.808594 605.238281 C 874.375 606.601562 874.871094 607.984375 875.296875 609.394531 C 875.722656 610.804688 876.082031 612.230469 876.367188 613.675781 C 876.65625 615.117188 876.871094 616.574219 877.015625 618.039062 C 877.160156 619.503906 877.234375 620.972656 877.234375 622.445312 L 877.234375 832.269531 C 877.234375 833.742188 877.160156 835.210938 877.015625 836.675781 C 876.871094 838.144531 876.65625 839.597656 876.367188 841.042969 C 876.082031 842.488281 875.722656 843.914062 875.296875 845.324219 C 874.871094 846.730469 874.375 848.117188 873.808594 849.476562 C 873.246094 850.835938 872.617188 852.167969 871.925781 853.464844 C 871.230469 854.765625 870.472656 856.027344 869.65625 857.25 C 868.835938 858.476562 867.960938 859.65625 867.027344 860.792969 C 866.09375 861.933594 865.105469 863.023438 864.0625 864.0625 C 863.023438 865.105469 861.933594 866.09375 860.792969 867.027344 C 859.65625 867.960938 858.476562 868.835938 857.25 869.65625 C 856.027344 870.472656 854.765625 871.230469 853.464844 871.925781 C 852.167969 872.617188 850.835938 873.246094 849.476562 873.808594 C 848.117188 874.375 846.730469 874.871094 845.324219 875.296875 C 843.914062 875.722656 842.488281 876.082031 841.042969 876.367188 C 839.597656 876.65625 838.144531 876.871094 836.679688 877.015625 C 835.210938 877.160156 833.742188 877.234375 832.269531 877.234375 Z M 622.445312 607.457031 C 621.460938 607.457031 620.488281 607.554688 619.523438 607.746094 C 618.558594 607.9375 617.621094 608.222656 616.710938 608.601562 C 615.800781 608.976562 614.9375 609.4375 614.121094 609.984375 C 613.300781 610.53125 612.542969 611.152344 611.847656 611.847656 C 611.152344 612.542969 610.53125 613.300781 609.984375 614.121094 C 609.4375 614.9375 608.976562 615.800781 608.601562 616.710938 C 608.222656 617.621094 607.9375 618.558594 607.746094 619.523438 C 607.554688 620.488281 607.457031 621.460938 607.457031 622.445312 L 607.457031 832.269531 C 607.457031 833.253906 607.554688 834.230469 607.746094 835.195312 C 607.9375 836.160156 608.222656 837.097656 608.601562 838.007812 C 608.976562 838.914062 609.4375 839.777344 609.984375 840.597656 C 610.53125 841.414062 611.152344 842.171875 611.847656 842.867188 C 612.542969 843.5625 613.300781 844.183594 614.121094 844.730469 C 614.9375 845.277344 615.800781 845.742188 616.710938 846.117188 C 617.621094 846.492188 618.558594 846.777344 619.523438 846.96875 C 620.488281 847.160156 621.460938 847.257812 622.445312 847.257812 L 832.269531 847.257812 C 833.253906 847.257812 834.230469 847.160156 835.195312 846.96875 C 836.160156 846.777344 837.097656 846.492188 838.007812 846.117188 C 838.914062 845.742188 839.777344 845.277344 840.597656 844.730469 C 841.414062 844.183594 842.171875 843.5625 842.867188 842.867188 C 843.5625 842.171875 844.183594 841.414062 844.730469 840.597656 C 845.277344 839.777344 845.742188 838.914062 846.117188 838.007812 C 846.492188 837.097656 846.777344 836.160156 846.96875 835.195312 C 847.160156 834.230469 847.257812 833.253906 847.257812 832.269531 L 847.257812 622.445312 C 847.257812 621.460938 847.160156 620.488281 846.96875 619.523438 C 846.777344 618.558594 846.492188 617.621094 846.117188 616.710938 C 845.742188 615.800781 845.277344 614.9375 844.730469 614.121094 C 844.183594 613.300781 843.5625 612.542969 842.867188 611.847656 C 842.171875 611.152344 841.414062 610.53125 840.597656 609.984375 C 839.777344 609.4375 838.914062 608.976562 838.007812 608.601562 C 837.097656 608.222656 836.160156 607.9375 835.195312 607.746094 C 834.230469 607.554688 833.253906 607.457031 832.269531 607.457031 Z M 622.445312 607.457031 " fill-opacity="1" fill-rule="nonzero"/></svg>