<svg xmlns="http://www.w3.org/2000/svg" xmlns:xlink="http://www.w3.org/1999/xlink" width="100" zoomAndPan="magnify" viewBox="0 0 75 74.999997" height="100" preserveAspectRatio="xMidYMid meet" version="1.0"><defs><clipPath id="1c8b735f8d"><path d="M 2.457031 2.457031 L 72.542969 2.457031 L 72.542969 72.542969 L 2.457031 72.542969 Z M 2.457031 2.457031 " clip-rule="nonzero"/></clipPath><clipPath id="5f9d1b7dae"><path d="M 37.5 2.457031 C 18.144531 2.457031 2.457031 18.144531 2.457031 37.5 C 2.457031 56.855469 18.144531 72.542969 37.5 72.542969 C 56.855469 72.542969 72.542969 56.855469 72.542969 37.5 C 72.542969 18.144531 56.855469 2.457031 37.5 2.457031 Z M 37.5 2.457031 " clip-rule="nonzero"/></clipPath><clipPath id="0ea4bf10a1"><path d="M 0.457031 0.457031 L 70.542969 0.457031 L 70.542969 70.542969 L 0.457031 70.542969 Z M 0.457031 0.457031 " clip-rule="nonzero"/></clipPath><clipPath id="d3cfba020c"><path d="M 35.5 0.457031 C 16.144531 0.457031 0.457031 16.144531 0.457031 35.5 C 0.457031 54.855469 16.144531 70.542969 35.5 70.542969 C 54.855469 70.542969 70.542969 54.855469 70.542969 35.5 C 70.542969 16.144531 54.855469 0.457031 35.5 0.457031 Z M 35.5 0.457031 " clip-rule="nonzero"/></clipPath><clipPath id="deea03f558"><rect x="0" width="71" y="0" height="71"/></clipPath><clipPath id="162205d153"><path d="M 2.457031 2.457031 L 72.207031 2.457031 L 72.207031 72.207031 L 2.457031 72.207031 Z M 2.457031 2.457031 " clip-rule="nonzero"/></clipPath><clipPath id="09fc337650"><path d="M 37.496094 2.457031 C 18.144531 2.457031 2.457031 18.144531 2.457031 37.496094 C 2.457031 56.847656 18.144531 72.535156 37.496094 72.535156 C 56.847656 72.535156 72.535156 56.847656 72.535156 37.496094 C 72.535156 18.144531 56.847656 2.457031 37.496094 2.457031 Z M 37.496094 2.457031 " clip-rule="nonzero"/></clipPath><clipPath id="024cd933c7"><path d="M 24 6.175781 L 53 6.175781 L 53 66 L 24 66 Z M 24 6.175781 " clip-rule="nonzero"/></clipPath><clipPath id="1f22431299"><path d="M 23.625 6.175781 L 53.625 6.175781 L 53.625 66.175781 L 23.625 66.175781 Z M 23.625 6.175781 " clip-rule="nonzero"/></clipPath><clipPath id="4ddef15dca"><path d="M 30 6.175781 L 46 6.175781 L 46 18 L 30 18 Z M 30 6.175781 " clip-rule="nonzero"/></clipPath></defs><rect x="-7.5" width="90" fill="#ffffff" y="-7.5" height="89.999996" fill-opacity="1"/><rect x="-7.5" width="90" fill="#ffffff" y="-7.5" height="89.999996" fill-opacity="1"/><g clip-path="url(#1c8b735f8d)"><g clip-path="url(#5f9d1b7dae)"><g transform="matrix(1, 0, 0, 1, 2, 2)"><g clip-path="url(#deea03f558)"><g clip-path="url(#0ea4bf10a1)"><g clip-path="url(#d3cfba020c)"><path fill="#ffdd84" d="M 0.457031 0.457031 L 70.542969 0.457031 L 70.542969 70.542969 L 0.457031 70.542969 Z M 0.457031 0.457031 " fill-opacity="1" fill-rule="nonzero"/></g></g></g></g></g></g><g clip-path="url(#162205d153)"><g clip-path="url(#09fc337650)"><path stroke-linecap="butt" transform="matrix(0.75, 0, 0, 0.75, 2.455987, 2.455985)" fill="none" stroke-linejoin="miter" d="M 46.720146 0.00139543 C 20.91806 0.00139543 0.00139209 20.918064 0.00139209 46.720149 C 0.00139209 72.522235 20.91806 93.438903 46.720146 93.438903 C 72.522231 93.438903 93.4389 72.522235 93.4389 46.720149 C 93.4389 20.918064 72.522231 0.00139543 46.720146 0.00139543 Z M 46.720146 0.00139543 " stroke="#ff65f9" stroke-width="2" stroke-opacity="1" stroke-miterlimit="4"/></g></g><path fill="#ff65f9" d="M 44.027344 13.605469 C 44.207031 12.363281 44.527344 10.175781 44.597656 8.605469 C 44.496094 8.898438 44.390625 9.242188 44.28125 9.640625 C 43.890625 11.089844 43.605469 12.777344 43.492188 14.269531 C 43.65625 14.207031 43.8125 14.148438 43.957031 14.097656 C 43.976562 13.949219 44 13.785156 44.027344 13.605469 Z M 44.027344 13.605469 " fill-opacity="1" fill-rule="nonzero"/><path fill="#ff65f9" d="M 32.394531 14.195312 C 32.183594 12.644531 31.898438 11.054688 31.605469 9.832031 C 31.515625 9.445312 31.425781 9.113281 31.34375 8.824219 C 31.371094 9.996094 31.511719 11.710938 31.890625 14.015625 C 32.046875 14.066406 32.21875 14.128906 32.394531 14.195312 Z M 32.394531 14.195312 " fill-opacity="1" fill-rule="nonzero"/><g clip-path="url(#024cd933c7)"><path fill="#ff65f9" d="M 44.804688 13.71875 C 44.761719 14.003906 44.726562 14.246094 44.699219 14.4375 L 44.667969 14.675781 L 44.441406 14.753906 C 43.109375 15.226562 40.535156 16.253906 38.316406 17.796875 L 38.113281 17.9375 L 37.902344 17.816406 C 34.960938 16.175781 32.660156 15.0625 31.429688 14.6875 L 31.195312 14.617188 L 31.15625 14.378906 C 31.066406 13.839844 30.300781 9.1875 30.628906 7.113281 C 30.585938 7.058594 30.554688 7.035156 30.539062 7.023438 C 30.515625 7.03125 30.484375 7.054688 30.445312 7.113281 C 30.292969 7.328125 30.058594 7.988281 30.183594 9.972656 C 30.28125 11.574219 30.570312 13.371094 30.796875 14.597656 L 30.816406 14.703125 L 30.640625 15.167969 C 30.101562 16.566406 29.671875 17.679688 29.03125 19.1875 C 29.257812 20.171875 29.601562 21.351562 29.960938 22.597656 C 30.433594 24.222656 30.96875 26.0625 31.390625 27.964844 L 31.414062 28.085938 L 31.367188 28.203125 C 30.296875 30.710938 29.242188 34.359375 28.316406 38.761719 C 27.5 42.636719 26.828125 46.878906 26.421875 50.699219 C 26.246094 52.355469 25.871094 54.523438 25.472656 56.816406 C 25.074219 59.125 24.65625 61.511719 24.445312 63.4375 C 25.191406 64.019531 27.035156 63.996094 28.675781 63.972656 C 29 63.964844 29.339844 63.960938 29.660156 63.960938 L 29.898438 63.960938 L 30.007812 64.171875 C 30.28125 64.707031 31.15625 65.128906 32.53125 65.402344 C 33.917969 65.675781 35.363281 65.707031 35.917969 65.707031 C 36.792969 65.707031 37.40625 65.457031 38.113281 65.167969 C 38.921875 64.835938 39.835938 64.460938 41.261719 64.460938 C 41.980469 64.460938 42.730469 64.621094 43.453125 64.777344 C 44.3125 64.957031 45.203125 65.148438 46.074219 65.085938 C 47.050781 65.019531 47.871094 64.660156 48.65625 63.953125 L 48.792969 63.828125 L 48.976562 63.855469 C 50.492188 64.078125 51.816406 63.792969 52.640625 63.410156 C 51.621094 59.433594 50.820312 54.710938 49.976562 49.71875 C 48.644531 41.855469 47.269531 33.726562 44.914062 28.304688 L 44.867188 28.199219 L 44.886719 28.085938 C 45.191406 26.234375 45.640625 24.34375 46.074219 22.515625 C 46.355469 21.328125 46.621094 20.203125 46.839844 19.136719 C 46.699219 18.757812 46.570312 18.421875 46.449219 18.09375 C 46.003906 16.910156 45.652344 15.972656 45.160156 14.4375 L 45.132812 14.351562 L 45.144531 14.261719 C 45.171875 14.101562 45.195312 13.925781 45.226562 13.738281 C 45.394531 12.644531 45.621094 11.144531 45.71875 9.804688 C 45.855469 7.839844 45.628906 7.226562 45.480469 7.035156 C 45.453125 6.996094 45.425781 6.976562 45.410156 6.96875 C 45.386719 6.988281 45.355469 7.015625 45.320312 7.058594 C 45.550781 8.339844 45.175781 11.15625 44.804688 13.71875 Z M 44.804688 13.71875 " fill-opacity="1" fill-rule="nonzero"/></g><g clip-path="url(#1f22431299)"><path fill="#000000" d="M 35.917969 66.488281 C 35.339844 66.488281 33.835938 66.457031 32.382812 66.171875 C 30.898438 65.878906 29.910156 65.398438 29.441406 64.746094 C 29.195312 64.746094 28.9375 64.75 28.6875 64.753906 C 26.691406 64.78125 24.628906 64.8125 23.746094 63.859375 L 23.625 63.726562 L 23.644531 63.550781 C 23.855469 61.566406 24.285156 59.082031 24.703125 56.679688 C 25.097656 54.402344 25.472656 52.246094 25.644531 50.617188 C 26.050781 46.769531 26.726562 42.5 27.550781 38.597656 C 28.472656 34.21875 29.527344 30.558594 30.597656 28.011719 C 30.1875 26.175781 29.667969 24.394531 29.210938 22.816406 C 28.832031 21.507812 28.46875 20.265625 28.242188 19.234375 C 28.226562 19.152344 28.230469 19.070312 28.265625 18.996094 C 28.925781 17.441406 29.359375 16.3125 29.910156 14.882812 L 30.007812 14.628906 C 29.78125 13.386719 29.5 11.613281 29.402344 10.023438 C 29.292969 8.304688 29.425781 7.207031 29.800781 6.664062 C 30.007812 6.371094 30.253906 6.273438 30.425781 6.242188 C 30.566406 6.21875 30.777344 6.226562 31.007812 6.394531 C 31.324219 6.628906 31.8125 7.242188 32.414062 9.832031 C 32.742188 11.257812 33.050781 13.070312 33.261719 14.804688 L 32.484375 14.898438 C 32.269531 13.136719 31.941406 11.242188 31.609375 9.832031 C 31.046875 7.472656 30.625 7.082031 30.539062 7.019531 C 30.515625 7.03125 30.484375 7.054688 30.445312 7.109375 C 30.292969 7.328125 30.058594 7.988281 30.183594 9.972656 C 30.28125 11.574219 30.570312 13.371094 30.796875 14.597656 L 30.816406 14.703125 L 30.640625 15.167969 C 30.101562 16.566406 29.671875 17.679688 29.035156 19.183594 C 29.257812 20.171875 29.601562 21.351562 29.964844 22.597656 C 30.433594 24.222656 30.96875 26.0625 31.390625 27.964844 L 31.417969 28.085938 L 31.367188 28.203125 C 30.300781 30.710938 29.246094 34.359375 28.316406 38.761719 C 27.5 42.636719 26.828125 46.878906 26.421875 50.699219 C 26.25 52.355469 25.871094 54.519531 25.472656 56.816406 C 25.074219 59.125 24.660156 61.511719 24.445312 63.4375 C 25.191406 64.019531 27.035156 63.996094 28.675781 63.972656 C 29 63.964844 29.339844 63.960938 29.660156 63.960938 L 29.898438 63.960938 L 30.007812 64.171875 C 30.285156 64.703125 31.15625 65.128906 32.53125 65.402344 C 33.917969 65.675781 35.363281 65.707031 35.917969 65.707031 C 36.792969 65.707031 37.40625 65.457031 38.113281 65.167969 C 38.921875 64.835938 39.835938 64.460938 41.261719 64.460938 C 41.980469 64.460938 42.730469 64.621094 43.453125 64.777344 C 44.3125 64.957031 45.203125 65.148438 46.078125 65.085938 C 47.050781 65.019531 47.871094 64.660156 48.65625 63.949219 L 48.792969 63.828125 L 48.976562 63.855469 C 50.496094 64.078125 51.816406 63.792969 52.644531 63.410156 C 51.621094 59.433594 50.820312 54.710938 49.976562 49.71875 C 48.644531 41.855469 47.269531 33.726562 44.914062 28.304688 L 44.867188 28.199219 L 44.886719 28.085938 C 45.191406 26.234375 45.640625 24.34375 46.074219 22.515625 C 46.355469 21.328125 46.625 20.203125 46.839844 19.136719 C 46.699219 18.757812 46.574219 18.417969 46.449219 18.089844 C 46.003906 16.910156 45.652344 15.972656 45.160156 14.4375 L 45.132812 14.351562 L 45.148438 14.257812 C 45.171875 14.101562 45.199219 13.925781 45.226562 13.738281 C 45.394531 12.644531 45.625 11.144531 45.71875 9.804688 C 45.855469 7.839844 45.628906 7.226562 45.480469 7.035156 C 45.453125 6.996094 45.429688 6.976562 45.410156 6.96875 C 45.257812 7.082031 44.796875 7.734375 44.28125 9.640625 C 43.839844 11.289062 43.53125 13.246094 43.457031 14.875 L 42.675781 14.839844 C 42.746094 13.222656 43.035156 11.34375 43.464844 9.675781 C 43.71875 8.6875 44.242188 6.941406 44.882812 6.390625 C 45.113281 6.191406 45.320312 6.167969 45.457031 6.183594 C 45.710938 6.207031 45.933594 6.335938 46.101562 6.554688 C 46.496094 7.066406 46.621094 8.113281 46.5 9.859375 C 46.402344 11.230469 46.171875 12.75 46 13.859375 C 45.976562 14.007812 45.957031 14.152344 45.933594 14.285156 C 46.40625 15.753906 46.75 16.664062 47.183594 17.816406 C 47.316406 18.175781 47.457031 18.546875 47.613281 18.96875 C 47.640625 19.035156 47.644531 19.109375 47.628906 19.179688 C 47.40625 20.292969 47.128906 21.460938 46.835938 22.699219 C 46.414062 24.476562 45.980469 26.3125 45.679688 28.097656 C 48.042969 33.605469 49.417969 41.730469 50.746094 49.589844 C 51.613281 54.691406 52.425781 59.511719 53.480469 63.519531 L 53.558594 63.8125 L 53.292969 63.960938 C 52.167969 64.59375 50.589844 64.847656 49.042969 64.65625 C 47.929688 65.597656 46.816406 65.882812 45.738281 65.882812 C 44.890625 65.882812 44.070312 65.707031 43.292969 65.542969 C 42.574219 65.390625 41.898438 65.246094 41.261719 65.246094 C 39.992188 65.246094 39.1875 65.574219 38.410156 65.890625 C 37.691406 66.1875 36.949219 66.488281 35.917969 66.488281 Z M 35.917969 66.488281 " fill-opacity="1" fill-rule="nonzero"/></g><g clip-path="url(#4ddef15dca)"><path fill="#000000" d="M 38.113281 17.9375 L 37.902344 17.816406 C 34.960938 16.175781 32.660156 15.0625 31.429688 14.6875 L 31.195312 14.617188 L 31.15625 14.378906 C 31.0625 13.824219 30.257812 8.917969 30.660156 6.941406 L 31.429688 7.097656 C 31.289062 7.785156 31.230469 10.007812 31.890625 14.015625 C 33.503906 14.558594 36.078125 15.90625 38.070312 17.015625 C 40.195312 15.578125 42.578125 14.597656 43.957031 14.097656 C 43.976562 13.949219 44 13.785156 44.027344 13.605469 C 44.285156 11.839844 44.820312 8.167969 44.519531 7.0625 L 45.277344 6.859375 C 45.589844 8.023438 45.195312 11.011719 44.800781 13.71875 C 44.761719 14.003906 44.726562 14.246094 44.699219 14.4375 L 44.667969 14.675781 L 44.441406 14.753906 C 43.105469 15.226562 40.535156 16.253906 38.316406 17.796875 Z M 38.113281 17.9375 " fill-opacity="1" fill-rule="nonzero"/></g><path fill="#000000" d="M 38.113281 28.8125 C 35.320312 28.8125 32.53125 28.703125 31.0625 28.480469 L 31.15625 27.863281 C 34.046875 28.296875 42.589844 28.285156 45.222656 27.839844 L 45.324219 28.457031 C 43.929688 28.691406 41.023438 28.8125 38.113281 28.8125 Z M 38.113281 28.8125 " fill-opacity="1" fill-rule="nonzero"/><path fill="#000000" d="M 32.632812 36.585938 C 32.503906 36.566406 32.414062 36.445312 32.4375 36.316406 C 32.96875 32.933594 33.410156 30.265625 33.824219 28.273438 L 34.285156 28.371094 C 33.875 30.351562 33.433594 33.011719 32.898438 36.390625 C 32.878906 36.519531 32.757812 36.605469 32.632812 36.585938 Z M 32.632812 36.585938 " fill-opacity="1" fill-rule="nonzero"/><path fill="#000000" d="M 29.894531 64.375 L 29.425781 64.332031 C 30.148438 56.175781 31.144531 48.132812 32.105469 42.75 C 32.128906 42.621094 32.25 42.535156 32.378906 42.558594 C 32.503906 42.582031 32.589844 42.703125 32.566406 42.832031 C 31.609375 48.203125 30.613281 56.226562 29.894531 64.375 Z M 29.894531 64.375 " fill-opacity="1" fill-rule="nonzero"/><path fill="#000000" d="M 27.652344 64.386719 L 27.183594 64.355469 C 27.425781 60.675781 28.84375 51.617188 29.578125 47.644531 C 29.601562 47.519531 29.722656 47.433594 29.851562 47.457031 C 29.976562 47.480469 30.0625 47.605469 30.039062 47.730469 C 29.308594 51.691406 27.894531 60.722656 27.652344 64.386719 Z M 27.652344 64.386719 " fill-opacity="1" fill-rule="nonzero"/><path fill="#000000" d="M 38.941406 65.4375 L 38.472656 65.4375 C 38.472656 61.042969 38.433594 56.839844 38.394531 52.777344 C 38.363281 49.378906 38.332031 46.167969 38.332031 43.269531 C 38.332031 43.140625 38.4375 43.035156 38.566406 43.035156 C 38.699219 43.035156 38.800781 43.140625 38.800781 43.269531 C 38.804688 46.167969 38.832031 49.378906 38.863281 52.773438 C 38.902344 56.835938 38.941406 61.039062 38.941406 65.4375 Z M 38.941406 65.4375 " fill-opacity="1" fill-rule="nonzero"/><path fill="#000000" d="M 43.421875 57.570312 C 43.082031 54.855469 42.804688 52.132812 42.535156 49.5 C 42.285156 47.023438 42.046875 44.679688 41.761719 42.40625 C 41.746094 42.277344 41.835938 42.160156 41.964844 42.144531 C 42.09375 42.128906 42.214844 42.21875 42.230469 42.347656 C 42.511719 44.625 42.75 46.972656 43.003906 49.449219 C 43.269531 52.082031 43.546875 54.800781 43.890625 57.511719 Z M 43.421875 57.570312 " fill-opacity="1" fill-rule="nonzero"/><path fill="#000000" d="M 44.523438 39.296875 C 44.394531 39.316406 44.273438 39.226562 44.253906 39.097656 C 44.121094 38.1875 44.003906 37.359375 43.890625 36.554688 C 43.496094 33.78125 43.183594 31.59375 42.558594 28.542969 L 43.019531 28.449219 C 43.648438 31.511719 43.960938 33.707031 44.355469 36.488281 C 44.46875 37.289062 44.585938 38.117188 44.71875 39.03125 C 44.738281 39.160156 44.648438 39.277344 44.523438 39.296875 Z M 44.523438 39.296875 " fill-opacity="1" fill-rule="nonzero"/><path fill="#000000" d="M 48.6875 64.285156 C 48.027344 60.796875 46.40625 52.144531 45.535156 46.429688 C 45.515625 46.304688 45.605469 46.183594 45.730469 46.164062 C 45.859375 46.144531 45.980469 46.230469 46 46.359375 C 46.867188 52.066406 48.488281 60.710938 49.148438 64.199219 Z M 48.6875 64.285156 " fill-opacity="1" fill-rule="nonzero"/><path fill="#000000" d="M 32.996094 28.414062 C 32.898438 27.878906 32.796875 27.339844 32.695312 26.820312 C 32.609375 26.390625 32.523438 25.949219 32.441406 25.515625 C 32.417969 25.386719 32.503906 25.261719 32.632812 25.242188 C 32.757812 25.21875 32.882812 25.300781 32.90625 25.429688 C 32.984375 25.863281 33.070312 26.304688 33.15625 26.730469 C 33.257812 27.253906 33.363281 27.789062 33.460938 28.328125 Z M 32.996094 28.414062 " fill-opacity="1" fill-rule="nonzero"/><path fill="#000000" d="M 43.476562 28.410156 L 43.011719 28.328125 C 43.144531 27.578125 43.449219 26.15625 43.664062 25.238281 C 43.691406 25.113281 43.820312 25.03125 43.945312 25.0625 C 44.074219 25.09375 44.148438 25.21875 44.121094 25.34375 C 43.910156 26.253906 43.609375 27.664062 43.476562 28.410156 Z M 43.476562 28.410156 " fill-opacity="1" fill-rule="nonzero"/><path fill="#000000" d="M 35.582031 28.519531 C 35.453125 27.871094 35.359375 27.355469 35.257812 26.804688 C 35.152344 26.210938 35.039062 25.601562 34.867188 24.746094 C 34.839844 24.617188 34.921875 24.492188 35.050781 24.46875 C 35.175781 24.441406 35.300781 24.523438 35.328125 24.652344 C 35.5 25.511719 35.613281 26.125 35.71875 26.722656 C 35.820312 27.269531 35.914062 27.785156 36.042969 28.425781 Z M 35.582031 28.519531 " fill-opacity="1" fill-rule="nonzero"/><path fill="#000000" d="M 41.027344 28.417969 L 40.558594 28.378906 C 40.59375 27.9375 40.664062 27.402344 40.730469 26.886719 C 40.746094 26.753906 40.761719 26.625 40.777344 26.496094 C 40.792969 26.367188 40.910156 26.277344 41.039062 26.292969 C 41.167969 26.308594 41.261719 26.425781 41.246094 26.554688 C 41.230469 26.683594 41.210938 26.8125 41.195312 26.949219 C 41.128906 27.457031 41.0625 27.988281 41.027344 28.417969 Z M 41.027344 28.417969 " fill-opacity="1" fill-rule="nonzero"/><path fill="#000000" d="M 38.980469 28.648438 L 38.515625 28.601562 C 38.585938 27.917969 38.640625 27.335938 38.691406 26.773438 C 38.738281 26.277344 38.78125 25.804688 38.835938 25.273438 C 38.847656 25.140625 38.964844 25.046875 39.09375 25.0625 C 39.222656 25.074219 39.316406 25.191406 39.304688 25.320312 C 39.25 25.851562 39.207031 26.320312 39.160156 26.8125 C 39.109375 27.378906 39.054688 27.964844 38.980469 28.648438 Z M 38.980469 28.648438 " fill-opacity="1" fill-rule="nonzero"/></svg>