<svg xmlns="http://www.w3.org/2000/svg" xmlns:xlink="http://www.w3.org/1999/xlink" width="1500" zoomAndPan="magnify" viewBox="0 0 810 809.99995" height="1500" preserveAspectRatio="xMidYMid meet" version="1.0"><defs><clipPath id="8a21d1e8d3"><path d="M 36.839844 36.839844 L 810 36.839844 L 810 810 L 36.839844 810 Z M 36.839844 36.839844 " clip-rule="nonzero"/></clipPath><clipPath id="1dc5751d94"><path d="M 562.5 36.839844 C 272.1875 36.839844 36.839844 272.1875 36.839844 562.5 C 36.839844 852.8125 272.1875 1088.160156 562.5 1088.160156 C 852.8125 1088.160156 1088.160156 852.8125 1088.160156 562.5 C 1088.160156 272.1875 852.8125 36.839844 562.5 36.839844 Z M 562.5 36.839844 " clip-rule="nonzero"/></clipPath><clipPath id="2be66d913d"><path d="M 0.839844 0.839844 L 774 0.839844 L 774 774 L 0.839844 774 Z M 0.839844 0.839844 " clip-rule="nonzero"/></clipPath><clipPath id="3255385af6"><path d="M 526.5 0.839844 C 236.1875 0.839844 0.839844 236.1875 0.839844 526.5 C 0.839844 816.8125 236.1875 1052.160156 526.5 1052.160156 C 816.8125 1052.160156 1052.160156 816.8125 1052.160156 526.5 C 1052.160156 236.1875 816.8125 0.839844 526.5 0.839844 Z M 526.5 0.839844 " clip-rule="nonzero"/></clipPath><clipPath id="36a8a4cdf5"><rect x="0" width="774" y="0" height="774"/></clipPath><clipPath id="53a7c8b8cc"><path d="M 36.839844 36.839844 L 810 36.839844 L 810 810 L 36.839844 810 Z M 36.839844 36.839844 " clip-rule="nonzero"/></clipPath><clipPath id="1bd8fc7a4e"><path d="M 562.496094 36.839844 C 272.183594 36.839844 36.839844 272.183594 36.839844 562.496094 C 36.839844 852.808594 272.183594 1088.152344 562.496094 1088.152344 C 852.808594 1088.152344 1088.152344 852.808594 1088.152344 562.496094 C 1088.152344 272.183594 852.808594 36.839844 562.496094 36.839844 Z M 562.496094 36.839844 " clip-rule="nonzero"/></clipPath><clipPath id="d7548045b9"><path d="M 354.375 92.644531 L 803.625 92.644531 L 803.625 810 L 354.375 810 Z M 354.375 92.644531 " clip-rule="nonzero"/></clipPath></defs><rect x="-81" width="972" fill="#ffffff" y="-80.999995" height="971.99994" fill-opacity="1"/><rect x="-81" width="972" fill="#ffffff" y="-80.999995" height="971.99994" fill-opacity="1"/><g clip-path="url(#8a21d1e8d3)"><g clip-path="url(#1dc5751d94)"><g transform="matrix(1, 0, 0, 1, 36, 36)"><g clip-path="url(#36a8a4cdf5)"><g clip-path="url(#2be66d913d)"><g clip-path="url(#3255385af6)"><path fill="#2a2a37" d="M 0.839844 0.839844 L 1052.160156 0.839844 L 1052.160156 1052.160156 L 0.839844 1052.160156 Z M 0.839844 0.839844 " fill-opacity="1" fill-rule="nonzero"/></g></g></g></g></g></g><g clip-path="url(#53a7c8b8cc)"><g clip-path="url(#1bd8fc7a4e)"><path stroke-linecap="butt" transform="matrix(0.75, 0, 0, 0.75, 36.839809, 36.839742)" fill="none" stroke-linejoin="miter" d="M 700.875119 0.000136052 C 313.791746 0.000136052 0.0000466121 313.791835 0.0000466121 700.875209 C 0.0000466121 1087.958582 313.791746 1401.750281 700.875119 1401.750281 C 1087.958492 1401.750281 1401.750192 1087.958582 1401.750192 700.875209 C 1401.750192 313.791835 1087.958492 0.000136052 700.875119 0.000136052 Z M 700.875119 0.000136052 " stroke="#f4d584" stroke-width="44" stroke-opacity="1" stroke-miterlimit="4"/></g></g><path fill="#f4d584" d="M 660.492188 204.0625 C 663.203125 185.421875 667.980469 152.613281 669.007812 129.023438 C 667.503906 133.457031 665.929688 138.613281 664.3125 144.589844 C 658.453125 166.3125 654.171875 191.613281 652.480469 214.003906 C 654.941406 213.066406 657.273438 212.199219 659.425781 211.414062 C 659.738281 209.226562 660.101562 206.761719 660.492188 204.0625 Z M 660.492188 204.0625 " fill-opacity="1" fill-rule="nonzero"/><path fill="#f4d584" d="M 485.957031 212.921875 C 482.8125 189.640625 478.53125 165.800781 474.160156 147.441406 C 472.78125 141.652344 471.460938 136.65625 470.207031 132.339844 C 470.59375 149.917969 472.722656 175.628906 478.394531 210.175781 C 480.78125 210.980469 483.308594 211.902344 485.957031 212.921875 Z M 485.957031 212.921875 " fill-opacity="1" fill-rule="nonzero"/><path fill="#f4d584" d="M 672.117188 205.757812 C 671.5 210 670.964844 213.660156 670.570312 216.550781 L 670.085938 220.09375 L 666.714844 221.289062 C 646.6875 228.390625 608.109375 243.753906 574.796875 266.929688 L 571.78125 269.03125 L 568.578125 267.242188 C 524.460938 242.585938 489.972656 225.917969 471.480469 220.304688 L 467.992188 219.246094 L 467.390625 215.65625 C 466.03125 207.589844 454.589844 137.773438 459.507812 106.632812 C 458.855469 105.839844 458.390625 105.453125 458.121094 105.277344 C 457.804688 105.421875 457.324219 105.761719 456.722656 106.625 C 454.457031 109.882812 450.933594 119.796875 452.78125 149.570312 C 454.269531 173.5625 458.621094 200.519531 462.011719 218.910156 L 462.3125 220.539062 L 459.644531 227.464844 C 451.5625 248.476562 445.132812 265.179688 435.546875 287.761719 C 438.910156 302.550781 444.054688 320.257812 449.488281 338.964844 C 456.566406 363.316406 464.585938 390.914062 470.882812 419.449219 L 471.289062 421.285156 L 470.550781 423.019531 C 454.527344 460.632812 438.703125 515.414062 424.789062 581.425781 C 412.539062 639.566406 402.449219 703.175781 396.386719 760.53125 C 393.761719 785.359375 388.121094 817.855469 382.148438 852.253906 C 376.132812 886.914062 369.914062 922.71875 366.707031 951.621094 C 377.914062 960.351562 405.589844 959.960938 430.179688 959.609375 C 435.066406 959.539062 440.121094 959.46875 444.9375 959.46875 L 448.503906 959.46875 L 450.148438 962.632812 C 454.292969 970.625 467.398438 977.003906 488.035156 981.085938 C 508.832031 985.199219 530.492188 985.644531 538.839844 985.644531 C 551.96875 985.644531 561.128906 981.894531 571.738281 977.558594 C 583.867188 972.601562 597.609375 966.980469 618.988281 966.980469 C 629.78125 966.980469 641.019531 969.371094 651.882812 971.6875 C 664.765625 974.429688 678.09375 977.265625 691.214844 976.355469 C 705.824219 975.347656 718.128906 969.929688 729.9375 959.316406 L 731.992188 957.46875 L 734.726562 957.871094 C 757.488281 961.242188 777.308594 956.949219 789.722656 951.21875 C 774.375 891.539062 762.382812 820.707031 749.707031 745.828125 C 729.742188 627.867188 709.09375 505.894531 673.785156 424.5625 L 673.09375 422.972656 L 673.375 421.261719 C 677.960938 393.5 684.679688 365.152344 691.179688 337.734375 C 695.410156 319.894531 699.414062 303.007812 702.664062 287.007812 C 700.566406 281.355469 698.652344 276.273438 696.800781 271.351562 C 690.113281 253.597656 684.832031 239.574219 677.480469 216.523438 L 677.066406 215.21875 L 677.269531 213.867188 C 677.628906 211.464844 678.027344 208.851562 678.457031 206.066406 C 680.976562 189.625 684.417969 167.105469 685.835938 147.019531 C 687.917969 117.546875 684.515625 108.335938 682.292969 105.46875 C 681.847656 104.890625 681.484375 104.628906 681.210938 104.5 C 680.867188 104.753906 680.421875 105.183594 679.890625 105.828125 C 683.320312 125.046875 677.71875 167.277344 672.117188 205.757812 Z M 672.117188 205.757812 " fill-opacity="1" fill-rule="nonzero"/><g clip-path="url(#d7548045b9)"><path fill="#000000" d="M 538.851562 997.390625 C 530.15625 997.390625 507.578125 996.921875 485.769531 992.609375 C 463.503906 988.203125 448.699219 981.019531 441.691406 971.222656 C 437.953125 971.246094 434.109375 971.300781 430.359375 971.351562 C 400.441406 971.777344 369.503906 972.214844 356.253906 957.910156 L 354.4375 955.953125 L 354.71875 953.300781 C 357.867188 923.523438 364.332031 886.269531 370.585938 850.242188 C 376.523438 816.035156 382.128906 783.730469 384.714844 759.292969 C 390.820312 701.546875 400.972656 637.519531 413.308594 578.996094 C 427.167969 513.25 442.957031 458.394531 459.023438 420.152344 C 452.867188 392.632812 445.09375 365.898438 438.222656 342.238281 C 432.507812 322.570312 427.109375 303.988281 423.679688 288.464844 C 423.417969 287.269531 423.53125 286.023438 424.015625 284.894531 C 433.933594 261.613281 440.445312 244.679688 448.699219 223.238281 L 450.175781 219.398438 C 446.773438 200.75 442.546875 174.160156 441.066406 150.296875 C 439.464844 124.519531 441.4375 108.039062 447.085938 99.910156 C 450.148438 95.507812 453.871094 94.042969 456.457031 93.59375 C 458.535156 93.230469 461.742188 93.328125 465.183594 95.886719 C 469.910156 99.394531 477.230469 108.558594 486.238281 147.453125 C 491.1875 168.855469 495.832031 196.042969 498.972656 222.042969 L 487.308594 223.453125 C 484.113281 196.996094 479.199219 168.585938 474.164062 147.449219 C 465.742188 112.066406 459.445312 106.160156 458.132812 105.273438 C 457.8125 105.414062 457.332031 105.757812 456.730469 106.621094 C 454.464844 109.878906 450.941406 119.792969 452.789062 149.566406 C 454.28125 173.558594 458.632812 200.515625 462.023438 218.902344 L 462.324219 220.53125 L 459.65625 227.460938 C 451.570312 248.46875 445.140625 265.175781 435.554688 287.753906 C 438.917969 302.546875 444.066406 320.253906 449.5 338.957031 C 456.574219 363.3125 464.59375 390.910156 470.894531 419.441406 L 471.296875 421.28125 L 470.5625 423.015625 C 454.535156 460.628906 438.714844 515.40625 424.800781 581.421875 C 412.546875 639.5625 402.457031 703.171875 396.394531 760.527344 C 393.773438 785.355469 388.128906 817.851562 382.15625 852.25 C 376.144531 886.910156 369.925781 922.714844 366.714844 951.613281 C 377.925781 960.347656 405.601562 959.957031 430.191406 959.605469 C 435.074219 959.535156 440.132812 959.460938 444.945312 959.460938 L 448.511719 959.460938 L 450.15625 962.628906 C 454.304688 970.621094 467.410156 977 488.046875 981.082031 C 508.839844 985.195312 530.503906 985.636719 538.851562 985.636719 C 551.976562 985.636719 561.140625 981.890625 571.75 977.550781 C 583.878906 972.59375 597.621094 966.976562 618.996094 966.976562 C 629.792969 966.976562 641.023438 969.367188 651.890625 971.679688 C 664.777344 974.425781 678.105469 977.261719 691.222656 976.351562 C 705.832031 975.34375 718.136719 969.925781 729.945312 959.308594 L 732.003906 957.460938 L 734.738281 957.867188 C 757.5 961.238281 777.316406 956.941406 789.730469 951.214844 C 774.382812 891.535156 762.394531 820.703125 749.71875 745.824219 C 729.75 627.863281 709.097656 505.890625 673.796875 424.558594 L 673.105469 422.96875 L 673.386719 421.257812 C 677.972656 393.496094 684.691406 365.148438 691.191406 337.730469 C 695.417969 319.886719 699.421875 303.003906 702.675781 287.003906 C 700.574219 281.351562 698.660156 276.269531 696.808594 271.347656 C 690.125 253.59375 684.84375 239.570312 677.492188 216.519531 L 677.074219 215.214844 L 677.28125 213.859375 C 677.636719 211.460938 678.039062 208.847656 678.464844 206.0625 C 680.984375 189.617188 684.429688 167.101562 685.847656 147.015625 C 687.929688 117.542969 684.523438 108.328125 682.304688 105.464844 C 681.855469 104.886719 681.496094 104.625 681.21875 104.496094 C 678.917969 106.175781 672.039062 115.980469 664.320312 144.585938 C 657.648438 169.304688 653.023438 198.648438 651.9375 223.078125 L 640.199219 222.5625 C 641.277344 198.324219 645.585938 170.089844 652.035156 145.101562 C 655.867188 130.242188 663.730469 104.082031 673.34375 95.785156 C 676.753906 92.84375 679.898438 92.480469 681.941406 92.691406 C 685.742188 93.085938 689.085938 95.015625 691.605469 98.277344 C 697.523438 105.933594 699.417969 121.683594 697.570312 147.84375 C 696.117188 168.40625 692.628906 191.199219 690.082031 207.84375 C 689.734375 210.097656 689.40625 212.242188 689.105469 214.25 C 696.152344 236.25 701.3125 249.949219 707.808594 267.207031 C 709.835938 272.597656 711.9375 278.167969 714.28125 284.488281 C 714.660156 285.511719 714.746094 286.617188 714.53125 287.6875 C 711.179688 304.363281 707.027344 321.894531 702.628906 340.445312 C 696.308594 367.101562 689.777344 394.652344 685.265625 421.476562 C 720.71875 504.097656 741.347656 625.972656 761.304688 743.863281 C 774.261719 820.402344 786.496094 892.695312 802.289062 952.816406 L 803.441406 957.207031 L 799.484375 959.429688 C 782.578125 968.925781 758.925781 972.765625 735.730469 969.863281 C 719.039062 984.039062 702.300781 988.285156 686.15625 988.285156 C 673.453125 988.285156 661.121094 985.65625 649.453125 983.175781 C 638.710938 980.890625 628.5625 978.730469 619.003906 978.730469 C 599.9375 978.730469 587.871094 983.660156 576.207031 988.433594 C 565.425781 992.835938 554.289062 997.390625 538.851562 997.390625 Z M 538.851562 997.390625 " fill-opacity="1" fill-rule="nonzero"/></g><path fill="#000000" d="M 571.78125 269.027344 L 568.578125 267.238281 C 524.460938 242.578125 489.972656 225.914062 471.480469 220.300781 L 467.992188 219.242188 L 467.390625 215.652344 C 465.992188 207.351562 453.921875 133.722656 459.96875 104.054688 L 471.484375 106.402344 C 469.375 116.742188 468.527344 150.105469 478.390625 210.175781 C 502.632812 218.324219 541.246094 238.589844 571.121094 255.203125 C 603.023438 233.628906 638.746094 218.933594 659.425781 211.417969 C 659.738281 209.226562 660.09375 206.761719 660.492188 204.0625 C 664.34375 177.582031 672.367188 122.476562 667.886719 105.878906 L 679.226562 102.816406 C 683.945312 120.296875 678.027344 165.117188 672.113281 205.757812 C 671.496094 210 670.960938 213.660156 670.566406 216.550781 L 670.082031 220.09375 L 666.710938 221.289062 C 646.679688 228.390625 608.101562 243.753906 574.792969 266.929688 Z M 571.78125 269.027344 " fill-opacity="1" fill-rule="nonzero"/><path fill="#000000" d="M 571.746094 432.175781 C 529.894531 432.175781 488.011719 430.535156 466.011719 427.214844 L 467.417969 417.917969 C 510.730469 424.453125 638.894531 424.246094 678.40625 417.582031 L 679.964844 426.851562 C 659.007812 430.386719 615.390625 432.175781 571.746094 432.175781 Z M 571.746094 432.175781 " fill-opacity="1" fill-rule="nonzero"/><path fill="#000000" d="M 489.523438 548.804688 C 487.597656 548.5 486.285156 546.691406 486.589844 544.769531 C 494.59375 493.984375 501.226562 453.953125 507.425781 424.105469 L 514.332031 425.539062 C 508.160156 455.253906 501.539062 495.183594 493.554688 545.871094 C 493.25 547.792969 491.445312 549.109375 489.523438 548.804688 Z M 489.523438 548.804688 " fill-opacity="1" fill-rule="nonzero"/><path fill="#000000" d="M 448.457031 965.652344 L 441.433594 965.027344 C 452.265625 842.640625 467.246094 722.023438 481.617188 641.257812 C 481.960938 639.339844 483.792969 638.0625 485.710938 638.410156 C 487.625 638.753906 488.898438 640.582031 488.554688 642.492188 C 474.222656 723.0625 459.273438 843.453125 448.457031 965.652344 Z M 448.457031 965.652344 " fill-opacity="1" fill-rule="nonzero"/><path fill="#000000" d="M 414.855469 965.839844 L 407.824219 965.375 C 411.453125 910.164062 432.71875 774.285156 443.703125 714.714844 C 444.054688 712.796875 445.898438 711.535156 447.816406 711.890625 C 449.726562 712.246094 450.988281 714.082031 450.636719 715.992188 C 439.679688 775.402344 418.472656 910.882812 414.855469 965.839844 Z M 414.855469 965.839844 " fill-opacity="1" fill-rule="nonzero"/><path fill="#000000" d="M 584.191406 981.609375 L 577.140625 981.609375 C 577.140625 915.671875 576.558594 852.636719 575.992188 791.679688 C 575.519531 740.734375 575.074219 692.542969 575.054688 649.042969 C 575.054688 647.097656 576.628906 645.519531 578.578125 645.519531 C 580.523438 645.519531 582.101562 647.097656 582.101562 649.042969 C 582.125 692.511719 582.566406 740.683594 583.039062 791.613281 C 583.605469 852.589844 584.191406 915.640625 584.191406 981.609375 Z M 584.191406 981.609375 " fill-opacity="1" fill-rule="nonzero"/><path fill="#000000" d="M 651.410156 863.574219 C 646.277344 822.863281 642.121094 782.007812 638.105469 742.496094 C 634.328125 705.347656 630.753906 670.191406 626.511719 636.109375 C 626.273438 634.183594 627.632812 632.425781 629.566406 632.175781 C 631.5 631.933594 633.265625 633.300781 633.511719 635.234375 C 637.761719 669.390625 641.339844 704.585938 645.125 741.777344 C 649.136719 781.246094 653.289062 822.066406 658.410156 862.6875 Z M 651.410156 863.574219 " fill-opacity="1" fill-rule="nonzero"/><path fill="#000000" d="M 667.90625 589.472656 C 665.976562 589.757812 664.1875 588.421875 663.898438 586.496094 C 661.886719 572.789062 660.117188 560.363281 658.410156 548.320312 C 652.503906 506.738281 647.84375 473.886719 638.460938 428.144531 L 645.367188 426.730469 C 654.789062 472.683594 659.464844 505.628906 665.386719 547.332031 C 667.09375 559.363281 668.855469 571.777344 670.871094 585.472656 C 671.15625 587.394531 669.828125 589.1875 667.90625 589.472656 Z M 667.90625 589.472656 " fill-opacity="1" fill-rule="nonzero"/><path fill="#000000" d="M 730.410156 964.339844 C 720.460938 911.996094 696.140625 782.199219 683.101562 696.484375 C 682.804688 694.558594 684.132812 692.761719 686.0625 692.472656 C 687.984375 692.179688 689.78125 693.5 690.070312 695.425781 C 703.09375 781.019531 727.394531 910.71875 737.335938 963.019531 Z M 730.410156 964.339844 " fill-opacity="1" fill-rule="nonzero"/><path fill="#000000" d="M 495.011719 426.175781 C 493.550781 418.152344 491.980469 410.101562 490.460938 402.308594 C 489.203125 395.863281 487.90625 389.230469 486.695312 382.699219 C 486.335938 380.78125 487.609375 378.933594 489.527344 378.585938 C 491.4375 378.238281 493.269531 379.5 493.621094 381.40625 C 494.828125 387.90625 496.121094 394.53125 497.378906 400.960938 C 498.902344 408.773438 500.480469 416.847656 501.945312 424.917969 Z M 495.011719 426.175781 " fill-opacity="1" fill-rule="nonzero"/><path fill="#000000" d="M 652.214844 426.15625 L 645.273438 424.933594 C 647.265625 413.628906 651.820312 392.316406 655.019531 378.558594 C 655.460938 376.652344 657.371094 375.476562 659.273438 375.929688 C 661.15625 376.382812 662.324219 378.269531 661.886719 380.15625 C 658.710938 393.808594 654.191406 414.957031 652.214844 426.15625 Z M 652.214844 426.15625 " fill-opacity="1" fill-rule="nonzero"/><path fill="#000000" d="M 533.8125 427.765625 C 531.832031 418.078125 530.421875 410.300781 528.929688 402.0625 C 527.316406 393.164062 525.65625 383.980469 523.0625 371.152344 C 522.679688 369.25 523.90625 367.390625 525.8125 367 C 527.722656 366.609375 529.589844 367.847656 529.972656 369.761719 C 532.578125 382.65625 534.246094 391.871094 535.867188 400.808594 C 537.355469 409.003906 538.753906 416.746094 540.722656 426.355469 Z M 533.8125 427.765625 " fill-opacity="1" fill-rule="nonzero"/><path fill="#000000" d="M 615.480469 426.230469 L 608.453125 425.664062 C 608.988281 419.050781 610.011719 411.046875 611 403.304688 C 611.257812 401.285156 611.511719 399.339844 611.75 397.4375 C 611.992188 395.515625 613.742188 394.148438 615.667969 394.382812 C 617.605469 394.613281 618.988281 396.382812 618.742188 398.320312 C 618.503906 400.222656 618.253906 402.175781 617.996094 404.199219 C 617.015625 411.863281 616 419.785156 615.480469 426.230469 Z M 615.480469 426.230469 " fill-opacity="1" fill-rule="nonzero"/><path fill="#000000" d="M 584.796875 429.738281 L 577.789062 428.984375 C 578.882812 418.742188 579.675781 410.011719 580.449219 401.5625 C 581.125 394.128906 581.773438 387.058594 582.601562 379.0625 C 582.800781 377.121094 584.539062 375.710938 586.480469 375.921875 C 588.410156 376.125 589.816406 377.851562 589.617188 379.785156 C 588.792969 387.742188 588.148438 394.792969 587.472656 402.199219 C 586.695312 410.679688 585.898438 419.441406 584.796875 429.738281 Z M 584.796875 429.738281 " fill-opacity="1" fill-rule="nonzero"/></svg>